<?xml version="1.0" encoding="UTF-8"?>
<svg id="Layer_2" data-name="Layer 2" xmlns="http://www.w3.org/2000/svg" xmlns:xlink="http://www.w3.org/1999/xlink" viewBox="0 0 314.09 386.63">
  <defs>
    <style>
      .cls-1 {
        fill: url(#linear-gradient);
      }

      .cls-1, .cls-2, .cls-3, .cls-4, .cls-5, .cls-6, .cls-7, .cls-8, .cls-9, .cls-10, .cls-11, .cls-12, .cls-13, .cls-14, .cls-15, .cls-16, .cls-17, .cls-18, .cls-19, .cls-20, .cls-21, .cls-22, .cls-23, .cls-24, .cls-25, .cls-26, .cls-27, .cls-28, .cls-29, .cls-30, .cls-31, .cls-32, .cls-33, .cls-34, .cls-35, .cls-36, .cls-37, .cls-38, .cls-39, .cls-40, .cls-41 {
        stroke-width: 0px;
      }

      .cls-2 {
        fill: #f3f9fe;
      }

      .cls-3 {
        fill: #f7edbb;
      }

      .cls-4 {
        fill: #f9fee8;
      }

      .cls-5 {
        fill: #f8dd84;
      }

      .cls-6 {
        fill: #4c3711;
      }

      .cls-7 {
        fill: #5cbea8;
      }

      .cls-8 {
        fill: #5ca297;
      }

      .cls-9 {
        fill: #5ca565;
      }

      .cls-10 {
        fill: #774526;
      }

      .cls-11 {
        fill: #7a9f56;
      }

      .cls-12 {
        fill: #653717;
      }

      .cls-13 {
        fill: #634014;
      }

      .cls-14 {
        fill: #628716;
      }

      .cls-15 {
        fill: #6ec39c;
      }

      .cls-16 {
        fill: #9a8e7b;
      }

      .cls-17 {
        fill: #527511;
      }

      .cls-18 {
        fill: #958166;
      }

      .cls-19 {
        fill: #30500f;
      }

      .cls-20 {
        fill: #2e2928;
      }

      .cls-21 {
        fill: #84532c;
      }

      .cls-22 {
        fill: #436710;
      }

      .cls-23 {
        fill: #0f251d;
      }

      .cls-24 {
        fill: #15512b;
      }

      .cls-25 {
        fill: #075e6a;
      }

      .cls-26 {
        fill: #10663f;
      }

      .cls-27 {
        fill: #117a58;
      }

      .cls-28 {
        fill: #254012;
      }

      .cls-29 {
        fill: #c3e3b2;
      }

      .cls-30 {
        fill: #d3e4a5;
      }

      .cls-31 {
        fill: #c0e4cb;
      }

      .cls-32 {
        fill: #aadbb2;
      }

      .cls-33 {
        fill: #a7ca49;
      }

      .cls-34 {
        fill: #90b42d;
      }

      .cls-35 {
        fill: #7fa223;
      }

      .cls-36 {
        fill: #93603c;
      }

      .cls-37 {
        fill: #7cd3b8;
      }

      .cls-38 {
        fill: #f1f7f1;
      }

      .cls-39 {
        fill: #e78c6d;
      }

      .cls-40 {
        fill: #f79584;
      }

      .cls-41 {
        fill: #018594;
      }
    </style>
    <linearGradient id="linear-gradient" x1="202.26" y1="93.84" x2="246.91" y2="100.71" gradientUnits="userSpaceOnUse">
      <stop offset="0" stop-color="#4c6d10"/>
      <stop offset="1" stop-color="#608418"/>
    </linearGradient>
  </defs>
  <g id="Layer_1-2" data-name="Layer 1">
    <g>
      <g>
        <path class="cls-19" d="M59.49,279.84c-.39.7-.56.69.21,1.27,3.89,2.92,20.41,7.49,26.17,9.71,6.1,2.35,23.7,10.69,28.28,11.4.83.13,1.69.18,1.48-.84.49.62,1.36,1.45,1.9,2.11,10.61-6.18,18.62-3.49,28.07,2.95.34.47.96.8,1.27,1.27-1.98,1.57.26,3.81-1.06,5.49-.21.27-5.38,3.2-5.91,3.38-8.37,2.84-14.34.34-21.53-3.8-2.03-6.77-16.25-.47-12.24-4.64.35-.37,11.49-3.31,6.75-3.8-.98-.1-8.18,4.13-18.99,5.07-3.06.26-17.59.76-16.88-1.69-3.55.65-6.77.57-10.34.42-.32-4.95,4.15-4.6,3.38-6.96-13.94-4.68,4.76-9.37-8.02-6.54-13.09-1.27-7.86-3.85-8.02-4.43-.13-.47-6.59-1.77-6.75-3.38-.13-1.25,2.89-1.17,0-2.32,7.05.27,14.04.77,8.86-5.07.91.22,2.35.11,3.38.42Z"/>
        <path class="cls-17" d="M115.63,301.36c.21,1.03-.65.97-1.48.84-4.58-.71-22.18-9.05-28.28-11.4-5.76-2.22-22.28-6.79-26.17-9.71-.77-.58-.6-.56-.21-1.27,9.25,2.86,15.92,10.07,13.09-5.07,5.5,2.4,2.63,3.29,3.17-2.11,9.5-1.1,22.88,19.21,16.67,8.23-.24-1.23.74-2.93,1.9-3.17,7.62-1.57,17.37,18.61,21.32,23.64Z"/>
        <path class="cls-14" d="M72.58,274.77c2.84,15.14-3.83,7.93-13.09,5.07-1.02-.32-2.47-.2-3.38-.42-.43-.1-.48,1.05-1.69-.21-.45-.47-1.84-3.68-.84-4.43,1.19.07,3.76.62,4.85,1.27l.42-2.95c5.78-.14,7.6,2.64,8.02,2.53,1-.25-3.52-4.86,5.7-.84Z"/>
        <path class="cls-35" d="M53.58,274.77c-1,.75.39,3.96.84,4.43,1.21,1.26,1.26.11,1.69.21,5.18,5.83-1.81,5.33-8.86,5.07-1.97-.08-5.33.38-6.96-.42-4.54-2.23-.13-10.02,9.29-6.33,1.15-2.1-2.34-3.32,4.01-2.95Z"/>
        <path class="cls-17" d="M66.67,308.12c-13.48-.58-14.66-4.35-4.64-13.51,12.78-2.83-5.92,1.86,8.02,6.54.77,2.37-3.69,2.02-3.38,6.96Z"/>
      </g>
      <path class="cls-19" d="M194.14,284.48c-5.5,2.71-11.37,7.17-17.52,7.6-1.75,1.39-1.38,2.03-1.48,2.11-2.29-1.81-3.19.48-5.49-.42h-.42c1.3-2.3,2.85-4.48,3.8-6.96.85-1.19,1.35-.1,2.53.21,1.78.48,1.75,2.95,9.08-1.69,1.06-.67,5.38-5.11,5.91-5.07,1.35.11.57,3.3,3.59,4.22Z"/>
      <path class="cls-28" d="M175.15,294.19c-1.89,1.65-5.64,5.97-7.6,5.91.13-.81.33-.92.42-1.27.42-1.53,2.16-2.99,1.69-5.07,2.3.9,3.2-1.39,5.49.42Z"/>
      <g>
        <path class="cls-24" d="M76.38,230.45c-2.27,4.33-.51,9.84,5.07,8.02.02.14-.02.29,0,.42.15.87-2.74,5.22,4.64,6.96-1.53,3.85,4.13,7.31,7.39,4.85.81.74-2.09,8.42,9.08,13.51-9.98,9.05-50.34,2.24-57.2-3.38-7.37-6.04,11.24-3.61,12.87-5.7.05-1.24-8.08,1.6-18.78-7.81-4.01-3.53-13.1-12.35-3.59-14.14-15.41-7.16-8.21-8.51-8.02-9.29.16-.67-8.35-5.53-2.53-9.71-9.09-1.28-17.5-17.3-9.29-15.41,4.94,4.56,11.24,5.21,17.52,6.75,1.11.12,1.09-.04,1.06-1.06-.06-1.78-17.11-26.15-19.42-29.76.09-.1-1.4-1.61,1.06-1.69,1.11.94,4.69,3.39,5.7,3.8-2.36.55,8.38,5.23,12.45,7.6,3.02,1.76,5.82,4.15,8.86,5.91.64-.33-3.94-12.65-4.43-13.72-1.54-3.34-7.14-9.12-2.32-6.96,7.44,3.32,11.3,25.76,12.87,29.34,2.14,4.85,11.35,13.84,11.82,18.99.86,1.47,1.94-.36,2.74-.21,1.11.21,9.5,12.21,12.45,12.66Z"/>
        <path class="cls-26" d="M43.03,168.82c3.89,1.86,4.91,3.36,9.71,5.07.87.31.52,1.03,2.95.84.14-.01.3.03.42,0,2.19-.56.78-2.7,5.07-1.69,2.6.96,3.21.79,3.38.84,4.6,1.1,6.06,3.25,8.02,7.6.3.66,1.29,4.17,1.69,5.49,1,3.34,3.59,15.4,4.22,19.21.81,4.86.27,10.89,2.11,9.92-2.01,5.23-3.13,7.96,2.11,12.24-.08.08-.81.8-.84.84-2.28-1.73-4.24-1.11-5.49,1.27-2.96-.46-11.35-12.45-12.45-12.66-.8-.15-1.88,1.68-2.74.21-.47-5.15-9.68-14.14-11.82-18.99-1.58-3.58-5.43-26.01-12.87-29.34-4.81-2.15.78,3.63,2.32,6.96.49,1.07,5.08,13.39,4.43,13.72-3.04-1.76-5.84-4.15-8.86-5.91-4.07-2.37-14.82-7.05-12.45-7.6,8.32,3.37,4.36-7.97-1.69-3.8,8.31-10.12,13.07,10.14,13.51.21.06-1.32-.65-6.87-1.27-8.23,3.47,1.15,7.26,2.22,10.55,3.8Z"/>
        <path class="cls-26" d="M15.17,174.73c2.31,3.6,19.36,27.98,19.42,29.76.03,1.02.05,1.17-1.06,1.06-6.28-1.55-12.58-2.19-17.52-6.75-1.02-.94-5.28-6.78-5.49-7.81-1.3-6.55,3.77-1.07,3.8-3.8.02-1.98-9.16-11.01-7.18-16.25,1.97,2.79,4.29,7.85,8.02,3.8Z"/>
        <path class="cls-27" d="M20.24,173.04c6.05-4.17,10.01,7.17,1.69,3.8-1.01-.41-4.59-2.86-5.7-3.8-2.46.08-.96,1.59-1.06,1.69-3.73,4.05-6.05-1-8.02-3.8,2.31-6.12,10.06,2.37,13.09,2.11Z"/>
        <path class="cls-24" d="M87.35,196.68c-.11.75-.85,3.2-.84,3.38-2.1,0-2.01,6.87-1.27,9.5-3.5,2.18-3.49,3.54-4.64,6.54-1.84.97-1.3-5.06-2.11-9.92-.63-3.81-3.22-15.87-4.22-19.21,4.73,1.28,9.05,6.71,13.09,9.71Z"/>
        <path class="cls-24" d="M86.93,187.82c-.05-.65.61-1.82.84-2.53l2.95,1.27c-1.59,2.69-2.91,7.05-3.38,10.13-4.03-3-8.36-8.43-13.09-9.71-.4-1.32-1.39-4.82-1.69-5.49.78-4.86,13.21,11.05,14.98,10.55,1.9-.53-.54-2.97-.63-4.22Z"/>
        <path class="cls-24" d="M80.18,180.22c1.46,2.84,5.24,9.07,6.75,7.6.1,1.26,2.54,3.69.63,4.22-1.77.49-14.2-15.42-14.98-10.55-1.96-4.35-3.42-6.5-8.02-7.6,4.61,1.45,12.43,2.05,15.62,6.33Z"/>
      </g>
      <path class="cls-28" d="M52.32,171.36c-.44-4.07-3.67.91-.42,1.69.52.12.99-.26.84.84-4.8-1.7-5.82-3.2-9.71-5.07-.22-1.37,9.67-.05,10.13,1.06.96,2.33-.78,1.37-.84,1.48Z"/>
      <g>
        <path class="cls-28" d="M149.4,276.88c.15,2.26-.38,4.52.42,4.64-1.19,1.33-1.71,2.7-2.95,3.8-1.86-3.96-1.32-3.57-1.69-4.64,1.44,1.18,2.08-5.13,4.22-3.8Z"/>
        <path class="cls-19" d="M110.15,268.02c10.5,2.72,9.68,6.1,10.13,6.54,3.74,3.62,7.02,6.85,5.91-.63.82.67,3.3,1.38,3.8,1.9,2.89,3.03,2.38,11.15,7.81,3.17,4.76,12.44,2.53,8.47,5.28-1.9h.84c-.02,1.34.87,2.41,1.27,3.59.36,1.07-.17.68,1.69,4.64.15.31.28,1.39.42,1.69-4.67,4.46-2.81,5.53,1.69,11.82-2.55,8.63,2.27,10.59,2.53,14.98-1.12,2.52-.54,5.25-.84,7.81-.47-1.71-.65-3.72-.84-5.49-.46-4.08-.66-4.89-2.95-8.44-.3-.47-.93-.79-1.27-1.27-1.81-2.57-10.98-12.75-13.3-13.51-1.4-.46-4.87,1.34-7.18-2.95-3.26.42-12.76-2.73-14.56-4.85-2.04-2.41,1.47-2,1.69-2.53.25-.6-8.32-7.17-6.96-10.34,9.22,1.4,4.16.14,4.01-2.74-.11-2.16.83-1.39.84-1.48Z"/>
      </g>
      <path class="cls-19" d="M261.26,189.93c-3.26,2.09-9.07,7.4-11.82,10.34-.68.73.03,1.02,0,1.06-2.06,2.33-4.79,3.09-8.02,2.53-.05-1.79-.82-4.3-1.69-5.91.26-1.35,1.71-1.83,3.38-3.8,4.96-1.01,2.11-1.49,2.11-1.69,0-.68-.25-.62,0-1.69,1.82,1.71,4.4,2.74,4.64.42,4.21.92,9.15-4.29,11.4-1.27Z"/>
      <path class="cls-19" d="M252.82,203.44c-3.53,3.74-7.67,6.98-10.97,10.97-.17-.28-1.83-1.98-2.53-2.74,1.5-1.74,2.18-5.56,2.11-7.81,3.23.56,5.96-.2,8.02-2.53,6.78-.39,6.32-1.01,3.38,2.11Z"/>
      <path class="cls-22" d="M247.33,177.69c0,.28-.12.72.21.84,3.46,1.31,10.1.5,16.25,9.29-.16.06-.16.59-2.53,2.11-2.24-3.03-7.18,2.19-11.4,1.27-.93-.2-3.54-3.32-5.07-1.48-.3.37.5.71.42,1.06-.25,1.07,0,1.01,0,1.69-2.11-.17-2.01,1.57-2.11,1.69-1.66,1.97-3.12,2.45-3.38,3.8-.14-.27-1.95-2.8-2.11-2.95,2.34-1.3-4.28-8.54-4.22-9.08.09-.85,2.81-1.06,2.95-1.27,1.01-1.48-2.43-6.07,10.97-6.96Z"/>
      <g>
        <path class="cls-19" d="M256.62,250.71c-6.34,4.3-12.73,8.49-19.42,12.24-1.92.46-3.7,1.4-5.28,2.53-.72.52-12.25,11.22-12.03,12.24-.43.05-2.21,2.53-8.23.42-5.99,5.3-18.5,18.26-25.33,20.68-.44.16-3.52-.53-5.49.84-.65.45-10.59,11.81-8.86,12.24,5.68-6.17,13.35-9.61,20.05-14.35-.28,1.67,3.08-.78,7.39-1.69,1.6-.33,12.3-2.06,13.09-2.11,17.54-1.19-4.79,5.28-16.67,9.29-6.13,2.07-13.07,2.64-18.15,6.96,5.49-1.69,11.05-3.96,16.88-4.01.09,0,1.33.84,1.48.84,7.1.11,11.27.7,17.94,1.27,1.83.16,3.65.26,5.49.42-.58,2.83,8.22,12.46,9.71,13.51-2.5,3.45-3.58,1.7-7.18,1.9,12.89,5,10.79,11.53-5.7,7.39-6.92-1.74-19.8-8.57-23.85-14.56-2.97-4.39-1.53-5.75-3.17-6.96q-10.02,3.38-20.05,6.75c-1.25-1.98-1.69-2.78-2.11-5.49-.09-.73.49-1.14.84-1.69,2.34-3.6,4.88-7.02,7.6-10.34l-.21-.63-7.39,2.53s-.59.16-.42-.84c1.96.06,5.7-4.26,7.6-5.91.1-.08-.27-.72,1.48-2.11,6.15-.43,12.02-4.89,17.52-7.6.35-.17,1.89.28,3.17-.42,1.74-.97,1.43-2.8,1.69-2.95.69-.41,8.43,1.16,13.72-6.75l6.54-7.18c3.33,2.63,10.76-1.74,10.34-5.7,2.14-.86,7.33-2.99,4.64-4.64.68-.27,1.14-.57,1.69-1.06,4.15-3.66,2.48-4.15,4.22-6.54.23-.31,5.56-4.7,5.91-4.85.1-.04.82-.03,2.11-.42l8.44,6.75Z"/>
        <path class="cls-17" d="M241.84,280.68c-4.42,7.91,8.85,8.53,2.95,11.82-1.7.04-5.88-1.18-9.08,0-.92.92,2.79,1.14,2.32,3.17-.13.55-4.23,2.72-5.07,3.17-2.3,1.22-7.25,3.34-10.13,4.64-3.14,1.42-8.68,2.92-8.86,4.64-6.67-.57-10.84-1.15-17.94-1.27-.15,0-1.39-.84-1.48-.84,1.01-.41,2.24-1.67,1.27-2.95,11.88-4.01,34.21-10.48,16.67-9.29-.78.05-11.49,1.78-13.09,2.11-4.31.9-7.66,3.36-7.39,1.69,6.25-4.43,11.81-9.87,18.36-13.93,10.56,1.04,15.18-3.11,16.04-2.95,1.78.31.4,1.75,1.69,2.11.68.19,8.28-3.98,13.72-2.11Z"/>
        <path class="cls-14" d="M257.04,302.63l-1.27,1.69c-2.7-.16-10.2,2.48-13.72,2.95-18.09,2.43-13.2-2.16-13.93-2.53-.32-.16-4.75,1.71-5.28-1.27,2.88-1.3,7.83-3.42,10.13-4.64,4.04.62,7.94-.85,12.03-.42,5.21.55,5.45,3.22,12.03,4.22Z"/>
        <path class="cls-19" d="M231.29,309.38c.6,1.07,1.6,1.78,2.53,2.53,2.54,2.04,9.09,9.13,11.82,9.71-2.13-.5-.14,1.24-1.48,1.69-1.99.67-7.21-.99-7.6-.84-.57.21,1.29,1.26.42,1.69-1.5.73-6.35-1.09-7.81-2.11-1.49-1.04-10.29-10.68-9.71-13.51,3.35.29,6.96-.21,10.34,0l1.48.84Z"/>
        <path class="cls-17" d="M253.66,311.92c4.62,4.26-.69,3.91-4.64,4.43,4.32,3.76,1.38,6.29-3.38,5.28-2.72-.58-9.28-7.67-11.82-9.71q7.49-.42,14.98-.84c.87-.58.57-1.23.63-1.27,1.27.33,3.3,1.26,4.22,2.11Z"/>
        <path class="cls-14" d="M244.8,292.5c5.89-3.29-7.38-3.91-2.95-11.82,3.99,1.37,3.6,6.17,4.01,6.33,2.18.08,7.95-.84,8.23,2.32.35,3.91-7.13,3.12-9.29,3.17Z"/>
        <path class="cls-34" d="M265.9,314.45c1.45-4.86-5.65-3.36-9.29-7.6.82-.34,2.87-.42,2.53-1.48-1.06-.58-2.15-.98-3.38-1.06l1.27-1.69c.54.08,3.75-2.15,5.28,2.95,4.77-.15,10.62,8.17,3.59,8.86Z"/>
        <path class="cls-35" d="M265.9,314.45c-3.84.38-8.5-1.93-12.24-2.53-.92-.85-2.95-1.78-4.22-2.11.04-.03-.34-.52.42-.84,1.38-.58,4.27-1.08,6.75-2.11,3.64,4.24,10.73,2.73,9.29,7.6Z"/>
        <path class="cls-17" d="M255.77,304.32c1.22.07,2.31.48,3.38,1.06.34,1.05-1.71,1.14-2.53,1.48-2.48,1.03-5.37,1.53-6.75,2.11-.22-3.47-10.82.51-18.57.42l-1.48-.84c-3.38-.21-6.99.29-10.34,0-1.84-.16-3.66-.27-5.49-.42.18-1.73,5.72-3.22,8.86-4.64.53,2.98,4.95,1.1,5.28,1.27.73.37-4.16,4.97,13.93,2.53,3.52-.47,11.02-3.12,13.72-2.95Z"/>
        <path class="cls-11" d="M195.83,303.05c.97,1.29-.26,2.54-1.27,2.95-5.83.05-11.39,2.32-16.88,4.01,5.08-4.32,12.02-4.9,18.15-6.96Z"/>
        <path class="cls-17" d="M249.86,308.96c-.76.32-.38.82-.42.84-.06.04.23.68-.63,1.27q-7.49.42-14.98.84c-.93-.75-1.93-1.46-2.53-2.53,7.75.08,18.36-3.89,18.57-.42Z"/>
      </g>
      <g>
        <path class="cls-34" d="M293.76,199.64c-2.85,2.12-4.39,9.44-2.74,9.71.3.05,4.04-4.08,3.17,1.06-.31,1.84-7.14,9.67-8.86,11.82.27.55,8.43-2.95,11.82-3.17-.6,3.57,3.11,0,2.11,4.01-.83,3.34-13.03,5.94-.21,4.85,1.29.7-3.94,3.84,4.43,4.01.07,2.15-2.75,2.09-1.69,3.17-1.16.68-5.84,2.26-7.18,2.53-5.87,1.19.85-3.27-.63-3.38-.98-.07-9.82,3.96-18.78,5.91,2-5.29-6.32.34-.42-6.12-3.45.78-3.53-1.72-5.91-4.01,1.09-.64,10.39-5.35,10.13-6.12l-13.51,1.27c6.85-5.95,20.41-20.22,26.17-24.69.12-.09,1.94-.73,2.11-.84Z"/>
        <path class="cls-14" d="M294.6,237.63c15.01,2.03.27,8.22-1.06,9.29-1.03.83,3.82,1.68-8.65,4.22-7.6,1.55-15.46,2.19-23,4.22-6.47,1.74-13.04,4.54-19.21,7.18-.88.06-5.22.36-5.49.42,6.68-3.75,13.08-7.95,19.42-12.24,3.3-2.24,10.06-5.94,10.13-6.54.19-1.74-4.32-.29-4.64-1.9,1.67.05,10.49-1.55,13.09-2.11,8.96-1.95,17.8-5.98,18.78-5.91,1.48.1-5.24,4.57.63,3.38Z"/>
        <path class="cls-19" d="M242.69,262.53c7.07-.48,14.07.79,21.11.42,2.62,2.45,7.55,1.16,7.6,2.32-2.85,2.37-8.73,1.74-7.81,3.17,7.49,2.14-9.77,4.19-17.73,2.53,4.08,5.65-2.22,3.19-5.49,4.22-1.07.34-9.04,5.95-9.71,1.69-5.12-.62-8.78.6-10.76.84-.22-1.02,11.31-11.72,12.03-12.24,1.58-1.13,3.36-2.07,5.28-2.53.27-.06,4.61-.36,5.49-.42Z"/>
        <path class="cls-35" d="M289.54,187.4c-.45,1.07-1.92,3.98-2.95,2.95,4.81-14.39-22.49,22.49-33.77,13.09,2.95-3.12,3.41-2.51-3.38-2.11.03-.04-.68-.32,0-1.06,2.75-2.95,8.56-8.25,11.82-10.34,2.37-1.52,2.38-2.05,2.53-2.11,4.9-1.76,10.05.44,11.19,5.49,3.28-2.91,20.73-20.39,14.56-5.91Z"/>
        <path class="cls-17" d="M284.9,251.13c5.78,5.89-13.07,13.15-20.05,10.55-1.49.69-.97,1.26-1.06,1.27-7.04.36-14.04-.9-21.11-.42,6.17-2.64,12.74-5.43,19.21-7.18,7.54-2.03,15.4-2.67,23-4.22Z"/>
        <path class="cls-34" d="M301.78,235.09c-1.06-1.08,1.76-1.02,1.69-3.17-8.37-.17-3.14-3.31-4.43-4.01-12.82,1.09-.62-1.52.21-4.85,1-4.01-2.71-.44-2.11-4.01,1.34-.09,4.19-.2,5.28.42,2.73,1.56-1.06,3.4.42,4.22,10.78-6.28,15.18,3.12,5.07,5.07-1.18,1.67-4.65,5.47-6.12,6.33Z"/>
        <path class="cls-34" d="M293.76,199.64c-.17.12-1.99.75-2.11.84.11-1.49,2.55-2.59.42-3.8-1.88-1.07-10.01,6.25-12.66,5.07,1.83-2.59,6.31-8.8,7.18-11.4,1.03,1.03,2.5-1.89,2.95-2.95,3.93-.28,6.16.63,4.64,4.85,7.56,3.75,2.92,5.07-.42,7.39Z"/>
        <path class="cls-17" d="M291.65,200.48c-5.76,4.48-19.32,18.74-26.17,24.69l13.51-1.27c.26.77-9.04,5.48-10.13,6.12-11.76,6.9-25.13,13.96-8.65,10.55.88.59.56,1.25.63,1.27-4.04,1.15-8.69.9-12.66,2.11-1.29.4-2.01.38-2.11.42-2.69-3.44,10.01-7.33-2.95-17.52l4.22-4.85c6.78,3.5,10.96-3.04,9.71,1.9.63.76,12.4-6.8,12.87-7.39.56-.69-.41-.93-.21-1.69,1.16-.57,5.84-5.83,8.65-8.02,4.44-3.45,9.94-5.76,13.72-10.13,2.13,1.21-.31,2.31-.42,3.8Z"/>
        <path class="cls-17" d="M260.84,241.85c.23.06-.29.37,1.27.42.32,1.61,4.84.16,4.64,1.9-.07.6-6.83,4.3-10.13,6.54l-8.44-6.75c3.97-1.22,8.62-.97,12.66-2.11Z"/>
        <path class="cls-35" d="M275.19,240.16c-2.6.56-11.42,2.16-13.09,2.11-1.56-.05-1.04-.36-1.27-.42-.07-.02.25-.68-.63-1.27-16.48,3.41-3.11-3.65,8.65-10.55,2.38,2.29,2.46,4.79,5.91,4.01-5.9,6.46,2.42.84.42,6.12Z"/>
        <path class="cls-17" d="M286.58,190.35c-.87,2.6-5.35,8.81-7.18,11.4-3.27,4.62-7.18,9.09-10.97,13.3.44.51.81.01,1.27-.21-.19.76.77,1,.21,1.69-.48.59-12.24,8.15-12.87,7.39,1.25-4.94-2.93,1.6-9.71-1.9-2.27-1.17-4.23-5.44-5.49-7.6,3.3-3.99,7.44-7.23,10.97-10.97,11.28,9.41,38.58-27.48,33.77-13.09Z"/>
        <path class="cls-35" d="M292.07,196.68c-3.77,4.37-9.28,6.68-13.72,10.13-2.82,2.19-7.49,7.45-8.65,8.02-.46.22-.83.73-1.27.21,3.79-4.21,7.71-8.68,10.97-13.3,2.65,1.19,10.78-6.13,12.66-5.07Z"/>
      </g>
      <g>
        <path class="cls-15" d="M143.49,114.79c5.76,1.56,7.26,6.85,6.33,12.45,1.64.74,3.27,1.52,4.22,3.17.75,1.3,2.08,7.75,1.69,9.08-1.03,3.48-4.75-8.78-5.49,2.11-.07,1.1.13,2.53.42,3.59l-.84,1.27c-.52-.61-.78-1.22-.84-1.27,2.55-3.52-2.13-7.18-3.17-6.75-5.05,8.88-14.4,5.63-21.11.42-3.13-2.44-4.87-6.44-6.12-5.07.58-2.4,1.8-3.58,1.69-4.01-8.58-6.06,1.52-11.08,1.69-11.82-3.57-9.92,4.83-11.83,11.19-5.7l-1.27-5.91c4.38,2.22,8.03,3.86,9.71,8.86.39-.54,1.38-.56,1.9-.42Z"/>
        <path class="cls-15" d="M148.98,145.18c-.52-.4-1.15-1.04-1.9-.84-2.64,2.23.33,3.42-2.32,6.96,3.72,4.92-2.51,7.25-6.12-1.48-8.9,1.48-12.19-10.02-11.19-.21.18,1.72,2.84,7.22-2.53,1.69-2.15-2.21-2.89-6.62-6.33-7.39-.23-2.52-2.12-1.43,0-10.13,1.25-1.37,2.99,2.63,6.12,5.07,6.7,5.21,16.05,8.46,21.11-.42,1.04-.43,5.72,3.24,3.17,6.75Z"/>
      </g>
      <path class="cls-25" d="M92.42,184.02c-.1.12-1.51,2.24-1.69,2.53l-2.95-1.27c.29-.88.66-2.3,1.27-2.95,1.37.39,4.42-1.03,3.38,1.69Z"/>
      <g>
        <path class="cls-36" d="M175.99,319.94c-1.89-.13.83,1.12-.21,2.11-1.17,1.12-3.3-2.47-1.06,5.28,11.53,6.11,7.88,8.28,8.44,10.13.21.7,1.22.58,1.27.63,1.98,2.24,3.47,1.46,3.8,1.9.58.79-3.73,5.15.42,4.43,5-.86,8.5-5.13,8.02,1.27-.08,1.13-1.71,3.19-.21,4.22,4.12.63,10.28,4.63,11.61,5.07-5.05-.13,12.37,7.4,16.46,8.02,4.15.63,18.86.05,20.47.84,1.19.59.89,2.1,1.69,2.53,1.16.63,8.17-.41,9.08,3.8.16.74-.01,1.47-.42,2.11-.31,0-1.38,1.04-1.9,1.27-8.01.64-21.75-5.92-29.13-6.33-4.66-.26,1.81,2.17,5.28,5.07-8.42-4.73-7.79-5.25-8.23-5.49-8.77-4.78-18.78-8.1-27.44-13.09-7.86-4.53-16.46-14.32-11.19-3.17-1.24,2.41-6.83.65-6.33,2.95.15.71,9.14,5.1,12.45,7.39,8.92,6.16,17.62,13.18,25.96,20.05-.11.53-8.56,3.76-8.44-1.48-.03-.13.03-.29,0-.42-.02-.09.81-.23,0-1.9-2.08-4.33-22.97-14.18-33.14-22.58-5.25-4.34-10.5-12-9.92-7.39.5,3.91,10.9,17.9,10.97,18.99.13,1.9-2.43,2.21-2.53,2.53-.05.14.95.62,1.27,2.74.15,1.03.5,1.94.42,2.32l-.63,1.06c-.68-.5-.58-.86-.63-.84-4.74-4.57-11.32-20.05-13.3-20.68-3.41-1.09-8.28,2.8-9.92.84.29-.32.56-.93.84-1.27,1.76-2.03,6.89-6.6,8.02-8.65,1.57-3.33,1.89-6.98,3.38-10.34,1.01-2.27,6.74-15.14,7.81-15.62,2.03.94,1.81.01,1.9,0,2.12-.3,4.09-.87,5.07,1.69Z"/>
        <path class="cls-12" d="M149.82,316.14c.2,1.77.37,3.77.84,5.49-.63,5.28-2.04,10.98-4.22,15.83-1.15,2.56-10.02,15.66-11.82,17.52-.23.24-1.49.67-2.11,1.27l-5.91.42-1.69-.84c3.33-2.54-4.24-1.28-5.7,1.27-1.41-3.14-11.22.65-11.19-3.38,1.6,1.6,8.02,1.44,9.08.84,5.31-3.02-7.53-1.01-6.12-2.95,5.47-.85,17.53,4.18,24.9-5.91.07-.1.24-2.02.42-2.32.44-.71,3.68-3.64,3.8-4.22,1.17-5.58-11.85-7.1-6.54-10.34,2.88-1.76,2.93,3.55,7.18,5.91,3.9-5.95,4.45-10.19-3.8-10.97-6.03-.57-10.48,2.73-10.34-.63.15-3.7,10-3.87,12.45-3.59,2.5.29,4.2,2.03,4.43,2.11.88.3,1.72-.18,2.32.84,1.3-.38,3.51-6.93-.21-5.07.76-.64.97-1.62,4.22-1.27Z"/>
        <path class="cls-12" d="M167.13,311.07c.42,2.71.86,3.51,2.11,5.49.06.1,0,1.6,1.69,1.69-.09.01.13.94-1.9,0-1.07.48-6.8,13.35-7.81,15.62-1.76-.82-.7-3.95-.84-4.85-.64-3.96-5.61-22.79-7.18-25.75-.87-1.64-2.39-2.57-3.38-4.01,1.18.31,2.22.86,3.38,1.27.25.09.45.83,3.17,1.27,15.25-7.55,9.26-.49,10.76,9.29Z"/>
        <path class="cls-21" d="M175.99,319.94c.56,1.47.37,2.71.84,4.22.11.35-.39,1.09,1.48,2.53,2.76-.25,3.24,2.59,5.7,3.38.38.46,2.45,1.86,2.53,2.32.35,2.03-4.98,3.51-2.11,5.7-.05-.05-1.05.07-1.27-.63-.56-1.86,3.09-4.03-8.44-10.13-2.25-7.75-.11-4.16,1.06-5.28,1.04-.99-1.68-2.24.21-2.11Z"/>
        <path class="cls-13" d="M184.01,330.07c-2.46-.79-2.94-3.63-5.7-3.38-1.87-1.44-1.37-2.18-1.48-2.53,5.89-9.33,7.7-7.79,3.8,2.32,1.2,1.14,2.32,2.31,3.38,3.59Z"/>
        <path class="cls-12" d="M143.49,321.62c.88-2.07.24-2.64,2.11-4.22,3.72-1.86,1.51,4.69.21,5.07-.6-1.02-1.44-.54-2.32-.84Z"/>
        <path class="cls-21" d="M188.66,344.42c-4.15.72.16-3.64-.42-4.43-.32-.44-1.82.34-3.8-1.9.95.73,4.14-.13,4.64,1.48.62,1.97-3.56,4.44-.42,4.85Z"/>
        <path class="cls-12" d="M172.19,373.97c-.26.1-2.25,1.77-5.07,1.27,0-.49-3.42-7.98-6.33-6.33.3-1.47,3.12-.12,3.38-.63-1.4-.91-4.92-7.98-6.12-7.39-.69.5.33.96.21,1.27-.32.82-.57-.84-.42,2.53.04.95.29,3.2.42,4.22l-.84-.21.84,7.39c-.08.07-1.04,1.38-1.27,1.69-.03.03-.06-.88-.84-.21.34,2.5-.3,5.87-3.17,6.54-12.75,3.01-7.11-10.14-8.86-10.13-.81,8.63-1.63,4.33-12.24,6.75-6.58,1.51-13.49,4.13-20.05,5.91-3.22-.25-3.92-.61-5.07-3.38,5.3,5.23,6.97,1.2,12.03,0,6.28-1.49,12.69-2.8,18.99-4.22,1.49-1.41.2-2.41.21-2.53.02-.28,0-.57,0-.84-.09-3.2-.71-6.97-1.27-10.13,4.96-2.33,8.57-7.34,12.24-11.4,1.64,1.95,6.51-1.94,9.92-.84,1.98.63,8.56,16.12,13.3,20.68Z"/>
        <path class="cls-12" d="M206.38,379.03c-2.47-4.84-11.79-10.02-16.88-12.66-.62-.32-6.12-3.55-6.33-3.17,6.38,13.19,9.03,3.3,13.51,11.61-1.23,1.03-11.03-1.3-13.3-1.69-3.31,2.75,9.09,12.17,3.38,13.09-2.75.44-4.17-4.27-4.43-4.64.05-1.86-1.11-2.96-2.53-3.8-.39-2.5,1.99-5.03,2.11-5.49.55-1.99-2.87-2.13-2.95-2.32-.19-.44,2.24-5.1-1.48-3.59-.37.15-.58,1.62-.63,1.69-4.09.53-3.57,1.2-3.38,2.53.06.41.1.86-.42.84-.32-2.13-1.31-2.6-1.27-2.74.1-.32,2.66-.63,2.53-2.53-.08-1.1-10.48-15.08-10.97-18.99-.58-4.61,4.67,3.05,9.92,7.39,10.17,8.4,31.05,18.26,33.14,22.58.81,1.67-.02,1.81,0,1.9Z"/>
        <path class="cls-10" d="M181.9,372.28c-.93-1.64-3.7,2.44-3.8,3.17-.61,4.33,1.51,2.21,1.69,2.32,1.42.84,2.58,1.94,2.53,3.8-4.68-6.57-4.05,2.76-5.7,2.53-1.15-2.25-2.74-3.92-5.49-3.8-6.73.3-5.74,14.78-14.14-2.53.23-.3,1.19-1.62,1.27-1.69.08-.07.79-.36.84-.42.78-.8.19-1.38.63-1.69.22.17,1.19.85,1.27.84,6.16-.39,3.17,2.82,5.28,1.69.34-.19.85-.99.84-1.27,2.82.51,4.81-1.17,5.07-1.27.05-.02-.05.34.63.84l.63-1.06c.07-.38-.27-1.3-.42-2.32.53.02.48-.43.42-.84,1.19-1.06,3.45-1.54,3.59-1.69.69-.75-.24-.81-.21-.84.06-.07.27-1.54.63-1.69,3.71-1.51,1.29,3.15,1.48,3.59.08.19,3.5.33,2.95,2.32Z"/>
        <path class="cls-10" d="M105.08,365.95v.42c-.09,1.21-.94,1.74-1.27,2.95-.39,1.45.87,1.33.84,1.48-.09.5-3.7,3.38-2.95-.63.1-.07.36.07.42,0,3.28-4.04-11.75,1.99-12.03-1.27-5.77-1.13-13.51,2.66-17.1-.84-.66-6.7,20.11.34,32.08-2.11Z"/>
        <path class="cls-21" d="M124.92,355.81l1.69.84c-2,.15-1.49,1.66-7.6,4.64-.77-3.61-4.14.79-10.76,0-.72.75.41,1.43.21,2.11-3.24-2.25-17.02.72-15.62-3.59,1.15-3.55,24.34,1.89,32.08-4.01Z"/>
        <path class="cls-21" d="M119.01,361.3c-3.93,1.92-10.55,5.5-13.93,5.07v-.42c2.4-.49,2.49.45,3.38-2.53.2-.68-.93-1.36-.21-2.11,6.62.79,10-3.61,10.76,0Z"/>
        <path class="cls-10" d="M110.99,351.59c-1.41,1.95,11.43-.07,6.12,2.95-1.05.6-7.47.75-9.08-.84.01-1.39,1.81-1.93,2.95-2.11Z"/>
        <path class="cls-12" d="M149.82,299.25c.99,1.44,2.51,2.37,3.38,4.01,1.57,2.96,6.53,21.79,7.18,25.75.15.91-.91,4.03.84,4.85-1.49,3.36-1.81,7.01-3.38,10.34-1.13,2.05-6.26,6.62-8.02,8.65-.59-4.7-7.93,6.43-13.93,9.29-.39-2.39-.89-4.78-1.27-7.18,1.8-1.86,10.67-14.96,11.82-17.52,2.18-4.85,3.59-10.55,4.22-15.83.31-2.55-.27-5.29.84-7.81-.27-4.4-5.08-6.35-2.53-14.98.05.07.37-.27.84.42Z"/>
        <path class="cls-12" d="M149.82,352.86c-.29.33-.55.94-.84,1.27-3.67,4.06-7.28,9.06-12.24,11.4-.19-1.1-.64-2.17-.84-3.38,6-2.86,13.34-13.98,13.93-9.29Z"/>
        <path class="cls-10" d="M208.07,354.97c2.24.73,3.86-1.55,9.08,2.11,2.74,1.92,3.49,5.32,7.39,5.91-4.09-.62-21.51-8.15-16.46-8.02Z"/>
        <path class="cls-12" d="M132.52,356.24c-3.81,3.62-11.48,9.57-16.25,11.4-.53.2-10.41,3.01-10.97,2.95-.24-.03-.83-1.14-1.48-1.27.33-1.21,1.18-1.75,1.27-2.95,3.38.43,10-3.14,13.93-5.07,6.11-2.99,5.6-4.49,7.6-4.64l5.91-.42Z"/>
        <g>
          <path class="cls-6" d="M177.68,280.26c.84,1.92-4.74,4.4-2.11,6.75-1.18-.32-1.68-1.4-2.53-.21-.95,2.49-2.5,4.66-3.8,6.96-1.06,1.87-3.37,1.06-1.27,5.07-.09.35-.29.46-.42,1.27-.17,1,.43.8.42.84-.37,2.6-.95,5.89,0,8.44-.35.54-.93.96-.84,1.69-1.51-9.77,4.49-16.84-10.76-9.29-2.71-.43-2.92-1.18-3.17-1.27.01-7.21-3.53-8.69-5.91-13.51-.15-.3-.28-1.38-.42-1.69,1.25-1.1,1.76-2.47,2.95-3.8.06-.07.35.07.42,0-1.67,10.89,10.49,8.82,15.2,3.59-.02-.23-.92-.06-1.27-1.06,5.04-10.2,4.81,2.32,13.51-3.8Z"/>
          <path class="cls-6" d="M164.17,284.06c.34,1,1.24.82,1.27,1.06-4.71,5.23-16.86,7.3-15.2-3.59,1.07-1.09,1.97-2.39,3.17-3.38.47.31.57,7.5,4.64,4.22,1.1-.89-.1-7.5,1.69-8.86,1.79-.41,3.44,7.69,4.43,10.55Z"/>
        </g>
        <path class="cls-12" d="M160.8,368.9c-.09.46,4.62,5.54,5.49,7.6-2.1,1.13.88-2.07-5.28-1.69-.08,0-1.05-.68-1.27-.84-.44.3.14.89-.63,1.69.16-2.3-.55-4.51-.84-6.75-.13-1.03-.38-3.27-.42-4.22,2.09-1.18.61-1.04.42-2.53.12-.31-.9-.76-.21-1.27,1.2-.59,4.72,6.48,6.12,7.39-.26.52-3.08-.84-3.38.63Z"/>
        <path class="cls-18" d="M157.84,364.68c-.14-3.38.1-1.71.42-2.53.19,1.49,1.67,1.35-.42,2.53Z"/>
        <g>
          <path class="cls-12" d="M229.6,372.28c1.15.65,12.53,4.9,8.65,6.75-3.97,1.9-13.86-7.89-14.56-5.28.01,8.2-5.65-1.45-7.39-2.74-3.7-2.74-19.29-6.42-24.9-9.29,2.56,3.24,24.85,17.21,24.27,19.63-7.93,3.2-8.23,2.73-9.29-1.9-.12,5.23,8.33,2.01,8.44,1.48-8.34-6.87-17.04-13.89-25.96-20.05-3.31-2.29-12.3-6.68-12.45-7.39-.5-2.3,5.09-.55,6.33-2.95-5.28-11.16,3.32-1.36,11.19,3.17,8.65,4.98,18.66,8.31,27.44,13.09.44.24-.18.76,8.23,5.49Z"/>
          <path class="cls-21" d="M190.98,357.93c.98-.25,11.75,5.44,12.24,5.91,4.45,4.17-9.62-2.94-13.09-2.95-1.55-.59.53-2.87.84-2.95Z"/>
        </g>
        <path class="cls-12" d="M133.78,374.39c-2.22-1.46-7.06,2.18-6.33,3.8-1.34.22-9.23,2.25-9.71,1.48.58-.74,1.5-.74,2.11-1.48,1.06-1.28,1.86-3.12,2.11-3.38,2.45-2.55,3.92-.77,7.39-.84.48-.18-.64-4.72,1.27-5.07,1.3-.23,2.81,4.51,3.17,5.49Z"/>
        <g>
          <path class="cls-21" d="M135.89,362.15c.2,1.21.65,2.28.84,3.38.56,3.16,1.18,6.93,1.27,10.13l-3.38.42c-.1-.27-.28-.14-.84-1.69-.35-.97-1.87-5.72-3.17-5.49-1.9.34-.79,4.88-1.27,5.07-3.46.07-4.94-1.7-7.39.84.02-3.58-6.09,4.56-2.11,3.38-.61.74-1.53.74-2.11,1.48.48.77,8.37-1.25,9.71-1.48,2.41-.4,4.7-1.08,7.18-1.27,1.74-.13,3.37.35,3.38-.42,0,.13,1.27,1.12-.21,2.53-6.3,1.42-12.72,2.73-18.99,4.22-5.06,1.2-6.73,5.23-12.03,0-.27-.65.61-.99.42-1.48-8.99-3.42,1.91-5.71,2.11-8.02.21-2.42-4.15-.63-4.85-.63-5.41-.01-6.96-.78-8.86-.84-2.35-.08-10.56,3.32-5.07-2.53-6.73-.88-17.05,3.01-17.52-1.69,3.58,3.5,11.32-.29,17.1.84.28,3.25,15.31-2.78,12.03,1.27,0-.28.12-.73-.21-.84-5.09-1.78-6.59,5.18-.21.84-.74,4.02,2.87,1.14,2.95.63.03-.15-1.24-.03-.84-1.48.64.12,1.24,1.24,1.48,1.27.57.06,10.44-2.75,10.97-2.95,4.77-1.83,12.44-7.78,16.25-11.4.62-.59,1.88-1.03,2.11-1.27.37,2.4.87,4.79,1.27,7.18Z"/>
          <path class="cls-16" d="M138,375.65c0,.28.02.57,0,.84,0,.77-1.63.29-3.38.42-.03-.29.06-.68,0-.84l3.38-.42Z"/>
        </g>
      </g>
      <g>
        <path class="cls-17" d="M95.79,110.99c-.16,4.42,9.15,27.84,11.4,34.19.42,1.19,3.16,7.34,2.95,7.81-.12.27-5.33,1.85-5.07,2.95,14.15,7.11,16.83,4.45,9.71,7.39-1.37.57-2.01.38-2.11.42-8.06-3.22-16.82-4.08-25.12-6.33-.45-.12-1.75-.52-1.48-1.27,3.65-.55,8.48-.33,12.24-.42,9.78-.25,1.44-.18-8.86-8.44,4.62-1.06,6.34-.06,1.69-3.38-4.11-2.93-9.42-4.81-12.87-8.86-7.47,2.14-21.08-2.64-28.49-5.91-.14-.06-.54-.82-2.53-1.69-.06-.64-.8-.8-.84-.84-2.55-2.61-12.15-11.88-12.66-14.56-.63-3.27.64-6.33,4.22-5.49-2.24-2.4-3.95-4.9-5.49-7.81,2.65.98,6.16,3.38,9.5,4.64,3.6,1.36,12.09,3.2,17.1,5.28q-9.71-13.72-19.42-27.44l.63-.63q4.75,2.85,9.5,5.7l-7.6-20.47s-.15-.79.21-.84c1.47-.23,17.15,19.48,19.84,21.95,3.36-5.16.85-.78,1.48,1.9.22.95,3.33,5.86,4.01,7.81,2.52-12.79.95-1.02,8.02,8.02,3.11-2.79.58,2.87,3.17,8.65,1.2,2.68,11.97,16.04,14.98,20.05,1.47-.69-6.59-21.95,1.9-22.37Z"/>
        <path class="cls-34" d="M169.24,20.66c1.52.51,1.31,4.49,1.69,5.7.14.45,2.84,2.81,2.11,8.86,5.4,1.16-2.83,20.93,3.59,20.05.44-.06,2.83-4.78,4.64-4.64-.5,4.68-.65,11.68,1.9,6.75,2.21-4.26,4.64-14.86,8.44-4.64,3.64,9.77-2.28,22.18-1.69,25.96.43,2.73,3.93-.2,4.64-1.48,1.98-.89,1.15,10.08,4.22-1.06,1.01-.95,1.4,4.2,2.11-1.48,4.56-1.2,1.52,3.73,1.69,5.07-1.17-2.82-3.77,7.22-5.07,3.59-.15-.41,1.32-4.61-2.53.21-1.49,1.86-1.56,4.03-1.69,4.22-1.01,1.48-2.29,3.19-3.38,4.64-2.76,3.7-6.1,6.85-8.86,10.55-6.08,1.94-14.53,11.21-14.35,5.91.11-.35.31-.49.42-.84,1.81-5.45,12.47-28.3,10.97-32.29-1.13-3.03-4.48,5.47-6.75,8.44-4.58,5.99-3.92,4.85-8.86,1.48-.1-.8-.32-1.64-.42-2.53-1.68-14.42-2.37-29.01-3.8-43.48-.71-7.21-4.55-29.42-3.8-34.4.01-.08.35-.32.84-1.48,5.34-12.44,10.65,9.24,10.97,15.83.3,6.16-3.1,11.19,2.95,1.06Z"/>
        <path class="cls-1" d="M247.33,117.75c-2.71,7.14-5.57,14.45-8.44,21.53-.24.6-.32,1.03-.42,1.27q-6.23,2.74-12.45,5.49c-2.63-3.76-8.25-5.57-8.65-5.91-4.22-3.53-11.1-18.44-32.92-14.35.37-.37.98-2.17,6.75-8.02,1.27.63,9.94-.59,10.76-.84,2.42-.75,11.4-10.4,11.61-11.19.58-2.23-12.66,2.79-15.62,4.85-.61-1.75-.34-4.44-2.11-5.07.47-.38,1.25-2.05,2.95-2.53.11-.01.65-.44,2.11-.84,4.33-1.2,8.85-4.38,12.66-5.49.3-.09,3.21-.82,3.38-.84,1.1-.18,2.61.13,3.8,0,.71-.03,1.27,2.59,1.27,2.74-.13,13.11-9.09,11.89,1.69,14.77.14,20.43.17,20.76,3.38.84.38-2.31,5.24.2,5.49.84.51,1.35-1.19,13.98-.21,14.14,1.13-2.69,3.15-13.46,3.59-14.14.85-1.31,1.71.23,2.74-.21,1.57-.66,1.58-18.86,2.74-22.58.09-.29.72-1.53,1.27-.84l3.38,9.71c4.21-12.63,7.03-25.53,9.29-38.62,2.63,1.82,1.6,3.59,4.01,5.07.72-.12,6.03-14.7,7.39-12.03q-3.59,11.19-7.18,22.37c.29.36,1,.71.84,1.27-3.62,12.99-8.3,26.01-13.09,38.62Z"/>
        <path class="cls-17" d="M129.98,62.03c8.22,7.27,11.09,14.86,17.1,23.64.84.14,3.58-5.03,4.01-5.91,3.77,4.97,5.15,7.16,10.97,3.38.1.89.32,1.74.42,2.53.84,6.78,1.45,16.8,4.64,22.37-.12.35-.31.49-.42.84-1.17,3.68-2.98,10.76-3.38,14.35-9.01-.06-8.2-2.24-12.45-7.6-1.33.64,7.05,15.46,3.17,14.77-.95-1.65-2.58-2.43-4.22-3.17.93-5.6-.57-10.89-6.33-12.45-.26-2.57,5.22-4-1.48-7.6-1.06-.57-2.23-.43-3.38-.42l-1.9-1.9q-5.8-9.18-11.61-18.36c-1.15,1.04-2.68,1.11-4.01,1.69-.2.09-.07-1.91-2.95,2.11-3.07-6.06-3.27-9.14-8.44-13.93-.84-.78-.77-1.63-.84-1.69,2.63-1.7-3.23-13.83-2.32-14.35,3.12-.35,4.48,2.71,7.18.84,1,1.2,6.54,10.55,7.18,10.55,2.89.02-2.61-4.62-1.06-5.49,11.48,17.75-.57-2.23,4.43-8.86,2.18,1.3,3.6,2.79,5.7,4.64Z"/>
        <path class="cls-34" d="M96.22,94.95c-.09.57,1.1.07.84,1.48-.98,1.34-1.48,2.79-1.69,4.43-.39,3.11-.61,5.87.84,8.86-.18.8-.42,1.13-.42,1.27-8.49.42-.43,21.68-1.9,22.37-3.02-4.01-13.78-17.37-14.98-20.05-2.59-5.78-.06-11.44-3.17-8.65-7.07-9.04-5.5-20.81-8.02-8.02-.68-1.95-3.79-6.86-4.01-7.81-.63-2.68,1.89-7.06-1.48-1.9-2.69-2.47-18.37-22.17-19.84-21.95-.36.05-.17.84-.21.84-2.65.05-5.86-.53-7.6-2.95-4.25-5.92,1.42-6.19,1.69-6.54.42-.55-9.24-9.95-2.32-11.61,8.33-1.99,20.92,20.97,26.17,26.17,1.45.01-3.91-10.75,5.91-8.02,11.15,3.1,15.2,28.43,16.88,28.28,2.72-16.6,13.74-6.12,11.19,5.28l2.11-1.48Z"/>
        <path class="cls-34" d="M268.01,117.75c-1.69,1.24-4.06,3.68-7.6,6.33-3.71-2.33,9.46-18.5,9.29-19.63-.69-4.52-19.75,12.68-22.37,13.3,4.78-12.61,9.46-25.64,13.09-38.62.16-.56-.56-.91-.84-1.27q3.59-11.19,7.18-22.37c-1.35-2.67-6.66,11.91-7.39,12.03-2.41-1.48-1.38-3.24-4.01-5.07-3.32-2.3-3.14-.19-5.07-2.11,3.15-4.92,8.14-14.99,14.98-11.82,1.98-11.53,10.79-4.66,6.12,4.43,7.42-4.84,6.94,2.11,5.07,7.6,1.22.21,1.94-1.6,2.74-1.48,5.18.81-6.39,12.74-3.59,18.78-1.73,9.59-15.89,23.06-5.07,14.35,12.15-21.73,9.27-11.99,1.27,4.22l6.96-4.43c3.93,3.01-9.85,21.74-10.76,25.75Z"/>
        <path class="cls-17" d="M291.23,110.99c-5.23,5.81-10.9,11.76-14.14,18.99,16.97-4.69,22.3-15.86,23.64-16.46,7.68-3.44-13.23,17.46-14.98,18.99-2.62,2.28-7.8,4.72-6.33,6.33-13.93,1.86-26.76,12.72-34.19,16.04-4.28,1.91-14.6,4.29-20.26,7.18-.23-.5-1.58-3.22-1.69-3.38.79-1.51,1.93-2.87,2.95-4.22,3.64-4.81,8.15-8.92,12.66-12.87.23-.48-.55-.76-.42-1.06.1-.24.18-.67.42-1.27,7.81-4.17,14.49-9.93,21.53-15.2,3.54-2.65,5.91-5.09,7.6-6.33,4.51-3.32,22.96-17.56,17.52-4.22.41.17,3.86-2.11,5.7-2.53Z"/>
        <path class="cls-34" d="M250.28,60.34c1.92,1.92,1.75-.19,5.07,2.11-2.26,13.1-5.08,26-9.29,38.62l-3.38-9.71c-.55-.69-1.18.56-1.27.84-1.17,3.72-1.17,21.92-2.74,22.58-1.03.44-1.9-1.1-2.74.21-.44.68-2.45,11.45-3.59,14.14-.98-.16.73-12.79.21-14.14-.25-.65-5.11-3.15-5.49-.84-3.21,19.92-3.24,19.58-3.38-.84-10.78-2.88-1.82-1.67-1.69-14.77,0-.15-.55-2.78-1.27-2.74.41-3.79,1.98-5.47,2.11-5.91l5.7,5.49c2-4,1.37-10.43,1.48-10.97,2.56-12.53,14.68-32.6,17.31-25.54,1.13,3.04-2.03,9.25,2.95,1.48Z"/>
        <path class="cls-34" d="M44.3,127.46c.13.18,1.94,1.16,1.48,1.69-14.1.13.73,6.65,7.6,10.55,2.24-.62-3.69-8.89-3.59-10.55,7.41,3.27,21.02,8.05,28.49,5.91,3.45,4.05,8.76,5.94,12.87,8.86l-7.18-1.9c1.84,1.78,3.48,3.67,5.49,5.28,10.31,8.26,18.65,8.19,8.86,8.44-2.32-2.55-24.07-5.92-25.54-5.49-.35.1-.01.9-.63.84-3.31-1.22-10.06.83-20.89-4.64-.96-.49-3.82-3.32-4.22-3.38-1.62-.22-1.23,1.35-2.11,1.27-.55-.06-8.73-3.23-10.34-3.8-1.83-.64-18.56-8.32-18.99-7.39-.06.14,1.3,2.18,1.27,2.74-4.51.51-10.57-.97-13.93.42-7.59-3.49,1.49-5.8,5.7-4.22-6.48-7,2.12-6.88,7.6-5.49,5.88,1.49,5.91,5.31,6.33,0,6.18.15,7.95-2.25,15.62-.84,2.25.41,5.68,3.54,6.12,1.69Z"/>
        <path class="cls-17" d="M34.59,140.54c1.61.57,9.79,3.74,10.34,3.8.88.09.49-1.48,2.11-1.27.4.05,3.26,2.89,4.22,3.38,10.84,5.48,17.59,3.42,20.89,4.64.49.18,6.9,5.67,8.02,6.75-9.14,2.57-17.89,7.15-27.44,8.44-.43-.4-3.45-.52-4.01-4.64-5.6.55-11.26,1.54-16.88.42,8.63-3.7,25.02-4.73,4.64-8.02-2.62-.42-5.23-.19-7.81-.42-5.21-.46-11.61-1.69-10.55.42-4.54-2.83-6.36-.03-2.74-4.22,1.94.22,5.79-.58,3.59-1.69.31.03.29-.99,5.91-.63-2.49-2.7-6.78-9.29-4.64-9.92,4.67,1.09,9.65,2.94,14.35,2.95Z"/>
        <path class="cls-34" d="M296.29,143.92c.07.07-.18.7.21.84,16.79-3.42,23.8,10.43,10.97,9.29-.39.07-.15,1.26-.21,1.27-1.05.18-3.47-.95-7.39-.84-3.8.1-9.27,3.45-9.29-3.38-.19-.15-3.18,2.19-4.01,2.53-2.22.9-8.68,2.47-10.76,2.11-2.96-.51-1.03-2.37-5.07-2.11-.39.03-6.75,2.22-7.39,2.53-.67-3.99-10.64-.45-18.15-1.27,7.43-3.32,20.26-14.18,34.19-16.04,3.53-.47,10.13-.9,13.3.42,3.79,1.58,1.89,2.94,3.59,4.64Z"/>
        <path class="cls-14" d="M147.71,51.9c3.24,10.83,9.07,16.12,3.38,27.86-.43.88-3.17,6.05-4.01,5.91-6-8.77-8.87-16.37-17.1-23.64-.61-5.26-3.05-11.33-2.53-17.1.97-10.66,4.66,1.31,5.49-1.27-.31-1.89-.58-3.77-.42-5.7,5.75,3.75,9.78,11.23,15.2,13.93Z"/>
        <path class="cls-35" d="M42.19,65.83l7.6,20.47q-4.75-2.85-9.5-5.7l-.63.63q9.71,13.72,19.42,27.44c-5.01-2.08-13.5-3.92-17.1-5.28-3.34-1.26-6.85-3.66-9.5-4.64-1.07-2.02-2.84-4.07-2.95-6.54-.2-4.37,2.44-1.57,2.53-3.8.06-1.42-14.96-26.02,2.95-16.88-.81-2.78-1.4-5.76-.42-8.65,1.74,2.42,4.95,3.01,7.6,2.95Z"/>
        <path class="cls-19" d="M263.37,156.16c-.06.03.2.83-.63,1.27-6.44,3.39-12.38,7.71-18.36,11.82-9.5,1.84,8.48,4.27,8.65,8.02l6.96.42c-3.13.81-8.7-.27-12.66,0-13.41.9-9.96,5.48-10.97,6.96-.14.21-2.87.42-2.95,1.27-.06.54,6.57,7.78,4.22,9.08-.14-.14-2.96-1.44-3.59-1.69-1.62-1.58-2.59-6.48-6.12-7.6-.08-.08-.06-.15-.42-.42,3.8-6.64.54-16.57-2.53-23.22,5.66-2.89,15.98-5.26,20.26-7.18,7.51.82,17.48-2.72,18.15,1.27Z"/>
        <path class="cls-17" d="M158.27,39.66c1.43,14.47,2.12,29.06,3.8,43.48-5.83,3.78-7.2,1.59-10.97-3.38,5.69-11.74-.13-17.03-3.38-27.86-2.7-9,.13-4.48,1.48-5.49,1.45-1.09-4.4-16.89-6.12-18.99-.82-2.85-.13-5.61.42-8.44,3.72,7.54,7.38,16.13,14.77,20.68Z"/>
        <path class="cls-19" d="M276.88,163.76c1.23,1.55,4.88,2.57,5.49,4.64,2.1,7.23-19.66,6.51-22.37,9.29l-6.96-.42c-.18-3.75-18.15-6.18-8.65-8.02,3.96-.77,9.12-.63,12.87-2.53,1.93-.97,3.17-6.45,19.63-2.95Z"/>
        <path class="cls-35" d="M299.25,133.37c-.35,0-1.28,2.95-2.74-2.95l-10.76,2.11c1.76-1.53,22.67-22.44,14.98-18.99-1.34.6-6.67,11.77-23.64,16.46,3.24-7.23,8.91-13.18,14.14-18.99,6.4-1.48,2.35,2.49,3.17,2.95.67.38,12.11-7.48,13.72-.63.97,4.15-4.28,6.74-4.22,7.18.11.87,2.12.31,2.53,1.27,1.14,2.63-8.79,9.62-7.18,11.61Z"/>
        <path class="cls-17" d="M209.34,86.51c2.04.49,3.3,2.89,4.64,4.22-.05,1.12.09,2.27,0,3.38-.07.86-.65,1.48-.42,2.53-3.81,1.11-8.33,4.29-12.66,5.49-.93-2.49-2.23-4.79-3.38-7.18-.22-.46.48-1.83-.63-2.53-1.07-.39-15.13,12.86-15.83,16.04-1.55.36-2.72,1.56-4.64.42,1.48-2.01,3.13-3.89,4.64-5.91,2.77-3.7,6.1-6.85,8.86-10.55.88.34,5.71-1.87,5.91-2.11.73,3.34,3.85-3.54,11.4-3.8.22,0,2.01-.02,2.11,0Z"/>
        <path class="cls-35" d="M143.07,27.42c1.72,2.11,7.57,17.91,6.12,18.99-1.35,1.01-4.17-3.51-1.48,5.49-5.41-2.7-9.44-10.18-15.2-13.93.63-7.89,3.86-18.75,10.55-10.55Z"/>
        <path class="cls-17" d="M102.97,70.89c.19.14-.89.55.21,1.27,1.11.73,5.46,2.33,5.7,2.53.07.06,0,.91.84,1.69.95,8.58,4.39,17.25,4.22,25.75-.51-.51-7.09-4.25-10.97-9.29.01-.2-.94-2.61-.84-2.74.37-.52,1.71.1,2.11-.42.43-.56-10.09-8.91-.42-9.29-4.84-5.38-6.85-13.91-.84-9.5Z"/>
        <path class="cls-14" d="M155.31,3.78c-.5,1.16-.83,1.39-.84,1.48-.75,4.98,3.09,27.19,3.8,34.4-7.39-4.55-11.05-13.15-14.77-20.68.24-1.24.55-1.9.84-2.95,6.89,7.58,4.45,2.52,5.91-4.85.74-3.73,3.07-7.03.84-7.81,1.71-.92,3.19-1.61,4.22.42Z"/>
        <path class="cls-33" d="M183.17,57.39c-2.55,4.92-2.4-2.08-1.9-6.75-1.81-.14-4.2,4.58-4.64,4.64-6.42.88,1.81-18.89-3.59-20.05.73-6.06-1.97-8.41-2.11-8.86-.38-1.21-.17-5.18-1.69-5.7.97-3.07,6.09,10.37,6.33,11.61,1.45,7.27-1.91,18.58-.63,18.78.42-6.29,11.15-31.28,10.34-12.45-.05,1.13-1.71,5.59-1.27,6.33.27.45,3.53-2.27,2.95,1.69-.08.58-5,6.93-3.8,10.76Z"/>
        <path class="cls-19" d="M52.74,166.29c3.19,2.99,3.78,5.03,8.44,6.75-4.29-1.01-2.88,1.12-5.07,1.69,1.44-7.03-4.6-1.94-.42,0-2.43.19-2.08-.53-2.95-.84.14-1.11-.33-.72-.84-.84.62-.82.35-1.58.42-1.69.07-.11,1.81.85.84-1.48-.46-1.1-10.35-2.43-10.13-1.06-3.29-1.58-7.08-2.65-10.55-3.8-.13-.3-2.35-2.82-2.53-2.95,1.46-1.03.3-5.66-1.27-8.44,2.57.23,5.19,0,7.81.42,20.37,3.29,3.99,4.32-4.64,8.02,5.63,1.11,11.29.12,16.88-.42.56,4.12,3.58,4.24,4.01,4.64Z"/>
        <path class="cls-14" d="M299.25,133.37c4.11-.03,3.79-.81,4.01-.84,8.16-1.14-.79,9.36-6.96,11.4-1.7-1.7.2-3.07-3.59-4.64-3.17-1.32-9.77-.89-13.3-.42-1.47-1.61,3.71-4.05,6.33-6.33l10.76-2.11c1.47,5.9,2.4,2.96,2.74,2.95Z"/>
        <path class="cls-35" d="M119.85,66.25c-1.55.87,3.95,5.5,1.06,5.49-.64,0-6.17-9.35-7.18-10.55-2.7,1.86-4.05-1.2-7.18-.84-.9.52,4.95,12.65,2.32,14.35-.24-.2-4.59-1.81-5.7-2.53-1.1-.72-.02-1.13-.21-1.27,3.58.52-6.6-12.47-.63-14.35,3-.95,5.19,1.74,5.49,1.69.33-.06-1.6-5.68,3.38-.84,3.18-2.77,5.53,4.04,8.65,8.86Z"/>
        <path class="cls-14" d="M307.27,155.32c1.96,2.16-6.15,6.2-11.4,6.75-.24-.16-.56-.32-.84-.42-.74-.27-10.15-1.78-13.3-2.53-2.64-1.57,7.6-3.52,4.85-5.49.83-.34,3.82-2.68,4.01-2.53.02,6.83,5.48,3.48,9.29,3.38,3.92-.1,6.34,1.03,7.39.84Z"/>
        <path class="cls-14" d="M16.86,135.9c1.55-.26,3.19,1.65,3.38,1.69-2.13.63,2.16,7.22,4.64,9.92-5.62-.36-5.6.67-5.91.63-2.08-.23-13.64-5.63-7.6-6.96-9.8-1.9-5.74-3.8-5.91-4.22-.15-.38-2.18-.47-2.53-.63,3.36-1.4,9.42.09,13.93-.42Z"/>
        <path class="cls-33" d="M195.41,73.43c-1.13,1.4-.74,3.62-.84,3.8-.71,1.28-4.22,4.21-4.64,1.48-.59-3.78,5.33-16.19,1.69-25.96,7.63-11.9,3.51,16.71,3.8,20.68Z"/>
        <path class="cls-17" d="M295.87,162.07c4.81,3.1-7.03,8.14-13.51,6.33-.6-2.08-4.26-3.1-5.49-4.64,6.16-1.16,17.95.12,18.15-2.11.28.1.6.27.84.42Z"/>
        <path class="cls-35" d="M45.99,127.03c.11.04,1.21.4,1.27.42,2,.87,2.39,1.63,2.53,1.69-.1,1.67,5.82,9.93,3.59,10.55-6.87-3.9-21.7-10.42-7.6-10.55.46-.53-1.35-1.51-1.48-1.69-1.57-2.26-.28-1.03,1.69-.42Z"/>
        <path class="cls-17" d="M28.68,153.63c1.57,2.78,2.73,7.41,1.27,8.44-2.97-2.15-6.73-1.74-9.08-3.38-3.96-2.76.47-2.64-2.74-4.64-1.06-2.11,5.35-.89,10.55-.42Z"/>
        <path class="cls-14" d="M202.59,79.76c.07.57.41.39.42.42.65,1.85,3.95,7.26,4.22,2.11.07,3.46-1.48,4.53,0,4.22-7.55.26-10.67,7.14-11.4,3.8.09-.1.37-.63.42-.84.38-1.55-.43-4.44-1.27-5.91,3.86-4.82,2.39-.62,2.53-.21,1.29,3.63,3.9-6.41,5.07-3.59Z"/>
        <path class="cls-35" d="M230.02,84.4c-.11.55.52,6.97-1.48,10.97l-5.7-5.49c.8-2.61,1.01-11.42,7.18-5.49Z"/>
        <path class="cls-35" d="M144.34,16.02c.94-3.38,3.6-10.96,6.75-12.66,2.23.78-.1,4.07-.84,7.81-1.46,7.37.98,12.44-5.91,4.85Z"/>
        <path class="cls-35" d="M101.28,96.22c-.53,1.65-2.46,7.5-2.53,8.44l-3.38-3.8c.21-1.64.71-3.09,1.69-4.43.26-1.4-.94-.9-.84-1.48,1.57-9.53,4.8-5.04,5.07,1.27Z"/>
        <path class="cls-34" d="M213.98,90.73c-1.34-1.33-2.61-3.73-4.64-4.22.09-13.96,5.27-8.42,4.64,4.22Z"/>
        <path class="cls-34" d="M216.94,95.8c-.17.03-3.08.76-3.38.84-.23-1.05.35-1.67.42-2.53l4.43-7.18c1.02.5-.87,7.68-1.48,8.86Z"/>
        <path class="cls-34" d="M205.96,78.07l-2.95,2.11s-.35.15-.42-.42c-.17-1.33,2.87-6.27-1.69-5.07.06-.5.04-1.18,0-1.69,2.08,1.52,1.78-4.55,3.8-1.06,1.13,1.95-.77,4.51-.42,5.49.3.85,1.61.57,1.69.63Z"/>
        <path class="cls-35" d="M207.23,82.29c-.27,5.15-3.57-.26-4.22-2.11l2.95-2.11c1.91,1.68,1.21,1.25,1.27,4.22Z"/>
        <path class="cls-33" d="M47.25,127.46c-.06-.03-1.15-.39-1.27-.42l.42-.42s.78.2.84.84Z"/>
        <path class="cls-19" d="M118.17,90.31c2.03,4.01,2.96,10.81,8.65,10.97q-2.85-6.54-5.7-13.09c1.33-.58,2.86-.65,4.01-1.69q5.8,9.18,11.61,18.36l1.9,1.9c1.14,0,2.31-.15,3.38.42,6.7,3.6,1.22,5.03,1.48,7.6-.52-.14-1.51-.12-1.9.42-1.68-5-5.32-6.64-9.71-8.86l1.27,5.91c-6.35-6.13-14.75-4.23-11.19,5.7-.17.73-10.27,5.76-1.69,11.82.11.43-1.1,1.61-1.69,4.01-2.12,8.7-.23,7.61,0,10.13,1.11,12.14-.99,3.78-11.4,1.27-2.25-6.35-11.55-29.77-11.4-34.19,0-.14.24-.46.42-1.27,3.97,2.68,8.91,14.59,14.98,11.4,1.36-.72,1.52-3.59,1.48-3.8,5.53-4.87,1.55-7.94,1.69-9.08,2.25-2.64,1.68-4.03-.42-6.12.16-8.5-3.27-17.17-4.22-25.75,5.17,4.79,5.37,7.87,8.44,13.93Z"/>
        <path class="cls-22" d="M86.09,156.16c-.27.75,1.02,1.14,1.48,1.27,8.29,2.25,17.06,3.11,25.12,6.33-.05.02.17.68-.21.84-.84.37-6.94,2.24-6.96,2.74,3.39,1.07,6.49,3.07,9.71,4.43-4.06,1.18-7.66,3.14-11.4,5.07-3.82,1.97-8.41,3.72-11.4,7.18,1.04-2.71-2-1.3-3.38-1.69-2.31-.65-6-2.56-8.86-2.11-3.18-4.28-11.01-4.88-15.62-6.33-.17-.05-.77.12-3.38-.84-4.66-1.72-5.25-3.76-8.44-6.75,9.54-1.29,18.29-5.87,27.44-8.44,1.83-.51,1.95-1.09,5.91-1.69Z"/>
        <path class="cls-19" d="M148.98,145.18c.06.05.32.65.84,1.27,1.6,1.88,6.98,12.07,5.7,12.66-3.46-4.14-8.14-2.16-8.86,2.95-9.8-4.63-8.63,3.16-9.29,3.38-4.04-2.9-6.59,2.52-15.62,0-.65.21-.85,2.39-1.9,4.22,3.01-9.48-3.07-2.25-5.07-6.33,7.12-2.94,4.44-.28-9.71-7.39-.26-1.11,4.95-2.69,5.07-2.95.2-.47-2.54-6.62-2.95-7.81,10.4,2.51,12.51,10.87,11.4-1.27,3.44.76,4.18,5.18,6.33,7.39,5.38,5.53,2.71.03,2.53-1.69-1.01-9.81,2.29,1.7,11.19.21,3.61,8.72,9.84,6.39,6.12,1.48,2.65-3.54-.32-4.74,2.32-6.96.75-.2,1.38.45,1.9.84Z"/>
        <path class="cls-35" d="M98.33,155.74c-3.76.1-8.59-.13-12.24.42-3.96.6-4.08,1.18-5.91,1.69-1.12-1.08-7.53-6.57-8.02-6.75.62.06.28-.74.63-.84,1.47-.43,23.21,2.94,25.54,5.49Z"/>
        <path class="cls-19" d="M119.85,169.67c-.57,1-1.07,1.97-1.69,2.95-.89-.56-2.02-.45-2.95-.84-3.22-1.36-6.32-3.36-9.71-4.43.03-.5,6.12-2.38,6.96-2.74.38-.17.16-.82.21-.84.1-.04.74.15,2.11-.42,2,4.08,8.07-3.15,5.07,6.33Z"/>
        <path class="cls-34" d="M91.15,143.92c4.65,3.31,2.93,2.31-1.69,3.38-2-1.61-3.65-3.5-5.49-5.28l7.18,1.9Z"/>
        <path class="cls-35" d="M167.13,108.04c-3.19-5.57-3.8-15.59-4.64-22.37,4.94,3.37,4.29,4.52,8.86-1.48,2.27-2.98,5.62-11.47,6.75-8.44,1.5,3.99-9.17,26.84-10.97,32.29Z"/>
        <path class="cls-14" d="M181.06,102.97c-1.51,2.02-3.16,3.9-4.64,5.91-7.24,9.81-9.6,13.59-13.51,25.75-.07-3.78,0-7.64.42-11.4.4-3.59,2.21-10.67,3.38-14.35-.17,5.3,8.27-3.97,14.35-5.91Z"/>
        <path class="cls-22" d="M193.3,87.78l2.95,1.69c-.05.21-.34.74-.42.84-.2.24-5.03,2.45-5.91,2.11,1.09-1.46,2.36-3.16,3.38-4.64Z"/>
        <path class="cls-22" d="M197.94,110.57c-2.64,1.84-4.51,4.9-6.75,7.18-5.77,5.85-6.38,7.65-6.75,8.02-.62.62-1.39,1.18-2.11,1.69-1.28-.08-1.39,1.67-1.9,0q-8.23,9.08-16.46,18.15c-.58-.08-1.03-9.8-1.06-10.97,3.91-12.15,6.27-15.94,13.51-25.75,1.92,1.13,3.1-.06,4.64-.42,2.64-.62,7.02-2.24,7.18-1.9-6.36,11.64-5.04,9.18,7.6-1.06,1.77.62,1.5,3.32,2.11,5.07Z"/>
        <path class="cls-35" d="M260.41,124.08c-7.04,5.26-13.72,11.03-21.53,15.2,2.87-7.07,5.73-14.39,8.44-21.53,2.62-.61,21.68-17.82,22.37-13.3.17,1.13-13,17.3-9.29,19.63Z"/>
        <path class="cls-35" d="M197.52,94.95l-3.8,8.23c1.49-.52,4.23-.11,5.07-.21-1.71.49-2.49,2.15-2.95,2.53-12.64,10.23-13.96,12.69-7.6,1.06-.15-.34-4.54,1.28-7.18,1.9.69-3.18,14.76-16.43,15.83-16.04,1.12.7.41,2.07.63,2.53Z"/>
        <path class="cls-35" d="M191.19,117.75c2.24-2.27,4.12-5.33,6.75-7.18,2.96-2.07,16.2-7.09,15.62-4.85-.2.78-9.19,10.44-11.61,11.19-.82.25-9.49,1.47-10.76.84Z"/>
        <path class="cls-19" d="M238.46,140.54c-.13.3.65.57.42,1.06-4.52,3.95-9.02,8.07-12.66,12.87-1.52-1.68-2.59-3.44-4.22-5.07-2.15-4.73-6.88-7.6-4.64-9.29.41.34,6.02,2.15,8.65,5.91q6.23-2.74,12.45-5.49Z"/>
        <path class="cls-17" d="M200.9,102.13c-1.46.4-2,.83-2.11.84-.84.1-3.58-.31-5.07.21l3.8-8.23c1.15,2.38,2.44,4.69,3.38,7.18Z"/>
        <path class="cls-19" d="M163.33,123.24c-.41,3.76-.5,7.62-.42,11.4.02,1.18.47,10.89,1.06,10.97q8.23-9.08,16.46-18.15c.51,1.67.62-.08,1.9,0-.62,1.23-1.11,2.56-1.69,3.8-1.75,3.75-3.07,7.79-5.07,11.4-5.24,9.45-9.1,7.09-7.39,16.04,1.21,1.01,3.62-4.67,4.43-5.7,2.04-2.59,6.24-6.27,6.75-6.96,2.13,6.42,6.69,11.62,10.13,17.31l-.42.84c-.08-.08-1.84-.54-2.32-.42-4.47-9.52-5.02-2.71-5.49-2.53-.52.19-4.23-4.91-9.92-.84-4.96-1.06-8.29-1.69-12.87,1.27-.37-.26-.63-5.45-2.32-8.86,9.73-6.37,2.06-8.73-2.11-2.95-.31-.58-2.98-3.2-3.38-4.64-.29-1.06-.5-2.48-.42-3.59.74-10.89,4.45,1.37,5.49-2.11.39-1.32-.94-7.78-1.69-9.08,3.89.69-4.49-14.14-3.17-14.77,4.25,5.36,3.44,7.54,12.45,7.6Z"/>
        <path class="cls-17" d="M121.12,88.2q2.85,6.54,5.7,13.09c-5.7-.17-6.62-6.97-8.65-10.97,2.89-4.02,2.76-2.03,2.95-2.11Z"/>
        <path class="cls-17" d="M98.75,104.66c-.04.55-.02,1.14,0,1.69-1.97-.3-2.22,2.01-2.53,3.38-1.45-3-1.23-5.75-.84-8.86l3.38,3.8Z"/>
        <path class="cls-14" d="M34.59,140.54c-4.71-.01-9.68-1.86-14.35-2.95-.18-.04-1.83-1.94-3.38-1.69.03-.57-1.33-2.61-1.27-2.74.44-.93,17.17,6.74,18.99,7.39Z"/>
        <path class="cls-17" d="M286.58,153.63c2.75,1.96-7.5,3.92-4.85,5.49,3.15.76,12.55,2.26,13.3,2.53-.2,2.23-11.99.95-18.15,2.11-16.46-3.5-17.7,1.98-19.63,2.95-3.76,1.9-8.92,1.76-12.87,2.53,5.99-4.11,11.92-8.43,18.36-11.82.83-.44.57-1.23.63-1.27.64-.32,7-2.51,7.39-2.53,4.04-.26,2.1,1.6,5.07,2.11,2.08.36,8.55-1.21,10.76-2.11Z"/>
        <g>
          <path class="cls-9" d="M113.94,102.13c2.11,2.09,2.67,3.48.42,6.12-.14,1.14,3.84,4.21-1.69,9.08-.99-4.44-14.56-19.26-9.71-6.12l-.63.21c-2.71-1.05-3.46-2.03-3.59-5.07-.02-.55-.04-1.14,0-1.69.07-.94,2-6.79,2.53-8.44.06-.19,1.45.29,1.69-3.38,3.88,5.03,10.46,8.78,10.97,9.29Z"/>
          <path class="cls-17" d="M112.68,117.33c.05.21-.11,3.08-1.48,3.8-6.08,3.19-11.02-8.72-14.98-11.4.31-1.37.57-3.68,2.53-3.38.12,3.04.88,4.02,3.59,5.07l.63-.21c-4.85-13.14,8.72,1.68,9.71,6.12Z"/>
        </g>
        <g>
          <path class="cls-17" d="M103.81,176.84l-3.59,7.18c3.61-.84,7.47-2.72,11.19-2.95-6.28,7.83-14.31,16.79-4.22,25.33-.55,1.13-1.84,4.93-2.53,6.75l-11.4,1.27c-.94-3.32-3.61-4.56-5.07-8.23-.24-.6-1.68-5.8-1.69-6.12,0-.17.73-2.63.84-3.38.47-3.09,1.78-7.44,3.38-10.13.17-.29,1.59-2.42,1.69-2.53,2.98-3.45,7.57-5.21,11.4-7.18Z"/>
          <path class="cls-35" d="M115.21,171.78c.93.39,2.07.28,2.95.84-.39.62-.87,1.07-1.27,1.69-1.35,2.11-3.73,3.76-3.38,6.75-.35-.01-1.82-.02-2.11,0-3.72.24-7.58,2.12-11.19,2.95l3.59-7.18c3.73-1.92,7.34-3.88,11.4-5.07Z"/>
          <path class="cls-14" d="M113.52,181.06c.69.03,1.73,1.25,2.11,1.27,2.56,4.45,2.77,10.12,1.06,14.77-4.05-1.22-7.94,6.09-9.5,9.29-10.09-8.54-2.06-17.5,4.22-25.33.29-.02,1.76-.01,2.11,0Z"/>
          <path class="cls-22" d="M104.66,213.14c-1.08,2.86-2.08,5.97-2.11,9.08l-.84.21c-3.07-4.31-4.03-2.22-4.43-2.53-.26-.21.17-4.01-3.17-2.53,0-.14-.23,1.15-.84-2.11-.05-.26.06-.62,0-.84l11.4-1.27Z"/>
        </g>
        <path class="cls-19" d="M156.15,152.78c-.08-.16-1.23-1.32-2.11-2.95,4.17-5.77,11.84-3.42,2.11,2.95Z"/>
        <g>
          <path class="cls-14" d="M219.89,155.74c.48.42,2.26,1.33,3.38,2.95.11.16,1.46,2.88,1.69,3.38,3.08,6.64,6.33,16.57,2.53,23.22-1.43-1.1-3.45-1.07-5.07-1.69.23-10.9,1.09-2.22-2.95-3.38.05-10.23-1.7-19.87-6.75-28.91,1.41.33,6.25,3.64,7.18,4.43Z"/>
          <path class="cls-14" d="M217.78,186.13c.18,2.83-1.96,5.17-4.64,5.49-.55.06-1.13-.04-1.69,0,1.05-1.79.07-2.98,0-3.38,4.25,1.02-3.14-11.27-.84-13.51,2.14,2.69,6.94,7.65,7.18,11.4Z"/>
          <path class="cls-35" d="M198.36,168.82c-3.1-1.67-5.35-4.77-8.86-5.49-3.44-5.69-8-10.88-10.13-17.31.48-.64,1.35-.57.63-1.27l-4.43-2.11c2-3.61,3.32-7.65,5.07-11.4,11.09,4.01,22.49,8.41,30.81,17.1.16,1.71-9.84-5.84-11.19-6.54-5.9-3.08-14.28-5.86-20.89-6.96-.93,2.02,19.91,10.05,18.99,33.98Z"/>
          <path class="cls-14" d="M205.12,168.82c-.34-.02-.86-.06-.84.21.04.78,4.72,12.38,5.49,14.56-2.1.61-4.56.33-6.12,2.11-.45-.34.45-9.73-3.59-10.13,2.16-13.11-2.48-14.7,5.07-6.75Z"/>
          <path class="cls-35" d="M205.12,168.82c2.07,2.18,3.36,3.23,5.49,5.91-2.29,2.24,5.09,14.53.84,13.51-.77-4.21-1.61-4.41-1.69-4.64-.77-2.18-5.45-13.79-5.49-14.56-.01-.27.51-.23.84-.21Z"/>
          <g>
            <path class="cls-34" d="M217.36,140.12c-2.24,1.69,2.5,4.55,4.64,9.29-5.66-5.66-11.37-11.97-18.99-14.98,7.25,5.78,12.45,13.26,16.88,21.32-.92-.8-5.77-4.11-7.18-4.43,5.05,9.05,6.81,18.69,6.75,28.91,0,.14,0,.28,0,.42-.04,2.08-1.13,3.37-.84,5.07l-.84.42c-.23-3.75-5.03-8.7-7.18-11.4-2.13-2.68-3.42-3.73-5.49-5.91-7.54-7.95-2.91-6.36-5.07,6.75-1.85-.18-4.15,2.42-5.07,1.48.5-.33.4-.57.42-1.06,1.5.84,2.81-3.51,2.95-7.18.92-23.93-19.93-31.96-18.99-33.98,6.61,1.1,14.99,3.89,20.89,6.96,1.34.7,11.35,8.25,11.19,6.54-8.32-8.69-19.72-13.09-30.81-17.1.58-1.24,1.07-2.57,1.69-3.8.72-.51,1.49-1.07,2.11-1.69,21.82-4.09,28.71,10.82,32.92,14.35Z"/>
            <path class="cls-14" d="M222,149.41c1.63,1.63,2.7,3.39,4.22,5.07-1.02,1.35-2.16,2.71-2.95,4.22-1.11-1.62-2.89-2.54-3.38-2.95-4.43-8.05-9.63-15.53-16.88-21.32,7.62,3.01,13.33,9.32,18.99,14.98Z"/>
            <path class="cls-14" d="M197.31,151.52c7.35,3.77,12.41,10.9,13.93,18.99q-6.96-9.5-13.93-18.99Z"/>
          </g>
          <path class="cls-17" d="M198.36,168.82c-.14,3.67-1.46,8.02-2.95,7.18.2-5.46-2.44-7.98-6.33-11.82l.42-.84c3.51.71,5.77,3.82,8.86,5.49Z"/>
        </g>
        <path class="cls-28" d="M222.42,183.6c-.33-.13-1.33.14-1.48,0-.58-.55,1.6-2.63-1.48-2.95,0-.14,0-.28,0-.42,4.05,1.16,3.19-7.52,2.95,3.38Z"/>
      </g>
      <g>
        <path class="cls-39" d="M94.95,227.07c1.16.3,2.8,1.62,2.95,1.69.26.71.97.99,1.27,1.69.5,1.17.36,1.41.42,2.53.12,2.14-.23,3.89-.84,5.91-3.47-1.38-8.04,5.38-17.31,0-.02-.14.02-.28,0-.42-.08-.56-3.03-4.73.42-9.29.04-.05.76-.77.84-.84,3.28-2.99,8.24-2.31,12.24-1.27Z"/>
        <path class="cls-7" d="M81.86,229.18c-3.45,4.56-.5,8.72-.42,9.29-5.58,1.82-7.33-3.69-5.07-8.02,1.25-2.38,3.21-2.99,5.49-1.27Z"/>
        <path class="cls-15" d="M212.72,274.35c-5.28,7.91-13.03,6.34-13.72,6.75-.26.16.05,1.99-1.69,2.95-1.27.71-2.81.25-3.17.42-3.02-.92-2.24-4.11-3.59-4.22-.53-.04-4.85,4.4-5.91,5.07-7.32,4.63-7.29,2.17-9.08,1.69-2.63-2.35,2.95-4.83,2.11-6.75,3.84-2.71-2.33-5.32,9.92-6.33,7.16,1.92,17.43,1.39,21.53-5.91l4.85,4.85c-.52.44-.89.91-1.27,1.48Z"/>
        <path class="cls-15" d="M149.4,276.88c-2.14-1.33-2.78,4.98-4.22,3.8-.4-1.18-1.29-2.25-1.27-3.59h-.84c-2.75,10.37-.51,14.34-5.28,1.9-5.43,7.98-4.92-.14-7.81-3.17-.5-.52-2.98-1.23-3.8-1.9-.71-.58-1.2-.69-1.27-1.48-.43-5.04,2.47-2.77,4.01-2.74.15,0,.71-.86.84-.84.96.12,9.09,4.4,15.62,1.69.44,2.35,4.15,3.76,4.43,4.43.47,1.13-.43,1.8-.42,1.9Z"/>
        <path class="cls-29" d="M170.08,262.53c-1.46,6.16-4.45,1.23-4.85,1.27-.69.07-8.27,10.85-8.23,0,3.16-1.72,6.37-3.49,8.65-6.33,1.08-.01,1,3.31,4.43,5.07Z"/>
        <path class="cls-32" d="M125.76,260.84c-2.84-1.35-3.85-2.98-5.91-5.07,2.01.11-.47-1.63,0-3.17.82-2.68,5.92.79,7.18,1.69-1.34,2.08-1.19,4.22-1.27,6.54Z"/>
        <path class="cls-5" d="M100.44,240.58c-2.15-.73-1.58-1.64-1.69-1.69.61-2.02.97-3.77.84-5.91.77.07,4.15,1.63,4.22,1.9.09.33-2.37,5.97-3.38,5.7Z"/>
        <g>
          <path class="cls-15" d="M98.75,238.89c.11.04-.47.96,1.69,1.69l.84,1.06c-2.8,3.46,4.62,12.89,5.28,12.45.29-.19.28-2.32.84-2.53.21-.08,1.92,1.67,4.01,2.11,4.19.88,4.88-1.69,5.28-1.69.25,0,1.88,2.5,3.17,3.8,2.06,2.08,3.07,3.71,5.91,5.07,7.83,3.73,5.33-1.08,6.12-1.69.69-.53,7.03,5.34,16.04-2.11,3.43,12.38,2.74,10.21,9.08,6.75-.04,10.85,7.54.07,8.23,0,.41-.04,3.4,4.89,4.85-1.27,3.76,1.93,8.78,2.13,12.45,0,1.68-.98,1.6-3.39,2.95-2.95,6.23,4.95,2.3,12.11,2.95,12.24,2.97-3.59,2.34-10.93,4.22-13.09.6-.69,5.09-2.61,5.91-2.11,1.18.72-3.63,4.57,2.74,4.64q-.32,4.43-.63,8.86c9.19-12.78,5.82-1.31,15.2-6.75,3.07-1.78,5.34-5.67,6.75-8.86-.64,9.56,5.19,7.15,7.18.42,4.23-.29,6.65-4.98,6.12.84-.55.49-1.01.78-1.69,1.06,2.69,1.65-2.51,3.78-4.64,4.64.42,3.96-7.01,8.33-10.34,5.7l-6.54,7.18c.38-.57.74-1.04,1.27-1.48l-4.85-4.85c-4.1,7.3-14.37,7.83-21.53,5.91-12.24,1.01-6.08,3.63-9.92,6.33-8.7,6.12-8.47-6.4-13.51,3.8-.99-2.87-2.65-10.96-4.43-10.55-1.79,1.36-.59,7.98-1.69,8.86-4.07,3.28-4.18-3.91-4.64-4.22-1.19.99-2.1,2.29-3.17,3.38-.07.07-.36-.07-.42,0-.81-.12-.28-2.38-.42-4.64,0-.1.9-.76.42-1.9-.28-.67-3.99-2.09-4.43-4.43-6.52,2.71-14.66-1.57-15.62-1.69-.13-.02-.7.85-.84.84-1.54-.03-4.44-2.3-4.01,2.74.07.79.56.9,1.27,1.48,1.11,7.49-2.17,4.25-5.91.63-.45-.44.37-3.82-10.13-6.54.1-.47.66-.68.42-1.06-3.04-2.03-7.63-2.57-8.02-2.74-11.17-5.09-8.27-12.77-9.08-13.51-3.26,2.46-8.92-1-7.39-4.85-7.39-1.74-4.49-6.1-4.64-6.96,9.27,5.38,13.83-1.38,17.31,0Z"/>
          <path class="cls-3" d="M144.97,263.37c2.8-1.2,3.17,6.11,0,5.07-.94-.31-.99-4.64,0-5.07Z"/>
        </g>
        <path class="cls-15" d="M86.51,200.06c.01.32,1.45,5.52,1.69,6.12,1.46,3.67,4.13,4.91,5.07,8.23.06.22-.05.59,0,.84-2.73.15-4.5,3.2-4.64,5.7,3.26-5.26,5.56,2.94,5.49-3.59,3.33-1.48,2.9,2.33,3.17,2.53.4.31,1.36-1.78,4.43,2.53-2.76,1.05-7.59,2.53-6.75,4.64-4-1.05-8.96-1.72-12.24,1.27-5.24-4.28-4.12-7.01-2.11-12.24,1.15-3,1.14-4.36,4.64-6.54-.74-2.63-.84-9.5,1.27-9.5Z"/>
        <path class="cls-15" d="M222.42,183.6c1.61.62,3.64.58,5.07,1.69.36.28.35.35.42.42.16.16,1.85,4.03,1.48,4.22-2.82-1.19-5.79-1.44-8.02.84-.08-2.8-2.46-3.35-2.74-5.07-.28-1.7.81-2.98.84-5.07,3.07.32.9,2.4,1.48,2.95.15.14,1.14-.13,1.48,0Z"/>
        <path class="cls-39" d="M230.87,228.76c9.86-1.07,16.49,6.17,8.86,14.35-4.66,1.9-8.78,2.86-11.61-2.11-2.78,9.18-16.73,9.54-17.94,5.7-2.07-6.58,7.65-16.35,14.14-9.08.88-.68-2.11-7.93,6.54-8.86Z"/>
        <path class="cls-15" d="M189.08,164.18c3.89,3.84,6.53,6.36,6.33,11.82-.02.49.08.72-.42,1.06.92.94,3.22-1.66,5.07-1.48,4.04.4,3.13,9.79,3.59,10.13,1.56-1.78,4.02-1.5,6.12-2.11.08.23.92.43,1.69,4.64.07.4,1.05,1.59,0,3.38-2.74-1.71-10.24-.65-11.61-1.69-1.86-1.41-.95-6.28-2.53-6.75-.9-.27-3.81,1.58-5.28,1.69,4.9-15.11-8.03-21.79-20.68-24.48,5.68-4.06,9.4,1.03,9.92.84.47-.17,1.02-6.99,5.49,2.53.48-.11,2.24.34,2.32.42Z"/>
        <path class="cls-40" d="M120.7,235.51c2.91-.05,3.21.43,3.38.42,14.06,14.52-10.09,15.67-13.93,8.02-2.11-4.2-.37-5.3,2.11-8.02,2.8-.7,5.62-.38,8.44-.42Z"/>
        <path class="cls-30" d="M210.18,205.12c-.23-.89-.84-3.6-.84-3.8,1.96.69,4.71-2.87,8.44-.21,2.25,1.6,3.28,6.56-.63,6.96-3.54.36-5.48-3.96-6.96-2.95Z"/>
        <path class="cls-29" d="M132.09,194.15c0,.08.41-.21,0,1.69-4.6.21-10.15,6.38-8.86,1.06.15-.61,3.59-3.45,4.22-3.59,1.48-.31,3.33,0,4.64.84Z"/>
        <path class="cls-32" d="M132.94,190.35c-.09.17-.84,3.5-.84,3.8-1.31-.85-3.17-1.16-4.64-.84-2.28-1.51,4.27-5.06,5.49-2.95Z"/>
        <path class="cls-37" d="M115.63,182.33c-.38-.01-1.42-1.24-2.11-1.27-.35-3,2.02-4.65,3.38-6.75l3.17,4.64c10.26,3.73.27,3.56-4.43,3.38Z"/>
        <g>
          <path class="cls-29" d="M154.04,149.83c.88,1.63,2.03,2.79,2.11,2.95,1.69,3.41,1.95,8.6,2.32,8.86,4.58-2.95,7.91-2.32,12.87-1.27,12.65,2.69,25.59,9.37,20.68,24.48-2.53.19-4.87-.6-7.39-.42-1.61-9.29-6.47-5.86-6.96-7.39,2.63-3.43.29-7.38-4.01-6.96-7.2-7.68-6.7.57-6.96,1.06-.48.87-2.97,1.22-3.59,1.9-1.94,2.11-4.54,9.65-13.51,5.49,2.48,13.78-9.76,7.81-12.66,8.44-.77.17-3.6,2.63-4.01,3.38-1.22-2.1-7.77,1.44-5.49,2.95-.63.13-4.07,2.98-4.22,3.59-1.29,5.32,4.26-.84,8.86-1.06,9.41,11.69-8.06,7.18-7.39,14.77-10.7-5.14-18.65,17.07-10.76,23.85.13.75-.92.63-1.69,1.48-2.48,2.72-4.22,3.82-2.11,8.02-2.01,3.78.31,6.17,1.27,9.71-2.09-.44-3.8-2.19-4.01-2.11-.57.21-.55,2.34-.84,2.53-.66.43-8.08-8.99-5.28-12.45l-.84-1.06c1.01.28,3.47-5.37,3.38-5.7-.08-.27-3.45-1.83-4.22-1.9-.06-1.12.08-1.36-.42-2.53l2.95-.21c-1.26-.85-2.84-.88-4.22-1.48-.16-.07-1.8-1.39-2.95-1.69-.84-2.12,3.99-3.59,6.75-4.64l.84-.21c.03-3.11,1.04-6.22,2.11-9.08.69-1.83,1.98-5.62,2.53-6.75,1.56-3.2,5.44-10.51,9.5-9.29,1.72-4.65,1.51-10.32-1.06-14.77,4.7.18,14.69.36,4.43-3.38l-3.17-4.64c.4-.62.87-1.07,1.27-1.69.62-.98,1.12-1.96,1.69-2.95,1.05-1.83,1.25-4.01,1.9-4.22,9.03,2.52,11.58-2.9,15.62,0,.66-.22-.51-8,9.29-3.38.72-5.11,5.41-7.1,8.86-2.95,1.28-.59-4.1-10.78-5.7-12.66l.84-1.27c.4,1.44,3.07,4.07,3.38,4.64Z"/>
          <path class="cls-8" d="M99.17,230.45c-.3-.7-1.01-.98-1.27-1.69,1.38.59,2.97.62,4.22,1.48l-2.95.21Z"/>
          <path class="cls-32" d="M140.33,176.84c.92-.16,7.67-.08,7.81.63-2.96,1.14-5.77,1.73-7.81,4.43l-6.12-1.9c-.1-.35,5.65-3.08,6.12-3.17Z"/>
        </g>
        <g>
          <path class="cls-29" d="M227.91,185.71c3.53,1.12,4.5,6.02,6.12,7.6.63.25,3.45,1.55,3.59,1.69.16.15,1.97,2.69,2.11,2.95.87,1.61,1.64,4.12,1.69,5.91.07,2.25-.62,6.07-2.11,7.81.7.76,2.37,2.46,2.53,2.74,1.26,2.15,3.22,6.43,5.49,7.6l-4.22,4.85c12.97,10.18.27,14.08,2.95,17.52-.35.16-5.68,4.55-5.91,4.85-1.74,2.39-.07,2.88-4.22,6.54.53-5.83-1.89-1.13-6.12-.84-1.99,6.73-7.82,9.13-7.18-.42-1.41,3.19-3.68,7.08-6.75,8.86-9.38,5.44-6-6.03-15.2,6.75q.32-4.43.63-8.86c8.41.1,6.84-8.65,8.23-9.29,5.7,1.95,15.36-3.37,18.15-8.44,4.57,4.48,7.82,4.09,12.03-.42,7.63-8.18.99-15.42-8.86-14.35-1.05-4.58-.18-13.88-5.07-14.56-3.15-9.58-4.48-3.26-7.81-2.74-5.21.81-6.7-2.08-7.81-6.33,1.48-1.01,3.42,3.32,6.96,2.95,3.91-.4,2.88-5.36.63-6.96-3.73-2.66-6.48.9-8.44.21-.11-4.67.95-6.37,3.8-9.71,2.68-.32,4.82-2.66,4.64-5.49l.84-.42c.29,1.72,2.66,2.27,2.74,5.07,2.23-2.29,5.2-2.04,8.02-.84.37-.19-1.32-4.06-1.48-4.22Z"/>
          <path class="cls-32" d="M231.08,197.95c4.36-.76,6.38,2.23,6.96,6.12-.63,1.08-2.41-3.08-7.39.21-2.97-1.91-3.94-5.57.42-6.33Z"/>
        </g>
        <path class="cls-31" d="M93.26,215.25c.62,3.26.84,1.97.84,2.11.07,6.53-2.23-1.67-5.49,3.59.15-2.5,1.91-5.55,4.64-5.7Z"/>
        <g>
          <path class="cls-3" d="M192.03,184.86c1.47-.11,4.38-1.96,5.28-1.69,1.59.47.67,5.34,2.53,6.75,1.37,1.04,8.87-.02,11.61,1.69.56-.04,1.14.06,1.69,0-2.85,3.34-3.91,5.03-3.8,9.71,0,.19.61,2.91.84,3.8,1.1,4.25,2.6,7.14,7.81,6.33,3.33-.51,4.66-6.84,7.81,2.74,4.88.69,4.02,9.98,5.07,14.56-8.65.94-5.66,8.18-6.54,8.86-6.49-7.27-16.21,2.49-14.14,9.08,1.21,3.84,15.15,3.48,17.94-5.7,2.83,4.97,6.95,4.01,11.61,2.11-4.21,4.51-7.46,4.9-12.03.42-2.79,5.08-12.45,10.39-18.15,8.44-1.39.64.17,9.39-8.23,9.29-6.38-.08-1.56-3.92-2.74-4.64-.82-.5-5.31,1.42-5.91,2.11-1.88,2.15-1.26,9.49-4.22,13.09-.66-.13,3.28-7.29-2.95-12.24-1.36-.43-1.27,1.98-2.95,2.95-3.68,2.13-8.69,1.93-12.45,0-3.44-1.76-3.36-5.08-4.43-5.07-2.29,2.84-5.5,4.61-8.65,6.33-6.34,3.46-5.64,5.63-9.08-6.75-9.01,7.45-15.35,1.58-16.04,2.11-.8.61,1.71,5.42-6.12,1.69.08-2.33-.07-4.47,1.27-6.54-1.25-.9-6.35-4.37-7.18-1.69-.47,1.53,2.01,3.27,0,3.17-1.28-1.3-2.92-3.8-3.17-3.8-.4,0-1.09,2.56-5.28,1.69-.96-3.54-3.28-5.93-1.27-9.71,3.84,7.65,27.99,6.5,13.93-8.02,4.76-.33,10.79-1.86,12.66-6.75,1.92-5.02.74-13.18-4.85-16.04-10.11-5.16-18.86,7.92-13.3,19.42.64,1.32,1.28,1.86,2.11,2.95-2.82.04-5.65-.28-8.44.42.77-.84,1.82-.73,1.69-1.48-7.88-6.78.07-28.99,10.76-23.85-.67-7.59,16.79-3.09,7.39-14.77.41-1.89,0-1.6,0-1.69,0-.3.75-3.63.84-3.8.41-.75,3.24-3.21,4.01-3.38,2.9-.63,15.15,5.34,12.66-8.44,8.97,4.16,11.57-3.38,13.51-5.49.62-.68,3.11-1.03,3.59-1.9.27-.49-.23-8.74,6.96-1.06,4.3-.42,6.64,3.53,4.01,6.96.49,1.53,5.36-1.9,6.96,7.39,2.51-.18,4.86.62,7.39.42Z"/>
          <path class="cls-20" d="M157,231.72c1.15,15.03,23.32,13.67,21.95-1.27,1.64-1.69,2.84,1.11,2.95,1.27.87,10.57-11.37,16.38-20.26,12.24-6.66-3.1-9.96-14.72-5.7-13.93,1.39.26.99,1.61,1.06,1.69Z"/>
          <path class="cls-41" d="M219.05,230.03c-1.48,7.59-14.01,8.25-18.57,3.38,4.87-5.85,11.95-7.12,18.57-3.38Z"/>
          <path class="cls-4" d="M157,231.72c4.18,4.64,5.91,9.78,13.72,8.02,1.92-.43,4.34-4.5,7.81-5.7-.72-.63,0-3.15.42-3.59,1.37,14.93-20.8,16.29-21.95,1.27Z"/>
          <path class="cls-3" d="M161.64,243.96c8.89,4.14,21.13-1.67,20.26-12.24,1.28,1.73,1.24,3.96.42,6.54-3.48,11.02-24.43,11.56-20.68,5.7Z"/>
          <g>
            <path class="cls-23" d="M219.05,230.03c-6.62-3.75-13.71-2.47-18.57,3.38-5.28-5.63-2.22-18.85,5.7-20.68,9.74-2.26,14.37,9.65,12.87,17.31Z"/>
            <path class="cls-38" d="M212.51,219.05c4.5-1.24,5.87,6.63.42,5.49-2.76-.58-2.27-4.98-.42-5.49Z"/>
          </g>
        </g>
        <g>
          <path class="cls-41" d="M136.74,229.18c-1.87,4.89-7.9,6.42-12.66,6.75-.17.01-.46-.47-3.38-.42-.83-1.09-1.47-1.64-2.11-2.95,5.7-1.88,12.68-10.03,18.15-3.38Z"/>
          <g>
            <path class="cls-23" d="M136.74,229.18c-5.47-6.65-12.45,1.5-18.15,3.38-5.56-11.49,3.19-24.58,13.3-19.42,5.59,2.86,6.77,11.02,4.85,16.04Z"/>
            <path class="cls-2" d="M131.04,217.79c3.76-1.56,6.07,4.66,2.95,5.49-3.06.82-5.37-4.48-2.95-5.49Z"/>
          </g>
        </g>
      </g>
    </g>
  </g>
</svg>