<?xml version="1.0" encoding="UTF-8"?>
<svg id="Layer_2" data-name="Layer 2" xmlns="http://www.w3.org/2000/svg" viewBox="0 0 444.78 490.16">
  <defs>
    <style>
      .cls-1 {
        fill: #f3e9e8;
      }

      .cls-1, .cls-2, .cls-3, .cls-4, .cls-5, .cls-6, .cls-7, .cls-8, .cls-9, .cls-10, .cls-11, .cls-12, .cls-13, .cls-14, .cls-15, .cls-16, .cls-17, .cls-18, .cls-19, .cls-20, .cls-21, .cls-22, .cls-23, .cls-24, .cls-25, .cls-26, .cls-27, .cls-28, .cls-29, .cls-30, .cls-31, .cls-32, .cls-33, .cls-34, .cls-35, .cls-36, .cls-37, .cls-38 {
        stroke-width: 0px;
      }

      .cls-2 {
        fill: #5f8b35;
      }

      .cls-3 {
        fill: #5f9852;
      }

      .cls-4 {
        fill: #456923;
      }

      .cls-5 {
        fill: #77a95b;
      }

      .cls-6 {
        fill: #4c8b53;
      }

      .cls-7 {
        fill: #563217;
      }

      .cls-8 {
        fill: #899b3c;
      }

      .cls-9 {
        fill: #a2c579;
      }

      .cls-10 {
        fill: #2f4648;
      }

      .cls-11 {
        fill: #0b6562;
      }

      .cls-12 {
        fill: #0f877e;
      }

      .cls-13 {
        fill: #1c6959;
      }

      .cls-14 {
        fill: #413b2a;
      }

      .cls-15 {
        fill: #417d46;
      }

      .cls-16 {
        fill: #0a4852;
      }

      .cls-17 {
        fill: #212c20;
      }

      .cls-18 {
        fill: #133741;
      }

      .cls-19 {
        fill: #10595c;
      }

      .cls-20 {
        fill: #dea482;
      }

      .cls-21 {
        fill: #cbf3d4;
      }

      .cls-22 {
        fill: #c7b933;
      }

      .cls-23 {
        fill: #aae4c4;
      }

      .cls-24 {
        fill: #aed696;
      }

      .cls-25 {
        fill: #a5c358;
      }

      .cls-26 {
        fill: #cde99e;
      }

      .cls-27 {
        fill: #a1a01f;
      }

      .cls-28 {
        fill: #72993d;
      }

      .cls-29 {
        fill: #327c57;
      }

      .cls-30 {
        fill: #8db351;
      }

      .cls-31 {
        fill: #7f7f10;
      }

      .cls-32 {
        fill: #73802b;
      }

      .cls-33 {
        fill: #e9c59f;
      }

      .cls-34 {
        fill: #e4d895;
      }

      .cls-35 {
        fill: #f0d14d;
      }

      .cls-36 {
        fill: #fcfdff;
      }

      .cls-37 {
        fill: #fafdf2;
      }

      .cls-38 {
        fill: #f5f1c4;
      }
    </style>
  </defs>
  <g id="Layer_1-2" data-name="Layer 1">
    <g>
      <g>
        <g>
          <path class="cls-9" d="M371.64,92.62c.03-.33-1.11-2.06-.6-6.65,0-.08,1.15-.43,1.21-.91.39-3.39,1-9.66,1.21-12.99l4.83,3.63c1.49,1.84.94,2.94,2.12,3.02,1.09.07,2-4.12,2.42-4.23.44-.12,4.27,3.94,5.74-3.32,1.74-8.63-4.94-6.29-6.04-10.27-.64-2.32-.61-7.91,3.02-7.25,1.18-10.6,11.41.9,7.55,15.41,12.3-8.33-1.46-15.5,5.44-19.34.56-.31,1.14.96,2.42.6.22-.06.93-3.48,3.32-.91l-3.93,11.78c4.88-3.84,6.63-14.38,8.76-7.55q-18.73,19.49-37.47,38.98Z"/>
          <path class="cls-9" d="M406.09,88.99c-.15,0-.69.36-3.02.6-4.03-4.6-16.86-3.05-6.04.6-4.01.82-8.25,2.23-12.09,3.63l-1.21-9.97c9.06,3.09,17.66-8.72,9.06-9.06,9.98-3.57,4.93-5.61,6.95-6.35,3.47-1.27,9.43,6.13,8.76,8.16-16.34,12.33-14.8,5.1-5.14,8.76.91.35,2.33,2.63,2.72,3.63Z"/>
          <path class="cls-30" d="M375.87,44.27c.74,1.17,3.49,4.28,4.83,4.83,1.73,6.13-7.2,17.43-6.04,22.06.07.28,3.06,3.84,3.63,4.53l-4.83-3.63c.38-6.01,2.23-9.31-3.02-14.5-.38-4.89-2.71-6.81-2.42-9.37.45-2.12,2.56-3.07,3.02-5.14,4.14-.88,3.54,5.69,4.83,1.21Z"/>
          <path class="cls-9" d="M380.71,49.11c-1.34-.56-4.09-3.66-4.83-4.83-.22-.34-2.13-5.05-3.63-7.25.26-1.99-.12-4.52,0-6.65,2.72-14.09,12.78-5.8,7.25,3.93,9.53-8.64,7.58,7.64-2.42,8.46-.57,2.82,2.81,3.46,3.63,6.35Z"/>
          <path class="cls-9" d="M410.62,57.57c2.56-.47,2.73,2.79,3.02,3.02.5.38,9.45,2.27,0,8.46-7.43,4.87-4.17-4.89-11.78-4.53,5.3-.8,7.49-6.72,8.76-6.95Z"/>
          <path class="cls-10" d="M371.04,85.97c-.5,4.59.64,6.32.6,6.65-.23,2.42-1.57,5.34-1.81,7.86-1.44.78-2.63,2.2-3.93,3.02-.05.03-.59-.82-.91-.6l-4.83-6.04c.38-.74.85-1.67,1.21-2.42,6.72,12.44,6.96,6.74,7.86-9.37l1.81.91Z"/>
          <path class="cls-37" d="M403.07,89.6c-2.04.22-3.96.18-6.04.6"/>
        </g>
        <g>
          <path class="cls-30" d="M419.99,443.72c-.39-.03-1.62-1.12-2.72-.6-.56.27-.21,1.15-.3,1.21-27.77-7.69-8.08-8.98,6.65-8.16-2.3-.24-1.78-1.45-2.12-1.51-2.38-.44-21.76,1.45-26.59,2.42-2.16,1.31,8.98,1.62,6.95,5.74-.43.88-15.9,6.21-17.83,8.16-.17-2.85,8.61-7.29,8.76-8.76.79-7.53-19.89,2.22-22.06,4.53,4.69-8.01,13.21-12.83,20.24-18.43-.59-1.39-24.64,11.41-26.89,12.99-.01-1.28,6.73-10.62,7.25-10.27,2.52,1.69-5.37,7.34,5.14-1.21,6.88-5.6,16.56-12.92,25.38-13.9.88,9.84,12.57-8.79,19.94-3.93-6.36,10.8,4.05-3.11,5.44,1.21-13.77,14.63,8.92-3.07,13.29,5.44,2.83,5.5-9.37,8.27-9.67,9.67-.32,1.47,2.88,2.36,3.02,3.02.22,1.06-2.52,2.78-2.42,3.02.33.81,9.44.69,7.86,6.65-1.44,5.4-15.4,2.28-19.34,2.72Z"/>
          <path class="cls-9" d="M302.15,23.73c-1.02,1.09-2.83,2.78-3.02,3.02-13.02-5.08.46-23.48,4.83-15.41,2.74,5.06-2.98,10.34-1.81,12.39Z"/>
          <path class="cls-15" d="M428.45,267.26c.91-1.57,3.36-7.05,3.02-8.46,11.24-3.78,6.23,4.73-3.02,8.46Z"/>
          <path class="cls-32" d="M344.45,486.62c-3.03.25-12.26-1.54-16.01-2.42,5.26,11.53-9.94.58-12.09.6-.41,0-6.3,3.69-7.25,3.63-1.96-.14-6.99-9.22-12.09-1.21-18.06-7.5-25.87-.73-27.19-1.21-2.49-.9,4.86-6.82-19.94-2.42-3.25-1.09,5.78-10.04-4.83-3.63-15.7-3.67-18.5,3.69-27.19,3.02.11,4.66-5.64,1.58-7.86,1.81-1.37.14-5.48,2.42-6.65,1.81-.5-.26.06-2.47-1.81-2.42-.35.01-.99,1.62-6.35,3.02-2.19.57-14.16,3.78-15.11,2.72-.7-.78,2.91-3.34-4.23-1.51-4.97-1.02-5.86-.77-1.21-4.23,10.44-7.77,16.64-1.89,20.24-1.81.95.02,17.88-3.2,18.73-3.63,8.15-4.08-10.91-5.56,3.63-5.44,4.48-1.86,2.87-20.08,6.35-3.32,3.56,5.09,11.23-3.09,12.39-2.12.63.53.33,12.01,9.06-3.63,3.25-.08,12.99,2.2,15.11,1.21,2.76-1.29-4.48-9.11,10.88,1.21l-6.04-21.15c11.81,14.39,6.24,25.56,18.73,21.75,1.66.7-1.01,3.1,1.21,4.83,3.91,3.06,26.43,3,32.63,2.42,1.93,1.77,30,10.36,29.31,11.78-.45.56-1.45.22-2.42.3Z"/>
          <path class="cls-30" d="M404.28,457.01c-.06-2.93-.27-5.75,1.21-8.46,8.03-.21,24.35,8.69,22.36,12.99-1.48,3.19-14.48-4.41-23.57-4.53Z"/>
          <path class="cls-8" d="M400.05,466.68c-.22-.05-.13,1.02-4.53.6-1.31-.41-4.24-1.69-5.14-1.81-.1-.01-.23-.54-1.51-1.21-9.88.42-19.73-.43-29.61-.6-.1,0-1.5-.83-1.51-1.21,2.21-.18,2.29-.6,2.42-.6,7.74-.36,21.76,1.5,25.98-1.21,5.02.59,17.17-1.2,13.9,6.04Z"/>
          <path class="cls-6" d="M399.44,372.41c-4.79,3.98-20.15,11.78-22.36,16.92-1.85,4.32,3.72,0,6.65,1.81-11.77,2.62-8.56-1.07-9.97-1.21-.43-.04-3.38,4.22-6.65,5.44-15.07,5.61,3.56-12.12,10.88-12.09,1.42-1.53,2.92-2.9,4.53-4.23,1.93-1.59,4.19-5.95,6.35-6.65,2.19,1.71,7.34-1.23,9.67-1.21.43,0,.83,1.19.91,1.21Z"/>
          <path class="cls-30" d="M377.08,389.33c2.2-5.14,17.57-12.94,22.36-16.92.51.13,1.06-1.28,1.81-.3-7.78,5.98-15.23,12.87-24.17,17.22Z"/>
          <g>
            <path class="cls-6" d="M419.99,313.19c-.72-1.05-4.46-3.4-5.74-3.63-13.5-2.4-23.61,11.87-30.52,21.15-7.39,9.92-7.47,7.64,5.44,4.83,11.4-2.47,27.1-5.68,32.03-17.52,3.31-1.53,22.66-12.6,23.57-6.95.5,3.11-16.23,24.2-18.43,27.5,5.46-5.41,12.21-7.56,5.74,2.12,4.19,4.09-13.57,24.01-19.34,27.8-.19,1.64,36.72-9.5,25.68.3-2.85,2.54-15.98,11.52-22.06,18.43.43.99,20.26-5.1,20.55,0q-17.52,14.35-35.05,28.7c-8.82.98-18.5,8.3-25.38,13.9-6.94-5.27-10.45-7.78-17.83-1.81-2.14-1.26,7.12-9.37,3.32-11.48,4.54-1.27,8.86-3.37,13.6-4.23,2.64-.48,7.92.51,10.27,0,12.22-2.65-3.71-3.07-9.67-3.02-.22,0-3.24,1.47-4.23,1.21-2.68-.7-9.25-12.38,15.11-4.83,10.16-6.84,18.45-15.73,26.29-25.08-1.21-1.82-25.19,9.59-29.61,10.58-2.93-1.81-8.5,2.5-6.65-1.81,8.94-4.35,16.39-11.24,24.17-17.22-.75-.98-1.3.44-1.81.3-.07-.02-.48-1.2-.91-1.21-2.32-.02-7.48,2.92-9.67,1.21-2.16.7-4.42,5.06-6.35,6.65.57-2.56-4.9,1.57-9.67.91l10.27-12.09-8.46,1.21c2.48-3.21,3.71-6.99,5.44-10.58,1.83-3.81,1.14-2.87,1.21-3.02.17-.36,5.27-4.91.91-5.44-.72-.09-5.32,3.4-6.35,4.23-.59-.13-.69-.61-1.21-.6.02-.05-1.04-.1-.6-.91,1.66-3.08,10.17-7.82,3.63-10.88-2.09-.98-10.47,4.85-10.88,3.63,3.27-4.35,9.36-4.51,7.55-9.37-9.46,2.55-3.7-.27-.91-3.63,4.59,1.6,2.2-2.12,10.58-9.67,5.31-4.79,17.72-9.76,9.06-8.46-7.55,1.13-12.38,7.86-16.62,13.29-4.23,1.23,2.99-16.57-7.55-16.92-6.37-.21-8.94,10.67-9.67,10.88-.51.14-4.62-5.99-3.93,5.14-.39.58-1.23,0-2.42-.3-11.16-2.77-.07-9.31-1.21-13.6-.9-3.4-4.14.1-5.44.3l2.42-16.32c2.1,2.14,5.96,4.81,8.46,6.65,1.36,1,3.32,2.94,4.53,4.23,9.27-1.17,9.14,2.6,17.83,3.63,22.7,2.67,58.96-22.25,44.42-27.8-10.8-4.12-23.03,10.59-23.87,6.35-.9-4.58,19.16-11.2,26.59-19.64,25.08-6.89,18.15,1.01,5.44,14.81.42.96,8.28-2.79,9.67.6.74,1.8-5.7,13.68-7.25,15.71-3.36,4.38-9.99,8.55-14.5,11.78Z"/>
            <path class="cls-3" d="M373.46,332.53c3.9-4.69,2.85-4.61,3.02-4.83,4.23-5.44,9.07-12.16,16.62-13.29,8.65-1.3-3.75,3.67-9.06,8.46-8.37,7.55-5.99,11.27-10.58,9.67Z"/>
            <path class="cls-30" d="M405.79,350.65c4.75.02,1.69,18.95-1.81,3.63-30.74,32.45-.36-3.64,1.81-3.63Z"/>
            <path class="cls-30" d="M393.7,351.26c2.76.5-3.44,10.99-5.44,12.09,7.85-13.32-8.18-4.5,5.44-12.09Z"/>
            <path class="cls-30" d="M381.31,355.49c-1.84-.26-3.62-.8-5.44-1.21,1.03-.83,5.63-4.32,6.35-4.23,4.37.53-.74,5.08-.91,5.44Z"/>
          </g>
          <g>
            <path class="cls-35" d="M389.77,230.4c.89,2.65,1.02,21.78,2.12,21.75,3.05-6.01,11.53-20.5,19.34-19.34,12.43,1.86-3.93,29.5-2.42,30.21,3.84-5.01,14.83-11.76,20.85-7.25.14.11,1.77,2.85,1.81,3.02.34,1.41-2.11,6.89-3.02,8.46-.64,1.09-1.87,1.65-1.81,3.02-7.43,8.44-27.49,15.06-26.59,19.64.84,4.24,13.07-10.46,23.87-6.35,14.55,5.55-21.72,30.47-44.42,27.8l10.27-6.95-10.58,3.93,6.35-7.55-7.86,1.81c3.25-6.25,20.49-20.81,2.72-9.97-3.4,2.07-5.69,5.19-8.76,7.55.58-3.02,5.4-11.54,7.25-12.99.11-.08.21.45,2.42-1.21.85-.64,1.73-.55,1.81-.6.13-.09,1.88.15,3.02-.91,2.02-1.87,11.72-29.34-1.51-6.95-1.84-.47,2.01-8.02,2.12-9.97.49-8.82-5.53,1.08-6.65,9.97-.06.45-.08.67-.6.6-.03-.69-1.88-1.33-.91-13.29-4.6,4.68-4.18,21.62-4.83,3.63-2.24-.12-1.9,5.73-3.02,5.44-.22-.06-1.45-4.77-2.72-1.51-1.62,4.19,1.65,4.87,1.81,5.14-.14,1.71,3.24,8.1,4.23,8.46.25.09.8-.05,1.21,0l-8.16,14.5.91-19.04c-2.76.91-3.43,11.97-5.14,17.22-7.66-17.9-12.42-19.3-2.72.3l-.91.91c-6.93-5.96-3.28-1.13-2.12,3.63-2.5-1.84-6.36-4.51-8.46-6.65-3.56-3.62-5.57-9.05-10.27-11.78,3.83-6.91-5.42-13.34,8.16-5.74,1.88-1.21-9.06-11.53,5.74-7.25,1.73,2.09,9.18,6.75,11.78,11.48,2.27.24-.7-4.52-.91-6.35-1.07-9.31,1.54-13.81-2.72-2.12-9.91-10.78-.78-19.89-7.86-11.48-.77-.57-.73-4.94-.91-6.04-1.71-10.88,1.85-20.01,9.67-13.9,1.26.99,2.96,4.47,3.63,6.04.84,1.98,2.44,13.26,5.14,12.09,1.56-.68-.33-14.05,6.35-25.68,2.18-3.8,10.46-14.23,13.29-5.74Z"/>
            <path class="cls-2" d="M375.27,285.99c.7.2,1.22-2.86,3.63,1.21-1.85,1.45-6.68,9.97-7.25,12.99,3.07-2.36,5.37-5.48,8.76-7.55,17.77-10.84.53,3.72-2.72,9.97l7.86-1.81-6.35,7.55,10.58-3.93-10.27,6.95c-8.68-1.02-8.56-4.8-17.83-3.63-1.21-1.29-3.17-3.23-4.53-4.23-1.16-4.75-4.82-9.58,2.12-3.63l.91-.91c-9.7-19.6-4.94-18.2,2.72-.3,1.71-5.26,2.37-16.32,5.14-17.22l-.91,19.04,8.16-14.5Z"/>
            <g>
              <path class="cls-35" d="M419.99,313.19c.81,1.17.52,3.57,1.21,4.83-4.92,11.85-20.63,15.05-32.03,17.52l5.74-5.44q-5.59.3-11.18.6c6.91-9.28,17.01-23.55,30.52-21.15,1.28.23,5.02,2.58,5.74,3.63Z"/>
              <path class="cls-8" d="M389.17,335.55c-12.91,2.8-12.83,5.09-5.44-4.83q5.59-.3,11.18-.6l-5.74,5.44Z"/>
            </g>
            <path class="cls-3" d="M350.49,261.22c.78-1.61.21-2.7,1.21-3.63.17,1.1.13,5.47.91,6.04,7.07-8.41-2.06.7,7.86,11.48,4.26-11.7,1.65-7.19,2.72,2.12.21,1.82,3.17,6.59.91,6.35-2.6-4.74-10.06-9.39-11.78-11.48-2.04-2.48-5.69-10.96-9.06-14.2-.38-3.27,6.24,5.4,7.25,3.32Z"/>
            <path class="cls-35" d="M379.5,278.14c.12,2.75-1.34,4.77-2.12,4.23-1.91-10.35-2.19-2.85-3.32,3.02-.77-4.79-3.91-7.34-4.23-7.86-.16-.27-3.44-.95-1.81-5.14,1.27-3.26,2.5,1.45,2.72,1.51,1.12.29.78-5.55,3.02-5.44.66,17.99.24,1.05,4.83-3.63-.97,11.96.88,12.6.91,13.29Z"/>
            <path class="cls-35" d="M383.13,285.39c.19-1.39,4.59-5.05,2.42-6.04-.62-.28-2.76.28-3.32,0-.96-.48.99-3.11-2.12-1.81,1.11-8.89,7.14-18.79,6.65-9.97-.11,1.95-3.95,9.5-2.12,9.97,13.23-22.39,3.53,5.08,1.51,6.95-1.14,1.06-2.89.82-3.02.91Z"/>
            <path class="cls-22" d="M379.5,278.14c.52.07.55-.15.6-.6,3.11-1.3,1.15,1.33,2.12,1.81.57.28,2.7-.28,3.32,0l-4.23,6.65c-2.2,1.66-2.31,1.13-2.42,1.21-2.41-4.07-2.93-1.01-3.63-1.21-.41-.05-.96.09-1.21,0v-.6c1.13-5.87,1.41-13.37,3.32-3.02.78.54,2.23-1.48,2.12-4.23Z"/>
            <path class="cls-31" d="M374.06,285.39v.6c-.99-.36-4.37-6.75-4.23-8.46.32.51,3.46,3.06,4.23,7.86Z"/>
            <path class="cls-31" d="M383.13,285.39c-.08.05-.96-.04-1.81.6l4.23-6.65c2.18.99-2.23,4.65-2.42,6.04Z"/>
          </g>
          <path class="cls-32" d="M386.15,460.64c-4.23,2.7-18.25.85-25.98,1.21l-12.09-8.16c.43-1.65,14.08-2.95,14.81-2.72.32.1,2.25,4.16,4.83,4.23,1.5.04,20.05-9.51,6.95.91l9.37.3c-8.37,4.48-4.46,3.45,2.12,4.23Z"/>
          <path class="cls-29" d="M335.99,383.29c.97,8.62-1.2,17.72-1.21,19.34-3.25-3.48-5.1-.46-6.04-2.12l-3.32-10.58c-1.72,1.43-2.31,3.57-3.32,5.44l-3.02-1.21c.49-.45,5.44-9.18,7.86-10.88.45-.02,4.26,1.55,9.06,0Z"/>
          <path class="cls-32" d="M159.54,483c-2.42,1.44-4.52,3.11-7.55,3.02-1.24-.86,1.35-3.44,2.12-4.23,5.25-5.44,17.54-11.35,25.08-12.09,18.12-1.76-3.51,3.17-7.25,4.83-5.55,2.46-11.74,8.08-12.39,8.46Z"/>
          <path class="cls-30" d="M345.06,392.96c1.55,2.61,3.1,5.38,4.83,7.86v.6c-6.79,4.7-15.58,16.43-8.46,12.09-1.91,1.44-3.7,2.92-5.74,4.23-.63-.29.62-4.66.91-5.44.78-2.11,5.17-7.74,5.44-9.37.8-4.89-4.49-9.54,3.02-9.97Z"/>
          <path class="cls-6" d="M354.12,409.27c-.02-.07-.99-.29-1.21-.91-.09-.24,1.85-4.41-.3-5.14-.95-.32-6.24,6.54-11.18,10.27-7.12,4.34,1.68-7.39,8.46-12.09,12.32-.13,17.92-.03,4.23,7.86Z"/>
          <path class="cls-6" d="M322.09,395.37c-4.15,7.65-11.44,30.51-7.86,8.76l-2.42.91c1.54-4.34,2.55-3.17,3.02-9.67,1.8.2,2.88.03,4.23-1.21l3.02,1.21Z"/>
          <path class="cls-6" d="M345.06,392.96c-7.51.43-2.23,5.08-3.02,9.97-.26,1.62-4.66,7.25-5.44,9.37-1.27-.19-.25-3.12-.6-5.44,1.89-4.4,3-10.93,3.02-15.71,7.43.87,1.44-2.16,3.32-3.02,1.72,1.13,1.86,3.38,2.72,4.83Z"/>
          <path class="cls-6" d="M339.01,391.14c-.02,4.78-1.13,11.31-3.02,15.71-.09-.59-1.22-2.18-1.21-4.23.01-1.62,2.18-10.72,1.21-19.34,4.62.04,3.03,4.71,3.02,7.86Z"/>
          <path class="cls-6" d="M357.75,416.52c-1,.61-8.55,3.83-9.06,2.72,1.71-1.53,5.42-5.57,6.65-6.35,6.61-4.2,8.66-.19,2.42,3.63Z"/>
          <g>
            <path class="cls-8" d="M334.78,402.62c-.02,2.05,1.12,3.64,1.21,4.23.35,2.32-.66,5.25.6,5.44-.29.78-1.54,5.15-.91,5.44,2.04-1.31,3.83-2.79,5.74-4.23,4.94-3.73,10.23-10.59,11.18-10.27,2.15.73.22,4.89.3,5.14.22.61,1.19.83,1.21.91.68,2.09,2.75,1.48,1.21,3.63-1.23.78-4.93,4.81-6.65,6.35.52,1.11,8.06-2.11,9.06-2.72-.17.62,3.72.14,4.23,0,3.8,2.11-5.46,10.22-3.32,11.48,7.38-5.97,10.89-3.46,17.83,1.81-10.51,8.55-2.62,2.9-5.14,1.21-.52-.35-7.26,9-7.25,10.27,2.25-1.58,26.3-14.38,26.89-12.99-7.04,5.6-15.55,10.42-20.24,18.43,2.17-2.31,22.85-12.06,22.06-4.53-.15,1.48-8.93,5.91-8.76,8.76,1.93-1.94,17.39-7.28,17.83-8.16,2.03-4.12-9.11-4.43-6.95-5.74,4.83-.97,24.21-2.85,26.59-2.42.33.06-.18,1.28,2.12,1.51-14.73-.82-34.42.47-6.65,8.16-.32.21,1.03.93.3,1.21-3.28,1.27-9.79-.63-11.78,3.02-1.48,2.71-1.27,5.53-1.21,8.46-15.83-.21,1.91,1.37,8.76,5.44,6.96,4.13,10.61,11.47,4.23,10.88-.93-.09-5.42-4.15-17.22-6.65,3.28-7.25-8.88-5.45-13.9-6.04-6.57-.78-10.49.25-2.12-4.23l-9.37-.3c13.1-10.41-5.45-.86-6.95-.91-2.58-.07-4.51-4.13-4.83-4.23-.73-.23-14.38,1.07-14.81,2.72l12.09,8.16c-.12,0-.21.43-2.42.6-2.72.22-5.52-.76-6.04,1.21-1.26-1.12.12-.93-.3-1.81-13.49,2.07-23.01-7.24-40.19-.91,14.48.14,28.63,2.94,42.91,5.14.05.08-.13.67.6.6-.06,0,.2,1.15-.3,1.21-4.63.41-10.68-.08-9.97,1.21-.64-.26-2.57-1.18-2.72-1.21-13.08-2.7-3.82,2.77,6.35,4.23,15.04,9.85,4.87,8.58,4.83,9.37-.03.7,5.61,8.83-7.25,5.74-.49-.12-1.24.29-1.21-.6.97-.08,1.97.26,2.42-.3.69-1.42-27.38-10.02-29.31-11.78-6.2.59-28.72.65-32.63-2.42-2.22-1.74.45-4.14-1.21-4.83-12.49,3.8-6.92-7.37-18.73-21.75l6.04,21.15c-15.36-10.32-8.12-2.5-10.88-1.21-2.12.99-11.85-1.29-15.11-1.21-8.74,15.64-8.44,4.15-9.06,3.63-1.16-.98-8.83,7.2-12.39,2.12-3.48-16.75-1.86,1.47-6.35,3.32-14.53-.12,4.53,1.36-3.63,5.44-.85.43-17.78,3.65-18.73,3.63-3.6-.07-9.81-5.96-20.24,1.81-.91-2.97-9.99,3.6-13.6,3.02-1.63-.26,1.04-3.45-1.51-4.23.64-.38,6.84-6,12.39-8.46,3.74-1.66,25.37-6.6,7.25-4.83-7.54.73-19.83,6.65-25.08,12.09.07-3.89-7.55,1.99-13.6-1.21-7.37-3.9,3.62-7.1,7.55-10.88,5.25-1.23,9.85-3.96,15.11-5.14-39.57-4.8,7.3-8.04,19.04-6.95-7.12-4.64-20.34.08-32.03-2.42-20.04,11.88-17.64,3.01-19.94,3.02-.42,0-4.12,4.24-7.25,4.23-1.74,0-14.34-5.72-18.13-6.04,20.84,11.22,2.45,1.53-17.22,14.2-.27,1.05,1.07.83,1.81,2.72-3.58,1.14-10.82,4.06-12.69,6.04-7.19-1.04-10.03-.67-6.65-6.04,5.99-9.52,21.14-8.81,17.22-12.09-7.96-6.67-49.71,3.91-21.75-9.67v-1.21c-11.75-.49-22.67,2.24-34.45,3.63l-.91-.91c2.63-2.45,3.08-4.62,6.65-6.35,5.96-2.88,32.28-3.21,44.42-7.25-17.66,9.5-20.04-.15-6.04,12.09q9.67,1.51,19.34,3.02c2.35-7.63,3.87-3.18,4.53-4.53.7-1.43-9.05-10.02,18.43,2.12-8.19-16.83-6.58-16.67,8.46-7.25-4.52-17.19,8.61,3.24,10.88,1.81v-12.69l15.41.3c-21.48-5.57-9.72-6.43-7.86-9.06.33-.47-5.65-4.31,8.16-.3-.19-1.77-3.18-3.51-1.21-4.23,17.23,1.98,16.15,1.55,1.51-5.14-.46-1.22,5.47-4.7,6.65-5.14,1.46-.54,3.85-.76,5.44-.6,1.99,1.82,4.25,3.04,6.65,4.23,1.81.89,3.69,2.8,6.95,2.42l2.12,2.12c.94,2.43,1.89,6.09,3.02,8.16,3.71,6.77,6.54,7.84,2.42-.6.17-.07-1.02-1.57,2.72-1.21,4.52.44,14.19,15.31,15.71,15.11,2.09-.28.27-6.77-.3-7.86,4.33-3.03,8.39,1.66,9.67,2.42.91.54,1.98,1.82,2.12,1.81.4,0,3.08-3.59,4.53-4.23,3.97,5.75,3.15,6.74,5.44,10.88.88,1.59.38,2.72,1.51,2.42,2.3-2.23,7.27-5.97,8.16-9.06.36-1.24-.25-4.5,0-6.35,1.72-2.44,10.98,6.28,12.69,10.58.95,2.4-.27,5.17,1.81,6.95l9.67-19.64c2.53-1.48,2.01-.74,3.63-1.21,1.52,5.64-.14,6.63,0,6.95.64,1.41,5.31-4.64,8.16,9.37,5.89-8.2,12.99-15.41,19.64-22.96,1.72,1.47,5.21-5.11,7.55-5.44,2.94-.41,2.84,2.24,5.14,2.42-1.3,5.16,2.63,4.4,1.21,0,5.16-1.4,5.32-8.34,6.65-12.09l2.42-.91c-3.58,21.75,3.7-1.12,7.86-8.76,1.02-1.87,1.61-4,3.32-5.44l3.32,10.58c.95,1.65,2.8-1.37,6.04,2.12Z"/>
            <g>
              <g>
                <path class="cls-3" d="M204.25,432.24c.58,1.08,2.4,7.58.3,7.86-1.52.2-11.2-14.67-15.71-15.11-3.74-.36-2.55,1.14-2.72,1.21-.28.12-1.27-.28-2.42.6-1.14-2.07-2.08-5.73-3.02-8.16l-2.12-2.12c-3.26.39-5.14-1.52-6.95-2.42-.26-.5-1.13-1.74-1.21-1.81,1.04-.48,17.28,4.08,16.01,4.83l-5.14.3c3.54,10.62,5.83,4.27,15.41,8.76,1.03.48,7.24,5.45,7.55,6.04Z"/>
                <path class="cls-3" d="M235.68,436.47c-.89,3.1-5.85,6.83-8.16,9.06-1.13.3-.63-.82-1.51-2.42l9.67-6.65Z"/>
                <path class="cls-9" d="M170.41,412.29c.08.07.94,1.31,1.21,1.81-2.4-1.19-4.66-2.41-6.65-4.23,2.21.21,3.18.45,5.44,2.42Z"/>
              </g>
              <g>
                <path class="cls-32" d="M344.45,469.1c.23.1,3.22,2.27,3.63,3.02-10.17-1.46-19.43-6.93-6.35-4.23.15.03,2.08.95,2.72,1.21Z"/>
                <path class="cls-32" d="M341.13,433.44c1.26.07,1.03.46,0,1.21-7.88,5.75-17.54,5.26,4.23,4.23-8.15,5.14-33.05,2.33-27.19,10.27-9.93.42-20.85,3.67-29.61,8.46-3.03,1.66-9.02,7.9-9.97,6.35,8.33-11.35,31.2-24.06,44.42-27.5,1.94-.5,17.21-3.08,18.13-3.02Z"/>
                <path class="cls-32" d="M159.23,434.65c8.12,1.11,14.09,7.9,21.45,9.37l-3.63-4.23.91-.91,20.24,14.2c-9.52-5.33-15.06-5.04-23.27-7.55-3.22-.99-8.74-6.86-27.8-6.04,1.31-3.68,16.58,2.24,12.09-4.83Z"/>
                <path class="cls-32" d="M309.7,465.47c8.14-.49,18.11-.43,22.66,7.55-10.56-5.74-22.79-.89-33.54-2.72-10.74-1.83,7.57-4.64,10.88-4.83Z"/>
                <path class="cls-32" d="M351.7,463.66c.98.87,1.65,1.27,2.42,2.42-14.27-2.2-28.42-5-42.91-5.14,17.18-6.33,26.69,2.98,40.19.91.42.88-.96.69.3,1.81Z"/>
                <path class="cls-32" d="M156.82,441.9c.51-.05,7.19.06,5.44,1.81l-19.04,8.16c9.83-8.4,5.98-7.13,6.35-7.55.25-.29,6.87-2.38,7.25-2.42Z"/>
                <path class="cls-32" d="M206.37,470.91c4.5.38-9.78,3.41-11.48,3.63-5.05.65-10.33-.1-15.41.3-.5-1.79,25.52-4.04,26.89-3.93Z"/>
                <path class="cls-32" d="M298.83,426.8c.7-.19,1.07.2.91.91l-1.81,2.42c-21.56,24.71-.68-2.9.91-3.32Z"/>
                <path class="cls-32" d="M223.29,451.57l4.23,15.11c-2.15.81-5.8-13.36-4.23-15.11Z"/>
                <path class="cls-32" d="M321.19,420.75c.35-.13,1.29-.11,1.51.3-6.62,6.82-13.5,17.82-8.46,7.86.24-.48,6.45-7.97,6.95-8.16Z"/>
                <path class="cls-15" d="M186.12,426.19c4.12,8.45,1.3,7.37-2.42.6,1.15-.89,2.13-.48,2.42-.6Z"/>
                <path class="cls-8" d="M237.79,449.16c5.51,9.69,3.17,11.86-.3.3l.3-.3Z"/>
                <path class="cls-32" d="M192.47,462.45c2.85-1.25,14.42,5.26,0,.6l-.3-.3c.09-.13.18-.25.3-.3Z"/>
                <path class="cls-32" d="M356.84,433.44c6.97-1.18-3.85,3.6-4.53,2.12,1.26-.55,3.81-1.99,4.53-2.12Z"/>
                <path class="cls-4" d="M305.17,417.13c1.43,4.4-2.51,5.16-1.21,0,.37.03.92.08,1.21,0Z"/>
              </g>
            </g>
          </g>
          <path class="cls-23" d="M165.58,404.44l.3-1.81-12.99-6.95c1.83-.87,6.57-5.98,6.65-7.25.29-4.79-9.13,1.73-.6-11.18.49,1.12,3.68,8.87,3.63,9.37-.21,1.92-2.55-.48-1.21,3.02,2.05,5.36,18.52,15.61,3.32,8.76-2.1,1.27,5.47,6.89,6.95,7.55l-6.04-1.51Z"/>
          <path class="cls-3" d="M334.78,365.16c4.38,7.17,9.15,14.03,13.6,21.15.93-7.18-1.09-14.65,3.02-21.15.27.05-.26,4.93-.3,5.44-.07.83-.65,1.92-.6,5.44.15,11.72,3.53,22.21,3.02,23.27-.12.25-2.37.57-3.63,1.51-1.73-2.48-3.29-5.25-4.83-7.86-.86-1.45-1-3.71-2.72-4.83-1.88.87,4.11,3.89-3.32,3.02.01-3.15,1.59-7.81-3.02-7.86.22-.07.28-1.13,3.63-2.72.41-4.82-22.49-20.58-5.14-11.78.33-.19-1.94-5.1-2.12-6.04,1.67-.22,1.73,1.29,2.42,2.42Z"/>
          <path class="cls-6" d="M346.87,349.45c-.19,1.3,1.59,3.93,0,8.16-.17.46-5.88,7.38-6.35,7.55-1.87.71-2.58-.6-2.72-.6-1.46-4.02,3.52-7.7,3.63-8.16.34-1.51-4.77-13.38,5.44-6.95Z"/>
          <g>
            <path class="cls-30" d="M376.48,327.69c-.18.22.88.14-3.02,4.83-2.79,3.35-8.56,6.17.91,3.63,1.8,4.85-4.28,5.01-7.55,9.37.41,1.22,8.79-4.6,10.88-3.63,6.54,3.05-1.96,7.8-3.63,10.88-.44.81.62.86.6.91-.79,1.98-4.93.86,5.44,4.83-1.73,3.59-2.96,7.36-5.44,10.58l8.46-1.21-10.27,12.09c4.77.66,10.24-3.46,9.67-.91-1.61,1.33-3.11,2.7-4.53,4.23-7.32-.03-25.94,17.7-10.88,12.09,3.27-1.22,6.22-5.48,6.65-5.44,1.41.14-1.8,3.83,9.97,1.21,4.42-.99,28.4-12.39,29.61-10.58-7.84,9.35-16.13,18.24-26.29,25.08-24.36-7.54-17.79,4.14-15.11,4.83.99.26,4.01-1.21,4.23-1.21,5.96-.05,21.89.37,9.67,3.02-2.35.51-7.63-.48-10.27,0-4.74.86-9.06,2.96-13.6,4.23-.51.14-4.4.62-4.23,0,6.24-3.81,4.19-7.83-2.42-3.63,1.54-2.15-.53-1.53-1.21-3.63,13.69-7.88,8.09-7.98-4.23-7.86v-.6c1.26-.94,3.51-1.27,3.63-1.51.51-1.06-2.87-11.55-3.02-23.27,11.99-5.98,17.12-12.1.6-5.44.04-.51.57-5.39.3-5.44-4.11,6.5-2.09,13.97-3.02,21.15-4.45-7.12-9.22-13.98-13.6-21.15,2.11-1.28,1.36-.61,3.02-.6.14,0,.85,1.32,2.72.6.46-.18,6.17-7.09,6.35-7.55,1.59-4.23-.19-6.86,0-8.16,1.11-7.8,2.12-15.97,6.04-22.96,1.18.29,2.02.89,2.42.3-.7-11.13,3.42-4.99,3.93-5.14.73-.2,3.3-11.09,9.67-10.88,10.55.35,3.32,18.15,7.55,16.92Z"/>
            <g>
              <path class="cls-30" d="M350.49,376.04c-.05-3.52.53-4.61.6-5.44,16.52-6.66,11.39-.55-.6,5.44Z"/>
              <path class="cls-6" d="M366.51,405.65c1.55-.09,4.04,4.81,3.93,5.14-.2.58-10.28,5.03-9.06-1.21.06-.32,4.81-3.91,5.14-3.93Z"/>
              <path class="cls-30" d="M370.74,371.81c.41-.1,1.28-.12,1.51.3-20.04,19.21-4.7.52-1.51-.3Z"/>
            </g>
          </g>
          <g>
            <path class="cls-30" d="M346.26,313.19c1.29-.2,4.54-3.7,5.44-.3,1.13,4.29-9.95,10.83,1.21,13.6-3.93,6.99-4.93,15.17-6.04,22.96-10.21-6.43-5.1,5.44-5.44,6.95-.1.46-5.08,4.14-3.63,8.16-1.66,0-.92-.68-3.02.6-.69-1.13-.75-2.64-2.42-2.42-.29-1.58.21-3.97,0-5.74-3.11-5.15-5.57-10.83-5.44-16.92,6.5-3.52,9.06,26.06,7.86,0-.41-.86-8.18-1.64-5.44-9.06-6.72-7.64-7.5-19.26-1.51-15.41.63.41,7.29,15.41,9.37,6.95.28-1.14-8.23-19.53-4.53-22.66,3.12-2.64,3.14,14.69,7.86,18.13,1.59-15.14.52-4.03,5.74-4.83Z"/>
            <path class="cls-23" d="M341.73,333.13c1.96-.51,4.6,2.8,4.53,3.32-.3,2.25-7.36-2.58-4.53-3.32Z"/>
          </g>
          <g>
            <path class="cls-29" d="M74.93,226.77c-3.94,4.75-5.47,18.94-6.35,25.38-2.08-5.51-5.25-18.32-9.37-21.75-.07-.74.58-.57.6-.6,1.06,1.64,3.58-1.27,4.83-3.63,3.18,6.13,8.52-.42,10.27.6Z"/>
            <g>
              <path class="cls-15" d="M82.18,202.6l1.81,2.42c-6.39-.16-11.59-2.48-12.69.3-3.19,8.1,11.68,7.02,15.71,10.27-7.49-1.7-29.71-3.58-22.36,10.58-1.26,2.36-3.78,5.26-4.83,3.63,4.46-4.96-.34-7.81-.6-9.37-.59-3.46,1.4-4.33,1.81-6.35.64-3.09,3.76-11.5,0-9.67,0-.2-1.8,1.23-.6-3.02l6.95-7.25c4.53,8.58,9.26,7.14,14.81,8.46Z"/>
              <g>
                <path class="cls-6" d="M53.78,134.92c2.85,2.86,6.41,4.77,9.06,7.86.37,1.41-2.92,2.37-3.02,2.72-.09.33,1.18.84,1.21.91.53,1.51,1.39,2.44,1.81,3.93-12.82,2.19-5.83,6.57-1.21,12.39-.36.38-2.39,1.37-2.42,1.51-.02.12.47.28,1.21,2.12,1.98,4.89,14.33,7.96,8.76,8.46-1.11.1-18.43-4.2-2.72,11.18,1.68,11.48-5.26,7.15-6.04,15.41-1.2,4.26.61,2.82.6,3.02-.02.5-1.99,3.1,0,9.67-.42,2.01-2.41,2.88-1.81,6.35.27,1.55,5.06,4.41.6,9.37-.03.03-.67-.13-.6.6-14.86-12.41-13.7,23.69-11.18,33.84-18.23-20.96-31.59-1.75-2.12,19.04-6.2-4-18.85-11.06-19.94,1.51C15.56,275.17,9.43,262.04,0,251.55c0-2.22,0-4.43,0-6.65,13.74.74,23.13,10.71,24.47,10.88.8.1,1.03-.44,1.51-.91-5.58-8.49-10.79-17.45-13.9-27.19-4.72-14.78-1.43-9.21-1.21-12.69.17-2.71-13.78-29.13,8.16-11.18-5.74-20.44,24.24-2.66-.91-17.83l4.53-6.35,7.55-.3c-2.22-4.26-14.28-13.5-14.5-14.5-.89-3.99,3.14-1.29,3.02-3.63-.23-4.63-6.18-17.18-6.04-18.13.25-1.73,2.73-1.44,3.02-2.42.25-.82-8.37-16.06-2.12-14.81,1.05.21,5.19,7.5,6.35,8.76,9.58,10.5-7.38-10.72,2.42-22.96.73-6.56-7.07-19.41,2.12-17.22,3.42.82,2.57,8.2,6.65,13.9,6.02-12.74,17.58,4.91,15.41,12.39,7.01,5.98,5.34,10.92,7.25,14.2Z"/>
                <g>
                  <path class="cls-30" d="M56.5,179.03c2.1,5.18,10.3,11.12,3.02,15.71l-3.02-15.71Z"/>
                  <path class="cls-30" d="M53.48,189.91c5.23,19.8-4.37,7.43-3.32,3.32.11-.43,2.65-2.42,3.32-3.32Z"/>
                  <path class="cls-30" d="M45.62,194.14c1.95-.52,2.82,7.65,1.21,8.46-4.43,2.22-2.87-8.02-1.21-8.46Z"/>
                  <path class="cls-30" d="M52.57,214.69c-3.08-9.33,6.64-15.08,3.63-1.51-5.21-12.12-1.94-1.44-2.42,1.21-.09.51-1.19.24-1.21.3Z"/>
                  <path class="cls-30" d="M34.75,194.75c.46-.38,3,2.25,3.32,2.72,6.59,9.42-8.45,1.45-3.32-2.72Z"/>
                  <path class="cls-30" d="M52.57,214.69c-3.77,11.26-6.47-3.77-2.72-3.02.97.19,1.54,2.8,2.72,3.02Z"/>
                  <path class="cls-30" d="M31.73,203.81c.77-.17,2.83,1.39,3.32,2.12,8.37,12.37-8.49-.97-3.32-2.12Z"/>
                  <path class="cls-30" d="M61.03,214.08c-1.99-6.57-.02-9.17,0-9.67,3.76-1.83.64,6.58,0,9.67Z"/>
                  <path class="cls-30" d="M42.6,204.41c1.32-.6,3.89,4.56-.6,9.06l.6-9.06Z"/>
                  <path class="cls-30" d="M56.5,171.18c.44.34.43,2.16.3,2.72-.9,3.9-10.25,8.26-.3-2.72Z"/>
                  <path class="cls-30" d="M54.69,218.31c0,17.35-.15,0-1.81,5.44-1.37-.71,1.51-5.62,1.81-5.44Z"/>
                  <path class="cls-25" d="M46.23,185.68c.25.09,2.19,4.65.6,4.83-5.99-2.97-.97-4.97-.6-4.83Z"/>
                  <path class="cls-30" d="M42.6,221.33l1.21,7.25c-1.15-2.23-2.11-4.75-1.21-7.25Z"/>
                </g>
              </g>
            </g>
            <path class="cls-6" d="M94.88,310.17c-3.68,10.33-7.23,17.22-.91,27.8,2.2-5.8,2.5-1.56,7.55,1.21,2,1.1,4.37.02,6.04,2.12-.93,6.04,2.46,5.53,3.63,7.55,1.37,2.39,2.77,4.6,3.63,7.25l.3,1.21c15.54-19.01,5.02-4.72,1.51,5.44-1.54,4.47-1.71,4.66,1.21,6.65-1.24,4.09-1.01,4.15-.6,8.76h1.21c.37-1.4,1.19-2.64,1.81-3.93,1.37,4,3.02-1.51,4.83.6-6.37,1.4-3.07,28.89-8.76,29.01-3.72.08,1.97-3.31-.3-16.01-.34-1.92-2.52-9.62-4.83-9.37v-1.21l.6-2.72c-4.85-10.59-2.37-15.18-2.42-16.01,4.41,2.38.28-4.41-1.81-6.65-.66-.71-1.94-.41-2.42-.91-3.47-3.55-8.39-14.08-6.65.3-1.35-.56-2.71-1.26-4.23-1.21-.15-1.29-4.44-12.71-6.65-13.29.12-1.16-.94-2.03-1.21-3.02-1.92-7.15,1.8-15.47,3.63-22.36,1.58-.5,3.24-.76,4.83-1.21Z"/>
            <path class="cls-29" d="M86.42,333.73l-5.44-3.02c-2.83-9.01-5.65-16.59-8.46-10.58,7.09,4.75,4.93,16.03,3.63,23.57.11.56,1.79,1.39,1.81,1.51-1.05,6.78-1.83-.77-4.83,1.21-2.14-4.75-4.25-9.61-7.25-13.9,3.14-6.88-10.96-18.33-3.63-19.34,2.54.71,5.26,2.06,7.86,2.42,9.64,1.33,11.32-1.51,19.94-4.23-1.83,6.89-5.55,15.21-3.63,22.36Z"/>
            <path class="cls-29" d="M98.5,351.26c.27.11,1.67-1.21,3.63,3.32,3.3,7.64-2.72,6.6-9.97,14.81.75-4.06,2.43-16.63,2.12-19.34,1.52-.06,2.88.65,4.23,1.21Z"/>
            <path class="cls-15" d="M105.75,381.47c.18.37,1.34,1.98,1.81,2.42-.97,2.33-.55,6.05-2.12,7.86-1.7.24-8.07-10.61-9.37-12.09,8.45-6.89,6.06,2.02,9.67,1.81Z"/>
            <g>
              <path class="cls-6" d="M26.59,290.22c12.55,12.52,18.44,18.14,35.65,22.96-7.33,1.01,6.76,12.46,3.63,19.34-.1-.14-1.44-1.17-2.42-2.42-19.42-24.79-36.39-20.17-32.63-6.95,3.01,10.6,17.93,13.74,25.98,17.83,2.4,1.22,4.92,2.29,7.25,3.63-.63,1.38-1.38,5.6-.3,6.04,6.51-1.93,13.51,14.87,10.58,1.81h.6c1.6,3.94,3.57,7.71,4.83,11.78h1.21c-1.16-6.33-1.92-12.69-3.02-19.04-.02-.12-1.71-.95-1.81-1.51,1.3-7.54,3.47-18.82-3.63-23.57,2.81-6.01,5.63,1.57,8.46,10.58,1.42,4.52-2.69,5.63,6.65,6.04,2.21.59,6.5,12.01,6.65,13.29.32,2.71-1.37,15.28-2.12,19.34,7.25-8.2,13.27-7.16,9.97-14.81-1.96-4.53-3.35-3.21-3.63-3.32-1.74-14.38,3.18-3.85,6.65-.3.48.49,1.75.19,2.42.91.32,1.82,1.72,5.17,1.81,6.65.05.84-2.43,5.42,2.42,16.01l-.6,2.72c-3.35,2.89-1.96-.44-3.02-1.51-4.58-4.63-6.36-2.24-2.42,5.74-3.61.2-1.22-8.71-9.67-1.81-2.64-3-14.6-13.68-17.83-12.69-7.25,2.22,4.62,21.44-4.23,18.13-.99-.37-1.41-2.98-2.12-3.63,4.97.53-7.77-16.53-9.06-17.83-4.66-4.66-12.32-7.39-17.83-11.18,6.28,7.36,21.94,12.35,20.85,25.38-3.6-2.2-37.56-24.64-27.19-5.14,5.74,10.8,27.96,20.44,7.86,22.36,8.17,5.69,17.56,8.77,26.59,12.69-8.09.19-21.34-4.88-10.88,7.25-.58,5.39-22.95-7.43-27.5-.91-2.02-1.18-3.93-2.08-5.74-3.63-7.07-6.04-19.14-27.97.91-15.71,6.79-5.91,14.68,11.04,11.18-.3,8.37-1.35,2.05-1.7-6.65-11.48-1.94-2.18-15.59-18.1-15.71-19.34-.9-9.29,14.96,8.57,15.71,6.04-2.28-4.34-25.64-24.76-25.98-26.59-1.6-8.43,19.72,1.79,20.85,1.51,3.66-.91-4.45-5.08-4.83-5.44-3.9-3.68-5.75-7.52-7.55-9.37-7.23-7.4-11.71-9.58-12.09-10.27-4.11-7.59,20.49-2.45,23.87-.3,2.64-3.48-17.79-12.58-12.99-14.2-1.34-2.94-14.58-5.98-7.86-9.06L0,288.41c0-1.01,0-2.01,0-3.02l26.59,4.83Z"/>
              <g>
                <path class="cls-15" d="M71.91,381.47c-4.44-4.09-4.18-2.49-6.04-3.63,1.09-13.03-14.57-18.02-20.85-25.38,5.51,3.79,13.17,6.52,17.83,11.18,1.3,1.3,14.03,18.36,9.06,17.83Z"/>
                <path class="cls-29" d="M18.43,296.87c1.75-.59,18.04,11.73,20.24,14.2l-5.14.91c-.42-3.02-19.54-13.61-15.11-15.11Z"/>
                <path class="cls-15" d="M111.19,377.24v1.21c-1.66,1.32-2.84,3.55-3.63,5.44-.47-.43-1.63-2.05-1.81-2.42-3.94-7.99-2.16-10.37,2.42-5.74,1.06,1.07-.33,4.4,3.02,1.51Z"/>
                <path class="cls-30" d="M86.42,333.73c.27.99,1.33,1.87,1.21,3.02-9.33-.42-5.23-1.53-6.65-6.04l5.44,3.02Z"/>
                <path class="cls-9" d="M109.38,358.51c-.09-1.48-1.5-4.83-1.81-6.65,2.09,2.24,6.22,9.03,1.81,6.65Z"/>
                <g>
                  <path class="cls-15" d="M74.93,352.47c-.72-1.79-1.04-4.34-1.81-6.04,3-1.98,3.79,5.57,4.83-1.21,1.1,6.34,1.86,12.71,3.02,19.04h-1.21c-1.26-4.07-3.24-7.85-4.83-11.78Z"/>
                  <path class="cls-15" d="M74.33,352.47c2.94,13.05-4.06-3.75-10.58-1.81-1.08-.45-.33-4.67.3-6.04,4.24,2.42,7.01,3.95,10.27,7.86Z"/>
                  <path class="cls-6" d="M78.86,340.38c.32,0,.52,3.42.3,3.93-.63,1.43-.96-3.93-.3-3.93Z"/>
                </g>
              </g>
            </g>
            <path class="cls-6" d="M132.34,289.62c-17.33,12.61,1.07-.35-6.65-6.65,3.09-4.77,7.05-14.42,6.04-19.94l4.83-7.25c-.62,9.16-4.12,12.49-4.83,17.22-.81,5.38.6,11.22.6,16.62Z"/>
            <path class="cls-32" d="M148.05,469.7c-3.54.83-13.04-1.32-19.04,5.44-6.95-6.28-8.51.22-17.52-1.81-.09,4.09-7.95,4.22-10.27,3.63-5.17-1.33-1.51-6.38-4.83-5.44-2.36.67,1.95,4.43-.6,5.44-7.08,2.81-6.17-3.18-6.35-3.63-.74-1.89-2.09-1.67-1.81-2.72,19.67-12.68,38.07-2.98,17.22-14.2,3.79.32,16.39,6.04,18.13,6.04,3.13,0,6.83-4.23,7.25-4.23,2.3-.01-.1,8.85,19.94-3.02,11.69,2.49,24.91-2.23,32.03,2.42-11.74-1.09-58.61,2.15-19.04,6.95-5.26,1.18-9.86,3.91-15.11,5.14Z"/>
            <path class="cls-15" d="M142.01,349.45c-1.29,1.73-2.85,3.17-4.23,4.83-7,8.4-2.33,12.64-1.21,22.66l-9.97,9.97c-.77-.64,1.55-8.52-1.51-12.09-1.82-2.12-3.46,3.39-4.83-.6.65-1.34,5.03-11.18,4.83-11.78-1.42-4.35-6.95,5.95-7.25,6.95-2.92-1.99-2.75-2.18-1.21-6.65,4.71-3.85,10.76-3.93,16.01-6.65,3.17-1.63,6.06-4.88,9.37-6.65Z"/>
            <g>
              <path class="cls-30" d="M149.87,367.58c5.51.32,7.26,5.54,9.06,9.67-8.52,12.91.9,6.39.6,11.18-.08,1.27-4.81,6.38-6.65,7.25l12.99,6.95-.3,1.81c-3.68,6.9-4.14,3.07-6.04,6.04-1.18.43-7.11,3.92-6.65,5.14,14.64,6.69,15.72,7.11-1.51,5.14-1.97.72,1.01,2.46,1.21,4.23-13.81-4.01-7.82-.17-8.16.3-1.87,2.64-13.62,3.49,7.86,9.06l-15.41-.3v12.69c-2.27,1.43-15.4-19.01-10.88-1.81-15.04-9.42-16.65-9.58-8.46,7.25-27.48-12.14-17.73-3.55-18.43-2.12-.66,1.35-2.18-3.1-4.53,4.53q-9.67-1.51-19.34-3.02c-14-12.24-11.61-2.58,6.04-12.09-12.14,4.04-38.46,4.38-44.42,7.25.31-2.57-5.43-.47-11.48-.6-1.43-.03-11.44-.55-11.48-1.51,5.22-4.41,12.01-5.25,18.13-7.55.92-.35-2.31-2.07,10.58-4.23q-9.22.3-18.43.6c4.58-5.04.72-1.35-3.93-4.23-.81-.5-4.38-4.35-4.53-5.14-2.15-11.11,19.98-.84,24.78-.6-10.49-3.77-21.46-11.92-11.48-12.99,1.81,1.54,3.73,2.45,5.74,3.63,4.55-6.52,26.91,6.29,27.5.91-10.46-12.13,2.79-7.06,10.88-7.25-9.03-3.92-18.42-7-26.59-12.69,20.1-1.92-2.12-11.56-7.86-22.36-10.37-19.5,23.59,2.94,27.19,5.14,1.86,1.13,1.6-.47,6.04,3.63.7.65,1.12,3.26,2.12,3.63,8.85,3.31-3.02-15.91,4.23-18.13,3.23-.99,15.19,9.69,17.83,12.69,1.3,1.48,7.67,12.33,9.37,12.09,1.56-1.8,1.14-5.53,2.12-7.86.79-1.89,1.96-4.12,3.63-5.44,2.32-.26,4.49,7.44,4.83,9.37,2.27,12.7-3.42,16.09.3,16.01,5.69-.12,2.39-27.6,8.76-29.01,3.06,3.56.74,11.44,1.51,12.09l9.97-9.97c-1.12-10.02-5.79-14.26,1.21-22.66,4.16,8.7-.78,18.08-.6,19.64,1.03,9.14,12.97-1.36,12.69-6.35Z"/>
              <g>
                <path class="cls-30" d="M32.03,437.07c.43-2.33-3.37-.65-5.74-1.21-3.45-.81-2.56-1.8-2.72-1.81-.07-.73.58-.57.6-.6q9.22-.3,18.43-.6c-12.89,2.16-9.66,3.89-10.58,4.23Z"/>
                <path class="cls-8" d="M81.88,427.4c4.14-1.18,23.89,12.8,23.87,14.2-7.94.93-15.25-10.22-23.87-14.2Z"/>
                <path class="cls-8" d="M75.84,410.48c2.78-.71,12.78,2.36,4.23,4.83-11.24,3.25-6.91-4.14-4.23-4.83Z"/>
                <path class="cls-8" d="M121.77,411.69v16.92c-3.86-3.26-2.19-12.45,0-16.92Z"/>
                <path class="cls-8" d="M129.62,406.85c1.17.65,1.16,7.31.91,8.76-1.5,8.75-3.95,3.52-.91-8.76Z"/>
                <path class="cls-30" d="M54.09,434.05c24.83,2.13,14.64,3.17-2.42,1.21l2.42-1.21Z"/>
                <path class="cls-8" d="M86.11,397.19c.68-.36,3.14,2.6,3.93,3.32,13.63,12.51,7.13,10.64-3.93-2.72l-.3-.3.3-.3Z"/>
                <path class="cls-8" d="M139.9,404.44l.91.3c-6.04,18.22-8.33,11.73-.91-.3Z"/>
                <path class="cls-8" d="M77.05,423.77c.59-.03,1.34-.15,1.51.3-23.4,12.49-6.44-.09-1.51-.3Z"/>
                <path class="cls-30" d="M64.36,390.54c12.54,5.06,13.01,8.04,0,.6l-.3-.3.3-.3Z"/>
                <path class="cls-8" d="M107.87,414.71c.57.4,1.48,2.54,1.51,2.72,1.1,6.48-2.7.83-1.51-2.72Z"/>
                <path class="cls-30" d="M92.16,415.92l5.14,3.32c-.17.43-6.09-1.68-5.14-3.32Z"/>
              </g>
            </g>
            <path class="cls-13" d="M99.11,308.96c.35,3.1,1.26,1.53,2.42,2.42-3.01,2,2.03,13.21,4.23,19.04-10.94-8.04-7.37,1.82-4.23,8.76-5.06-2.77-5.35-7.01-7.55-1.21-6.33-10.58-2.78-17.47.91-27.8.03-.08.79-.03,1.21-1.21.93-.14,2.46.22,3.02,0Z"/>
            <path class="cls-3" d="M120.26,374.22c-.62,1.29-1.44,2.52-1.81,3.93h-1.21c-.41-4.62-.63-4.67.6-8.76.3-1,5.83-11.3,7.25-6.95.2.61-4.18,10.44-4.83,11.78Z"/>
            <g>
              <path class="cls-30" d="M172.83,96.85c.49,1.22,3.92,7.2,4.83,7.86l.3,8.46c4.73-9.31,14.84,2.74,5.74,5.74-.55,1.14,1.53.7,2.42,1.51.57.53,1.25,1.24,1.81,1.81-2.63,6.23-9.88,5.85-10.27,6.35.83.65,5.08,5.02,5.44,5.14-.51,8.69-16.51,7.37-24.78,22.06-.41,3.31,6.72-6.53,11.78-5.14,1.14.69,1.46,2.27,2.12,2.42-.01,3.26-.56,6.97-2.42,9.67-1.66,2.42-8.95,6.51-12.09,7.55,1.69,2.08,4.38,6.49,4.83,6.95-7.61,6.19-6.57,1.33-9.97,1.21-10.91-.4,3.61,3.02,4.53,6.95.78,3.33-1.62,7.1-2.42,9.37-.2.57,1.21,3.93-4.23,8.46-.35.29-7.85,3.23-7.86,4.53,0,1.09,2.58,1.66,3.63,1.51.51,3-1.91,5.26-3.63,7.55,3.78,4.91-3.8,7.12-.6,10.27-6.94,5.72,1.81,9.35-6.04,12.69-.33.74,1.05,9.42.6,16.01l-4.83,7.25c-1.65-9.01-10.85-4.38-15.71-2.42-.31.13-.67-1.11-2.72,0-2.72,1.48-5.6,6.16-8.76,7.25.36-4.27.6-3.44.6-3.63,1.64-1.72,3.42-7.99,5.14-9.06,1.04-.65,19.42-5.53,23.27-7.55-7.69-1.07-19.81,5.41-19.94,3.02,4.68-5.78,8.94-12.51,14.81-17.22,6-4.83,18.33-9.88,7.86-6.65-7.83,2.42-20.11,16.19-25.38,22.96-.11-4.58,3.77-27.29,6.65-29.01,1.29-.46,4.6-.29,5.44-.6,23.52-8.68,1.17-1.67,0-1.81-.11-.01-1.35-.87-2.12-.91,1.33-2.95,2.73-10.67,3.63-12.09,1.58-2.49,20.21-15.08,24.78-16.92-11.24,2.06-21.39,12.67-22.66,12.99-3.18.81,2.87-13.36,6.35-17.22,6.72-7.45,26.45-11.46,1.81-4.83,7.1-12.42,26.57-32.74,3.63-9.67l-8.46,12.69c1.58-14,6.62-27.15,12.99-39.58l-7.86,12.09c-5.4-16.57,1.45,3.26-4.53,16.62-1.51,3.38-2.43-2.07-6.04-1.21,7.28,6.03,3.7,7.31,1.21,19.94-2.03-2.59-2.14-10.28-3.02-12.39,4.31-.27.61-8.27-1.51-8.46-2.45-.22-8.3,20.65-.3,7.86,6.99,28.92-1.8,32.53-9.97,53.78-1.49-.1,1.72-16.88,2.72-18.43h-1.21c-6.75,22.63-4.41-2.61-3.32-11.18-8.93,16,4.47,32.49-5.14,47.74-1.8-4.85-4-5.84-9.06-5.44l-3.63-3.63c-1.69-6.6-7.68-23.72-16.32-13.29-1.75-1.02-7.09,5.53-10.27-.6-7.35-14.15,14.86-12.28,22.36-10.58-4.03-3.25-18.91-2.17-15.71-10.27,1.1-2.78,6.3-.47,12.69-.3,8.76.22,2-1.5-1.81-2.42-5.54-1.32-10.27.12-14.81-8.46l-6.95,7.25c.79-8.26,7.72-3.93,6.04-15.41-15.71-15.38,1.61-11.08,2.72-11.18,5.57-.5-6.79-3.57-8.76-8.46.61-.48,3.58-1.09,3.63-1.51.04-.3-1.28-.68-2.42-2.12-4.62-5.81-11.62-10.2,1.21-12.39-.42-1.49-1.28-2.42-1.81-3.93.51-1.28,4.01.06,4.23-1.51.05-.37-2.12-1.77-2.42-2.12-2.66-3.08-6.22-5-9.06-7.86-.16-9.66,3.98-6.51,4.23-6.95.24-.43-3.84-5.7-3.02-9.06,1.09-4.45,16.57-1.99,10.58-5.74-.37-.23-4.72-.03-8.46-2.42-1.67-1.07-16.93-15.17-8.76-15.41-4.71-8.89,5.4-6.03,5.44-7.25-6.76-6.21-5.83-10.86,3.63-6.04,1.33-2.4-18.33-14.32-6.95-20.24l6.35,2.12c-7.8-16.2-1.65-11.74-1.21-12.69.75-1.63-5.67-17.86,5.14-16.01,5.39.92,7.24,10.68,7.86,15.11,7.46-8.23,9.67,7.45,5.14,17.22,8.44-9.51,16.46-6.55,11.48,5.44.39.77,10.46-4.83,3.63,11.48,11.84-.59,15.14,4.71,15.11-1.21,0-.95-4.48-8.93-2.42-12.09,3.11-4.75,10.63,5.6,9.67-.6-.1-.66-6.51-5.63-5.44-9.06.5-1.61,2.25-.21,2.42-.6.56-1.34-10.38-22.37,14.2-5.74-4.14-8.8-1.68-16.46,5.14-8.76-4.19-18.27,2.13-27.89,11.78-11.78,1.62-.09-.45-28.41,9.06-12.69.85-.2,2.52-17.03,8.46-10.27,5.34-10.57,18.03-4.14,16.01,4.53-.73,3.12-8.74,6.7-8.46,8.46.66,4.17,9.04-3.17,10.27,3.02,1.36,6.86-11.39,9.66-7.25,12.69l-6.65,5.44c19.49-2.6,4.83,7.46,4.83,8.46,0,.29,2.38,2.09,2.42,2.42.39,3.76-11.75,4.31-13.29,7.25,28.23.62,3.39,11.84,3.02,13.29-.44,1.71,6.03,3.3-.3,8.76-2.9,2.5-23.6,6.64-21.45,9.97,12.82-4.83,24.1,5.75,8.46,13.29.82,1.23,5.89-1.44,6.95-1.51,11.83-.78,5.38,11,7.25,11.48,4.21,1.09,3.07-6.81,3.93-8.16,1.17-1.85,3.03,1.21,3.63,0,.55-1.11-3.91-13.03,6.65-14.2Z"/>
              <g>
                <path class="cls-2" d="M105.15,264.24c.19-4.89.46-10.62-1.21-15.11,9.61-15.25-3.79-31.74,5.14-47.74-1.09,8.57-3.43,33.81,3.32,11.18h1.21c-1,1.55-4.21,18.33-2.72,18.43,8.17-21.26,16.97-24.86,9.97-53.78-.37-2.06,1.28-.69,1.81.6.88,2.11.99,9.8,3.02,12.39,2.49-12.63,6.07-13.92-1.21-19.94,3.61-.86,4.53,4.58,6.04,1.21,5.98-13.36-.87-33.19,4.53-16.62l7.86-12.09c-6.37,12.44-11.42,25.58-12.99,39.58l8.46-12.69c22.94-23.07,3.47-2.76-3.63,9.67,24.64-6.62,4.9-2.62-1.81,4.83-3.48,3.86-9.53,18.04-6.35,17.22,1.28-.33,11.43-10.93,22.66-12.99-4.56,1.84-23.19,14.43-24.78,16.92-.9,1.41-2.29,9.14-3.63,12.09.77.04,2,.89,2.12.91,1.17.15,23.52-6.87,0,1.81-.84.31-4.15.14-5.44.6-2.88,1.71-6.76,24.43-6.65,29.01,5.27-6.77,17.55-20.55,25.38-22.96,10.48-3.23-1.86,1.82-7.86,6.65-5.86,4.72-10.12,11.44-14.81,17.22.13,2.39,12.25-4.09,19.94-3.02-3.85,2.02-22.23,6.9-23.27,7.55-1.72,1.08-3.49,7.35-5.14,9.06Z"/>
                <path class="cls-2" d="M94.88,146.4c-1.46,1.73-2.71,2.36-3.63,4.83-6.51,17.67,6.82,10.75,11.48,16.62,4.73,5.96,5.33,33.74-.91,31.12-1.22-.51-5.08-13.15-16.01-20.85,10.24,2.4,19.04,23.53,9.67.3l1.81-1.21c2.21,5.04,4.23,10.22,6.04,15.41h1.21c-.71-6.06-.19-23.66-6.95-26.29-10.88-4.23-4.49,4.12-2.12,7.86l-1.81,1.81c-3.99-4.33-20.88-9.84-27.19-12.99l22.96,6.65c-2.81-3.32-4.02-8.1-6.65-11.48-6.39-8.21-24.62-15.82-4.23-7.86-5.19-6.82-9.82-13.11-16.92-18.13,16.58,7.55,28.25,35.79,15.11-1.21-13.25-11.07-14.28-13.81-.3-2.72.5-.23-2.26-9.81-2.72-10.58-1.88-3.12-32.53-20.7-.91-3.32,1-.31-7.09-12.82-8.16-14.2-2.48-3.22-12.68-12.16-5.74-7.55,8.23,5.46,13.34,18,14.5,18.13,1.51.17.57-1.71,1.21-1.81,1.37-.22,1.46,19.66,7.55,26.29v9.06c10,26.31,2.83,7.2,4.83-6.04.31-2.04,4.57-11.2,6.04-12.69,4.64-4.69-2.36,5.99-3.02,7.86-1.76,4.94-3.94,11.47-.3,16.01,2.15-3.41,10.67-9.6,5.14-3.02Z"/>
                <path class="cls-2" d="M70.4,53.34l-2.12,14.2c4.07,8.71,2.97,18.93,3.63,22.96,2.06,12.59,3.21-.32,8.46-7.25,8.21-10.83-4.58,8.07-5.74,21.45-2.78-3.18-3.21-9.99-7.55-17.83-3.56-6.42-16.81-20.38-3.02-7.25,7.37,12.23,7.23,9.79,4.83-3.63-1.42-7.94-4.68-16.25-10.88-21.75,4.41.83,6.71,5.89,8.76,9.37l3.63-10.27Z"/>
                <path class="cls-2" d="M93.36,93.83c-5.72,6.71-9.74,14.02-13.9,21.75-2.08-1.04,6.98-17.86,13.9-21.75Z"/>
                <path class="cls-2" d="M90.34,223.15c2.52,1.75,10.76,8.67,11.78,10.58,2.99,5.56-11.95-7.1-11.78-10.58Z"/>
                <path class="cls-2" d="M145.03,64.82c3.35-4.49,12.01-9.88,17.52-11.18-5.89,3.59-11.16,8.37-17.52,11.18Z"/>
                <path class="cls-28" d="M164.67,122.23l.91.3c-11.9,21.72-14.34,18.33-.91-.3Z"/>
                <path class="cls-8" d="M166.48,13.46l-8.46,10.88c.54-3.22,5.77-8.17,8.46-10.88Z"/>
                <path class="cls-24" d="M129.02,237.05c6.73,1.18-4.11,4.04-5.14,2.72.12-1.98,4.83-2.77,5.14-2.72Z"/>
                <path class="cls-9" d="M91.25,151.24c.91-2.47,2.17-3.1,3.63-4.83,3.19.46-.45,1.4-.6,2.12-.13.62,3.41,3.69-3.02,2.72Z"/>
                <path class="cls-21" d="M84,205.02l-1.81-2.42"/>
                <path class="cls-2" d="M145.03,64.82c-.06.03.2,1.14-.3,1.21l-.91-.91c.04-.51,1.15-.22,1.21-.3Z"/>
                <g>
                  <path class="cls-2" d="M96.08,119.81c-1.21-1.08-1.98-2.94-3.63-3.63,3.14-.21,10.1,4.09,11.18,7.25,1.87-2.28-4.83-12.48-3.02-12.09,1.49,1.48,10.3,11.94,11.48,11.48.51-.19,1.94-4.64,1.51-6.35-.37-1.46-7.77-6.66-4.83-7.55.7.02,1.41-.02,2.12,0-4.31-13.7-7.79-4.81-8.76-4.23-1.32.79-1.73.56-1.81.6l-.6-2.42c.78-.77,1.55-1.46,2.42-2.12-8.91-9.26,12.01,6.04.6-5.44l.91-.3c4.35,1.4,8.9,12.24,10.27,12.69,8.02,2.61-9.27-20.95-7.25-21.75,5.06,5.21,11.85,24.13,13.6,14.2.9-5.12-5.15-17.64-9.06-21.75l.91-.91c13.86,20.55,6.99-4.3.3-21.45,4.44,2.15,7.82,17.92,8.46,18.73.93,1.17,3.75-.33,4.23,1.81.39,1.74-2.93,3.26-3.02,3.63-.16.63.57,12.76,2.12,12.39,1.09-.27,8.06-19.73,8.16-20.85.55-6.21-3.79-17.4-7.25-22.96,5.07,4.35,7.47,11.21,8.46,17.52.59.86,2.94-3.83,3.02-4.83.65-7.91-9.83-45.1,1.51-2.72l8.76-16.01c-.3-15.57.3-25.95,2.12-3.32l8.16-9.37c-9.69,15.29-8.91,12.72,8.76,3.32l.3.91-19.34,11.48q-7.86,19.34-15.71,38.68c.82,1.49,25.72-16.27,30.21-14.5-7.32,1.82-30.14,17.87-32.63,22.96-.45.91-.89,1.64.3,1.51,11.11-8.74,34.64-16.82,19.94-7.86-12.45,7.59-25.59,4.95-30.82,30.82,6.72-7.24,13.98-16.63,23.87-18.43-10.67,5.84-24.23,20.13-28.4,31.42,6.43-1.46,13.32-11.27,24.47-15.41,10.82-4.02-2.1,2.45-5.44,4.83-18.22,12.99,1.14,3.56,9.67,1.81l10.58-7.55c-5.6,10.29-23.81,11.74-30.52,17.22-3.68,3-8.39,15.75-12.39,10.58-.47-.61-2.7-11.38-4.83-14.5-.33-.49-7.86-6.48-9.06-7.55Z"/>
                  <path class="cls-30" d="M106.05,119.81c.82,2.24,4.94,4.99,5.14,5.74,2.68,10.17-7.34.89-5.14-5.74Z"/>
                  <path class="cls-30" d="M115.12,133.11c4.13-.79-2.04,6.33-2.42,6.04-.97-.75.04-5.59,2.42-6.04Z"/>
                </g>
                <path class="cls-30" d="M97.29,177.22c-.05-.12.74-1.66,0-2.72-1.1-1.56-1.63-.01-1.81-.3-2.37-3.74-8.76-12.09,2.12-7.86,6.76,2.63,6.24,20.23,6.95,26.29h-1.21c-1.81-5.19-3.84-10.37-6.04-15.41Z"/>
              </g>
            </g>
            <g>
              <path class="cls-30" d="M132.34,289.62c0,3.06,1.21,8.39.6,12.99-.81,6.1-9.44,14.28,6.35,2.72l.91.91-3.63,12.69c12.69-2.79,12.37,4.82,3.63,5.74-4.81.51-10.09-2.72-10.88,5.14-.63,6.26,2.8,3.77,3.93,9.37,2.54-4.78.11-10.35,6.95-10.27,9.19.11-2.35,3.06-2.72,14.5.69.35,4.72-11.07,8.46-12.69,5.69-2.47,1.47,3.12,4.83,3.02.81-.02,10.1-13.65,12.39-8.16.74,1.79-4.21,5.46-2.72,6.35,6.43-3.98,21.56-12.1,11.78,2.12,10.21-4.87,2.96,2.35,4.53,3.32,1,.62,10.82-11.76,19.34-5.44,4.22,3.13-2.7,3.73-1.81,10.27-9.22-4.25-12.6,2.73-13.29,3.02-.93.39-4.88-.74-5.44,0-.76,1.01.93,2.58.91,2.72-.81,4.08-17.21-2.78-19.34-5.14.44-.32,7.26-7.16,6.95-8.46-5.81,5.05-16.32,9.9-11.18,10.27-.1.06-.7,1.38-1.51,1.81-3.56.45-6.22,1.34-9.37,3.02-3.31,1.76-6.2,5.01-9.37,6.65-5.26,2.71-11.3,2.8-16.01,6.65,3.51-10.16,14.03-24.45-1.51-5.44l-.3-1.21,3.02-22.66c15.52-36.4,11.11-34.12-1.81,1.21l-1.81-13.29c-1.46,9.55,1.05,23.65-3.02,27.5-1.16-2.02-4.56-1.51-3.63-7.55-1.67-2.09-4.04-1.02-6.04-2.12-3.14-6.94-6.71-16.8,4.23-8.76-2.2-5.82-7.24-17.03-4.23-19.04,4.35,3.34,12.81,15.32,7.86,2.12-2-5.33-9.51-11.26,2.12-3.32l.91-.91c-.19-1.14-5.07-5.74-4.83-6.04,2.09-2.74,8.56,5.76,4.23-5.14,3.95-3.73,11.07-10.73,13.9-15.11,7.72,6.3-10.68,19.26,6.65,6.65Z"/>
              <g>
                <path class="cls-15" d="M101.52,311.38c-1.16-.89-2.07.69-2.42-2.42,2.74-1.06,10.01-8.35,12.69-10.88,4.33,10.9-2.14,2.39-4.23,5.14-.23.31,4.64,4.9,4.83,6.04l-.91.91c-11.63-7.93-4.11-2.01-2.12,3.32,4.95,13.21-3.51,1.23-7.86-2.12Z"/>
                <path class="cls-3" d="M114.82,356.09c-.86-2.65-2.25-4.86-3.63-7.25,4.07-3.85,1.56-17.95,3.02-27.5l1.81,13.29c12.92-35.33,17.33-37.61,1.81-1.21l-3.02,22.66Z"/>
                <path class="cls-2" d="M157.12,342.8c-.4.29-3.12,1.19-4.23,1.81-5.14-.37,5.37-5.22,11.18-10.27.31,1.3-6.51,8.14-6.95,8.46Z"/>
                <path class="cls-26" d="M126.6,333.13c4.81-.58-2.94,5.88-3.63,5.44-1.5-.92,3.27-5.4,3.63-5.44Z"/>
              </g>
            </g>
            <g>
              <g>
                <path class="cls-35" d="M63.45,330.11c-.85,1.89-3.93-.9-4.23-.3-.7,1.39,5.62,9.26-10.88,3.63l8.46,7.55c-8.06-4.08-22.97-7.23-25.98-17.83-3.76-13.22,13.21-17.84,32.63,6.95Z"/>
                <path class="cls-8" d="M63.45,330.11c.98,1.25,2.32,2.28,2.42,2.42,3.01,4.29,5.11,9.15,7.25,13.9.77,1.71,1.09,4.26,1.81,6.04h-.6c-3.27-3.91-6.03-5.44-10.27-7.86-2.33-1.33-4.85-2.41-7.25-3.63l-8.46-7.55c16.5,5.63,10.17-2.24,10.88-3.63.3-.6,3.38,2.19,4.23.3Z"/>
              </g>
              <path class="cls-6" d="M116.03,260.61c-2.52,1.64-9.22,11.86-9.97,12.09-4.11,1.21-1.65-3.22-1.51-4.83,3.16-1.1,6.04-5.77,8.76-7.25,2.05-1.11,2.41.13,2.72,0Z"/>
              <path class="cls-35" d="M91.25,289.02c-1.34.78-3.87.59-5.44.6.06-.12-1.3-.47,0-2.72,20.26-24.45,7.54.89,5.44,2.12Z"/>
              <path class="cls-35" d="M77.35,299.29c-1.73-1.36-3.68-2.95-5.44-4.23,2.45-14.37,12.5-3.38,5.44,4.23Z"/>
              <path class="cls-22" d="M91.25,289.02c-.17.84.36,1.69,1.21,1.81l-5.14,13.29-2.72-12.09c.35-.79.82-1.61,1.21-2.42,1.57-.01,4.1.17,5.44-.6Z"/>
              <path class="cls-35" d="M97.29,296.27c-.83,1.03-1.44,3.88-4.53,4.83-.07-1.82-.37-3.6-.3-5.44,3.17-2.3,1.8-9.93,7.55-10.88,2.78,7.53-3.99,6.6-2.72,11.48Z"/>
              <g>
                <path class="cls-35" d="M91.25,240.07c.3,1.17-.26,3.72.91,5.44.3-.57,2.56-1.8,2.72-1.81,5.06-.4,7.26.59,9.06,5.44,1.67,4.49,1.4,10.21,1.21,15.11,0,.18-.24-.64-.6,3.63-.14,1.61-2.6,6.04,1.51,4.83.75-.22,7.45-10.45,9.97-12.09,4.87-1.96,14.06-6.59,15.71,2.42,1.01,5.52-2.96,15.17-6.04,19.94-2.83,4.38-9.95,11.38-13.9,15.11-2.68,2.53-9.95,9.82-12.69,10.88-.56.22-2.09-.14-3.02,0,2.02-5.65,5.9-11.25,4.53-17.52-.91,1.75-2.09,3.3-3.32,4.83-1.27-4.88,5.5-3.95,2.72-11.48-5.75.95-4.38,8.58-7.55,10.88.05-1.41,1.21-4.3,1.21-4.53,0-3.06-1.06-.28-1.21-.3-.85-.12-1.38-.98-1.21-1.81,2.1-1.22,14.82-26.56-5.44-2.12-1.3,2.25.06,2.6,0,2.72-.39.81-.86,1.63-1.21,2.42-1.49,3.35-3.26,6.85-3.63,10.58-.96,1.14-2.31-2.29-3.63-3.32,7.06-7.61-2.99-18.6-5.44-4.23-19.1-13.95.38,3.89-.91,12.09-16.28-14.07-23.33-21.85-5.14,1.51-26.89-11.26-4.61,1.67,4.23,6.95-2.6-.36-5.31-1.71-7.86-2.42-17.22-4.82-23.11-10.44-35.65-22.96.08-1.98-.79-3.35-.6-5.44,1.09-12.57,13.74-5.51,19.94-1.51-29.47-20.78-16.12-39.99,2.12-19.04-2.52-10.16-3.68-46.25,11.18-33.84,4.11,3.44,7.29,16.24,9.37,21.75.87-6.44,2.41-20.63,6.35-25.38,8.64-10.43,14.62,6.69,16.32,13.29Z"/>
                <g>
                  <path class="cls-3" d="M94.88,243.69c-.16.01-2.42,1.24-2.72,1.81-1.17-1.72-.6-4.26-.91-5.44l3.63,3.63Z"/>
                  <path class="cls-35" d="M87.62,276.93c-.75,1.18-6.36,5.12-5.44,10.27-.91.15-.43,1.62-1.51,1.21-3.02-1.15-3.6-19.37,3.63-13.9,4.45-5.65,7.34-3.9,3.32,2.42Z"/>
                  <path class="cls-27" d="M56.2,275.72l5.74,5.44-.3-7.86c7.71,13.22,4.95,19.24-3.02,9.37-1.85-2.3-2.66-4.07-2.42-6.95Z"/>
                  <path class="cls-35" d="M69.8,269.68c2.49-.6,4.4,18.1,1.21,13.9-3.25,7.26-5.4-6.66-1.21-13.9Z"/>
                  <path class="cls-35" d="M49.85,281.16c6.27,3.69,12.44,6.18,9.67,14.5-2.81-5.46-9.67-7.57-9.67-14.5Z"/>
                  <path class="cls-35" d="M61.64,273.3l.3,7.86-5.74-5.44c.03-.32,1.82-5.92,2.12-6.04,1.62-.66,2.05,1.44,3.32,3.63Z"/>
                  <path class="cls-31" d="M82.18,287.2c-.92-5.15,4.69-9.09,5.44-10.27l-2.42,9.37c-1.99,2.62-2.5.82-3.02.91Z"/>
                </g>
              </g>
              <g>
                <path class="cls-28" d="M71.91,295.06c1.75,1.28,3.71,2.87,5.44,4.23,1.32,1.03,2.67,4.47,3.63,3.32.36-3.73,2.14-7.22,3.63-10.58l2.72,12.09,5.14-13.29c.15.02,1.21-2.75,1.21.3,0,.23-1.16,3.13-1.21,4.53-.06,1.84.23,3.61.3,5.44,3.1-.96,3.7-3.81,4.53-4.83,1.24-1.53,2.41-3.08,3.32-4.83,1.37,6.27-2.51,11.88-4.53,17.52-.42,1.18-1.18,1.13-1.21,1.21-1.59.45-3.26.71-4.83,1.21-8.62,2.72-10.3,5.56-19.94,4.23-8.84-5.28-31.12-18.21-4.23-6.95-18.19-23.36-11.14-15.58,5.14-1.51,1.29-8.19-18.19-26.04.91-12.09Z"/>
                <path class="cls-22" d="M67.98,293.85c1.4-.64,8.61,10.48,8.76,11.18.96,4.49-7.39-4.1-8.76-11.18Z"/>
              </g>
            </g>
          </g>
        </g>
        <g>
          <path class="cls-6" d="M409.72,182.06c1.38-1.54,6.11-5.97,6.65-6.95,4.41-7.94-11.77.85-12.39,1.51-2.8,2.95-.38,7.27-1.81,7.86-5.69,2.32-4.61-6.62-.6-9.67,3.92-2.99,8.62.72,14.5-13.9,2.84-.47,1.99,1.22,2.12,1.21-10.29,15.75,14.36-10.84,22.66-4.23,5.58,4.44-10.46,11.79-10.58,12.99-.04.4,4.49,4.57.91,6.95-1.72,1.14-14.07,1.1-21.45,4.23Z"/>
          <path class="cls-9" d="M417.57,198.37l-.6-.6,6.04-9.67c3.66-2.86,3.39-4.65,3.63-4.83,4.79-3.78,12.7-4.02,12.09.91-.15,1.18-3.79,3.27-3.63,4.23.57,3.34,8.89.23-10.58,8.76-1.25-2.82-5.2-.47-6.95,1.21Z"/>
          <path class="cls-6" d="M422.41,153.05c-.4.04-1.27,1.87-7.55,1.21-1.08-4.31.3-5.74.3-6.04,2.64-1.53,7.63-6.22,9.67-8.46,14.84,3.91-2.7,5.47-2.42,13.29Z"/>
          <g>
            <path class="cls-3" d="M250.18,12.25c-1.63,9.33-10.56,22-16.92,29.31-1.2,4.31,6.17,14.82,9.37,18.43-1.3-41.24,23.77-36.41,7.55-3.93-3.95,7.91-7.97,3.22,0,15.41-2.07-1.11-6.43-3.57-7.86-4.23-10.7-15.21-22.35-13.43-23.27-14.5-.71-.84,2.86-1.71.6-2.42-7,.1-7.45,1.04-12.39-3.93,4.57-4.59-14.08-5.22-10.27-9.67-7.56-7.06,3.82-7.62,9.37-6.95,16.07,1.94,17.65,13.12,28.7,22.06-5.5-9.8-17.97-23.89-18.13-35.65-.02-1.15,1.11-1.29,1.21-2.12l8.16,4.83c7.7-1.65,6.08,2.06,7.55-1.21,1.69-3.75-.33-7.05,5.44-5.44.56.16,2.54,2.41,2.72,2.42,1.27.07,5.86-5.62,8.16-2.42Z"/>
            <path class="cls-5" d="M233.86,17.69c-1.47,3.27.14-.45-7.55,1.21l-8.16-4.83c1.99-17.24,11.81-5.92,15.71,3.63Z"/>
            <path class="cls-9" d="M250.18,12.25c-2.3-3.2-6.89,2.49-8.16,2.42-.18-.01-2.16-2.26-2.72-2.42,1.38-9.72,13.76-16.55,10.88,0Z"/>
            <path class="cls-3" d="M288.25,47.3c-1.01,2.45-1.56,5.35-2.42,7.86-7.46,7.13-17.09,9.05-17.52,9.97-.46.97,2.01,1.47,1.81,3.63-.09.96-8.35,9.6-8.46,12.99-1.05-1.25-2-2.31-3.02-3.63.87-8.33,8.88-15.3,4.53-16.92-3.11-1.16-7.39,4.38-7.55,4.83h-.6c.85-8.5,4.78-38.77,6.65-44.42,3.35-10.11,13.88-3.88,9.37,14.2,5.13-8.12,13.82-11.79,15.41-6.95,1.4,4.28-13.66,20.89-17.52,24.17,6.35-2.51,11.89-8.68,19.34-5.74Z"/>
          </g>
          <path class="cls-29" d="M358.35,196.56c-.63,6.95-2.57,8.93-5.44,14.2-.44.81.63.86.6.91-1.86,3.21-4.06,3.98-4.23,4.23q-6.65-.3-13.29-.6c-.71-2.76-1.32-5.65-1.21-8.46.01-.37.44-.5.6-1.81,7.19-3.35,7.97-8.65,8.46-9.06.12-.1-.55.52,3.02-1.21,1.68-.81,2.85-1.77,3.02-1.81,1.95-.55,4.69.8,6.65-.6.35,1.18,1.22,3.12,1.81,4.23Z"/>
          <path class="cls-16" d="M360.16,211.06l-5.44.6h-1.21s-1.05-.1-.6-.91c2.87-5.27,4.81-7.25,5.44-14.2.53.99,5.4,5.86,5.44,6.35.03.45-2.14,3.46-3.63,8.16Z"/>
          <g>
            <path class="cls-12" d="M403.07,89.6c2.33-.25,2.87-.59,3.02-.6,39.58-2.45,35.38,10.68,26.59,35.96-.48,1.38.92,2.6.6,3.63-.89,2.89-4.15,5.15-6.04,7.55-1.8-1.74-9.11.11-10.27,1.21-1.11-5.12-5.24-3.76-6.04-4.23-.55-.33-1.19-.84-1.81-1.21-5.94-3.55-13.89-13.06-14.5-.6-9.94-.55-15.17,7.96-22.96,12.09-1.22.65-2.63,1.29-3.93,1.81-.7-.28-3.99-11.94-7.25-12.69-5.07-1.17-2.8,5.78-2.72,7.86-6.18-1.15-12.17-3.35-17.52-6.65,5.15-10.04,15.45-24.56,24.78-30.82.32-.22.86.64.91.6,1.3-.83,2.49-2.24,3.93-3.02.73-.39,14.08-6.27,15.11-6.65,3.84-1.39,8.08-2.8,12.09-3.63,2.08-.43,4-.39,6.04-.6Z"/>
            <path class="cls-19" d="M427.24,136.13c-.13.17.29.65-2.42,3.63-2.04,2.24-7.03,6.93-9.67,8.46.02-3.23-.65-8.57,1.81-10.88,1.16-1.09,8.47-2.94,10.27-1.21Z"/>
            <path class="cls-11" d="M357.75,140.36c.09,2.5,1.78,2.96,0,8.76.71,1.76,6.29,12.61,6.04,13.29-.81,2.28-9.99-2.24,2.42,12.09-4.67,7.55,6.61,12.96-.91,19.04-2.43-7.64-9.45-19.79-5.74-16.01.25-4.61,1.75-5.97-2.42-9.37-2.34-1.9-3.73,2.29-8.76,0-1.27-.58-4.58-5.52-5.14-6.95-3.41-8.73,4.87-5.9-11.48-6.35,1.42-7.41,5.04-14.48,8.46-21.15,5.35,3.3,11.35,5.5,17.52,6.65Z"/>
            <path class="cls-16" d="M409.11,131.9c-5.79,6.39-19.56,14.14-19.34,22.36-5.42,9.3-5.72,16.5-.6-4.53-15.72.59-8.38,52.46-12.09,13.29-.77-4.35-5.11-11.43-5.44-12.99,8.68-7.3,21.38-8.06,28.4-17.83-1.02-1.49-3.24-.79-5.44-.91.61-12.46,8.56-2.94,14.5.6Z"/>
            <path class="cls-11" d="M394.61,131.29c2.2.12,4.42-.58,5.44.91-7.02,9.76-19.72,10.53-28.4,17.83-.45-2.11.6-4.54,0-6.65,7.79-4.13,13.02-12.63,22.96-12.09Z"/>
            <path class="cls-16" d="M357.14,168.16c-2.45.77.75,6.62-.3,7.25-13.61-7.63-4.36,6.89-.3,12.09-3.68.27-11.61-4-8.46,4.53.2.55,1.13,1.08,1.81.91-.17.05-1.35,1-3.02,1.81-.98-4.45-1.85-8.38-6.35-10.27-.66.82-5.52,2.78-5.74,3.02-5.71-7.79-4.83-23.21-3.02-32.63,16.35.44,8.07-2.38,11.48,6.35.56,1.43,3.87,6.37,5.14,6.95,5.03,2.29,6.43-1.9,8.76,0Z"/>
            <path class="cls-16" d="M356.54,187.49c2.81,4.54-.08,4.56,0,4.83-1.96,1.4-4.69.06-6.65.6-.68.18-1.61-.35-1.81-.91-3.15-8.54,4.78-4.26,8.46-4.53Z"/>
          </g>
          <g>
            <path class="cls-12" d="M368.02,208.04c-3.96,8.43-3.48,12.9-1.51,21.75,5.52-2.42,21.28-6.19,22.36-6.65,1.99-.84,13.82-10.35,15.41-8.16q-7.25,7.7-14.5,15.41c-2.84-8.49-11.12,1.95-13.29,5.74-6.67,11.63-4.79,25.01-6.35,25.68-2.69,1.17-4.3-10.11-5.14-12.09,3.61-12.03,5.65-16.63-3.63-6.04-7.82-6.11-11.38,3.02-9.67,13.9-1,.93-.42,2.01-1.21,3.63-1.94-4.83-3.76-13.65-4.23-18.73,4.6,3.01,2.82-1.55,2.42-3.63-.79-4.02-4.02-9.72-6.04-14.2,2.49-2.76,4.56-5.7,6.65-8.76.17-.25,2.37-1.02,4.23-4.23h1.21c-.52,1.15,3.99,2.4,4.23,2.42-3.45,9.74,3.64,2.56,4.83-2.42.98-.73,3.74-5.19,4.23-3.63Z"/>
            <path class="cls-13" d="M365,249.74c-.67-1.57-2.36-5.06-3.63-6.04,9.27-10.59,7.23-5.99,3.63,6.04Z"/>
            <path class="cls-11" d="M358.95,214.08c.2.01.41.01.6,0,3.01-.16,2.57-1.18,4.23-2.42-1.19,4.97-8.29,12.16-4.83,2.42Z"/>
          </g>
          <g>
            <path class="cls-29" d="M410.92,133.11c-3.16,4.42-4.34,13.4-4.83,19.04-.98,1.89-3.34-6.86-4.83-3.02-1.35,3.46,2.59,13.94-1.81,19.94-5.7,7.78,4.8-11.98-4.83-7.86,3.94-7.54,2-18.69-4.83-6.95-.23-8.22,13.55-15.97,19.34-22.36.62.37,1.26.88,1.81,1.21Z"/>
            <g>
              <path class="cls-30" d="M371.64,143.38c.6,2.11-.45,4.54,0,6.65.33,1.57,4.67,8.64,5.44,12.99,3.71,39.17-3.64-12.71,12.09-13.29-5.12,21.03-4.81,13.83.6,4.53,6.84-11.74,8.77-.59,4.83,6.95,9.64-4.13-.87,15.64,4.83,7.86,4.4-6.01.46-16.48,1.81-19.94,1.49-3.83,3.86,4.91,4.83,3.02.49-5.63,1.67-14.62,4.83-19.04.8.47,4.93-.89,6.04,4.23-2.46,2.31-1.79,7.65-1.81,10.88,0,.3-1.39,1.73-.3,6.04,6.28.66,7.16-1.17,7.55-1.21,11.04-1.17,7.69,7.72-4.23,9.06-.12.01.73-1.68-2.12-1.21-5.88,14.61-10.58,10.91-14.5,13.9-4,3.05-5.08,11.98.6,9.67,1.43-.58-.98-4.91,1.81-7.86.62-.66,16.8-9.45,12.39-1.51-.54.97-5.26,5.41-6.65,6.95-2.38,2.65-4.46,2.19,7.25,1.81-5.61,4.93-14.54,7.44-21.45,11.48-7.33,4.28-19.77,17.16-27.5,12.69-.49-1.56-3.25,2.9-4.23,3.63-1.66,1.24-1.22,2.26-4.23,2.42-.07-1.03.3-2.07.6-3.02,1.49-4.7,3.66-7.71,3.63-8.16-.04-.48-4.91-5.36-5.44-6.35-.59-1.11-1.47-3.05-1.81-4.23-.08-.27,2.81-.29,0-4.83-4.05-5.19-13.31-19.71.3-12.09,1.05-.63-2.15-6.48.3-7.25,4.17,3.4,2.67,4.76,2.42,9.37-3.71-3.78,3.31,8.38,5.74,16.01,7.52-6.07-3.77-11.48.91-19.04-12.4-14.33-3.22-9.81-2.42-12.09.24-.69-5.33-11.53-6.04-13.29,1.78-5.8.09-6.26,0-8.76-.08-2.07-2.35-9.03,2.72-7.86,3.26.75,6.55,12.41,7.25,12.69,1.3-.52,2.7-1.16,3.93-1.81Z"/>
              <path class="cls-6" d="M385.24,167.55c2.74.52-1.96,5.51-2.42,6.65-1.24-2.39.96-6.92,2.42-6.65Z"/>
              <path class="cls-3" d="M392.49,188.7c2.73-.12-5.18,6.05-5.74,4.53.59-1.23,5.02-4.5,5.74-4.53Z"/>
            </g>
          </g>
          <g>
            <path class="cls-6" d="M426.64,183.26c-.24.19.04,1.97-3.63,4.83-7.97,6.23-29.88,20.03-6.04,9.67l.6.6c-.22.21-3.48,4.93-2.72,5.44,3.45-1.61,24.33,1.51,25.08,4.53,1.25,5.05-35.59,17.44-30.52,19.64,5.81-3.11,19.45-8.79,25.38-7.25,11.21,2.91-9.94,8.76-9.37,14.2.98,9.33,17.55-5.03,18.13,1.81.11,1.25-12.16,16.18-13.9,19.04-6.02-4.51-17.01,2.24-20.85,7.25-1.52-.71,14.85-28.36,2.42-30.21-7.8-1.17-16.29,13.33-19.34,19.34-1.09.03-1.23-19.11-2.12-21.75q7.25-7.7,14.5-15.41c-1.59-2.19-13.42,7.32-15.41,8.16-1.07.45-16.84,4.22-22.36,6.65-1.97-8.86-2.44-13.33,1.51-21.75,7.73,4.47,20.17-8.41,27.5-12.69,6.91-4.04,15.84-6.55,21.45-11.48,3.22-.1,6.39-1.01,9.67-.6Z"/>
            <path class="cls-30" d="M385.24,212.87l.91.3c-3.09,12.93-6.91,10.19-.91-.3Z"/>
          </g>
          <path class="cls-23" d="M314.84,395.37c-.47,6.5-1.48,5.33-3.02,9.67-1.33,3.75-1.49,10.68-6.65,12.09-.29.08-.84.03-1.21,0-2.29-.18-2.2-2.83-5.14-2.42-2.34.33-5.83,6.91-7.55,5.44.04-.05-.23-.26.6-1.21,3.41-3.86,5.87-8.58,9.37-12.09,3.12-3.12,15.66-9.04,9.97-9.97,3.8-6.1,4.02-6.99,3.63-1.51Z"/>
          <path class="cls-18" d="M346.87,194.75c-3.57,1.73-2.9,1.1-3.02,1.21-3.93-11.02-7.7,2.89-8.46,9.06-.16,1.31-.59,1.44-.6,1.81-2.13,1.64-3.78-4.94-4.83-6.35-4.2-5.6-5.1-.88-4.83-8.16.02-.68-.19-1.25.6-1.21,1.48,2.04,2.55,4.38,4.53,6.04.83-.17,3.86-8.95,4.53-9.67.22-.24,5.08-2.2,5.74-3.02,4.49,1.9,5.37,5.82,6.35,10.27Z"/>
          <path class="cls-19" d="M349.29,215.9c-2.09,3.07-4.16,6.01-6.65,8.76,2.02,4.48,5.26,10.18,6.04,14.2-.32-.09-1.16-.56-1.21-.6-1.05-1.02-4.45-4.71-4.83-5.74,1.36-7.11-3.9-6.5-6.65-17.22q6.65.3,13.29.6Z"/>
          <path class="cls-30" d="M348.68,238.86c.41,2.07,2.18,6.64-2.42,3.63-.09-.93.17-3.77,1.21-4.23.05.05.89.51,1.21.6Z"/>
          <g>
            <path class="cls-12" d="M372.25,30.38c-.12,2.13.26,4.66,0,6.65-.25,1.92-.78,4.12-1.21,6.04-.46,2.07-2.57,3.02-3.02,5.14-.3,2.56,2.03,4.48,2.42,9.37.14,1.73.05,3.69,0,5.44-19.18,6.58-17.07,17.86-23.87,11.48-.96,7.86-7.4,5.75-12.09,11.48-4.2-1.16-8.06-.15-12.09,1.21,2.94-15.11-3.41-6.7-9.67,6.04q-6.35-1.51-12.69-3.02c-12.67-10.83-.35-15.24-17.22-26.59.82-2.95,2.04-5.6,3.02-8.46.86-2.51,1.41-5.41,2.42-7.86,2.88-7,6.1-14.61,10.88-20.55.19-.24,2-1.93,3.02-3.02,12.64-13.49,44.91-30.22,62.54-21.15,9.69,4.98,8.05,18.84,7.55,27.8Z"/>
            <path class="cls-11" d="M370.44,63.01c-.18,6.08-2.58,12.22-1.81,18.43-3.16-2.24-4.13,6.56-7.25,12.99-.36.75-.83,1.67-1.21,2.42-.08.15-1.63.91-2.42,2.42-28.94-11.83-19.79,10.49-37.16,7.25-6.41-7.18-16.01-9.39-27.19-7.25l-1.81-7.86c-5.97,11.73-7.08,4.48-9.97,7.86-3.82-17.19-3.35-19.2,1.21-35.65,16.87,11.35,4.55,15.76,17.22,26.59q6.35,1.51,12.69,3.02c6.26-12.74,12.61-21.15,9.67-6.04,4.03-1.36,7.89-2.36,12.09-1.21,4.69-5.73,11.12-3.62,12.09-11.48,6.79,6.37,4.69-4.9,23.87-11.48Z"/>
            <path class="cls-16" d="M357.75,99.27c-.25.48.25,2.26,0,2.72-9.21,16.95-18.17,21.47-25.38,31.73-4.22,2.39-6.37,4.47-11.48,5.44-19.68-16.28-14.01-9.58-18.43-6.04-.15.12-.91-.06-1.51,0-5.14-7.08-13.91-9.39-19.34-33.84,2.89-3.37,4,3.87,9.97-7.86l1.81,7.86c11.18-2.13,20.78.07,27.19,7.25,17.38,3.24,8.22-19.08,37.16-7.25Z"/>
          </g>
          <g>
            <g>
              <path class="cls-12" d="M200.02,134.32c3.39.2,6.89-.27,10.27,0,36.73,2.95,43.7,13.11,76.75,19.94,2.44.51,5.64.59,8.16.6,5.72,12.27,10.6,12.52,18.13,21.75,4.75-6.32,3.3-9.93-3.93-12.99,2.77-7.5,3.06-15.82,1.21-23.57,1.21-1.73,3.48.38,10.27-.91,5.11-.97,7.26-3.05,11.48-5.44-8.81,12.53-14.94,34.19-11.48,49.25.73,3.17,3,5.63,4.83,8.16-.79-.05-.58.53-.6,1.21-7.34-1.92-6.29-5.4-7.25-6.35-4.75-4.68-12.64-13.07-19.04-12.39-3.33-6.04-9.65-9.45-15.11-13.29-6.36.41-11.95-4.48-18.13-.6-8.98-6.22-25.14-4.47-36.26-6.65-1.53.7-1.53,1.7-2.12,1.81-2.1-6.38-9-14.02-10.58-2.42-7.96-14.56-12.97-4.83-13.9-4.83-.81,0-8.04-10.58-9.67,3.63-13.34-5.17-4.62,5.38-20.85,1.81-.65-.14-.97-1.73-2.12-2.42-5.06-1.4-12.2,8.45-11.78,5.14,8.27-14.68,24.27-13.37,24.78-22.06.81.25,13.94.42,16.92.6Z"/>
              <g>
                <path class="cls-19" d="M227.22,154.86c-1.53.3-3.98-.21-5.74,0-6.55,7.85-9.31.4-15.11,6.04-17.63-2.15-10.96,6.75-12.09,7.25-1.44-1.66-7.97,1.75-10.58,3.02-1.8-5.2-9.64-5.66-13.9-8.46,1.86-2.7,2.41-6.41,2.42-9.67,16.23,3.57,7.5-6.98,20.85-1.81,1.63-14.2,8.85-3.63,9.67-3.63.93,0,5.94-9.72,13.9,4.83,1.58-11.6,8.47-3.97,10.58,2.42Z"/>
                <path class="cls-11" d="M183.71,171.18c-.52.25-8.96,1.5-6.04,6.95-6.05,1.84-6.32,3.7-6.65,3.93-4.14-.88-5.76-2.09-8.46-4.83-.45-.46-3.15-4.87-4.83-6.95,3.14-1.04,10.42-5.13,12.09-7.55,4.26,2.8,12.1,3.26,13.9,8.46Z"/>
              </g>
            </g>
            <g>
              <path class="cls-16" d="M244.74,121.02c1.05-.52,5.22-1.61,5.44-2.12,1.01-2.39-6.33-4.81,9.06-3.93.6.03,1.22-.07,1.81,0,8.56,1.07,12.51,5.68,18.13,11.78.46.5-1.36,3.63,3.02.91.11.19-.09-1.2,2.42,3.63-15.33,3.78-11.25,19.85-2.72,14.5,2.08-1.31,3.39-6.51,4.83-6.04,4.88,1.59-4.08,6.65-3.93,8.16.13,1.31,6.12,3.71,4.23,6.35-33.05-6.84-40.02-16.99-76.75-19.94,9.87.14,1.27-7.03-4.53-13.9-.87-.09-5.56,5.79-11.48,5.44-.56-.03-1.07-2.59-2.72,0-1.2-1.21-2.42-2.4-3.63-3.63-.56-.57-1.24-1.29-1.81-1.81,1.32-2.07,6.55,3.18,7.55,2.42,1.53-1.17-3.18-4.72,1.81-6.04,6.11-1.62,12.08,4.86,8.76-2.12-.63-1.33-4.97-4.19-6.65-5.74,3.88-4.9,10.03,1.29,13.6,4.23,7.45-4.25,15.71,6.35,18.73,12.69,6.39-1.82,8.63-1.78,14.81-4.83Z"/>
              <path class="cls-11" d="M197.61,108.93c1.68,1.55,6.02,4.42,6.65,5.74,3.31,6.98-2.65.49-8.76,2.12-5,1.33-.28,4.87-1.81,6.04-1,.77-6.24-4.49-7.55-2.42-.89-.81-2.96-.37-2.42-1.51,9.1-3-1.01-15.05-5.74-5.74l-.3-8.46c6.97,5,3.01-11.39,19.94,4.23Z"/>
              <path class="cls-16" d="M320.88,139.15c-6.79,1.29-9.06-.82-10.27.91,1.85,7.75,1.56,16.07-1.21,23.57,7.23,3.06,8.67,6.68,3.93,12.99-7.53-9.23-12.41-9.49-18.13-21.75-2.52-.01-5.72-.1-8.16-.6,1.89-2.64-4.1-5.03-4.23-6.35-.15-1.5,8.81-6.57,3.93-8.16-1.44-.47-2.75,4.74-4.83,6.04-8.53,5.34-12.61-10.72,2.72-14.5.85,1.64,2.22,4.89,4.23,5.44,1.78,3.22,14.44,27.19,16.01,27.19,2.25,0,5.56-17.74-3.93-30.82.6-.06,1.36.12,1.51,0,4.42-3.54-1.25-10.24,18.43,6.04Z"/>
              <g>
                <path class="cls-12" d="M242.32,67.24c1.42.66,5.79,3.12,7.86,4.23,1.35.72,2.21,2.04,3.32,3.02l.91-.91c-.38-2.6.35-5.04.6-7.55h.6c-.16.44-.74,8.92-.6,9.37.45,1.51,3.49,2.54,3.63,2.72,1.02,1.31,1.97,2.37,3.02,3.63,16.71,19.93,19.69,30.08,27.19,54.99-2.01-.54-3.38-3.8-4.23-5.44-2.51-4.82-2.31-3.44-2.42-3.63-.15-.26.56-2.58-1.81-5.74-7.33-7.53-13.35-18.91-19.34-6.95-.59-.07-1.22.03-1.81,0,8.87-26.84-29.46-9.71-14.5,6.04-6.17,3.05-8.41,3.01-14.81,4.83-3.03-6.34-11.28-16.94-18.73-12.69-3.57-2.94-9.71-9.13-13.6-4.23-16.93-15.62-12.97.77-19.94-4.23-.91-.65-4.34-6.64-4.83-7.86-3.58-8.82-7.42-26.94.91-33.84,14.7-12.19,52.58-3.22,68.59,4.23Z"/>
                <path class="cls-11" d="M259.24,114.98c-15.39-.88-8.06,1.53-9.06,3.93-.21.51-4.39,1.6-5.44,2.12-14.95-15.75,23.37-32.88,14.5-6.04Z"/>
                <path class="cls-11" d="M282.21,127.67c-4.39,2.72-2.56-.41-3.02-.91-5.62-6.1-9.57-10.71-18.13-11.78,5.99-11.96,12.01-.58,19.34,6.95,2.37,3.16,1.67,5.48,1.81,5.74Z"/>
              </g>
              <path class="cls-18" d="M210.3,134.32c-3.38-.27-6.88.2-10.27,0-3.78-1.89-5.69-5.67-8.46-8.46,1.65-2.59,2.16-.03,2.72,0,5.92.35,10.61-5.53,11.48-5.44,5.8,6.87,14.4,14.04,4.53,13.9Z"/>
            </g>
          </g>
          <g>
            <g>
              <path class="cls-5" d="M326.93,383.29c-2.42,1.7-7.36,10.42-7.86,10.88-1.35,1.24-2.43,1.4-4.23,1.21.4-5.48.18-4.59-3.63,1.51,5.69.93-6.86,6.85-9.97,9.97-3.49,3.5-5.96,8.23-9.37,12.09.74-4.53-3.49,2.87-10.58,8.46-3.03,2.4-6.69,4.14-9.67,6.65l-.91-.3c7.7-15.5,14.02-20.4-1.51-6.35-1.56-4.09-2.8-1.47-5.74-.6-1.62.47-1.09-.27-3.63,1.21-5.01,2.94-8.1,8.16-11.48,12.69-1.71-4.3-10.97-13.01-12.69-10.58-.25,1.85.36,5.11,0,6.35l-9.67,6.65c-2.29-4.14-1.47-5.12-5.44-10.88-.55-.8,1.33-6.88-6.65,2.42-1.28-.76-5.34-5.45-9.67-2.42-.31-.59-6.52-5.56-7.55-6.04-9.58-4.5-11.87,1.86-15.41-8.76l5.14-.3c1.26-.75-14.97-5.32-16.01-4.83-2.26-1.97-3.23-2.21-5.44-2.42-1.59-.15-3.98.07-5.44.6,1.9-2.97,2.36.86,6.04-6.04l6.04,1.51c-1.48-.67-9.05-6.28-6.95-7.55,15.19,6.85-1.28-3.4-3.32-8.76-1.34-3.5.99-1.1,1.21-3.02.06-.5-3.14-8.25-3.63-9.37-1.8-4.13-3.55-9.35-9.06-9.67-1.95-20.54,7.73-4.38,8.76-4.23,2.58.38.68-3.89,3.63-3.02,1.86.55,1.51,7.01,2.72,8.76,1.66,2.43,1.74-2.46,3.93-1.51,1.32.57,4.26,15.08,3.93.91,6.25-1.42,5.57,28.18,7.86,12.09,6.18-1.09-.42,20.68,7.25,12.09,3.59,11.92,6.02,21.27,3.63,2.42,2.5-4.23,6.34,14.42,11.18,16.62,9.37,4.25-6.51-8.37-3.93-14.81.84-2.09,3.15.4,3.32.3,2.14-1.26-7.38-11.11-5.74-13.6.48-.73,1.91.12,2.42-.6.35-.5-6.3-8.64-6.65-10.27,4.41-.55-.73-6.02-1.21-8.46-.39-2.01,1.64-1.05,1.21-3.02-.58-2.61-8.76-19.97.3-14.81,1.49.85,8.15,9.12,6.95,11.78,1.14,1.99,2.16-1.45,3.63,0,.41.41,1.25,5.75,1.81,7.25,1.49,2.04,1.01-.64,2.12-.91,2.87-.7,3.52,10.82,4.83,10.88.92.04,3.51-10.6,4.53,11.18,1.45,2.34,1.62-2.04,2.72-2.12,2.3-.17,1.08,7.49,1.81,7.86,3.82-9.05,4.32-.34,3.93,9.97h3.63c-.63,3.39,5.02,15.06,7.55,13.6-4.82-11.04-.37-9.96-.3-10.58-6.16-14.04-.11-12.52,0-13.29.13-.88-7.23-18.34,0-12.09,2.7-1.9-9.64-28.03-3.02-21.75.72.68,7.92,18.98,9.67,14.5-4.02-17.32,2.1-8.98,2.42-9.67.31-.66-2.52-11.91,2.72-12.99,4.64,18.01,2.38-7.55,4.23-7.86,1.09-.18,3.5,8.21.91-8.16,3.81-4.53,3.68,6.21,4.83-7.25,8.56-11.49,5.96-3.61,6.65,4.23.04.47,1.18.14,1.21.6.24,4.46-1.67,11.42-.91,11.78,5.22-11.18,3.65,4.58,8.46-11.48.99,6.3,10.19-17.92,9.97-1.51,0,.16-1.18,2.8-1.21,3.02-.15,1.27,2.37,4.02-2.42,8.46,2.96,2.75-4.81,9.55-3.32,11.18,4.25-2.04.98,6.11-5.14,10.58,5.04,4.46-12.03,16.45-2.72,11.18,1.9-1.07,11.3-12.05,12.39-6.35.35,1.84-4.75,7.4-4.83,7.86-.17.85,3.26.06,2.42,2.42-.5,1.39-6.58,5.6-6.65,6.04-.22,1.39,7.4-3.05-3.02,11.48,1.32,2.2,5.76-6.24,5.44-1.81-.09,1.25-8.61,18.06-10.58,20.85,7.03-4.52,19.34-27.33,9.97-3.32,2.74-.83,5.53-7.11,8.16-3.93-.25-3.29,4.39-17.92,4.83-8.46,6.04-8.05,2.46,6.78,7.55-3.93,1.34-2.81,5.48-18.57,6.35-6.95,5.9-11.22,5.55-5.28,6.65-5.44.85-.12,9.84-12.39,12.09-12.09,6.98.96-17.06,29.79,5.44,11.48,1.18-.25,1.57.65,2.72.6Z"/>
              <path class="cls-3" d="M291.88,418.94c-.84.95-.56,1.16-.6,1.21-6.65,7.55-13.75,14.77-19.64,22.96-2.85-14.01-7.52-7.96-8.16-9.37-.14-.32,1.52-1.31,0-6.95,2.94-.86,4.18-3.48,5.74.6,15.53-14.05,9.21-9.16,1.51,6.35l.91.3c2.98-2.51,6.64-4.25,9.67-6.65,7.08-5.59,11.31-12.99,10.58-8.46Z"/>
              <path class="cls-28" d="M248.37,440.7c3.38-4.53,6.47-9.75,11.48-12.69l-9.67,19.64c-2.09-1.78-.86-4.55-1.81-6.95Z"/>
              <path class="cls-15" d="M220.57,432.24c-1.45.64-4.13,4.22-4.53,4.23-.14,0-1.21-1.28-2.12-1.81,7.98-9.3,6.09-3.22,6.65-2.42Z"/>
            </g>
            <g>
              <path class="cls-23" d="M325.11,192.33c-.26,7.28.63,2.56,4.83,8.16,1.06,1.41,2.71,7.99,4.83,6.35-.11,2.81.5,5.7,1.21,8.46,2.75,10.72,8,10.12,6.65,17.22.39,1.03,3.79,4.72,4.83,5.74-1.04.46-1.29,3.3-1.21,4.23.47,5.09,2.29,13.9,4.23,18.73-1.01,2.08-7.63-6.59-7.25-3.32,3.37,3.24,7.02,11.72,9.06,14.2-14.8-4.28-3.86,6.04-5.74,7.25-13.58-7.6-4.32-1.17-8.16,5.74,4.7,2.73,6.71,8.17,10.27,11.78l-2.42,16.32c-5.22.81-4.15-10.3-5.74,4.83-4.72-3.43-4.73-20.77-7.86-18.13-3.7,3.13,4.81,21.52,4.53,22.66-2.07,8.46-8.74-6.54-9.37-6.95-5.99-3.85-5.21,7.77,1.51,15.41-2.74,7.43,5.03,8.2,5.44,9.06,1.21,26.06-1.35-3.52-7.86,0-.13,6.09,2.33,11.77,5.44,16.92.21,1.77-.29,4.16,0,5.74.17.95,2.45,5.85,2.12,6.04-17.35-8.8,5.55,6.97,5.14,11.78-3.35,1.59-3.41,2.65-3.63,2.72-4.8,1.55-8.61-.02-9.06,0-1.15.05-1.54-.85-2.72-.6-22.5,18.31,1.54-10.52-5.44-11.48-2.25-.31-11.24,11.96-12.09,12.09-1.09.16-.74-5.78-6.65,5.44-.87-11.62-5.01,4.14-6.35,6.95-5.09,10.71-1.51-4.12-7.55,3.93-.44-9.46-5.08,5.17-4.83,8.46-2.63-3.18-5.42,3.09-8.16,3.93,9.36-24-2.94-1.2-9.97,3.32,1.97-2.78,10.48-19.6,10.58-20.85.32-4.43-4.12,4.02-5.44,1.81,10.42-14.54,2.8-10.09,3.02-11.48.07-.44,6.15-4.65,6.65-6.04.84-2.36-2.58-1.56-2.42-2.42.09-.45,5.19-6.01,4.83-7.86-1.09-5.7-10.49,5.27-12.39,6.35-9.31,5.27,7.76-6.72,2.72-11.18,6.11-4.46,9.39-12.62,5.14-10.58-1.49-1.63,6.28-8.43,3.32-11.18,4.79-4.44,2.27-7.19,2.42-8.46.03-.23,1.21-2.86,1.21-3.02.22-16.41-8.99,7.81-9.97,1.51-4.81,16.06-3.24.3-8.46,11.48-.76-.37,1.14-7.33.91-11.78-.02-.47-1.17-.13-1.21-.6-.69-7.84,1.91-15.72-6.65-4.23-1.15,13.47-1.03,2.72-4.83,7.25,2.6,16.37.18,7.98-.91,8.16-1.85.31.41,25.86-4.23,7.86-5.24,1.08-2.41,12.33-2.72,12.99-.32.69-6.43-7.65-2.42,9.67-1.75,4.48-8.95-13.83-9.67-14.5-6.62-6.27,5.72,19.86,3.02,21.75-7.23-6.25.13,11.21,0,12.09-.11.78-6.16-.74,0,13.29-.07.61-4.52-.46.3,10.58-2.54,1.46-8.18-10.2-7.55-13.6h-3.63c.39-10.31-.11-19.02-3.93-9.97-.74-.36.49-8.02-1.81-7.86-1.1.08-1.27,4.46-2.72,2.12-1.02-21.78-3.61-11.14-4.53-11.18-1.32-.06-1.96-11.58-4.83-10.88-1.1.27-.62,2.95-2.12.91-.56-1.5-1.4-6.84-1.81-7.25-1.46-1.45-2.49,1.99-3.63,0,1.2-2.66-5.46-10.94-6.95-11.78-9.06-5.16-.88,12.2-.3,14.81.44,1.97-1.6,1.02-1.21,3.02.48,2.44,5.62,7.91,1.21,8.46.35,1.63,7,9.77,6.65,10.27-.51.73-1.94-.13-2.42.6-1.64,2.49,7.88,12.34,5.74,13.6-.17.1-2.49-2.39-3.32-.3-2.59,6.44,13.29,19.05,3.93,14.81-4.84-2.2-8.68-20.84-11.18-16.62,2.39,18.86-.04,9.5-3.63-2.42-7.68,8.6-1.07-13.18-7.25-12.09-2.28,16.09-1.6-13.51-7.86-12.09.34,14.17-2.61-.33-3.93-.91-2.19-.95-2.27,3.94-3.93,1.51-1.21-1.76-.86-8.22-2.72-8.76-2.95-.87-1.05,3.4-3.63,3.02-1.03-.15-10.72-16.31-8.76,4.23.28,4.98-11.66,15.49-12.69,6.35-.18-1.56,4.76-10.94.6-19.64,1.38-1.66,2.94-3.11,4.23-4.83,3.15-1.68,5.81-2.57,9.37-3.02.82-.43,1.41-1.76,1.51-1.81,1.11-.62,3.83-1.52,4.23-1.81,2.12,2.35,18.53,9.21,19.34,5.14.03-.14-1.67-1.71-.91-2.72.56-.74,4.51.39,5.44,0,.7-.29,4.07-7.27,13.29-3.02-.89-6.55,6.04-7.14,1.81-10.27-8.52-6.32-18.34,6.05-19.34,5.44-1.57-.97,5.68-8.19-4.53-3.32,9.78-14.21-5.36-6.09-11.78-2.12-1.49-.89,3.46-4.56,2.72-6.35-2.29-5.49-11.58,8.13-12.39,8.16-3.36.1.86-5.49-4.83-3.02-3.74,1.62-7.77,13.04-8.46,12.69.37-11.44,11.91-14.4,2.72-14.5v-4.23c8.74-.92,9.07-8.53-3.63-5.74l3.63-12.69-.91-.91c-15.78,11.56-7.15,3.38-6.35-2.72.61-4.6-.6-9.93-.6-12.99,0-5.4-1.42-11.24-.6-16.62.71-4.74,4.22-8.06,4.83-17.22.45-6.6-.93-15.27-.6-16.01,7.85-3.34-.9-6.97,6.04-12.69-3.19-3.16,4.38-5.36.6-10.27,1.72-2.3,4.13-4.56,3.63-7.55.8-.12,5.88-3.51,4.23-6.04,5.44-4.53,4.03-7.89,4.23-8.46,4.25-1.9,6.47-6.37,9.97-9.06,1.88-1.45,4.28-2.22,6.35-3.63.33-.22.59-2.09,6.65-3.93-2.91-5.45,5.52-6.7,6.04-6.95,2.6-1.27,9.13-4.68,10.58-3.02,1.13-.5-5.55-9.4,12.09-7.25,5.8-5.64,8.55,1.81,15.11-6.04,1.76-.21,4.21.3,5.74,0,.58-.11.59-1.12,2.12-1.81,11.12,2.17,27.28.43,36.26,6.65,6.18-3.87,11.77,1.01,18.13.6,5.45,3.85,11.77,7.25,15.11,13.29,6.39-.68,14.28,7.71,19.04,12.39.96.94-.09,4.43,7.25,6.35Z"/>
              <g>
                <g>
                  <g>
                    <path class="cls-38" d="M287.65,240.07c-15.01-.13-19.59,18.26-14.2,29.61,1.69-11.93-.54-8.96,3.32-3.02-2.72,11.9,1.66,22.17,15.71,19.34-1.04,6.12,2.6,8.53,7.86,10.27-5.08.2-5.79-1.62-9.37-.6-4.58,1.3-6.77,7.07-7.25,7.25-3.18,1.24-2.59-4.54-3.63-4.83-.69-.2-8.85,11.43-6.65-1.81-7.36,4.54-10.36.98-12.09,1.21-10.62,9.61-6.88-.7-10.88-.6-1.66.04-23.4,19.65-26.59,1.81-15.64,13.28-21.05,1.12-22.96,1.81-.44.16-2.16,5.57-3.63,6.04-3.73,1.21-5.84-3.51-6.65-3.63-2.07-.3-8.17,6.45-7.86-3.63-7.48,4.86-6.84-1-10.27-.6-1.64.19-8.14,11.4-6.35-2.42,3.27.44,7.72-.08,10.58-1.81,7.03-4.27,2.38-9.72,2.12-10.88,11.42,5.13,16.58-13.56,16.32-14.81-.33-1.61-1.94-.32-2.42-2.12.37-.68,2.25-7.32,2.72-7.25.02,14.87,4.6,6.37,3.32-5.44,5.4-1.9,8.32.1,8.76,0,.97-.21,1.61-3.67,6.04-3.02,5.78,3.9,17.04-2.49,16.32,10.88,9.99-9.89,9.28-.94,11.48-1.21.81-.1,3.81-10.3,12.99-5.14.52-21.65,10.66-11.49,11.78-11.78.51-.13,1.39-5.26,9.06-3.02,2.87-15.69,5.96-1.52,6.65-1.21,5.01,2.23,2.53-8.46,7.25-8.46,2.92,0,3.47,6.22-1.51,9.06Z"/>
                    <path class="cls-14" d="M236.58,264.24c2.8-.68-.42,7.07,4.83,5.44.47-.15,6.49-6.65,0,1.81-3.38-1.8-11.5,1.99-12.39-3.32-1.19-7.11,2.93,1.38,3.32,1.51,4.91,1.65,2.42-5,4.23-5.44Z"/>
                    <path class="cls-17" d="M259.55,264.24c3.88-1.72,1.04,3.35-.6,2.42-.81-.45-.17-2.08.6-2.42Z"/>
                  </g>
                  <g>
                    <g>
                      <path class="cls-20" d="M306.38,267.26c2.87,4.94-.12,8.85.3,9.06,5.83-.56,9.22,1.41,13.6,4.83,2.34,12.71-10.8,14.75-19.94,15.11-5.26-1.74-8.9-4.15-7.86-10.27.47-2.77,4.65-3.14-.6-10.88.25-.06,3.67-2.51,4.23-3.02,5.24,3.7-.94-3.55,9.06-5.44l1.21.6Z"/>
                      <path class="cls-34" d="M320.28,281.16c-4.38-3.42-7.77-5.39-13.6-4.83-.42-.21,2.56-4.12-.3-9.06,1.45-4.29,3.77-4.38,4.23-4.83-2.72,19.33,8.01,9.72,9.67,18.73Z"/>
                    </g>
                    <path class="cls-33" d="M291.88,275.12c5.25,7.73,1.08,8.11.6,10.88-14.05,2.83-18.43-7.43-15.71-19.34,3.43,5.28,8.09,10.04,15.11,8.46Z"/>
                    <g>
                      <path class="cls-7" d="M287.65,240.07c7.47.07,16.2,6.48,20.55,12.39.66.9.96,4.53,1.21,4.83,1.57,1.93,7-.59,1.21,5.14-.46.45-2.78.55-4.23,4.83l-1.21-.6c-4.47-21.44-1.85-1.21-9.06,5.44-.56.51-3.98,2.96-4.23,3.02-7.02,1.58-11.67-3.18-15.11-8.46-3.86-5.93-1.64-8.91-3.32,3.02-5.39-11.35-.81-29.74,14.2-29.61Z"/>
                      <path class="cls-36" d="M289.76,245.51c3.91-.77,9.27,5.53,4.83,7.25-5.45,2.12-10.02-6.23-4.83-7.25Z"/>
                      <path class="cls-1" d="M305.17,266.66c-10,1.89-3.82,9.14-9.06,5.44,7.21-6.65,4.59-26.87,9.06-5.44Z"/>
                    </g>
                  </g>
                </g>
                <g>
                  <g>
                    <path class="cls-20" d="M175.85,271.49c.51.4,4.56,2.96,4.83,3.02-5.63,3.37-2.01,8.21-1.81,9.06.26,1.16,4.91,6.61-2.12,10.88-2.86,1.74-7.31,2.26-10.58,1.81-6.18-.84-13.63-7.35-13.9-13.9,5.61-11.32,12.19-7.6,12.99-7.86.24-.08,1.65-3.29,3.63-3.63,2.67-.45,7.22,3.39,6.95.6Z"/>
                    <path class="cls-33" d="M166.79,268.47c.45.14,5.71-.58,4.83-1.81.14.29,3.92,4.59,4.23,4.83.27,2.78-4.28-1.05-6.95-.6-1.98.33-3.38,3.55-3.63,3.63-.8.26-7.39-3.46-12.99,7.86-.3-7.28,5.4-9.98,12.09-9.97l-1.21-8.76c1.8,2.24,3.34,4.75,3.63,4.83Z"/>
                  </g>
                  <path class="cls-33" d="M178.87,283.58c-.19-.85-3.82-5.7,1.81-9.06,5.78,1.17,9.62-3.39,12.09-7.86.47,1.79,2.08.51,2.42,2.12.26,1.25-4.89,19.93-16.32,14.81Z"/>
                  <g>
                    <path class="cls-7" d="M198.81,253.97c1.28,11.81-3.3,20.31-3.32,5.44-.47-.07-2.34,6.57-2.72,7.25-2.46,4.46-6.3,9.03-12.09,7.86-.28-.06-4.32-2.63-4.83-3.02-.31-.24-4.09-4.54-4.23-4.83-2.55-5.37-3.24-20.42-4.83,1.81-.29-.09-1.83-2.6-3.63-4.83-1.17-1.45-2.03-2.34-3.63-3.32,3.92-2.45,3.44-9.64,11.18-15.41,11.05-8.25,26.33-7.24,28.1,9.06Z"/>
                    <path class="cls-36" d="M185.22,246.11c7.33-.47,4.66,7.98-1.81,6.65-4.63-.95-2.37-6.38,1.81-6.65Z"/>
                    <path class="cls-36" d="M171.62,266.66c.87,1.23-4.38,1.95-4.83,1.81,1.6-22.23,2.29-7.18,4.83-1.81Z"/>
                  </g>
                </g>
              </g>
            </g>
          </g>
        </g>
      </g>
      <g>
        <path class="cls-15" d="M23.27,373.01c4.75-1.63-.26.75,1.81,5.44-2.87.33-4.79-4.42-1.81-5.44Z"/>
        <path class="cls-29" d="M12.39,331.32c2.16-.33,6.21,7.41-.91.91.36-.26.72-.88.91-.91Z"/>
      </g>
    </g>
  </g>
</svg>