<?xml version="1.0" encoding="UTF-8"?>
<svg id="Layer_2" data-name="Layer 2" xmlns="http://www.w3.org/2000/svg" viewBox="0 0 261.55 267">
  <defs>
    <style>
      .cls-1 {
        fill: #f7ddcf;
      }

      .cls-1, .cls-2, .cls-3, .cls-4, .cls-5, .cls-6, .cls-7, .cls-8, .cls-9, .cls-10, .cls-11, .cls-12, .cls-13, .cls-14, .cls-15, .cls-16, .cls-17, .cls-18, .cls-19, .cls-20, .cls-21, .cls-22, .cls-23, .cls-24, .cls-25, .cls-26, .cls-27, .cls-28, .cls-29, .cls-30, .cls-31, .cls-32, .cls-33, .cls-34, .cls-35, .cls-36, .cls-37 {
        stroke-width: 0px;
      }

      .cls-2 {
        fill: #f3d266;
      }

      .cls-3 {
        fill: #f2e07d;
      }

      .cls-4 {
        fill: #f7ad66;
      }

      .cls-5 {
        fill: #f6e5a0;
      }

      .cls-6 {
        fill: #613e24;
      }

      .cls-7 {
        fill: #775c1b;
      }

      .cls-8 {
        fill: #5db58f;
      }

      .cls-9 {
        fill: #785028;
      }

      .cls-10 {
        fill: #516d73;
      }

      .cls-11 {
        fill: #514f2b;
      }

      .cls-12 {
        fill: #4b3518;
      }

      .cls-13 {
        fill: #499731;
      }

      .cls-14 {
        fill: #2b2823;
      }

      .cls-15 {
        fill: #09534b;
      }

      .cls-16 {
        fill: #0d4138;
      }

      .cls-17 {
        fill: #0e5640;
      }

      .cls-18 {
        fill: #113a3a;
      }

      .cls-19 {
        fill: #09a3a8;
      }

      .cls-20 {
        fill: #07625f;
      }

      .cls-21 {
        fill: #216629;
      }

      .cls-22 {
        fill: #203129;
      }

      .cls-23 {
        fill: #124927;
      }

      .cls-24 {
        fill: #247625;
      }

      .cls-25 {
        fill: #c5835c;
      }

      .cls-26 {
        fill: #c7cdda;
      }

      .cls-27 {
        fill: #d9d5ce;
      }

      .cls-28 {
        fill: #bbe071;
      }

      .cls-29 {
        fill: #aa723c;
      }

      .cls-30 {
        fill: #ce744e;
      }

      .cls-31 {
        fill: #9d5e3b;
      }

      .cls-32 {
        fill: #855030;
      }

      .cls-33 {
        fill: #eff5c8;
      }

      .cls-34 {
        fill: #fbfbeb;
      }

      .cls-35 {
        fill: #e7ab52;
      }

      .cls-36 {
        fill: #f4ece3;
      }

      .cls-37 {
        fill: #037374;
      }
    </style>
  </defs>
  <g id="Layer_1-2" data-name="Layer 1">
    <g>
      <g>
        <g>
          <path class="cls-18" d="M164.4,6.19c2.29-1.44,5.61-1.35,6.59,1.56.84,2.5-1.84,5.1,2.6,3.99,2.17,5.13,4.92-.16,5.72,2.25.18.54-.44.95-.35,1.91.02.2-.88,2.69,1.73,3.12,2.86.48,4.45-3.78,5.2-1.21.25.86-.99,2.69-.52,2.95.54.29,3.77-1.91,4.86-1.73,2.43.39.51,3.44,2.08,4.16,2.22-.51,3.88,1.59,5.38,3.12-.04.08.13.6-.35,1.73-.04.1-1.53.89-1.39,1.56.1.48,3.07,1.07,2.43,4.16.65,1.51,3.03.34,3.47,1.39.18.42-3.17,4.89,5.38,3.64-1.47,9.19,6.68-1.23,5.38,9.54,1.22,1.56,2.63-1,3.29-.87,2.03.39-.45,3.87.69,4.16.54-.38,1.83-.86,2.43-.69,2.64.75-3.5,5.38,3.12,4.86,3.05-.24,9.28-9.09,6.42.87,3.15,4.48,1.14,6.77,7.11,3.29,2.98,5.71,3.78,1.91,5.03,3.99,2.36,3.92-6.39,5.74-6.59,6.24-.06.15-.06,1.47,0,1.73,1.01,4.66,6.86-.6,7.63,1.73,1.12,3.38-4.69,3.99-1.56,6.42.32.24.79-.96,2.08,1.04,3.74.87,6.19-4.99,6.76-1.56.07.42-.71,1.64-.69,1.73.31,1.54,3.09-.16,3.47,1.39.42,1.69-2.87.82-.69,5.2-3.54-.97-5.67,4.89-3.64,6.07.12.07,1.81.02,2.77.69,1.29.91,1.12,2.17,1.21,2.25.61.59,3.74,3.22,3.82,3.47.85,2.78-2.4,3.82-2.43,4.16-.06.67,6.69,3,1.04,4.86,8.67,6.5,2.34,8.11,2.43,8.67.07.44,5.78,1.82,5.2,6.42-.05.46-.63.58-.69,1.04l-4.51-.52c3.67,7.97-1.13,4.9-1.39,6.59-.02.15,1.19,1.79,1.04,2.77-.42,2.89-5.82-.08-3.47,5.2-2.62-.95-5.34,3.24-4.16,5.55-.33.45-.76-.76-1.39-.87,1.18-4.22,5.22-6.2,2.08-5.9,3.43-4.43,3.57-8.62,3.47-13.87-.06-3.43-.4-6.69-1.04-10.06-.9-4.75-2.36-9.39-4.16-13.87-1.86-4.62-4.4-8.59-6.94-12.83-3.75-6.28-4.38-6.81-8.32-12.14-.37-.5-.31-1-.35-1.04-.17-.22-1.07-2.19-3.12-4.68-15.17-14.11-38.29-44.05-56.71-51.5-4.42-1.79-7.42-1.41-11.1-2.43-4.06-1.12-7.92-2.97-12.14-3.82-13.81-2.77-28.65-3.06-42.31.69-7.03,1.93-21.14,8.79-27.05,13.18-4.36,3.23-7.37,7.2-8.32,7.98-.74.61-2.58.99-3.47,1.73-22.14,18.49-49.74,45.13-57.05,73.7-6.86,26.79,2.21,29.26,2.08,30.87-.09,1.13-2.23-.95-2.43-1.21-.52-.69-1.15-3.01-1.56-3.12-.4-.11-5.33,2.66-2.25-5.03-4.36,1.85-2.84-3.33-.69-5.55-.28-.58-1.86,1.27-4.86-.17-.65-.31-.64-.64-.69-.69-.11-3.07,2.83-6.05,5.55-7.11-4.93-.36-1.76-5.41,2.43-8.32-6.97,1.15,1.21-4.77,1.04-5.2-.22-.56-3.42.12-3.12-2.43.12-1.06,7.02-8.81,9.36-8.32.25-.78-2.28-1.3-1.04-3.47-7.02-3.43-3.66-2.73-3.47-4.16.21-1.62-3.62-3.08,2.08-3.82-1.8-7,6.37,4.31,6.07-2.6,6.86,2.03,1.36-3.26,1.21-3.64-1.74-4.58,1.89-.72,3.64-1.56,1.64-.79-.94-2.39.35-3.12,10.78,1.3-3.44-2.29-3.99-4.34-.97-3.58,4.19-3.04,4.51-4.16.29-1.05-2.66-5.1,7.46-2.95-4.53-4.64,2.05-7.19,7.63-4.51,3.85-10.13,6.81-3.46,9.71-6.59,2.3-2.48-.62-6.74,0-6.94,3.8,3.54,8,3.51,4.68-2.6,6.06,1.9,4.99-1.46,5.2-1.73.28-.36,1.49.07,1.73-.69.32-.98-4.32-3.18-3.47-5.9.81-2.57,6.68,1.15,8.32-2.08,1.26-2.48-3.55-2.71-2.43-6.24.39-1.23,2.15-1.13,2.25-1.21.31-.24.78-4.18,6.24,0,.1-8.98,3.4.71,5.9,0,1.95-.55-1.64-7,1.73-8.67,1.88-.94,5.17-.27,6.59,1.39-.71-8.02,1.4-3.89,4.51-5.9,5.55,4.73,2.37.56,5.2,1.04,1.68.29,2.05,8.53,5.03-1.73.1,0,1.17-.68,1.91-.35,1.23.55.38,3.19,1.73,3.12.58-.03,1.51-3.04,3.82-2.43,3.29-5.97,4.49-.76,4.86-.69.47.09,4.45-8.03,5.9-.69,3.38-5.36,10.27-10.04,6.24.35,6.05-3.2,7.11-1.3,7.63-1.39,3.57-4.49,8.57-5.85,11.1,0,4.71-2.14,3.96,1.04,4.86,1.04.69,0,10.04-9.28,8.15,1.21.28,1.01,1.99-.22,2.95.17,1.33.54.57,5.07,4.34-1.04Z"/>
          <path class="cls-7" d="M246.25,116.13c1.71,1.46,4.8,6.31,6.24,8.32.1,5.26-.04,9.44-3.47,13.87-.6.78-5.31,4.73-6.07,4.86-3.62.59-1.18-1.81-3.64-1.73,3.44-.19,4.54-2.79,5.2-5.9.11-.51.69-1.14.69-1.21.51-4.93-.62-4.77-.69-5.03-.04-.13-1.14-1.88-1.39-2.43-.02-.04.28.04.69-.52-1.97-3.01-4.54-5.19-7.28-7.46-1.54-1.27-1.27-2.6-3.47-2.43-.29-1.28-4.12-4.28-4.86-3.47-.41-.86-3.08-2.51-4.16-3.12,2.83-.69,1.1-2.43,4.34-2.08,2.71.3,15.54,6.33,17.86,8.32Z"/>
          <path class="cls-3" d="M232.03,75.55c3.94,5.33,4.58,5.86,8.32,12.14l-2.43,3.82c-.16-.1-.5.54-1.21.35-4.23-5.98-5.84-.29-11.1-3.82-1.16-.77-2.22-2.97-4.51-5.2-1.52-1.48-9.03-5.14,1.91-2.95l-3.82-5.2c-1.04-.8-7.23.21-9.02-5.2-2.93-8.88,5.7,4.62,8.5,3.29,5.93-10.02,7.02,8.79,13.35,2.77Z"/>
          <path class="cls-31" d="M247.29,100.52c-2.82-2.84-1.43-.37-2.43.87-2.49,3.08-1.46-6.48-6.94-9.88l2.43-3.82c2.53,4.24,5.07,8.21,6.94,12.83Z"/>
          <path class="cls-6" d="M251.45,114.4c.64,3.36.98,6.63,1.04,10.06-1.44-2.01-4.53-6.86-6.24-8.32,1.42-.97,3.66-2.32,5.2-1.73Z"/>
          <path class="cls-25" d="M161.62,16.59c-2.07,1.02-5.55,1.75-1.73,3.47l.17.69c-4.83-.53-9.57-.16-14.39.35-1.37-2.08-11.71-13.74-13.01-6.24-1.69.64-6.75,1.73-7.11,3.47-6.7-1.63-12-.42-18.38,1.39-4.58-5.28-12.22,7.65-10.75-2.08,24.33-10.37,40.55-8.05,65.2-1.04Z"/>
          <path class="cls-7" d="M26.36,116.48c-1.02,1.11-2.11,2.01-3.12,3.12-1.71,1.89-3.12,2.56-4.86,5.2-2.7,4.11-2.6,4.07-2.43,8.67.15,4.17.38,5.15,3.12,9.02-.21,0,0,1.57-3.64-.35-6.22-3.27-7.05-11.99-6.76-18.03,2.69-2.44,4.59-5.89,7.28-8.32,3.13-2.83,8.96-6.16,12.83-7.98,3.53,2.28.5,4.75.35,5.03-.14.26.14,1.18,0,1.39-.25.37-1.13.47-2.77,2.25Z"/>
          <path class="cls-2" d="M16.3,108.15c-1.13.71-3.47,1.53-4.86,1.73.26-1.01.38-2.08.69-3.12,7.42-3.54,9.55-14.79,18.56-15.61,7.32-.67,1.12,4.18-.35,4.86-3.7,1.72-1.17-1.45-3.12-1.39-.87.03-5.2,9.91-10.93,13.53Z"/>
          <path class="cls-32" d="M15.96,115.78c-2.69,2.44-4.59,5.88-7.28,8.32.24-4.91,1.58-9.57,2.77-14.22,1.38-.21,3.73-1.02,4.86-1.73l-.35,7.63Z"/>
          <path class="cls-3" d="M190.41,31.85c0,4.14-13.21-2.57-14.22-8.32-.16-.94-.47-1.58.35-1.73,6.7,3.63,8.36,5.31,13.87,10.06Z"/>
          <path class="cls-3" d="M167.17,17.98c1.33,1.43,1.4,2.06.35,3.82-.39-.11-3.43.15-7.63-1.73-3.82-1.71-.33-2.45,1.73-3.47,1.83.52,3.87.35,5.55,1.39Z"/>
          <path class="cls-25" d="M176.54,21.79c-.81.15-.51.79-.35,1.73-1.63,1.77-6.78-1.21-8.67-1.73,1.05-1.75.98-2.38-.35-3.82,2.64-.3,6.85,2.45,9.36,3.82Z"/>
          <path class="cls-3" d="M34.69,69.31c-.29-1.85,4.16-5.1,5.9-6.94-.08,7.18-4.95,6.57-5.9,6.94Z"/>
          <path class="cls-5" d="M213.3,55.44c-3.33,2.55-6.28-1.63-4.86-5.2,1.67,1.72,3.21,3.47,4.86,5.2Z"/>
          <g>
            <path class="cls-3" d="M96.42,17.63c-1.47,9.73,6.17-3.2,10.75,2.08.15.75-.28,1.37-.87,1.73-10.36,6.48-2.8,3.02,1.39,6.59,5.9,5.02-8.54,11.79-11.45,11.45-6.44-6.27-14.35,5.88-14.91-5.55-6.46,9.4-12.34,5.12-16.99,11.45l-.87-5.2c1.37-1.19,2.77-2.31,4.16-3.47,2.89.25,6.09-.55,5.2-3.82,6.18-7.31,14.93-11.57,23.58-15.26Z"/>
            <path class="cls-30" d="M67.63,36.71c2.22-1.85,3.42-1.7,5.2-3.82.89,3.27-2.31,4.06-5.2,3.82Z"/>
          </g>
          <path class="cls-9" d="M73.88,97.05c-1.77-1.71-4.95-2.69-5.55.35-3.41.27-10.39,1.93-12.66,4.86-1.88.53-5.47,1.09-6.94,1.73-.32.14-.13.67-.17.69-1.85.8-4.18.91-6.07,2.08-1.68.93-3.1,3.01-3.29,3.12-.71.4-.99.66-1.04.69-.34.2-3.7,1.59-6.94,3.47-1.16.68-3.25,1.4-3.82,2.77-.38-.13-.56-.47-1.04-.35,1.64-1.79,2.52-1.88,2.77-2.25.14-.2-.14-1.13,0-1.39.15-.28,3.18-2.75-.35-5.03,4.76-2.23,24.84-9.17,30.35-10.75,5.32-1.52,15.83-5.14,18.56-1.56l-3.82,1.56Z"/>
          <path class="cls-3" d="M145.67,21.1c2.7,4.1,2.75,6.15-1.56,5.9-4.85-.29-5.33-4.35-8.67-4.86-2.49-.38-3.42,1.15-6.24.35-1.51-.43-4.02-2.35-3.64-4.16.36-1.74,5.42-2.83,7.11-3.47,1.3-7.49,11.64,4.16,13.01,6.24Z"/>
          <path class="cls-32" d="M115.84,88.04c.21.04,2.99.14,1.91.69-1.88.96-11.86-.16-14.91,0-.26.01-.48.69-.52.69-.29.02-3.56-.75-5.72-.35-.99.18-2.35,1.83-4.16,1.73-.26.26,1.68,2.88-5.38,3.12-.41-.71-1.59-.09-.52-2.77l-6.94.69c6.72-2.59,23.86-5.32,30.52-4.86,1.81.13,3.91.69,5.72,1.04Z"/>
          <path class="cls-3" d="M98.5,73.12c-1.42.57-2.6,1.48-4.16,1.73-11.2,1.85-15.91-16.45,4.16-1.73Z"/>
          <g>
            <path class="cls-2" d="M209.14,91.51c-1.91-1-.99-3.12-7.28-2.43,1.32-2.74-1.54-4.36-2.08-6.94.19-.11.12-2.26,3.64-.35,1.34.73,2.52,3.48,3.82,4.51,8.17.22,15.21,12.19,1.91,5.2Z"/>
            <path class="cls-35" d="M195.96,81.45c1.86.3,3.46,1.46,3.64,1.39.32-.13.12-.66.17-.69.54,2.58,3.4,4.2,2.08,6.94-2.21.24-7.25,2.69-2.43-2.25-5.66-7.33-13.16.87-12.14-3.47.67-2.83,6.63-2.24,8.67-1.91Z"/>
          </g>
          <path class="cls-31" d="M102.32,89.42l.35,2.08c-1.52.28-3.01.73-4.51,1.04-3.13.66-8.1,1.32-7.98,2.43-1.01-.48-2.06-.41-3.12-.35-.02-.28.04-.62,0-.69,7.05-.25,5.12-2.87,5.38-3.12,1.81.1,3.17-1.55,4.16-1.73,2.16-.4,5.44.37,5.72.35Z"/>
          <path class="cls-29" d="M73.88,97.05c.07.07-.37.92,1.04.69-4.17,1.57-2.43,2.73-3.64,3.12-1.05.33-1.24-.78-2.95-.69.11-.85-.15-2.01,0-2.77.6-3.04,3.78-2.06,5.55-.35Z"/>
          <g>
            <path class="cls-31" d="M125.55,18.32c-.37,1.81,2.13,3.73,3.64,4.16,2.83.81,3.75-.73,6.24-.35,3.34.51,3.82,4.57,8.67,4.86,4.31.26,4.26-1.8,1.56-5.9,4.82-.51,9.56-.88,14.39-.35l-.17-.69c4.2,1.88,7.24,1.63,7.63,1.73,1.89.52,7.04,3.5,8.67,1.73,1.01,5.76,14.23,12.47,14.22,8.32,3.19,2.75,5.72,5.77,8.67,8.67-7.88.04,1.71,5.06,1.04.69,4.38,4.34,6.58,7.23,8.32,9.02-1.43,3.57,1.52,7.75,4.86,5.2,6.07,6.39,12.84,12.16,18.38,19.08.03.04-.02.54.35,1.04-6.34,6.02-7.43-12.8-13.35-2.77-2.8,1.32-11.42-12.17-8.5-3.29,1.78,5.41,7.98,4.4,9.02,5.2l3.82,5.2c-10.94-2.19-3.43,1.47-1.91,2.95,2.29,2.23,3.35,4.43,4.51,5.2,5.26,3.52,6.87-2.16,11.1,3.82.71.19,1.06-.44,1.21-.35.78,5.92-5.5,10.62-10.23,13.18-6.14-3.41-13.01-4.91-19.77-6.59q.61-3.29,1.21-6.59c13.31,6.98,6.26-4.98-1.91-5.2-1.3-1.03-2.48-3.78-3.82-4.51-3.52-1.91-3.45.23-3.64.35-.05.03.14.56-.17.69-.18.07-1.78-1.09-3.64-1.39-3.14-2.32,2.66-1.28-4.68-6.94-1.6-1.23-13.34-7.4-14.57-7.28-3.2.31,4.79,5.36-5.9,3.82-2.52-.36-6.17-2.78-6.42-2.25,3.04,4.01,7.37,6.14,2.25,4.68-1.19.6,4.6,3.44,4.51,1.04,8.72,2.31-5.03,2.95-10.4,1.39-3.92-1.14-8.07-5.77-11.1-7.28-6.13-3.06-10.26-.24-18.03-11.1-6.19.64-10.08,7.84-12.14,9.02-2.7,1.54-10.63,2.33-14.22,3.47-3.06.97-5.8,2.74-6.76,3.12-20.07-14.72-15.36,3.58-4.16,1.73l2.95,6.59c4.6.71,25.12,2.32,27.4,3.82.23.15,1.33,1.93.69,2.43-3.5-.47-6.42-.23-9.54.35-1.81-.35-3.91-.91-5.72-1.04-6.66-.47-23.8,2.27-30.52,4.86l6.94-.69c-1.07,2.68.11,2.07.52,2.77.04.08-.02.42,0,.69-1.11.07-5.39,1.66-6.94,2.08-1.62.44-3.6.44-5.2,1.04-1.41.23-.97-.62-1.04-.69l3.82-1.56c-2.72-3.58-13.24.04-18.56,1.56-5.51,1.58-25.59,8.52-30.35,10.75-3.87,1.81-9.7,5.15-12.83,7.98l.35-7.63c5.72-3.61,10.05-13.5,10.93-13.53,1.96-.06-.58,3.11,3.12,1.39,1.46-.68,7.67-5.52.35-4.86-9.01.82-11.14,12.07-18.56,15.61,1.21-4.07,2.75-8.46,4.51-12.31,2.51-5.5,13.11-23.25,18.03-25.14.95-.36,5.81.25,5.9-6.94,7.41-7.84,14.74-15.12,22.89-22.2l.87,5.2c4.65-6.33,10.53-2.05,16.99-11.45.56,11.43,8.47-.72,14.91,5.55,2.9.35,17.35-6.42,11.45-11.45-4.19-3.56-11.75-.11-1.39-6.59.58-.36,1.02-.99.87-1.73,6.38-1.8,11.68-3.02,18.38-1.39Z"/>
            <g>
              <path class="cls-5" d="M200.12,41.22c.66,4.37-8.92-.65-1.04-.69.18.18.86.52,1.04.69Z"/>
              <path class="cls-3" d="M172.2,34.63c6.7-.44,5.82,4.83,6.24,5.2.21.18,4.55.36,5.55.69,5.05,1.7,7.02,10.09,1.04,10.75-10.17-4.16,7.23,4.21.35,7.28-3.7,1.65-8.88-1.06-9.36-1.04-.5.02-3.87,4.07-8.32-2.08-22.48-7.23-3.39-7.86-2.95-8.84,1.76-3.89-6.38-3.82-7.63-6.94-2.09-5.23,7.69-3.94,9.54-1.21.81-2.33,3.2-3.66,5.55-3.82Z"/>
              <path class="cls-3" d="M114.28,49.89c5.45-.26,4.26,4.28-2.95,6.42,7.57-.67,6.97,5.45,1.56,8.15-2.53,1.26-4.54.86-6.94,1.73-1.88.68-6.71,3.33-7.98,3.47-7.79.83-22.08-11.66.69-5.9-8.3-4.4-.43-9.58,5.55-9.02,1.38-2.01,8.07-4.76,10.06-4.86Z"/>
              <path class="cls-3" d="M66.42,57.86c10.22-1.15.99,4.94-2.95,7.8,10.01,2.69-5.94,10.19-9.71,12.49,6.9,5.21-1.82,5.43-5.38,6.76-1.26.47-8.24,5.83-6.76.17.28-1.07,3.94-3.11,5.2-3.12-4.98-3.28,6.92-7.36,6.94-8.32-3.03-2.71-2.9-9.16,1.21-10.58,3.79,1.41,5-4.48,11.45-5.2Z"/>
              <path class="cls-3" d="M121.22,36.71c5.22-.42-8.27,5.4-5.72,7.8-13.07,6.04-15.42-4.99-1.21-4.68,1.74-.5,6.56-3.09,6.94-3.12Z"/>
              <path class="cls-3" d="M117.75,22.14c1.65-.25,10.82.62,11.27,2.25,1.65,6-21.8-.63-11.27-2.25Z"/>
              <path class="cls-31" d="M151.39,53.35c.62-.02,6.03-.39,4.34,1.21-1.09,1.03-26.25,1.42-29.83,2.77-.43-.85,1.89-1.39,2.6-1.56,1.12-.26,21.09-2.37,22.89-2.43Z"/>
              <path class="cls-3" d="M87.23,39.48c5.77.9-8.31,6.68-9.54,2.95-1.15-3.48,5.73-1.42,7.11-1.56.69-.07,2.29-1.41,2.43-1.39Z"/>
              <path class="cls-3" d="M126.42,37.75c5.03-1.13,7.84,2.18,3.82,3.12-4.22.99-8.29-2.12-3.82-3.12Z"/>
              <path class="cls-25" d="M160.76,28.38c5.31-.62,4.72,2.76,0,.69v-.69Z"/>
            </g>
          </g>
          <g>
            <path class="cls-32" d="M195.96,81.45c-2.04-.33-8-.93-8.67,1.91-1.02,4.34,6.48-3.86,12.14,3.47-4.82,4.95.21,2.5,2.43,2.25,6.29-.69,5.37,1.42,7.28,2.43q-.61,3.29-1.21,6.59c6.75,1.68,13.63,3.18,19.77,6.59,4.73-2.56,11.01-7.26,10.23-13.18,5.48,3.4,4.45,12.96,6.94,9.88,1-1.24-.39-3.71,2.43-.87,1.81,4.48,3.26,9.13,4.16,13.87-1.54-.58-3.78.76-5.2,1.73-2.32-1.99-15.15-8.03-17.86-8.32-3.23-.35-1.5,1.39-4.34,2.08-.88-.5-1.32-.31-1.39-.35-4.94-2.68-9.64-4.92-14.91-6.94-2.19-.84-4.41-1.35-6.59-2.08-4.01-1.35-7.27-2.49-11.45-3.47-1.48-.35-3.18-1.3-4.68-1.73l-1.56.35c-.2-1-3.9-1.57-6.24-2.08-3.25-.7-5.66-.86-6.59-1.04-2.1-.41-4.07-1.04-6.24-1.39-3.49-.56-6.89-1.02-10.4-1.39-2.28-.24-4.26-.54-6.59-.69-4.16-.27-8.02,0-12.14,0-.35,0-.69,0-1.04,0-4.24.02-8.59-.28-12.83,0-2.74.18-3.62.68-3.82.69-2.34.21-4.33.4-6.59.69-1.46.19-2.74.47-4.16.69-.84.13-2.2,0-4.16.35l-.35-2.08s.26-.68.52-.69c3.06-.16,13.03.96,14.91,0,1.08-.55-1.69-.65-1.91-.69,3.12-.57,6.04-.81,9.54-.35.63-.5-.46-2.28-.69-2.43-2.28-1.49-22.8-3.11-27.4-3.82l-2.95-6.59c1.57-.26,2.74-1.17,4.16-1.73.96-.38,3.7-2.15,6.76-3.12,3.59-1.14,11.52-1.93,14.22-3.47,2.06-1.17,5.95-8.37,12.14-9.02,7.77,10.85,11.91,8.04,18.03,11.1,3.03,1.51,7.17,6.15,11.1,7.28,5.38,1.56,19.13.92,10.4-1.39.1,2.4-5.7-.44-4.51-1.04,5.12,1.46.78-.67-2.25-4.68.25-.53,3.9,1.89,6.42,2.25,10.69,1.54,2.69-3.51,5.9-3.82,1.23-.12,12.97,6.05,14.57,7.28,7.34,5.65,1.54,4.62,4.68,6.94Z"/>
            <path class="cls-29" d="M146.19,76.94c1.24,1.28,2.82,11.16,2.08,11.45-10.24,0-.45-1.65-2.08-11.45Z"/>
          </g>
          <path class="cls-31" d="M68.33,97.4c-.15.76.11,1.92,0,2.77-2.24.12-2.29.51-3.47.69-3.26.5-5.35,1.35-8.32,2.08-2.33.57-4.61,1.14-6.94,1.73-.29.07-.31-.58-1.04,0,.05-.02-.14-.55.17-.69,1.47-.65,5.06-1.21,6.94-1.73,2.27-2.93,9.25-4.58,12.66-4.86Z"/>
        </g>
        <path class="cls-29" d="M49.6,104.68c.84,5.04-6.87,4.79-10.4,5.2.2-.11,1.62-2.19,3.29-3.12,1.89-1.17,4.22-1.28,6.07-2.08.73-.58.75.07,1.04,0Z"/>
        <g>
          <path class="cls-18" d="M231.68,74.51c-5.54-6.92-12.31-12.69-18.38-19.08-1.64-1.73-3.18-3.48-4.86-5.2-1.74-1.79-3.94-4.67-8.32-9.02-.18-.18-.86-.52-1.04-.69-2.96-2.9-5.48-5.92-8.67-8.67-5.51-4.75-7.17-6.43-13.87-10.06-2.52-1.36-6.73-4.12-9.36-3.82-1.68-1.03-3.72-.87-5.55-1.39-24.65-7.01-40.87-9.33-65.2,1.04-8.66,3.69-17.41,7.95-23.58,15.26-1.78,2.11-2.98,1.96-5.2,3.82-1.39,1.16-2.79,2.28-4.16,3.47-8.15,7.08-15.48,14.36-22.89,22.2-1.74,1.84-6.18,5.08-5.9,6.94-4.92,1.89-15.53,19.65-18.03,25.14-1.76,3.86-3.3,8.25-4.51,12.31-.31,1.05-.43,2.12-.69,3.12-1.2,4.65-2.54,9.31-2.77,14.22-.29,6.04.54,14.76,6.76,18.03,3.65,1.92,3.43.36,3.64.35,8.5-.38,20.33-2.61,29.31-3.47,3.12-.3,6.42-.09,9.54-.35.26,1.79-3.88,1.65-5.03,2.08-2.16.8-6.38,3.37-8.32,4.16-3.34,1.37-20.59,6.35-6.24,5.2,7.17-.58,32.62-9.58,34.68-11.79.47-.5-.11-.64-.17-1.04,1.4-.35,3.14-.91,4.51-1.39,4.35.42.31,3.1-5.03,6.59-6.17,4.03-13.27,6.48-19.6,10.23,7.87,2.98,19.75-2.81,26.53-7.46.95-.65,10.99-8.19,6.24-6.94-.77.2-7.93,5.79-13.87,7.63-9.75,3.02,4.16-4.69,5.9-5.9,3.8-2.64,7.38-6.45,11.97-7.63-1.01,4.22-1.92,16.53-3.47,24.1-.06.29-.58-.05-.69.52l-20.29-.35c-3.15-2.44-10.24.05-13.18-2.77-4.37,1.82-19.42-3.45-20.46-3.47-.4,0-3.34,1.13-4.34,1.39-.41.11-1.14.13-1.73.35-.98-3.3-9.41,1.85-4.16-4.34-5.4-1.13-4.83-5.21-7.46-2.6-.76-7.62-4.31-1.24-3.64-6.24.2.27,2.34,2.35,2.43,1.21.13-1.61-8.94-4.08-2.08-30.87,7.32-28.57,34.91-55.21,57.05-73.7.89-.74,2.72-1.13,3.47-1.73.96-.78,3.97-4.75,8.32-7.98,5.91-4.39,20.02-11.25,27.05-13.18,13.66-3.76,28.5-3.47,42.31-.69,4.22.85,8.08,2.7,12.14,3.82,3.68,1.01,6.68.64,11.1,2.43,18.42,7.46,41.53,37.39,56.71,51.5,2.05,2.5,2.95,4.46,3.12,4.68Z"/>
          <path class="cls-18" d="M239.31,141.45c2.46-.08.02,2.32,3.64,1.73.76-.12,5.47-4.08,6.07-4.86,3.14-.31-.9,1.68-2.08,5.9-3.91-.64-2,3.03-2.25,3.12-1.63-2.2-2.64-.32-4.34.52,5.58,6.86-.99,2.44-2.43,2.6-.6.07-1.03,1.08-1.39,1.39-5.31-3.03-11.99.94-20.98,2.43-2.14.35-10.27,1.58-11.79,1.73-4.41.44-8.84-.98-13.01.69-1.4-2.08-9.7.69-14.91.17-1.67-7.15-2.19-14.53-3.82-21.68-.14-.22,3.06.91,3.29,1.04,7.18,4.1,13.34,10.27,20.46,14.57,2.09,1.26,5,3.34,6.59,2.77-.25,2.81,10.69,1.15,8.32-1.39-.92-.99-17.42-7.11-24.62-11.1-1.44-.8-12.63-7.77-13.18-8.32-.82-.84-.44-1.25-.52-1.39,12.22,3.89,45.77,22.78,57.05,17.69,3.64-1.64-2.32-1.42-8.32-3.12-6.86-1.94-13.33-5.27-20.46-5.9-4.84-2.8-11.31-4.9-7.11-5.2,4.6-.33,9.63,2.98,14.05,4.16,8.96,2.4-1.63-3.37-3.82-4.16-.78-.28-22-5.13-9.02-3.47,3.46.44,22.29,6.15,29.83,7.63,1.92.38,13.99,2.47,14.74,2.43Z"/>
          <path class="cls-16" d="M103.01,118.21c3.15,2.8,1.01,1.11-.17,3.82-1.13-1.4-.63.03-1.39.35-4.84,2.04-9.68.44-11.97,10.06-4.59,1.18-8.17,4.99-11.97,7.63-1.74,1.2-15.64,8.92-5.9,5.9,5.94-1.84,13.1-7.43,13.87-7.63,4.74-1.26-5.29,6.28-6.24,6.94-6.78,4.65-18.66,10.44-26.53,7.46,6.32-3.76,13.42-6.2,19.6-10.23,5.34-3.49,9.38-6.17,5.03-6.59,4.01-1.41,7.8-4.19,11.79-5.72.04-.43-5.26-4.37-5.55-6.42,6.12-3.13,12.76-4.35,19.42-5.55Z"/>
          <path class="cls-16" d="M72.84,137.29c.06.4.64.54.17,1.04-2.06,2.21-27.51,11.22-34.68,11.79-14.35,1.15,2.9-3.83,6.24-5.2,1.94-.79,6.16-3.36,8.32-4.16,1.15-.43,5.29-.29,5.03-2.08,1.2-.1,2.53.51,4.68.35,2.95-.89,7.49-1.04,10.23-1.73Z"/>
          <path class="cls-20" d="M243.82,135.55s.22-.53.69,0c-.67,3.1-1.77,5.7-5.2,5.9-.75.04-12.82-2.05-14.74-2.43-7.54-1.48-26.37-7.19-29.83-7.63-12.99-1.66,8.24,3.18,9.02,3.47,2.19.79,12.78,6.57,3.82,4.16-4.42-1.18-9.44-4.49-14.05-4.16.77-1.25-.69-1.17-3.29-1.73-1.24-.69,2.04-1.45-2.95-1.91,4.29-2.19-3.36-3.55-9.02-6.42-.89-.45-1.6-.54-1.39-1.73,1.93.33,3.66.42,5.55-.35.13.32-.46.97,1.21,1.73,11.73,2.77,22.15,4.86,32.6,11.1,8.01.5,21.06,3.93,27.57,0Z"/>
          <path class="cls-18" d="M176.88,123.07c-.22,1.2.49,1.28,1.39,1.73-3.75,3-8.46,2.13-5.9,6.59.08.13-.3.55.52,1.39.55.56,11.74,7.53,13.18,8.32,7.2,3.99,23.7,10.11,24.62,11.1,2.37,2.54-8.58,4.2-8.32,1.39-1.58.56-4.5-1.51-6.59-2.77-7.12-4.3-13.28-10.47-20.46-14.57-.23-.13-3.44-1.27-3.29-1.04-1.64-7.21-4.53-11.4-4.51-15.26,3.06.72,7.82,2.85,9.36,3.12Z"/>
          <path class="cls-19" d="M80.12,96.71c5.33,1.42,16.73,13.58,18.03,14.22-2.08,1.05-7.92,1.92-9.02,2.43-6.02-7.33-15.42-10.19-24.28-12.49,1.18-.18,1.22-.58,3.47-.69,1.71-.09,1.9,1.03,2.95.69,1.22-.39-.53-1.56,3.64-3.12,1.61-.6,3.58-.6,5.2-1.04Z"/>
          <path class="cls-17" d="M90.18,94.97c.96.46,12.63,13.52,14.57,15.61-1.67.33-3.37.63-5.03,1.04-.75.18-1.01-.43-1.56-.69-1.31-.64-12.71-12.8-18.03-14.22,1.55-.42,5.83-2.01,6.94-2.08,1.06-.07,2.12-.14,3.12.35Z"/>
          <path class="cls-17" d="M207.75,102.6c-8.77,2.35-17.51,5.59-24.8,11.1,17.26,1.66,23.34,3.18,39.71-4.16.06.03.51-.15,1.39.35,1.08.61,3.75,2.26,4.16,3.12-8.64,1.29-18.42,5.7-25.67,7.63-5.2,1.38-10.38,1.82-15.61,2.95,5.2.29,27.96,6.13,23.76,1.91-.4-.4-7.79-3.83-9.36-3.47v-.69c1.76.18,1.48-.33,1.56-.35,2.7-.48,23-.26,24.1-1.04.32-.22.04-2.99,6.07-3.47,2.2-.17,1.93,1.15,3.47,2.43-2.79.79-21.92,5.37-22.72,6.24-.22.24-.25.59-.17.87.4,1.42,26.55,1.47,29.48.87.25.55,1.35,2.29,1.39,2.43.26.78-1.91,1.35-2.25,1.39-5.1.62-25.14-1.77-33.12-1.56-.71,2.09,32.38,6,34.68,6.42-6.51,3.93-19.57.5-27.57,0-10.45-6.24-20.87-8.32-32.6-11.1-1.68-.76-1.08-1.42-1.21-1.73-2-4.74,2.36-2.63,11.62-3.82,9.14-1.17-9.97-1.74-13.87-2.77-1.61-.43-4.47-2.29-6.07-3.12,8.68-4.88,17.13-10.42,27.05-12.49,2.18.74,4.4,1.24,6.59,2.08Z"/>
          <path class="cls-19" d="M222.67,109.54c-16.37,7.34-22.45,5.82-39.71,4.16,7.29-5.51,16.03-8.75,24.8-11.1,5.27,2.02,9.98,4.26,14.91,6.94Z"/>
          <path class="cls-19" d="M170.64,92.55c-1.28,1.45-4.04,4.75-4.51,6.42-2.12,7.58,3.66-.25,11.1-5.38,2.34.51,6.04,1.08,6.24,2.08-3.62,1.61-11.8,7.18-13.53,10.4.08-8.23-6.05,3.55-8.15,4.16-4.08,1.19-7.84-2.45-10.23-2.77,3.51-6.02,8.42-10.97,12.83-16.3,2.18.35,4.14.98,6.24,1.39Z"/>
          <path class="cls-19" d="M201.16,100.52c-9.93,2.06-18.38,7.61-27.05,12.49-2.89-1.49-6.53-1.09-2.77-4.86,2.81-2.81,13.92-9.42,18.38-11.1,4.18.98,7.43,2.11,11.45,3.47Z"/>
          <path class="cls-17" d="M147.4,89.08l-2.6,14.22-1.56-10.58h-.69v14.05c-.06-.01-.06.68-1.21.35-.74-.21-4.17-2.2-5.38-2.77q-.35-7.63-.69-15.26c4.12,0,7.98-.27,12.14,0Z"/>
          <path class="cls-19" d="M153.99,89.77c-1.03,6.13-2.11,12.27-4.51,18.03-2.05-.27-4.34.03-6.42-.35-.29-.05.05-.57-.52-.69v-14.05h.69l1.56,10.58,2.6-14.22c2.33.15,4.31.45,6.59.69Z"/>
          <path class="cls-17" d="M134.22,89.08c-1.45,6.34-1.59,13.22-5.55,18.73-.75-.01-1.61-.42-2.08-1.04,1.55-3.34-2.22-14.63-5.2-17.69,4.25-.28,8.59.02,12.83,0Z"/>
          <path class="cls-17" d="M164.4,91.16c-4.41,5.33-9.32,10.28-12.83,16.3-.1-.01-.62.54-2.08.35,2.39-5.76,3.48-11.9,4.51-18.03,3.52.37,6.91.83,10.4,1.39Z"/>
          <path class="cls-17" d="M106.83,91.16c2.79,3.9,4.57,8.05,5.2,12.83l-1.39.35c-.2-.99-10.64-10.56-12.49-11.79,1.5-.31,2.99-.76,4.51-1.04,1.96-.36,3.33-.21,4.16-.35Z"/>
          <path class="cls-17" d="M189.72,97.05c-4.47,1.68-15.58,8.28-18.38,11.1.1-2.74-2.74.46-1.39-2.08,1.72-3.23,9.91-8.8,13.53-10.4l1.56-.35c1.5.44,3.2,1.39,4.68,1.73Z"/>
          <path class="cls-19" d="M135.27,89.08q.35,7.63.69,15.26c-.36,1.23-6.07,3.49-7.28,3.47,3.96-5.51,4.1-12.39,5.55-18.73.35,0,.69,0,1.04,0Z"/>
          <path class="cls-23" d="M177.23,93.59c-7.44,5.13-13.22,12.96-11.1,5.38.46-1.66,3.23-4.96,4.51-6.42.93.18,3.34.34,6.59,1.04Z"/>
          <g>
            <path class="cls-19" d="M121.39,89.08c2.99,3.05,6.75,14.35,5.2,17.69-.22.46-5.59,5.35-6.42,5.2l-8.15-7.98c-.63-4.78-2.42-8.94-5.2-12.83,1.42-.23,2.7-.5,4.16-.69,9.15,11.24,9.73,13.04,6.59-.69.19-.02,1.07-.51,3.82-.69Z"/>
            <path class="cls-17" d="M117.58,89.77c3.14,13.73,2.56,11.93-6.59.69,2.26-.29,4.25-.48,6.59-.69Z"/>
          </g>
          <path class="cls-19" d="M243.13,126.88c-2.93.61-29.08.56-29.48-.87-.08-.28-.05-.63.17-.87.8-.87,19.92-5.45,22.72-6.24,2.74,2.27,5.31,4.45,7.28,7.46-.41.56-.71.48-.69.52Z"/>
          <path class="cls-19" d="M233.07,116.48c-6.03.48-5.75,3.25-6.07,3.47-1.11.78-21.41.56-24.1,1.04l-.35-.35c7.24-1.93,17.03-6.34,25.67-7.63.74-.81,4.56,2.19,4.86,3.47Z"/>
          <path class="cls-20" d="M244.52,129.31c.07.26,1.2.1.69,5.03,0,.07-.58.71-.69,1.21-.48-.53-.66,0-.69,0-2.3-.42-35.39-4.33-34.68-6.42,7.98-.2,28.02,2.18,33.12,1.56.34-.04,2.52-.61,2.25-1.39Z"/>
          <path class="cls-37" d="M169.95,106.07c-1.36,2.54,1.49-.66,1.39,2.08-3.75,3.77-.12,3.36,2.77,4.86,1.6.83,4.46,2.7,6.07,3.12,3.91,1.03,23.02,1.61,13.87,2.77-9.26,1.18-13.62-.93-11.62,3.82-1.89.77-3.62.68-5.55.35-1.55-.27-6.31-2.4-9.36-3.12-20.01-4.7-44.31-5.37-64.51-1.73-6.66,1.2-13.3,2.42-19.42,5.55-.12,0-.23,0-.35,0-.99-.03-.45-.43-1.04-.69.03-1.69,1.43-3.15,0-4.51.35-.1,5.64-3.49,5.55-4.51,1.26.21,1.32-.66,1.39-.69,1.09-.51,6.94-1.38,9.02-2.43.55.27.81.88,1.56.69,1.65-.41,3.36-.71,5.03-1.04.18-.04.56.55,1.56.35,3.41-.84,4.54-5.56,4.34-6.59l1.39-.35,8.15,7.98c.83.15,6.2-4.74,6.42-5.2.47.62,1.33,1.03,2.08,1.04,1.21.02,6.93-2.24,7.28-3.47,1.21.58,4.63,2.56,5.38,2.77,1.16.33,1.15-.36,1.21-.35.57.13.23.64.52.69,2.08.38,4.36.08,6.42.35,1.46.19,1.98-.36,2.08-.35,2.39.33,6.15,3.96,10.23,2.77,2.1-.61,8.23-12.39,8.15-4.16Z"/>
          <path class="cls-16" d="M53.07,126.53c8.02.11,12.59,1.65,23.24-.35.19.4.66.98.17,1.39-2.8,2.34-37.77-.17-39.02,2.6-2.27,5.06,23.41,2.17,26.53,2.95v.69c-6.71,1.58-18.12,3.7-24.62,1.73-1.58-.48-3.65-2.87-4.68-4.16-.84-1.05-3.31-4.47-2.43-5.2,6.96.39,13.86.25,20.81.35Z"/>
          <path class="cls-37" d="M32.26,126.19c-.89.73,1.59,4.15,2.43,5.2-.05.28-.74,1.01-.87,1.04-2.12.51-13.54.53-17.86,1.04-.17-4.6-.28-4.56,2.43-8.67,4.57.77,9.25,1.13,13.87,1.39Z"/>
          <path class="cls-20" d="M82.2,123.07c.59.27.05.67,1.04.69-.65,1.3-5.06,2.08-6.94,2.43-10.65,1.99-15.22.45-23.24.35l-.35-2.08c5.99-.05,11.95-.86,17.86-1.73-2.09-1.64-4.76-1.42-7.11-1.73l.69-.69c9.33,1.56,16.68,1.45,17.51,1.73.37.13-.13.75.52,1.04Z"/>
          <g>
            <path class="cls-20" d="M77.35,135.9c-1.37.48-3.1,1.03-4.51,1.39-2.74.69-7.28.85-10.23,1.73-2.16.17-3.48-.45-4.68-.35-3.12.26-6.42.05-9.54.35-8.98.86-20.81,3.09-29.31,3.47-2.74-3.86-2.97-4.85-3.12-9.02,4.32-.51,15.74-.53,17.86-1.04.13-.03.82-.76.87-1.04,1.03,1.29,3.1,3.69,4.68,4.16,6.51,1.96,17.92-.15,24.62-1.73v-.69c-3.13-.78-28.8,2.11-26.53-2.95,1.25-2.77,36.21-.26,39.02-2.6.48-.4.02-.98-.17-1.39,1.87-.35,6.28-1.13,6.94-2.43.12,0,.23,0,.35,0,.29,2.04,5.59,5.99,5.55,6.42-4,1.53-7.78,4.32-11.79,5.72Z"/>
            <path class="cls-16" d="M75.78,129.66c1.54-.07-2.98,2.85-4.68,3.64,13.89-2.09-6.2,4.68-6.94,3.47,6.45-3.72,2.32-2.75,2.43-3.82.05-.49,8.7-3.27,9.19-3.29Z"/>
          </g>
          <path class="cls-15" d="M27.4,116.82c9.73,3.42,24.95,2.66,36.07,4.16,2.35.32,5.02.09,7.11,1.73-5.91.87-11.87,1.69-17.86,1.73-.65,0-2.56.58-5.72,0-7.78-2.22-15.74-3.8-23.76-4.86,1.01-1.11,2.1-2.01,3.12-3.12.48-.13.66.21,1.04.35Z"/>
          <path class="cls-19" d="M52.72,124.45l.35,2.08c-6.95-.09-13.85.04-20.81-.35-4.62-.26-9.3-.62-13.87-1.39,1.74-2.64,3.15-3.32,4.86-5.2,8.02,1.06,15.97,2.64,23.76,4.86,3.16.58,5.07,0,5.72,0Z"/>
          <g>
            <path class="cls-16" d="M193.53,134.86c-4.2.3,2.27,2.4,7.11,5.2,7.14.63,13.6,3.95,20.46,5.9,6,1.7,11.97,1.48,8.32,3.12-11.28,5.1-44.84-13.8-57.05-17.69-2.56-4.45,2.15-3.59,5.9-6.59,5.66,2.87,13.3,4.22,9.02,6.42,4.98.46,1.7,1.22,2.95,1.91,2.61.56,4.07.48,3.29,1.73Z"/>
            <path class="cls-18" d="M176.36,130.7c3.29-.08,8.8.11,10.58,3.29-.53.72-9.43-2.21-10.58-3.29Z"/>
          </g>
          <path class="cls-17" d="M64.86,100.87c8.86,2.29,18.26,5.16,24.28,12.49-.07.03-.12.9-1.39.69-10.65-3.04-20.2-9.34-31.21-11.1,2.97-.73,5.06-1.58,8.32-2.08Z"/>
          <path class="cls-19" d="M56.54,102.95c11.02,1.76,20.56,8.06,31.21,11.1.09,1.02-5.2,4.41-5.55,4.51-8.79,2.59-33.75-6.62-44.05-7.98.05-.03.33-.29,1.04-.69,3.53-.42,11.25-.16,10.4-5.2,2.33-.59,4.6-1.16,6.94-1.73Z"/>
          <path class="cls-17" d="M38.15,110.58c10.3,1.35,35.25,10.56,44.05,7.98,1.43,1.36.03,2.82,0,4.51-.65-.29-.15-.91-.52-1.04-.83-.29-8.18-.18-17.51-1.73-11.04-1.84-21.83-4.84-32.95-6.24,3.24-1.88,6.6-3.27,6.94-3.47Z"/>
          <path class="cls-19" d="M31.22,114.05c11.12,1.4,21.91,4.4,32.95,6.24l-.69.69c-11.12-1.5-26.34-.74-36.07-4.16.56-1.37,2.65-2.1,3.82-2.77Z"/>
          <path class="cls-19" d="M98.15,92.55c1.84,1.23,12.29,10.81,12.49,11.79.21,1.03-.93,5.75-4.34,6.59-1,.2-1.38-.38-1.56-.35-1.94-2.09-13.6-15.14-14.57-15.61-.13-1.11,4.85-1.77,7.98-2.43Z"/>
          <path class="cls-37" d="M202.55,120.64l.35.35c-.08.01.2.53-1.56.35v.69c1.58-.36,8.96,3.07,9.36,3.47,4.21,4.22-18.55-1.61-23.76-1.91,5.23-1.13,10.4-1.56,15.61-2.95Z"/>
        </g>
      </g>
      <g>
        <path class="cls-23" d="M78.39,239.25c-.25,2.15-1.19,3.82-2.43,5.55-1.06-1.32-1.78-2.85-2.77-4.16-7.98-16.36-4.21-20.24-3.12-31.21.22-2.2.52-4.39.69-6.59,1.99-.95,2.91-1.87,5.2-2.43.24.94.26,1.94.87,2.77,1.99-3.91,2.12-3.51-.87-2.77-.03-.11.02-.23,0-.35,6.29-2.67,2.67-1.03,1.04,4.34-3.31,10.88-3.75,24.49,1.39,34.86Z"/>
        <path class="cls-24" d="M70.06,209.43c-1.09,10.98-4.86,14.86,3.12,31.21-3.52-4.64-6.98-9.49-10.4-14.22-.77-1.06-1.38-2.36-2.08-3.47,1.59.2,2.03.33,3.47,1.04,1.37.67,2.23,1.78,3.47,2.6-.35-4.01-.92-6.05-2.77-9.54-1.07-2.01-5.3-6.75-4.86-7.46,3.34.04,5.81,2.84,7.11,5.72.57-.28-2.54-8.04.17-12.49q1.39,3.29,2.77,6.59Z"/>
        <path class="cls-24" d="M75.61,197.98c0,.23,0,.46,0,.69.02,1.08.31,1.13.35,1.39.02.11-.03.24,0,.35-2.29.56-3.21,1.48-5.2,2.43.32-3.95-.75-8.14,1.39-11.79,4.2-4.88,1.67,3.08,3.47,6.94Z"/>
        <path class="cls-23" d="M190.76,211.16l1.39,3.99c-.11,2.58.14,5.23,0,7.8-.11,2.07-1.61,3.55.35,2.08l2.43,4.16v.35c-4.76,3.29-.4.95-.17,1.04.8.3.58,3.46,1.56,3.12-.81,1.18-.98,1.65-1.04,1.73-.39.52-7.52,8.5-8.67,9.71-5.03,5.29-9.68,9.31-15.61,13.53l-1.04-4.16c1.22-.88,3.55-1.9,5.03-3.12,15.72-13.27,13.22-35.14,8.5-53.06,1.05,2,2,4.12,2.43.35,5.84-9.16,3.87,1.25,4.86,12.49Z"/>
        <path class="cls-21" d="M96.07,257.29c2.25.99,2.13-2.35,3.12-3.82,1.96-2.89,4.03-3.88,7.11-5.2.5.34.82.99.87,1.04-.71,1.41-7.88,9.52-8.5,9.71-.16.05-1.36-1.36-2.95.35-6.71-3.08-10.13-3.55-17.34-11.45-.79-.86-1.67-2.17-2.43-3.12,1.23-1.73,2.18-3.4,2.43-5.55,1.02,2.05,3.95,6.45,5.55,7.98,1.9,1.82,1.41.26,2.43,1.39.03.08.46.27.87,1.39,1.1-10.48,2.4-21.85-.87-32.08l.52-.52c4.46-.01,1.55,30.25,3.12,33.99,2.45-5.8,6.44-11.03,8.84-16.82,1.49-3.59,1.72-9.29,3.29-8.15,1.89,1.36-8.67,20.51-8.84,23.76-.09,1.66,1.11,6.38,2.77,7.11Z"/>
        <path class="cls-17" d="M167.52,119.94c-.02,3.86,2.87,8.05,4.51,15.26,1.63,7.15,2.14,14.53,3.82,21.68,5.21.52,13.52-2.25,14.91-.17-1.61-.38-14.32.52-14.57,1.21,1.45,6.85,10.13,36.99,9.71,40.75-.42,3.77-1.38,1.66-2.43-.35-1.51-2.88-1.26-6.78-4.51-8.5,1.39-4.56-2.18-5.83-2.43-6.59-.38-1.17,1.12-4.19-1.39-6.94,2.36-8.61-6.31-5.68-4.16-16.3-4.46-4.9-2.18-7.57-5.2-13.18,3.35-11.59-13.02-8.95-1.04-10.75-2.95-.99-6.31-1.1-9.19-2.25-1.14-.46-.52-2.48-2.43-1.04-3.52-6.15,2.73-16.47-5.9-3.12l-1.04-6.59c-5.23,7.29-3.9,17.16-7.28.69-4.12,9.86-2.15,3.8-9.36,3.12-2.59-1.52-3-13-3.64-.52-6,2.08-4.72.45-6.76-4.34l-6.59,3.82c-.32-.97-2.05-5.02-2.77-5.2-3.99-.99-.53,7.21-5.38,15.43-3.16,5.36-6.67,4.5-6.94,4.86-.36.47,4.49-.59-5.9,8.67.16,5.25-1.21,6.18-1.39,6.94-1.08,4.51.44,8.67-5.55,9.02,5.45.65.2,3.15,2.08,8.67-4.87,6.94-3.41,23.51-11.1,24.45,0-.23,0-.46,0-.69.15-5.42,7.82-31.84,9.71-40.93.12-.57.63-.23.69-.52,1.55-7.57,2.46-19.88,3.47-24.1,2.29-9.62,7.13-8.02,11.97-10.06.76-.32.26-1.74,1.39-.35,1.18-2.7,3.33-1.01.17-3.82,20.2-3.64,44.5-2.96,64.51,1.73Z"/>
        <path class="cls-21" d="M194.92,229.2l-2.43-4.16c.78-.58,5.56-5.88,6.07-5.9,2.75-.09-2.44,8.79-3.64,10.06Z"/>
        <path class="cls-24" d="M193.88,212.55c-.49,1.79,2.42,3.5-1.73,10.4.14-2.57-.11-5.22,0-7.8l-1.39-3.99c1.41-1.41,2.36-5.14,3.82-6.24,1.93.67-4.08,7.4-.69,7.63Z"/>
        <path class="cls-21" d="M193.88,212.55c-3.39-.23,2.62-6.96.69-7.63.38-.29.84-1.21,1.91-.69,2.56,1.23-2.48,7.88-2.6,8.32Z"/>
        <path class="cls-21" d="M196.31,233.7c-.98.34-.76-2.82-1.56-3.12-.23-.09-4.59,2.25.17-1.04,7.92-5.47,4.02.34,1.39,4.16Z"/>
        <path class="cls-8" d="M75.96,200.41c2.99-.73,2.86-1.14.87,2.77-.61-.84-.63-1.84-.87-2.77Z"/>
        <path class="cls-23" d="M156.42,251.05c.5,1.03.87,2.1,1.39,3.12.37.73,2.55,5.01,2.77,5.2.39.33,3.77.75,4.68-2.08,4.38-.09,3.77-2.27,3.99-2.43.14-.1.56-.25.69-.35l1.04,4.16s-.15.63-.69.69c-1.75-5.51-7.89,1.94-8.67,5.2-7.5.57-15.03,1.58-22.54,2.08-1.25-.34-2.65.32-3.82.35-.12,0-.79-.57-2.43-.35-2.04-.38-4.27.36-6.24.35-2.45-.01-5.15-.25-7.63-.35-3.8-.15-7.65-.48-11.45-.69-2.3-.13-4.64-.89-6.94-1.04-1.98-.13-3.91-.28-5.9-.35,2.01-.37,2.56-1.7,2.43-3.82.11.03.24-.03.35,0,1.26.36.18-.4,1.56-.35,1.89.43,11.48,5.14,12.14,5.2,1.57.16,1.87-1.65,4.16,0-1.96-11.38,2.92-1.21,3.47-1.04,3.45,1.08-1.65-5.87-.17-8.67.16.19,1.58.72,3.82,3.29.69.79,1.54,3.74,1.73,1.91,3.3-4.53.59.46,3.12.69.06.18-.06.53,0,.69.8,2.09-.59,2.51,4.51,1.91-.66-2.66-4.05-7.87-1.04-7.46,2.1,2.03,1.59-2.3,2.95-2.43.37-.03,1.24,1.96,1.73,2.08.64.16.82-.71.87-.69,2.54,1.05,4.22,3.48,6.24.35.03-.05-.07-.29.35-1.04l.69,1.04c-.21,2.07.71,3.76,1.73,5.55,1.87,3.28,1.48-1.36,2.25-1.39.89.45,1.24,1.18,2.25,1.39,2.47.52,4.69.58,6.94-.69.25-.14,1.16.34,1.04-.52-1.7-2.85-2.22-6.61-3.47-9.54,1.18,1.02.62.24,2.08,0Z"/>
        <path class="cls-22" d="M170.29,259.37c1.35.79,9.11-3.39,9.71,1.04.25,1.86-.85,1.32-1.39,2.77-.1-.03-.24.04-.35,0l-.52-.69c-3.32,2.38-6.17,1.47-9.54,1.73-2.18.17-4.38.18-6.59.35.78-3.26,6.92-10.71,8.67-5.2Z"/>
        <path class="cls-23" d="M167.52,252.43c.96,1.78.9-1.64,2.77-2.77-1.2,3.07-3.14,6.55-1.04,5.2-.22.16.39,2.34-3.99,2.43-.91,2.84-4.3,2.41-4.68,2.08.09-1.73-.42-3.81-.69-5.55-.31-1.95-.52-3.63-1.04-5.55l1.73-1.04c1.03,2.53,2.28,4.96,2.95,7.63,2.57-4.46,1.9-9.73,3.47-10.75,2.5,1.14-3.51,16.72.52,8.32Z"/>
        <path class="cls-21" d="M150.87,256.25c.08,2.38,1.57,2.71-1.04,5.55-1.02-.21-1.36-.94-2.25-1.39-.77.03-.38,4.67-2.25,1.39.07-6.35-1.18-11.1-1.73-5.55l-.69-1.04c1.54-2.72,2.11-6.2,5.03-7.98,1.34,3.18,1.29,8.55,2.95,9.02Z"/>
        <path class="cls-23" d="M156.77,261.1c-2.25,1.28-4.46,1.21-6.94.69,2.61-2.84,1.12-3.17,1.04-5.55-.06-1.84-.79-4.2-.17-6.24q3.03,5.55,6.07,11.1Z"/>
        <path class="cls-23" d="M130.76,256.94c-3.01-.41.38,4.8,1.04,7.46-5.1.6-3.71.18-4.51-1.91q.35-4.25.69-8.5c.62-.72,1.2,1.43,2.77,2.95Z"/>
        <path class="cls-21" d="M142.55,256.25c-2.02,3.13-3.7.71-6.24-.35,2.71-5.84,1.5-2.42,6.24.35Z"/>
        <path class="cls-13" d="M159.89,253.82c.28,1.74.79,3.82.69,5.55-.22-.19-2.41-4.48-2.77-5.2l2.08-.35Z"/>
        <path class="cls-28" d="M145.32,261.8c-1.02-1.79-1.94-3.48-1.73-5.55.56-5.55,1.8-.8,1.73,5.55Z"/>
        <g>
          <path class="cls-23" d="M118.62,255.9c-1.48,2.8,3.63,9.75.17,8.67-.55-.17-5.42-10.34-3.47,1.04-2.29-1.65-2.59.16-4.16,0-.66-.07-10.25-4.77-12.14-5.2-1.38-.06-.3.71-1.56.35-.25-.58-1.24-1.16-1.73-1.39,1.58-1.71,2.78-.3,2.95-.35.62-.19,7.79-8.3,8.5-9.71.54.51,9.31,13.93,9.02,9.54-.03-.44-2.23-4.54-2.43-5.9-1.18-8.24.65-1.98,4.86,2.95Z"/>
          <path class="cls-28" d="M108.73,255.55c.2-.12,2.51,3.7,2.6,3.99,1.64,5.37-4.24-2.98-2.6-3.99Z"/>
        </g>
        <g>
          <path class="cls-28" d="M183.47,198.33c4.72,17.92,7.23,39.8-8.5,53.06-1.48,1.22-3.81,2.24-5.03,3.12-.14.1-.55.25-.69.35-2.1,1.35-.16-2.13,1.04-5.2,2.45-6.24,5.87-14.23,6.24-20.98.09-1.67.08-9.18-2.43-4.86-.67,1.15-.03,12.43-2.08,15.61.22-3.71.78-25.11.35-26.36-.08-.23-.56-.59-.87-.52-1.97.47,3.14,25.04-3.99,39.89-4.03,8.39,1.98-7.18-.52-8.32-1.57,1.03-.9,6.29-3.47,10.75-.67-2.67-1.92-5.1-2.95-7.63-2.79-6.83-5.18-13.72-6.59-20.98-.4-2.07.17-5.19-1.21-6.07-3.2.45,5.52,26.05,6.07,28.09.52,1.92.73,3.6,1.04,5.55l-2.08.35c-.52-1.02-.89-2.09-1.39-3.12-.92-1.93-3.4-10.53-5.72-10.75-3.97-.38,1.39,5.47,3.64,10.75,1.25,2.93,1.77,6.68,3.47,9.54.12.86-.79.38-1.04.52q-3.03-5.55-6.07-11.1c-.62,2.04.11,4.4.17,6.24-1.66-.46-1.61-5.84-2.95-9.02-2.92,1.77-3.49,5.25-5.03,7.98-.42.75-.32.99-.35,1.04-4.74-2.77-3.54-6.18-6.24-.35-.05-.02-.23.85-.87.69-.49-.12-1.37-2.12-1.73-2.08-1.36.13-.84,4.46-2.95,2.43-1.57-1.52-2.16-3.67-2.77-2.95q-.35,4.25-.69,8.5c-.06-.16.06-.52,0-.69-3.04-9.2-.16-18.74-1.56-18.73-1.77,5.76-1.32,12.08-1.56,18.03-.19,1.83-1.05-1.11-1.73-1.91-2.24-2.58-3.65-3.1-3.82-3.29-4.2-4.93-6.04-11.19-4.86-2.95.19,1.36,2.4,5.45,2.43,5.9.29,4.39-8.48-9.03-9.02-9.54-.05-.05-.36-.7-.87-1.04-3.08,1.32-5.15,2.32-7.11,5.2-2.18-5.19,6.09-9.85,6.24-10.93.62-4.29-11.14,5.86-9.36,14.74-1.67-.73-2.86-5.45-2.77-7.11.17-3.25,10.73-22.4,8.84-23.76-1.58-1.13-1.8,4.56-3.29,8.15-2.4,5.79-6.39,11.02-8.84,16.82-1.57-3.74,1.34-34-3.12-33.99l-.52.52c3.27,10.23,1.97,21.6.87,32.08-.41-1.12-.84-1.31-.87-1.39-.78-2-1.41-7.93-1.73-10.58-5.19-1.16-2.46-19.92-3.99-20.29-1.75.82-1.19,7.54-.87,11.27.52,6.07,2.34,12.4,4.16,18.21-1.6-1.52-4.53-5.92-5.55-7.98-5.14-10.37-4.7-23.98-1.39-34.86,1.63-5.37,5.25-7.01-1.04-4.34-.04-.26-.32-.31-.35-1.39,7.69-.94,6.22-17.51,11.1-24.45-1.88-5.52,3.37-8.02-2.08-8.67,5.99-.35,4.47-4.5,5.55-9.02.18-.76,1.55-1.69,1.39-6.94,10.38-9.27,5.54-8.2,5.9-8.67.26-.35,3.78.51,6.94-4.86,4.84-8.22,1.39-16.42,5.38-15.43.72.18,2.45,4.24,2.77,5.2l6.59-3.82c2.04,4.78.77,6.41,6.76,4.34.64-12.48,1.05-1,3.64.52,7.22.67,5.24,6.74,9.36-3.12,3.39,16.46,2.06,6.59,7.28-.69l1.04,6.59c8.63-13.35,2.38-3.02,5.9,3.12,1.91-1.44,1.28.58,2.43,1.04,2.88,1.16,6.24,1.27,9.19,2.25-11.98,1.8,4.39-.84,1.04,10.75,3.02,5.61.74,8.28,5.2,13.18-2.14,10.63,6.52,7.69,4.16,16.3,2.51,2.75,1,5.76,1.39,6.94.25.76,3.82,2.03,2.43,6.59,3.25,1.71,3,5.62,4.51,8.5Z"/>
          <g>
            <path class="cls-24" d="M86.36,248.62c-1.02-1.13-.52.43-2.43-1.39-1.82-5.8-3.64-12.14-4.16-18.21-.32-3.73-.88-10.45.87-11.27,1.53.37-1.2,19.13,3.99,20.29.33,2.65.95,8.57,1.73,10.58Z"/>
            <path class="cls-24" d="M99.2,253.47c-.99,1.46-.87,4.8-3.12,3.82-1.77-8.88,9.98-19.03,9.36-14.74-.15,1.07-8.42,5.73-6.24,10.93Z"/>
            <path class="cls-24" d="M170.29,249.66c-1.87,1.14-1.81,4.55-2.77,2.77,7.13-14.85,2.02-39.42,3.99-39.89.31-.07.79.29.87.52.43,1.25-.12,22.65-.35,26.36,2.05-3.18,1.42-14.46,2.08-15.61,2.51-4.32,2.52,3.18,2.43,4.86-.38,6.75-3.8,14.74-6.24,20.98Z"/>
            <path class="cls-22" d="M119.83,196.94c1.93-.73.51,5.92,6.24,5.9.37,0,3.41-1.11,4.16-1.73,10.06,4.77,8.84-3.75,9.36-4.16,1.82-1.4,2,4.89-1.39,6.59-2.12,1.06-5.5,1.11-7.28-.69-10.09,5.14-12.99-5.18-11.1-5.9Z"/>
            <path class="cls-24" d="M160.58,247.23l-1.73,1.04c-.55-2.05-9.27-27.64-6.07-28.09,1.39.88.81,4,1.21,6.07,1.41,7.26,3.8,14.15,6.59,20.98Z"/>
            <path class="cls-24" d="M156.42,251.05c-1.46.24-.9,1.02-2.08,0-2.26-5.28-7.61-11.13-3.64-10.75,2.32.22,4.8,8.82,5.72,10.75Z"/>
            <path class="cls-21" d="M127.29,261.8c-2.53-.23.18-5.22-3.12-.69.25-5.96-.21-12.28,1.56-18.03,1.41,0-1.48,9.53,1.56,18.73Z"/>
            <g>
              <path class="cls-4" d="M105.44,196.94q-2.43,2.17-4.86,4.34c3.51,2.26,5.4,2.19,9.36,1.21-1.25,1.95-2.03,4.36-3.99,5.9-8.64,6.81-21.58-.41-19.6-10.93,1.01-5.35,10.65-8.13,11.97-.52,2.11-.76,5.09-.96,7.11,0Z"/>
              <path class="cls-11" d="M106.48,197.63c.49,1.67,2.68,3.05,4.16,3.82-.16.39-.46.68-.69,1.04-3.96.98-5.85,1.04-9.36-1.21q2.43-2.17,4.86-4.34c.41.2.61.55,1.04.69Z"/>
              <path class="cls-4" d="M110.64,201.45c-1.48-.77-3.67-2.15-4.16-3.82,4.16-1.95,9.55.14,4.16,3.82Z"/>
            </g>
            <g>
              <path class="cls-34" d="M112.72,189.66c.88,1.24-1.84,2.13-3.99,1.73-1.76-.32-1.47-1.33-1.56-1.39l5.55-.35Z"/>
              <g>
                <path class="cls-14" d="M112.72,189.66l-5.55.35c-9.36-5.81-2.45-21.28,7.46-15.95,5.68,3.05,5.11,14.5-1.91,15.61Z"/>
                <path class="cls-12" d="M113.42,187.58c.37.15.57.46,1.04.35-2.44,1.87-3.7,1.08-6.24.35l-1.39-2.08c.14-.68-.35-5.73,3.99-4.51.2.06,2.94,2.74,2.95,2.95.01.18-1.95,1.75-1.04,3.12.45.68.66-.19.69-.17Z"/>
                <path class="cls-26" d="M113.24,176.13c1.5-.7,3.1,2.19,1.39,2.77-1.72.59-2.66-2.18-1.39-2.77Z"/>
                <path class="cls-1" d="M114.46,187.92c-.47.12-.67-.2-1.04-.35-1.01-3.67,4.86-2.58,1.04.35Z"/>
                <path class="cls-36" d="M106.83,186.19l1.39,2.08c-4.46-1.29-1.43-1.87-1.39-2.08Z"/>
              </g>
            </g>
            <g>
              <g>
                <path class="cls-4" d="M149.83,201.8c4.75,2.66,14.91.29,5.38-3.82-1.25-.03-1.48,2.25-5.72,2.77-.07-.17-1.66-.14-1.39-2.95,2.23-.49,9.18-1.75,10.93-1.56,1.17.13,2.74,1.53,3.12,1.39,2.83-9.43,12.61-6.01,11.97,3.29-.59,8.61-11.68,12.71-18.56,8.84-3.02-1.7-4.34-5.02-5.72-7.98Z"/>
                <path class="cls-11" d="M149.83,201.8c-.33-.7-.33-.99-.35-1.04,4.24-.53,4.48-2.81,5.72-2.77,9.54,4.1-.63,6.48-5.38,3.82Z"/>
              </g>
              <g>
                <path class="cls-33" d="M155.73,187.23c-.3,2.39-2.69,1.94-2.43,3.82-3.53,1.04-5.11.58-7.28-1.73,1.03.15,2.06.98,3.12,1.04,5.1.29,4.99-3.49,6.59-3.12Z"/>
                <path class="cls-12" d="M155.73,187.23c-1.59-.37-1.49,3.41-6.59,3.12.13-.9-.69-1.02-1.39-1.39,1.15-.58,1.32-1.92,1.04-3.12-.35-1.51-2.79-1.38-1.39-3.99,1.6-2.98,9.12-1.07,8.32,5.38Z"/>
                <g>
                  <path class="cls-14" d="M153.3,191.04c-.26-1.88,2.13-1.42,2.43-3.82.8-6.45-6.72-8.36-8.32-5.38-1.4,2.6,1.03,2.47,1.39,3.99-3.17-2.08-5.07,1.03-1.04,3.12.7.36,1.51.49,1.39,1.39-1.06-.06-2.09-.89-3.12-1.04-7.2-7.66-.39-20.13,8.5-15.26,6.26,3.43,4.62,15.28-1.21,16.99Z"/>
                  <path class="cls-27" d="M148.79,185.84c.28,1.2.11,2.54-1.04,3.12-4.03-2.09-2.13-5.2,1.04-3.12Z"/>
                  <path class="cls-10" d="M152.09,175.78c.96-.68,2.95,1.05,2.25,1.91-.93,1.13-3.43-1.08-2.25-1.91Z"/>
                </g>
              </g>
            </g>
          </g>
        </g>
      </g>
    </g>
  </g>
</svg>