<?xml version="1.0" encoding="UTF-8"?>
<svg id="Layer_2" data-name="Layer 2" xmlns="http://www.w3.org/2000/svg" xmlns:xlink="http://www.w3.org/1999/xlink" viewBox="0 0 1600 500">
  <defs>
    <style>
      .cls-1 {
        fill: url(#Ikke-navngivet_forløb_132-2);
      }

      .cls-1, .cls-2, .cls-3, .cls-4, .cls-5, .cls-6, .cls-7, .cls-8, .cls-9, .cls-10, .cls-11, .cls-12, .cls-13, .cls-14, .cls-15, .cls-16, .cls-17, .cls-18, .cls-19, .cls-20, .cls-21, .cls-22, .cls-23, .cls-24, .cls-25, .cls-26, .cls-27, .cls-28, .cls-29, .cls-30, .cls-31, .cls-32, .cls-33, .cls-34, .cls-35, .cls-36, .cls-37 {
        stroke-width: 0px;
      }

      .cls-2 {
        fill: #4a854b;
      }

      .cls-3 {
        fill: #5fbfd7;
      }

      .cls-4 {
        fill: #76a562;
      }

      .cls-5 {
        fill: #51a85c;
      }

      .cls-6 {
        fill: #79d3dc;
      }

      .cls-7 {
        fill: #7ab28d;
      }

      .cls-8 {
        fill: #2c7762;
      }

      .cls-9 {
        fill: #5aa07c;
      }

      .cls-10 {
        fill: #63923b;
      }

      .cls-11 {
        fill: #81b766;
      }

      .cls-12 {
        fill: #87b27d;
      }

      .cls-13 {
        fill: #99dd9f;
      }

      .cls-14 {
        fill: #529062;
      }

      .cls-15 {
        fill: #a1dabb;
      }

      .cls-16 {
        fill: #93c53b;
      }

      .cls-17 {
        fill: #43a7c6;
      }

      .cls-18 {
        fill: #1e6b62;
      }

      .cls-19 {
        fill: #cff2ba;
      }

      .cls-20 {
        fill: #c5f1f9;
      }

      .cls-21 {
        fill: #dbf196;
      }

      .cls-22 {
        fill: #b1d540;
      }

      .cls-23 {
        fill: #cef0e5;
      }

      .cls-24 {
        fill: #b0f0c4;
      }

      .cls-25 {
        fill: #9cc76e;
      }

      .cls-26 {
        fill: #9be4d5;
      }

      .cls-27 {
        fill: #8fc58d;
      }

      .cls-28 {
        fill: #b5f0ea;
      }

      .cls-29 {
        fill: #32825c;
      }

      .cls-30 {
        fill: #7da745;
      }

      .cls-31 {
        fill: #96c1be;
      }

      .cls-32 {
        fill: #e8efd9;
      }

      .cls-33 {
        fill: url(#Ikke-navngivet_forløb_135);
      }

      .cls-34 {
        fill: url(#Ikke-navngivet_forløb_139);
      }

      .cls-35 {
        fill: url(#Ikke-navngivet_forløb_132);
      }

      .cls-36 {
        fill: url(#Ikke-navngivet_forløb_134);
      }

      .cls-37 {
        fill: url(#Ikke-navngivet_forløb_137);
      }
    </style>
    <linearGradient id="Ikke-navngivet_forløb_132" data-name="Ikke-navngivet forløb 132" x1="797.03" y1="14.74" x2="802.6" y2="456.6" gradientUnits="userSpaceOnUse">
      <stop offset="0" stop-color="#55b9d3"/>
      <stop offset="1" stop-color="#bcedde"/>
    </linearGradient>
    <linearGradient id="Ikke-navngivet_forløb_132-2" data-name="Ikke-navngivet forløb 132" x1="797.12" y1="28.03" x2="801.62" y2="384.85" xlink:href="#Ikke-navngivet_forløb_132"/>
    <linearGradient id="Ikke-navngivet_forløb_134" data-name="Ikke-navngivet forløb 134" x1="799.55" y1="439.19" x2="799.76" y2="486.27" gradientUnits="userSpaceOnUse">
      <stop offset="0" stop-color="#d8f0a9"/>
      <stop offset="1" stop-color="#cfea75"/>
    </linearGradient>
    <linearGradient id="Ikke-navngivet_forløb_139" data-name="Ikke-navngivet forløb 139" x1="1138.87" y1="326.51" x2="1141.51" y2="398.73" gradientUnits="userSpaceOnUse">
      <stop offset="0" stop-color="#4d854b"/>
      <stop offset="1" stop-color="#337d5e"/>
    </linearGradient>
    <linearGradient id="Ikke-navngivet_forløb_135" data-name="Ikke-navngivet forløb 135" x1="209.78" y1="247.12" x2="158.74" y2="422.34" gradientUnits="userSpaceOnUse">
      <stop offset="0" stop-color="#508648"/>
      <stop offset="1" stop-color="#347d5e"/>
    </linearGradient>
    <linearGradient id="Ikke-navngivet_forløb_137" data-name="Ikke-navngivet forløb 137" x1="835.86" y1="275.69" x2="833.04" y2="434.12" gradientUnits="userSpaceOnUse">
      <stop offset="0" stop-color="#5a883f"/>
      <stop offset="1" stop-color="#418560"/>
    </linearGradient>
  </defs>
  <g id="Layer_4" data-name="Layer 4">
    <g>
      <g>
        <path class="cls-35" d="M0,0v500h1600V0H0Z"/>
        <path class="cls-1" d="M916.82,48.74c-.92,4.28,4.33,2.57,2.34,4.61-1.97,2.03-57.7,17.42-48.41,23.07,20,2.36,41.1,2.75,60.91,6.15,18.27,3.14,32.99,10.83,52.32,11.53-21.66,8.73-46.99,24.38-69.5,25.38-1.38.47-.6,3.01-.78,3.08-35.81,12.61,14.35.43,44.51,12.3,13.63-7.27,42.73-4.21,55.44,3.08,17.55,10.06-42.06,5.84-11.71,9.23,11.83,1.32,25.55,1.08,35.92-4.61,18.48,11.06,39.21,6.33,59.34,6.15-1.85-9.7,31.39-4.88,26.55,0-26.38,10.87-31.85-5.61-46.85,12.3-12.49-3.55-14.41,7.27-29.67,7.69v3.08c46.88,5.77,37.28-3.13,43.73-4.61,4.09-.94,10.7-.09,14.06,3.08,2.04-5.63,25.57-3.46,35.92-3.08,6.66.25,10.34,4.58,10.93,4.61,8.29.41,15.11-3.66,23.43-3.08.28.02,4.4,3.06,4.69,3.08,5.68.42,8.27-1.87,12.49-1.54.82.06-1.82,2.21,14.84,3.08,8.05.42,11.94-1.96,13.27-1.54q4.69,4.61,9.37,9.23c28.44-4.8,24.51-1.35,31.23,0,48.09,9.68-27.79,3.49,4.69,13.84,51.65.53,37.6-6.16,42.17-7.69,2.08-.7,22.5,6.38,37.48-1.54,12.41,1.42,15.91,15.06,24.99,1.54,18.65,1.08,54.28-16.85,39.04,6.15-9.34-9.05-29.48,1.95-19.52,13.07-24.1,21.33-32.02,5.92-39.82,8.46-8.09,2.64,4.87,17.48-21.86,4.61-14.73,8.01-30.61-5.87-40.6,10.77-17.56-.62-36.87,1.62-54.66,4.61,45.46,4.44,90.43-.64,135.87,1.54-20.37,8.94,3.84,8.84,28.11,9.23,27.38.44,73.72-8.94,79.65,3.08,18.7,2.66,42.02-5.6,53.1,3.08,13.12-11.35,22.7-3.69,28.11-4.61,15.94-2.74-13.64-6.27-37.48-6.15-4.67-25.41-20.36-16.27-21.86-16.92-1.38-.6-2.22-18.9-21.86-15.38-.21-6.02-23.86-11.77-19.52-17.69.69-.95,21.47-6.76,22.64-6.92,21.37-2.99,66.27,2.74,90.58,1.54,9.16-4.49-35.2-8.96-38.26-9.23.23-2.32,2.96-2.93,3.12-3.08,7.68,4.44,31.15,5.13,37.48,0,.52,0,1.04,0,1.56,0-1.58,5.39,11.28,2.32,24.99,3.08,0,1.03,0,2.05,0,3.08-16.4.6-15.87,4.25,0,6.15.01,11.79,0,23.58,0,35.37-10.08-13.11-10.65,16.35,0,21.53,0,5.13,0,10.25,0,15.38-12.74-16.87-14.78-5.39,0,4.61,0,1.03,0,2.05,0,3.08-32.1-27.44-22.18,4.71,0,9.23,0,4.61,0,9.23,0,13.84-10.49-9.3-12.67.22-14.84,0-11.35-11.35-45.14-7.48-28.11,10.77,3.44,3.68,18.13,8.6,12.49,12.3,34.19,7.82-20.11,7.7,18.74,10.77,1.46.71.54,2.92.78,3.08-8.03,13.16-14.01.85-29.67.77,9.21,8.1,17.06,3.35,24.99,18.46-1.75,2.79-5.26,2.35-7.81,2.31-6.03-.09-22.04-11.52-29.67-11.53q9.37,10,18.74,19.99c-26.95,5.93-14.81-11.01-14.06,23.07,2.06,1.9,3.61,4.1,6.25,5.38-.12,5.84-15.24-1.57-15.62-.77,1.57,5.08,5.72,8.09,9.37,11.53-1.82,3.27-3.81,5.48-7.81,6.15-.4.07-7.55-.57-7.81-2.31,4.89-2.61-2.57-12.3-5.47-25.38-2.66,9.12-.62,24.12-.78,25.38-.13,1.01-8.67-5.14,0,7.69-.11,1.28-3.11.61-3.12.77.11-2.41-2.3-1.16-3.12-1.54-9.49-4.34-8.56-11.32-9.37-13.84-6.4-19.98,5.46-45.01-7.81-26.15-4.81-3.6-9.88,1.52-10.93,1.54-7.32.12-17.09-3.25-24.99-2.31,3.93-6.4,16.28-4.76,17.96-5.38,22.06-8.14-16.62-2.9-19.52-3.08-5.35-.33-7.84.12-9.37-5.38.68-1.6,3.9-.31,4.69-.77,9.91-5.86,20.56-4.84,29.67-13.07q-6.25-.77-12.49-1.54c18.38-16.89-10.36-.35-17.96,2.31-8.54-1,21.89-19.67,0-10.77-7.44-1.92,15.95-24.54,10.93-27.68-27.76,24.07-42.33,39.48-17.96,3.84-13.04-5.6-22.44,36.34-35.92,20.76,2.62-2.19,5.64-14,7.81-17.69-10.59-1.28-13.06-15.27-12.49,3.08q-2.73,1.92-5.47,3.84c-4.49-48.06-12.7,34.16-19.52-8.46-3.25-2.76-9.88,22.04-12.49,25.38-9.69,12.38-1.12-8.65-10.93-15.38-.88-.6-2.35,2.51-3.9,1.54-12.37-26.07-.31,8.72-16.4-2.31,8.7,20.2-13.63-8.16-24.21,2.31-.6.6,8.03,13.29,8.59,14.61-41.12-2.3-19.19-.64,3.12,14.61-10.44-3.3-29.3-2.77-31.23-3.08-.87-.14-2.84-3.8-17.18-3.84,18.49-20.02-.39-4.87-4.69-16.92-.22-.62,6.74-9.71,7.81-10.77-25.78,5.07-6.84-19.76-17.18-19.99-5.33-32.23,2.33,19.01-7.81,18.46-2.1,9.68,3.65,8.67-1.56,12.3,14.06,12.66-2.68,5.37-3.12,6.15-1.41,2.52,7.25,4.84,7.81,13.84-1.49,1.63-4.36.32-6.25.77-7.24,1.7-8.88,3.03-9.37,3.08-14.49,1.49-11.62-12.91-16.4-23.07-8.12-3.13-18.94-.21-24.21-6.15-7.56-8.52,12.27-10.24-13.27-10.77q-1.95-3.84-3.9-7.69c2.72-7.09,2.32-9.57-4.69-3.08-11.4-1.27-6.09-9.53-6.25-10.77-.58-4.42,2.1-5.44,1.56-6.92-.63-1.75-25.55-28.47-17.96,2.31-18.49-3.88-9.24.17-11.71,2.31-12.73,11.01,3.2-12.55-16.4-20.76,1.22,32.97-28.4,20.56-24.99,36.91-1.91,1.27-25.3-25.04-13.27,6.92-32.19-6.53-.13,29.89-35.14,3.84v16.92c-8.66-1.04-28.36,5.26-24.21-4.61,9.43-12.17-12.58,1.9-18.74-3.08-.06-.25-2.5.9-4.69-2.31,2.16-3.16,4.54-2.09,4.69-2.31,2.26,4.91,21.21-3.58,20.3-5.38q-10.15,2.69-20.3,5.38c1.21-1.87,1.76-4.46,3.12-6.15,3.63-4.51,13.49-13.41,17.96-18.46-8.01-4.69-41.92-5.84-47.63-3.08-4.73-1.52-1.5-2.92-1.56-3.08,29.01-22.95,11.46-17.13,10.15-18.46-3.16-3.19,6.51-9.35-21.08-6.15.07-.3-.1-4.65,0-6.15.61-9.43,7.23-17.72-7.03-6.15-3.49-18.27-7.73-6.09-9.37-6.15-6.92-.24-11.01-39.51-20.3-4.61-2.31-16.14-11.63,2.36-12.49,15.38-19.18-7.17-21.87-.7-24.99-19.99-13.42,28.83-9.52-26.51-17.18,12.3-10.31-5.67-11.53-2.53-21.08.77,15.18,17.13,14.99,26.62-2.34,11.53-7.46,4.65,12.66,13.14-.78,13.07,6.26.63-3.13,11.42-3.9,11.53-1.61.23-30.73-23.38-8.59,2.31h-12.49c-2.03,13.73.84,25.48-8.59,16.15-1.04.44,3.59,19.54-10.93,1.54,1.26,18.02-2.34.43-14.06,3.08-.68,10.11-3.69,2.67-5.47,5.38-10,15.33,12.42,16.88,23.43,19.22.32,2.15-5.42,1.78-10.93,1.54-8.42-.37-7.66-5.46-13.27,6.15-42.64-29.94-33.19-8.15-.78,10-6.87,2.98-30.27-13.26-32.01-13.07l-2.34,2.31c33.14,27.92,22,13.04-7.81,13.84.07.48,6.67,4.76,7.81,5.38-1.09,3.77-6.18,2.12-4.69,7.69.35,1.31,17.91,9.92,18.74,13.07q-10.15,1.54-20.3,3.08c18.44,19.33,7.94,8.01-10.93,8.46-.85.02-5.68-1.62-6.25-1.54-11.57-28.14-2.5-21.34-14.06-6.15-1.1-2.41-3.92-5.42-4.69-3.84-.12,6.89-5.86,13.67-4.69,20.76-16.15-14.63-9.41,15.67-13.27,15.38-6.96-17.07-19.28-30.44-26.55-6.15-7.4-3.52-2.2,2-13.27,3.84-2.09,3.13-2.74,6.87-4.69,10-11.44,2.63-.17-13.43-20.3-19.22-4.19-4.16-1.98-20.36-9.37-14.61-1.7-6.78-9.34-10.47-4.69-14.61-1.73-2.95-4.16,2.05-6.25,2.31-12.94,1.57-1.31-9.21-1.56-10-.43-1.35-20.84,4.96-3.12-18.46-16.63,2.95-7.81-8.32-3.12-16.92-9.89,10.93-16.42,2.56-7.81-6.15-.38-1.5-4.45-.05-4.69-1.54-.87-5.51,2.64-10.44-5.47-25.38-5.38,14.1.34,28.92-.78,29.99-1.09,1.03-4.94-2.58-6.25,0-1.03,2.02,16.91,10.4-4.69,7.69,22.72,12.64-4.72,22.81-4.69,24.61.1,4.68,10.64,11.84-4.69,1.54-1.18,5.16,1.57,6.57,1.56,6.92-.01,1.18.04,4.39,0,4.61-2.51,14.19-6.38-16.47-10.93-6.15-3.49-6.16-10.29-2.27-11.71-3.08-15.71-22.48-5.18-5.07-9.37-3.08-1.03.49-7.78-19.74-4.69,4.61-11.28-9.54-18.06-17.4-13.27,1.54-15.69-9.9-6.49-2.98-13.27,1.54-.23.15-2.49-2.24-5.47,0-2.48-.63-3.28-2.2-3.12-4.61.03-.52,3.38-9.54,3.12-10-1.22-2.19-15.42,1.06-6.25-13.84-9.89-4.54-6.24-25.93-7.81-30.76-2.63-8.09-5.17,9.65-3.12,19.99-.83,1.47-4.56-2.15-6.25-2.31-1.54-.14-3.13.08-4.69,0-12.51-.68-21.44,1.76-21.86.77,14.33-17.64,19.12-15.29-6.25-10.77q7.81-7.69,15.62-15.38c.62-5.6-12.43,3.76-18.74-1.54-3.56-2.99,13.39-26.07,4.69-19.99,1.88-32.01-22.01,26.23-9.37-13.84-6.37-3.21-4.05,7.79-11.71.77.36,17.05-7.81,12.06-8.59,13.07-.75.98,1,16.8-5.47,20.76-8.53-5.71-17.69-8.91-27.33-12.3-.46-.16-1.1.17-1.56,0-7.22-2.6-9.64.34-10.15,0-2.35-1.55,5.86-5.24-17.96-10,2.59,1.23.31-21.81,0-23.07-5.54-22.81-2.54,9.62-3.12,10.77-1.09,2.15-7.78-11.45-.78,16.15q-12.88-2.69-25.77-5.38c13.7-8.36,14.5-19.63,1.56-12.3,26.89-23.69-15.19-15.23-14.84-.77-6.85-8.28-6.06,3.47-7.81,4.61-.18.11-2.22-2.83-3.9-1.54-5.49-12.42-11.19-3.9-10.93,3.08.1,2.56,6.67,8.53,3.9,12.3-1.36.49-4.86-16.56-23.43-3.08,8.61-13.43,14.49-30.68-6.25-24.61-1.37-1.1.06-2.67-2.34-3.08,27.07-25.58,32.09-20.73-2.34-19.99-7.88,21-14.16,5.95-10.15-10-17.29-18.62-16.74-2.8-17.96-2.31-3.65,1.47-5.94-1.64-6.25-1.54-.96.34-11.77,8.76-17.96,2.31-.7-.73-1.02-20.44-8.59-14.61-1.51,1.16,1.43,13.44-4.69,13.84-11.45.76-5.12-27.99-21.08-3.84,10.08,25.13-15.02-13.22-18.74,0-1.62,5.77,5.28,6.96,2.34,11.53-19.87-19.5-8.54-.45-8.59.77-.26,6.23-11.62-8.87-3.12,13.07q-1.56,3.08-3.12,6.15c-10.38-9.74-18.04-20.13-15.62-5.38.4,2.45,11.74,17.94-7.03-.77l-3.9,13.07c2.24,7.07,15.27,21.16,8.59,20.76-7.81-.47-11.9-23.1-24.21-5.38,50.4,32.46,13.14,12.54-15.62,7.69,6.36,7.93,11.5,14.39,20.3,19.22.99,4.35-2.65,2.05-9.37,1.54-33.21-2.54-2.83,7.9-22.64,27.68-11.93,1.58,3.46-5.34,3.9-34.6-3.76-5.53-9.52,31.1-16.4,5.38-33.01-8.35,1.21-30.28-15.62-44.6-4.52,23.11-15.56-.5-21.86,21.53-.64-1.43-3.98-2.24-4.69-1.54-17.81,17.66-3.61,13.37-2.34,16.15.83,1.83-11.51,13.12-20.3,5.38,0-1.54,0-3.08,0-4.61,10.87-8.88,32.27-42.73,0-21.53,0-2.56,0-5.13,0-7.69,9.07-3.81,13.79-12.08,0-7.69.01-34.35-.04-68.7,0-103.04,15.32,1.17-2.72,7.7,22.64,7.69,15.86,0,20.7-4.54,21.86-4.61,33.06-2.07,66.82-1.54,99.95-3.08-58.44,23.49,12.1,8.28,48.41,6.15,14.48-.85,29.23.67,43.73,0,.63-.03,2.49-3.05,3.12-3.08,5.31-.26,18.21,8.38,24.99-1.54,11.96,11.33,28.15.22,31.23,0,18.57-1.31,37.59-1.58,56.22-1.54v-3.08l-27.33-.77c39.75-7.46,80.52-10.24,121.03-11.53-9.72-4.31-13.88-2.34-24.21-6.15.73-2.92,3.73-5.93,4.69-7.69,1.73,4.93,14.85.23,19.52,0,16.5-.83,43.86,1.55,54.66,0,35.39-5.07-27.87-2.81-32.8-3.08-20.49-1.11,1.69-3.86,24.99-4.61.35-.01,5.9,3.09,6.25,3.08,8.23-.31,37.83-5.38,48.41-6.15,18.06-1.31,36.55-1.31,54.66-1.54v-3.08c-31.44,1.34-62.55-.5-92.92-5.38,15.92,4.35-25.27,5.48-24.99,0,21.19-2.71,45.92-7.06,67.93-2.31,34.54-15.23,73.21-7.91,110.1-8.46-26.35-6.73-55-.13-80.43-10-15.69-.72-29.92,19.12-48.41-3.08q-17.18-3.08-34.36-6.15c-20.45,13.16-13.42,4.11-20.3,1.54-6.92-2.59-6.69,1.52-13.27-4.61-6.79-6.32-1.25-6.46-1.56-6.92-7.54-10.95-32.83-11.34-45.29-16.92,14.96-8.63,37.06-9.63,34.36-19.22,34.21,1.71,68.34,4.73,102.29,9.23,21.24.13,31.12-4.63,32.8-4.61,32.72.36,117.4,8.14,24.99,10.77,30.57,1.13,60.9,1.75,90.58,9.23,15.83-10.88,33.61-1.07,51.54-7.69,19.64,9.36,4.2-2.36-10.15,8.46,55.36,3.54,114.83,4.15,171.79,5.38Z"/>
        <path class="cls-17" d="M534.86,0c-1.69.28-3.43.47-5.21.6-.36.03-.72.06-1.08.08-.23.01-.45.03-.68.04-.65.04-1.3.07-1.95.09-.29.01-.58.02-.87.03-2.55.08-5.11.09-7.6.1-2.61.01-5.13.02-7.47.12-2.35,19.33-91.16,11.72-121.81,13.84,21.37,3.89,43.35,2.01,64.81,3.08,2.71,9.59-19.4,10.6-34.36,19.22,12.46,5.59,37.75,5.97,45.29,16.92.32.46-5.22.6,1.57,6.92-6.09-3.92-12.42-.23-16.4,4.62-21.69-2.71-59.12,20.55-30.46-5.39-43.27.16-21.51-8.19-21.86-13.84-.43-6.85-18.89-4.37-22.64.77-2.14-28.08-12.91-23.57-14.06-24.61-1.76-1.57-5.38-19.34-23.42-6.15-16.56-2.15-33.29-1.23-50.76-1.54-44.07-.78-87.89-4.57-131.96-4.61-13.06-6.93-15.7-8.5-14.68-9.26.04-.03.09-.06.14-.09.05-.03.11-.06.18-.08.26-.11.62-.21,1.03-.32.18-.05.37-.1.58-.15.4-.11.83-.23,1.28-.39h392.39Z"/>
        <path class="cls-17" d="M1320.52,22.59c-2.87-3.52-9.89-5.34-14.05-4.61-4.77.83-.17,7.4-23.43,1.54-1.59-22.13-28.46-12.97-17.18,13.84-55.36-6.53-35.96,6.14-36.7,8.46-1.23,3.89-77.85,8.76-81.99,8.46-8.79-.65-21.02-4.64-28.11-9.23-27.22,8.06-14.51-1.55-26.55-6.15-1.46-.56-27.42-3.17-21.86,10.76-44.12,10.58-14.46,16.06-13.27,17.69.27.37-2.43,3.63,0,9.23.67,1.55,6.08,5.12,6.24,6.15,1.39,8.86-14.02-1.54-21.08,5.38-4.57,4.49-1.05,8.92-2.34,11.54-.77,1.56-22.2-5.09-3.91,14.61-33.57-27.89-18.19-5.16-19.52-3.85-2.19,2.17-9.59-3.05-17.96,8.46-9.68,3.7-32.33-16.43-40.6,6.15q-22.25.77-44.51,1.54c.18-.06-.6-2.6.78-3.07,22.51-1,47.84-16.65,69.5-25.38-19.33-.71-34.05-8.39-52.32-11.54-19.81-3.4-40.9-3.79-60.91-6.15-9.28-5.64,46.45-21.04,48.42-23.07,1.99-2.04-3.26-.33-2.35-4.61,23.55.51,47.5,4.08,71.06,0-44.3-3.62-88.01-8.56-131.18-15.38-10.96-11.53-26.33-7.99-11.71-16.15-9.53-8.29,9.82-4.76,13.27-14.61,1.8.39,5.46.46,10.04.25.47-.02.95-.05,1.44-.07,3.98-.22,8.55-.63,13.17-1.2.83-.11,1.67-.22,2.5-.33.47-.06.93-.13,1.4-.2.33-.04.65-.09.97-.14s.65-.1.97-.15c.33-.05.66-.1.99-.16.53-.08,1.07-.17,1.59-.26.65-.11,1.28-.22,1.91-.34h436.97c-.09.06-.18.12-.26.17-.22.15-.44.29-.64.43-.27.18-.53.37-.77.54-.25.19-.49.36-.7.53-.05.04-.09.07-.13.1-.13.11-.25.21-.36.31-.14.11-.26.22-.37.32-.11.1-.21.2-.29.29-.09.1-.18.19-.25.28-.16.18-.28.35-.36.5-.05.08-.09.16-.11.23-.13.33-.11.61.05.84.03.04.07.08.11.12,2.01,2.09,16.24.02,20.53,4.06.08.07.16.16.24.24.52.58.86,1.27.95,2.1,1.45,13.09-17.53-5.07-27.33,11.53Z"/>
        <path class="cls-36" d="M1599.28,499.37c-5.9-4.78-5.65-1.8-7.84.63h-254.61c-.21-.22-.44-.43-.69-.63-.2.24-.41.45-.62.63h-8.17c-4.38-1.91-8.75-4.78-11.12,0h-3.21c-1.58-.87-3.12-2.06-4.21-2.17-.25-.03-3.01-3.01-3.9-3.08-19.73-1.39-54.93,10.29-68.72,0-9.3,7.81-23.99,5.05-34.36,0-2.32,2.74-4.51,4.37-6.53,5.25h-8.56c-2.46-.97-4.26-2.36-5.21-2.17-.51.81-1.18,1.54-1.99,2.17h-173.63c-.8-.2-1.6-.41-2.41-.63-.13.22-.27.43-.42.63h-42.19c-.89-1.07-1.78-2.3-2.68-3.71-2.49,1.71-4.75,2.9-6.8,3.71h-15.15c-1.88-.55-3.36-.87-4.66,0h-346.79c-1.56-1.23-2.71-2.07-2.97-2.17h-.03c-.06,0-.15.05-.28.14-.06.04-.14.09-.22.15l-.21.15s-.04.04-.07.06c-.16.12-.34.26-.54.4-.17.12-.35.25-.54.39-.16.11-.32.22-.5.33-.29.19-.59.37-.92.55h-5.72c-.51-.72-.88-1.71-1.19-2.49-.05-.12-.1-.24-.14-.35-.21-.5-.39-.84-.57-.87-6.35-.81-8.88,3.1-9.37,3.08-2.28-.1-9.86-2.47-17.27-1.73-.17.02-.34.04-.51.06-.44.05-.87.11-1.3.19-.26.04-.53.09-.79.15-.27.06-.53.12-.79.18-.79.2-1.56.44-2.31.74-.25.1-.5.2-.74.31-.49.22-.97.46-1.44.73h-1.54s-.01-.02-.01-.02c-.04-.22-.08-.43-.14-.64-.05-.21-.11-.43-.18-.64-.12-.39-.26-.77-.43-1.14-.09-.2-.18-.4-.29-.6-.63-1.23-1.47-2.32-2.47-3.27-.14-.14-.27-.27-.42-.39-.29-.26-.59-.51-.91-.74-.17-.13-.35-.26-.53-.38-.24-.17-.5-.34-.75-.49-.38-.23-.77-.45-1.17-.65-.24-.12-.48-.24-.73-.35-.4-.18-.81-.34-1.23-.5-.44-.16-.88-.31-1.33-.43-.2-.07-.41-.13-.61-.17-.25-.07-.5-.13-.76-.18-2.2-.47-4.47-.57-6.59-.28-.4.05-.79.12-1.18.21-.58.13-1.15.28-1.69.47-.19.07-.37.13-.54.2-.36.14-.7.3-1.04.47-.16.09-.33.17-.49.27-.32.18-.63.38-.93.6-.14.1-.29.21-.43.33-7.39-9.69-7.96.17-12.49,0-.39-.02-4.82-4.57-6.25-4.62-2.52-.08-7.22,6.02-14.05-1.53-9.63,4.35-24.44-1.74-29.67,10.76q-7.81-2.31-15.62-4.61c-.19.23-.39.46-.58.67-1.53,1.67-3.21,2.8-4.97,3.59-.12.06-.25.11-.37.16-.35.16-.71.29-1.06.42-.18.07-.36.13-.54.18-.18.06-.36.12-.54.17-.36.11-.72.2-1.08.29-1.1.28-2.2.48-3.29.66-.35.06-.7.12-1.05.17-.04.01-.08.01-.11.02-.23.03-.47.07-.7.11-.23.03-.46.07-.69.11-.18.03-.36.06-.54.09-.9.15-1.77.32-2.61.53-.17.04-.33.08-.49.13-.16.04-.32.09-.48.14-.29.08-.57.18-.85.28-.47.17-.93.37-1.38.6H.12c0-3.8,0-7.6-.01-11.4,5.42.53,5.06-10.15,6.25-16.92,4.71,2.07,8.89,5.09,14.05,6.16,2.29.47,11.48,2.38,12.5.76,3.4-45.7,11.45-.49,13.27.77,7.23,5.01,10.74-3.58,11.71-9.22v-.06c-.04-1.32,1.39-1.5,1.56-3.02,11.92-5.92,7.18,19.37,12.5,3.08,18.9-7.81,20-2.84,21.08-3.08.89-.2,11.35-8.22,16.4-4.61-.09,1.32-4.36,5.15.78,9.22,4.92-4.25,15.41-8.37,20.3-3.07l14.06-13.84c9.78,16.89,8.72,8.46,12.49,9.22,21.42,4.36,16.71-6.61,26.55-9.22,2.33-.62,34.32.56,33.58-2.31-16.93-19.1-8.77-26.08,4.68-5.38-.28,1.45.23,3.13,0,4.61-.61,3.96-3.02,22.21-.78,23.07,23.15,8.91,10.68-16.4,23.43-24.61,5.96,6.54,9.55,24.24,10.93,24.61,9.37,2.51,10.9-12.49,11.71-13.84,19.25-.89,39.34-6.36,57.78-1.54,4.87,11.54,9.53,4.99,20.3,4.61,11.01-.39,11.4,1.15,21.87-3.07,2.38-.96,3.66-3,5.46-4.62.29,17.17,21.8,15.42,18.74-3.07,5.54,10.59,5.17,2.9,7.03,3.07,7.59.72,14.28,1.01,21.87,0,.52,2.31-3.43,19.71,10.15,10.77,9.29-6.12-5.23-16.58,15.61-26.15-7.21,26.89.81,29.16,17.18,7.69,18.75,6.42,24.09,5.21,42.17-7.69,27.58,14.94,38.77,1.48,46.85,10.77q7.03-1.54,14.05-3.08c7.48,13.93,16.9-.94,17.96-1.53,6.56-3.69,12.71-9.99,19.52,7.69,25.16.81,16.24-7.76,21.87-9.23.9-.24,3.11,1.22,17.96,1.54,7.15.15,15.86,2.84,22.64,3.07,20.18.71,36.04-4.26,37.48-3.07,4.44,3.64-6.7,5.21,8.59,9.22,11.78,3.1,20.15-.3,31.24,0,1.56.05,3.12-.04,4.68,0,7.87.21,14.05.14,21.87,0,.52-.01,1.04.01,1.56,0,.86-.01,11.4,3.05,17.18,1.54,2.44,4.61,2.8-1.46,4.68-1.54,19.28-.76,38.37-3.11,57.78-1.53q5.86-.77,11.72-1.54c3.84-20.02,10.62-5.68,12.49-15.38,10.14,8.15,9.44,1.5,10.93,1.54.53,0,2.61,3.63,8.59,3.07,3.73,7.57,20.81-13.22,28.89,15.38,12.49-1.6,19.46,2.88,21.08,3.08,5.55.69,4.44-1.56,4.69-1.54,6.33.43,10-.65,16.4,3.08-.05-.22-.1-.43-.14-.63-.09-.38-.17-.75-.25-1.09-.15-.65-.28-1.24-.4-1.77-.03-.13-.06-.26-.09-.39-.08-.36-.15-.69-.22-1-.08-.37-.16-.72-.24-1.06-.11-.49-.22-.96-.32-1.43-.03-.11-.05-.21-.07-.32-.2-.85-.4-1.75-.66-2.9-.07-.3-.14-.62-.22-.96-.07-.33-.15-.67-.23-1.04-.05-.18-.09-.37-.13-.57.05.18.11.35.17.5t.01.02c.02.07.05.14.08.2.05.12.1.23.16.33.01.02.02.04.04.06.03.07.07.14.11.2,0,.02.02.03.03.05.08.14.16.26.26.38.11.14.22.28.35.4.04.05.08.1.13.14.02.04.05.06.07.07.08.09.18.17.27.24.08.08.18.15.27.21t.02,0c.11.09.23.17.35.24.13.1.27.18.42.25.13.07.27.13.41.19.18.09.36.17.55.23.2.08.41.15.63.21.11.04.23.07.34.09.11.03.22.06.34.08.38.08.76.15,1.16.2.25.04.5.07.76.09.08.01.16.01.24.02.25.02.51.03.77.04.02.01.04.01.06,0,.54.02,1.1.02,1.68,0,.45-.01.9-.04,1.36-.07.1,0,.21-.01.32-.02.37-.03.75-.07,1.13-.11.94-.11,1.92-.24,2.9-.4,1.24-.2,2.5-.44,3.75-.7.42-.09.84-.18,1.26-.27,1.35-.29,2.68-.61,3.98-.93.61-.15,1.22-.31,1.81-.45.59-.15,1.18-.3,1.75-.44.43-.11.85-.21,1.26-.32.97-.24,1.89-.47,2.74-.67.49-.12.97-.22,1.41-.32.45-.1.88-.18,1.28-.26.4-.07.78-.13,1.13-.18,1.76-.23,23.59,9.95,10.15-19.22,2.87-3.73,45.48,3.37,18.74,10.77q.39,1.92.79,3.84c9.77-5.53,15.77,6.11,26.54,1.54.56-.24,8.44-7.88,8.59-8.46,1.59-5.85-21.24-25.12,3.91-10,2.15,1.3,7.17,8.96,9.37,9.23,6.09.76,4.47-14.24,31.23,7.69,15.26-2.21,20.36,4.91,21.87,4.61,1.4-.28,4.77-12.53,11.71-.76,1.68,2.84.26,27.44,22.64,17.68,5.07-2.21,3.67-7.94,3.91-12.3,9.64-.67,18.77-2.38,28.11,1.54.64,19.18,15.36.54,15.61-.77.64-3.23-10.96-25.65,16.4-11.54,3.73-9.57-1.28-12.5,14.84-7.69,4.23,1.27,7.74,5.96,8.59,6.15,2.65.6,15.64-.4,20.3,0,.67.06,2.49,3.05,3.12,3.08,5.73.25,35.69-5.2,37.48-4.61,5.02,22.57,5.83-2.86,28.11,1.53,17.76,3.51,11.3,26.39,14.06,26.15,5.95-7.22,13.07-7.57,18.74,0,4.87-3.72-7.7-22.05,22.64-26.91.42.97-6.14,3.11-7.8,6.15-4.74,8.64,9.81,3.26,13.27-2.31,24.13,12.56,13-4.15,23.43-3.08,6.1.63,7.7,15.1,10.93,18.46,5.84,0-4.9-16.78,10.15-9.23-10.18,11.56,19.46-2.2,48.41,1.54-.08,3.63-.8,6.76,2.34,6.15,7.97-10.36,17.94-11.54,30.46-10.76,17.36,1.07,16.08,6.25,28.11,6.15,13.69-.11,27.29-6.99,41.38-4.62,1.92-1.71-.85-.6-3.9-3.07q3.12-.77,6.24-1.54c-.03,18.46.04,36.91,0,55.37Z"/>
        <path class="cls-32" d="M1599.28,65.66h-10.15c21.55,10.57-69.56,7.96-96.04,6.92,33.9-12.63,20.54-2.8-7.03-13.08-15.48,8.78-20.74,2.78-21.86,3.08-1.52.4-7.3,16.8-24.99,0-8.13,6.48-22.8,7.99-29.67-1.54-14.44,13.32-38.43-1.36-45.29,12.31-16.85-1.29-34.69-7.95-35.92,1.53-41.04.11-108.11-3.55-17.18-4.61,1.57-.42-.74-2.81-1.56-3.08-5.67-1.79-100.54-.81-118.69-7.69-11.63,5.92-12.62,4.36-13.27,4.62-1.06-11.61-19.88-2.13-36.7-7.69,3.65,2.81.78,16.55,1.56,16.92,16.2,7.68,17.45-17.61,32.01-6.16,1.58,1.24,13.16,20.48,0,20.77,8.61,15.25-1.21,15.96-1.56,16.92-.64,1.77,8.97,11.33-18.74,12.3,4.48,11.69,13.95-3.78,19.52,11.53,25.08.39,3.1,21.98,40.61,0,9.03,3.2,19.16,14.8,20.3,15.38,20.86,10.63,56.31,6.26,22.64-2.3,15.7-7.31,14.87-14.41,17.96-16.15,29.84-8.54,24.53,2.8,25.77,3.84,9.51,7.99,23.68,9.69-1.56,15.38q5.86,11.15,11.71,22.3c26,4.5,12.05-5.34,18.74-10.76,14.48-.7,8.14-10.87,20.3-9.23q10.94,10.77,21.87,21.53c2.17-6.31,8.44-6.55,14.05-6.15,5.5,6.01,28.27,1.19,42.17,3.08,1.53-10.45,21.53-10.47,24.21-5.39,1.29,2.47-1.48,9.62-.79,10,1.54.84,23.97.73,29.68,1.54.73.1,7.17,3.86,14.05,4.61.55.06,1.12-2.51,10.93-1.54.69.07,2.44,3.01,3.13,3.08,10.9,1.15,18.64-1.89,22.64-1.54,3.07.27,47.42,4.74,38.26,9.23-24.31,1.2-69.21-4.53-90.58-1.54-1.17.17-21.95,5.98-22.64,6.92-4.34,5.92,19.31,11.66,19.52,17.69,19.64-3.52,20.48,14.78,21.87,15.38,1.5.65,17.19-8.49,21.86,16.92,23.84-.12,53.42,3.41,37.48,6.15-5.41.93-14.99-6.74-28.11,4.61-11.08-8.67-34.4-.41-53.1-3.07-5.92-12.02-52.26-2.64-79.65-3.08-24.27-.38-48.48-.29-28.11-9.23-45.43-2.17-90.4,2.9-135.86-1.54,17.79-2.99,37.1-5.23,54.66-4.61,9.99-16.64,25.87-2.76,40.6-10.77,26.73,12.87,13.77-1.97,21.86-4.61,7.8-2.54,15.73,12.87,39.83-8.46-9.96-11.12,10.17-22.12,19.52-13.07,15.23-23.01-20.39-5.07-39.04-6.15-9.08,13.52-12.58-.12-24.99-1.54-14.98,7.91-35.4.84-37.48,1.54-4.57,1.52,9.49,8.22-42.17,7.69-32.47-10.36,43.41-4.17-4.68-13.84-6.73-1.36-2.8-4.8-31.24,0q-4.68-4.62-9.37-9.23c-1.33-.43-5.22,1.95-13.27,1.54-4.73-7.26-38.54-17.17-49.19-20-4.35-1.15-10.02,3.41-14.06,0-5.66-4.78.98-9.76-.78-13.07-1.74-3.28-27.52-4.34-30.45,2.31-12.82-4.26-26-2.04-39.05-3.08-6.23-.5-54.32-15.26-60.12-1.54-12.71-7.28-41.81-10.34-55.44-3.07-30.16-11.88-80.32.3-44.51-12.31q22.26-.77,44.51-1.54c8.27-22.58,30.92-2.45,40.6-6.15,8.37-11.51,15.77-6.29,17.96-8.46,1.33-1.31-14.05-24.04,19.52,3.85-18.29-19.7,3.14-13.05,3.91-14.61,1.29-2.62-2.23-7.05,2.34-11.54,7.06-6.92,22.47,3.48,21.08-5.38-.16-1.03-5.57-4.6-6.24-6.15-2.43-5.6.27-8.86,0-9.23-1.19-1.63-30.85-7.11,13.27-17.69-5.56-13.93,20.4-11.32,21.86-10.76,12.04,4.6-.67,14.21,26.55,6.15,7.09,4.59,19.32,8.58,28.11,9.23,4.14.3,80.76-4.57,81.99-8.46.74-2.32-18.66-14.99,36.7-8.46-11.28-26.81,15.59-35.97,17.18-13.84,23.26,5.86,18.66-.71,23.43-1.54,4.16-.73,11.18,1.09,14.05,4.61,9.8-16.6,28.78,1.56,27.33-11.53-.09-.83-.43-1.52-.95-2.1-.08-.08-.16-.17-.24-.24-4.29-4.04-18.52-1.97-20.53-4.06-.04-.04-.08-.08-.11-.12-.16-.23-.18-.51-.05-.84.03-.07.07-.15.11-.23.09-.15.21-.32.36-.5.07-.09.16-.18.25-.28.09-.09.19-.19.29-.29.11-.1.23-.21.37-.32.11-.1.23-.2.36-.31.04-.03.08-.06.13-.1.21-.17.45-.34.7-.53.24-.17.5-.36.77-.54.2-.14.42-.28.64-.43.08-.05.17-.11.26-.17h269.29c-.14,21.9-.25,43.79-.22,65.66Z"/>
        <path class="cls-22" d="M1599.28,499.37v.63h-7.84c2.19-2.43,1.94-5.41,7.84-.63Z"/>
        <path class="cls-32" d="M465.5,61.04c6.59,6.13,6.35,2.03,13.27,4.61,6.88,2.57-.15,11.63,20.3-1.54q17.18,3.08,34.36,6.15c18.49,22.2,32.73,2.36,48.41,3.08,25.43,9.86,54.07,3.27,80.43,10-36.89.55-75.56-6.77-110.1,8.46-22.01-4.75-46.74-.41-67.93,2.31-.29,5.48,40.91,4.35,24.99,0,30.38,4.88,61.48,6.72,92.92,5.38v3.08c-18.11.22-36.6.23-54.66,1.54-10.58.77-40.19,5.85-48.41,6.15-.35.01-5.9-3.09-6.25-3.08-23.3.76-45.48,3.5-24.99,4.61,4.92.27,68.19-1.99,32.8,3.08-10.8,1.55-38.15-.83-54.66,0-4.67.23-17.79,4.93-19.52,0,10.03-18.49-35.94-7.32-37.48-5.38-4.81,6.02,1.1,14.73,7.03,11.53,1.7-.92-2.25-3.14-.78-3.84,20.29-9.7,14.73,2.26,21.08,5.38,1.68.29,4.28-.44,5.47,0,10.33,3.82,14.49,1.84,24.21,6.15-40.51,1.29-81.28,4.07-121.03,11.53l27.33.77v3.08c-18.63-.05-37.65.23-56.22,1.54-3.08.22-19.28,11.33-31.23,0-6.78,9.92-19.68,1.28-24.99,1.54-.63.03-2.49,3.05-3.12,3.08-14.5.67-29.25-.85-43.73,0-36.31,2.13-106.85,17.34-48.41-6.15-33.13,1.54-66.89,1.01-99.95,3.08-1.16.07-6,4.61-21.86,4.61-25.36,0-7.32-6.52-22.64-7.69,0-7.69,0-15.38,0-23.07,15.22.19,23.24-4.67,28.89-6.15.87-.23,11.78,6.58,11.71-6.15-.03-6.23-6.7-3.23-3.12-7.69,13.19,2.85,31.79-3.86,38.26,4.61,4.56-5.72,13.65-2.69,20.3-1.54,10.15-9.77,23.08-2.48,32.8-13.84h23.43c-3.03-11.19,12.33-9.91,13.27-11.53.39-.67-3.42-6.55,1.56-15.38,4.16-7.37,24.61-5.39-39.04-11.53,6.63-4.59,18.39,3.35,18.74-7.69,3.94,1.91,21.59,5.3,24.21,4.61,1.99-.53,6.78-13.71,37.48-4.61,6.33-10.7,31.29-.32,35.92,9.23,8.39-3.97,13.17-.02,18.74,6.15,3.66-5.5,11.19-6.35,17.18-3.08,8.27-11.83,22.16,3.63,30.45-6.92-32.1-8.31-9.83-11.24-14.06-26.91-2.51-9.3-9.9-.55-10.93-7.69,17.47.31,34.2-.62,50.76,1.54,18.05-13.19,21.67,4.58,23.43,6.15,1.15,1.04,11.92-3.47,14.06,24.61,3.76-5.14,22.22-7.63,22.64-.77.35,5.65-21.41,14,21.86,13.84-28.66,25.93,8.77,2.68,30.45,5.38,3.98-4.85,10.31-8.54,16.4-4.61Z"/>
        <path class="cls-6" d="M1599.28,65.66c.05,35.37-.04,70.75,0,106.12-8.18,1.66-16.7,1.59-24.99,1.54-.52,0-1.04,0-1.56,0-7.02-.1-34.91-3.51-36.7-3.08-1.39.33-.52,2.83-.78,3.08-.16.15-2.89.76-3.12,3.08-4-.35-11.74,2.68-22.64,1.54-.69-.07-2.44-3.01-3.12-3.08-9.81-.98-10.38,1.6-10.93,1.54-6.88-.75-13.32-4.51-14.06-4.61-5.71-.81-28.13-.7-29.67-1.54-.69-.38,2.08-7.53.78-10-2.67-5.08-22.67-5.06-24.21,5.38-13.9-1.89-36.67,2.93-42.17-3.08-5.62-.4-11.89-.16-14.06,6.15q-10.93-10.77-21.86-21.53c-12.17-1.64-5.83,8.53-20.3,9.23-6.69,5.42,7.26,15.26-18.74,10.77q-5.86-11.15-11.71-22.3c25.24-5.69,11.07-7.39,1.56-15.38-1.24-1.04,4.07-12.38-25.77-3.84-3.09,1.74-2.26,8.84-17.96,16.15,33.67,8.57-1.78,12.93-22.64,2.31-1.14-.58-11.26-12.18-20.3-15.38-37.5,21.98-15.52.39-40.6,0-5.57-15.32-15.05.16-19.52-11.53,27.71-.97,18.1-10.53,18.74-12.3.35-.96,10.17-1.66,1.56-16.92,13.16-.29,1.58-19.52,0-20.76,1.73.46,2.92-2.99,3.12-3.08.65-.26,1.65,1.3,13.27-4.61,18.15,6.87,113.02,5.89,118.69,7.69.82.26,3.13,2.66,1.56,3.08-90.94,1.06-23.86,4.72,17.18,4.61,1.23-9.49,19.07-2.82,35.92-1.54,6.86-13.66,30.85,1.01,45.29-12.3,6.87,9.53,21.54,8.02,29.67,1.54,17.69,16.79,23.47.4,24.99,0,1.12-.3,6.38,5.69,21.86-3.08,27.57,10.27,40.93.44,7.03,13.07,26.48,1.04,117.59,3.65,96.04-6.92h10.15Z"/>
        <path class="cls-32" d="M296.83,22.59c-49.54-4.73-97.55,7.06-146.02,6.16-19.98,16.93-5.88,14.42-3.9,15.38-.35,11.03-12.11,3.1-18.74,7.69-17.14-1.66-36.01-4.7-53.88-3.08-.68.06-2.44,3.01-3.12,3.08-6.04.59-12.75-.67-18.74,0-.82.09-3.86,4.51-4.69,4.61-9.6,1.15-14.83-1.62-15.61-1.54-.6.06-6.25,5-10.94,4.61-9.08-.75-3.88-12.71-21.08,4.62.03-21.37-.02-42.74-.03-64.12h142.39c-.45.16-.88.28-1.28.39-.21.05-.4.1-.58.15-.41.11-.77.21-1.03.32-.07.02-.13.05-.18.08-.05.03-.1.06-.14.09-1.02.76,1.62,2.33,14.68,9.26,44.07.04,87.89,3.83,131.96,4.61,1.03,7.15,8.43-1.6,10.93,7.69Z"/>
        <path class="cls-17" d="M128.17,51.82c63.66,6.15,43.2,4.17,39.04,11.53-4.98,8.83-1.17,14.71-1.56,15.38-.94,1.62-16.3.35-13.27,11.53h-23.43c-9.72,11.37-22.65,4.07-32.8,13.84-6.65-1.15-15.74-4.18-20.3,1.54-6.47-8.47-25.07-1.76-38.26-4.61-17.45-3.78,10.23-15.45-22.64-10.77-7.06-1.67-1.28-10.11-14.84-7.69,0-6.15,0-12.3,0-18.46,17.2-17.33,12-5.37,21.08-4.61,4.69.39,10.34-4.55,10.93-4.61.78-.08,6.01,2.69,15.62,1.54.82-.1,3.87-4.52,4.69-4.61,6-.67,12.7.59,18.74,0,.68-.07,2.45-3.01,3.12-3.08,17.86-1.62,36.74,1.42,53.88,3.08Z"/>
        <path class="cls-3" d="M40.71,108.72c.06,12.74-10.84,5.92-11.71,6.15-5.65,1.48-13.67,6.34-28.89,6.15,0-7.18-.01-14.35,0-21.53,13.11,4.24,29.39,1.74,40.6,9.23Z"/>
        <path class="cls-32" d="M37.59,101.03c-3.57,4.46,3.09,1.46,3.12,7.69-11.21-7.48-27.49-4.99-40.6-9.23,0-5.64,0-11.28,0-16.92,13.55-2.42,7.78,6.02,14.84,7.69,32.87-4.68,5.19,6.99,22.64,10.77Z"/>
        <path class="cls-28" d="M1599.28,171.78c0,1.54,0,3.08,0,4.61-13.71-.75-26.56,2.32-24.99-3.08,8.28.05,16.81.12,24.99-1.54Z"/>
        <path class="cls-23" d="M1599.28,179.47c0,2.05,0,4.1,0,6.15-15.87-1.91-16.4-5.55,0-6.15Z"/>
        <path class="cls-32" d="M987.88,48.74c-23.56,4.08-47.51.51-71.06,0-56.96-1.23-116.42-1.84-171.78-5.38.29-.22.58-.43.87-.62.03-.03.07-.05.1-.07.05-.04.09-.07.14-.1.23-.16.46-.31.69-.45.17-.1.33-.2.5-.3.25-.15.51-.3.76-.44.34-.19.68-.36,1.02-.52.2-.1.39-.19.59-.28.03-.01.07-.03.1-.04.3-.14.61-.27.91-.39.05-.02.09-.04.14-.06.41-.16.81-.3,1.2-.43.11-.04.21-.08.32-.11.03-.01.07-.02.1-.03.05-.02.11-.03.16-.05.18-.05.35-.1.52-.15.36-.11.72-.2,1.07-.28.24-.06.48-.11.71-.15.25-.05.5-.1.74-.14.1-.02.2-.03.29-.05.27-.04.53-.08.79-.11.27-.03.53-.06.79-.08.26-.03.51-.05.75-.06.04-.01.07-.01.1-.01.04,0,.08,0,.12-.01.52-.03,1.02-.03,1.48-.03.12,0,.24,0,.36.01.17,0,.33,0,.48.01.16.01.31.01.46.02.15,0,.29.01.43.03.14.01.27.02.4.03.13.01.26.03.38.04.3.03.56.06.8.1.09,0,.17.02.24.04.06.01.11.02.16.03.08.01.15.02.22.04.06,0,.12.02.18.03.06.01.11.02.15.03s.08.01.11.01h-.01s-.05-.03-.08-.04c-.02-.01-.06-.02-.09-.03-.04-.01-.08-.03-.12-.04-.08-.03-.16-.06-.26-.09-.07-.03-.14-.06-.22-.08-.21-.08-.45-.17-.74-.28-.16-.06-.32-.13-.51-.2-.1-.04-.2-.08-.3-.12-.16-.07-.34-.14-.52-.21-.59-.24-1.28-.53-2.07-.88-.29-.12-.6-.26-.93-.41-.97-.43-2.08-.94-3.33-1.54-17.93,6.61-35.71-3.2-51.54,7.69-29.68-7.48-60-8.1-90.57-9.23,92.4-2.63,7.72-10.41-24.99-10.77-1.68-.02-11.56,4.75-32.8,4.62-33.95-4.5-68.08-7.52-102.29-9.23-21.46-1.07-43.44.81-64.81-3.08,30.65-2.12,119.46,5.49,121.81-13.84,2.34-.1,4.86-.11,7.47-.12,2.49-.01,5.05-.02,7.6-.1.29,0,.58-.02.87-.03.65-.02,1.3-.05,1.95-.09.23-.01.45-.03.68-.04.36-.02.72-.05,1.08-.08,1.78-.13,3.52-.32,5.21-.6h358.38c-.63.12-1.26.23-1.91.34-.52.09-1.06.18-1.59.26-.33.06-.66.11-.99.16-.32.05-.65.1-.97.15s-.64.1-.97.14c-.47.07-.93.14-1.4.2-.83.11-1.67.22-2.5.33-4.62.57-9.19.98-13.17,1.2-.49.02-.97.05-1.44.07-4.58.21-8.24.14-10.04-.25-3.45,9.85-22.8,6.32-13.27,14.61-14.62,8.16.75,4.62,11.71,16.15,43.17,6.82,86.88,11.76,131.18,15.38Z"/>
        <path class="cls-32" d="M636.5,145.63c11.09-2.06,17.11,9.01,18.74,9.23,1.82.24,21.01-12.76,22.64,13.07,15.29.46,11.77,9.89,12.49,10.77,6.63,8.04,59.97-2.42,64.81,16.15,27.99-3.92,57.29-.61,85.89,0,13.24,7.33-64.86,1.83-60.91,10.77-30.45-3.17-60.75,3.22-90.58-1.54-12.66,6.15-38.23,6.07-51.54,0-18.93,5.12-38.25,9.84-23.43-3.08-31.8,1.75-64.06-3.45-95.26,1.54-15.47-9.7-25.56,2.3-40.6-7.69-27.81,10.97-45.52-1.39-57.78,7.69-33-4.8-67.19-2.69-100.73-5.38,25.66-1.12,50.48-4.03,75.74-8.46,3.09-8.33,10.12-13.57,18.74-12.3,8.49,18.89,25.53,2.01,37.48,4.61-9.3-16.35,11.58-12.42,15.62-24.61,18.48,7.41,20.97-12.82,40.6-1.54,4.14-11.03,35.25-7.2,38.26,5.38,1.44,6.02-3.33,11.97-.78,13.07,17.53.02,35.2,6.01,53.1,7.69,5.17-37.89,24.29-24.25,26.55-24.61.95-.15,5.75-9.8,10.93-10.77Z"/>
        <path class="cls-32" d="M1207.3,173.32c-16.66-.86-14.01-3.01-14.84-3.08-4.22-.33-6.81,1.96-12.49,1.54-.28-.02-4.4-3.06-4.69-3.08-8.31-.58-15.13,3.49-23.43,3.08-.59-.03-4.28-4.37-10.93-4.61-10.35-.39-33.88-2.55-35.92,3.08-3.36-3.17-9.96-4.02-14.06-3.08-6.44,1.49,3.15,10.39-43.73,4.61v-3.08c15.26-.42,17.18-11.24,29.67-7.69,15-17.92,20.47-1.44,46.85-12.3,4.84-4.88-28.4-9.7-26.55,0-20.14.18-40.86,4.91-59.34-6.15-10.37,5.69-24.09,5.93-35.92,4.61-30.34-3.39,29.27.83,11.71-9.23,5.8-13.72,53.89,1.04,60.13,1.54,13.04,1.04,26.23-1.18,39.04,3.08,2.93-6.65,28.71-5.58,30.45-2.31,1.76,3.31-4.88,8.3.78,13.07,4.04,3.41,9.71-1.15,14.06,0,10.66,2.83,44.46,12.74,49.19,19.99Z"/>
        <path class="cls-6" d="M426.45,114.87c-.96,1.76-3.95,4.77-4.69,7.69-1.19-.44-3.79.29-5.47,0-6.35-3.12-.8-15.09-21.08-5.38-1.47.7,2.49,2.93.78,3.84-5.93,3.19-11.84-5.51-7.03-11.53,1.54-1.93,47.51-13.1,37.48,5.38Z"/>
        <path class="cls-28" d="M1572.74,173.32c-6.33,5.13-29.8,4.44-37.48,0,.26-.25-.61-2.74.78-3.08,1.79-.43,29.68,2.97,36.7,3.08Z"/>
        <path class="cls-20" d="M1150.3,27.21c1.12-.19,13.27,1.64,13.27,2.31-7.53,6.38-30.18.49-13.27-2.31Z"/>
        <path class="cls-22" d="M1186.74,500h-7.2c.81-.63,1.48-1.36,1.99-2.17.95-.19,2.75,1.2,5.21,2.17Z"/>
        <path class="cls-22" d="M1308.81,497.83c-1.09.81-2.06,1.52-2.93,2.17h-110.58c2.02-.88,4.21-2.51,6.53-5.25,10.37,5.05,25.06,7.81,34.36,0,13.79,10.29,48.99-1.39,68.72,0,.89.07,3.65,3.05,3.9,3.08Z"/>
        <path class="cls-16" d="M936.26,500h-4.66c1.3-.87,2.78-.55,4.66,0Z"/>
        <path class="cls-16" d="M960.89,500h-9.48c2.05-.81,4.31-2,6.8-3.71.9,1.41,1.79,2.64,2.68,3.71Z"/>
        <path class="cls-16" d="M1005.91,500h-2.83c.15-.2.29-.41.42-.63.81.22,1.61.43,2.41.63Z"/>
        <path class="cls-22" d="M534.85,500h-124.26c.45-.23.91-.43,1.38-.6.28-.1.56-.2.85-.28.16-.05.32-.1.48-.14.16-.05.32-.09.49-.13.84-.21,1.71-.38,2.61-.53.18-.03.36-.06.54-.09.23-.04.46-.08.69-.11.23-.04.47-.08.7-.11.03-.01.07-.01.11-.02.35-.05.7-.11,1.05-.17,1.09-.18,2.19-.38,3.29-.66.36-.09.72-.18,1.08-.29.18-.05.36-.11.54-.17.18-.05.36-.11.54-.18.35-.13.71-.26,1.06-.42.12-.05.25-.1.37-.16,1.76-.79,3.44-1.92,4.97-3.59.19-.21.39-.44.58-.67q7.81,2.3,15.62,4.61c5.23-12.5,20.04-6.41,29.67-10.76,6.83,7.55,11.53,1.45,14.05,1.53,1.43.05,5.86,4.6,6.25,4.62,4.53.17,5.1-9.69,12.49,0,.14-.12.29-.23.43-.33.3-.22.61-.42.93-.6.16-.1.33-.18.49-.27.34-.17.68-.33,1.04-.47.17-.07.35-.13.54-.2.54-.19,1.11-.34,1.69-.47.39-.08.78-.15,1.18-.21,2.12-.29,4.39-.19,6.59.28.26.05.51.11.76.18.2.05.4.11.61.17.45.12.89.27,1.33.43.42.16.83.32,1.23.5.25.11.49.23.73.35.4.21.79.42,1.17.65.25.15.51.32.75.49.18.12.36.25.53.38.32.23.62.48.91.74.15.12.28.25.42.39,1,.95,1.84,2.04,2.47,3.27.11.2.2.4.29.6.17.37.31.75.43,1.14.07.21.13.43.18.64.06.21.1.42.14.64,0,0,.01.01.01.02Z"/>
        <path class="cls-22" d="M572.81,500h-36.42c.47-.27.95-.51,1.44-.73.24-.11.49-.21.74-.31.75-.3,1.52-.54,2.31-.74.26-.06.52-.12.79-.18.26-.06.53-.11.79-.15.43-.08.86-.14,1.3-.19.17-.02.34-.04.51-.06,7.41-.74,14.99,1.63,17.27,1.73.49.02,3.02-3.89,9.37-3.08.18.03.36.37.57.87.04.11.09.23.14.35.31.78.68,1.77,1.19,2.49Z"/>
        <path class="cls-22" d="M584.81,500h-6.28c.33-.18.63-.36.92-.55.18-.11.34-.22.5-.33.19-.14.37-.27.54-.39.2-.14.38-.28.54-.4.03-.02.05-.04.07-.06l.21-.15c.08-.06.16-.11.22-.15.13-.09.22-.14.28-.14h.03c.26.1,1.41.94,2.97,2.17Z"/>
        <path class="cls-19" d="M851.23,454.77c-19.41-1.57-38.5.77-57.78,1.54,1.3-2.13.07-15.05.78-15.38,3.06-1.41,68.45,1.07,57,13.84Z"/>
        <path class="cls-19" d="M1494.65,451.69c-28.95-3.74-58.59,10.02-48.41-1.54,5.32-6.04,13.1-3.71,17.96-10.77,8.29,1.77,16.11-.31,24.21-1.54,19.66-2.99,6.62-2.1,6.25,13.84Z"/>
        <path class="cls-19" d="M324.94,459.38c-18.45-4.82-38.53.65-57.78,1.54,10.94-18.18,19.25-10.32,21.08-10.77.38-.09,4.79-4.5,6.25-4.61,21.71-1.75,20.62,7.51,21.86,7.69,1.02.14,3.37-7.01,6.25-4.61.95.79,1.13,7.89,2.34,10.77Z"/>
        <path class="cls-22" d="M1313.02,500h-7.14c.87-.65,1.84-1.36,2.93-2.17,1.09.11,2.63,1.3,4.21,2.17Z"/>
        <path class="cls-22" d="M1327.35,500h-11.12c2.37-4.78,6.74-1.91,11.12,0Z"/>
        <path class="cls-22" d="M1336.83,500h-1.31c.21-.18.42-.39.62-.63.25.2.48.41.69.63Z"/>
        <path class="cls-19" d="M1593.04,445.54c3.05,2.47,5.82,1.36,3.9,3.08-14.09-2.37-27.7,4.5-41.38,4.61-7.1-3.43-9.63-11.14-7.03-18.46,12.04,6.6,34.67,2.79,44.51,10.77Z"/>
        <path class="cls-19" d="M1196.37,454.77c-9.34-3.91-18.47-2.21-28.11-1.54.3-5.6-1.02-13.96-3.12-19.22,14,3.34,5.48,7.94,21.86,3.08-2.55,10.16,11.84.34,12.49,7.69-1.32,1.84-3.18,8.28-3.12,10Z"/>
        <path class="cls-21" d="M367.11,460.92c-10.46,4.23-10.86,2.69-21.86,3.08-6.22-18.66-2.78-13.02,7.81-24.61q-1.56,5-3.12,10c14.24,13.31,7.92-6.38,17.18,11.53Z"/>
        <path class="cls-21" d="M418.64,448.61c.58,2.6,1,5.19,1.56,7.69-7.58,1.01-14.27.71-21.86,0l3.9-16.92c4.31,4.83,9.42,6.37,16.4,9.23Z"/>
        <path class="cls-3" d="M1177.63,64.12c-.2.08-1.39,3.53-3.12,3.08-14.56-11.45-15.81,13.84-32.01,6.15-.78-.37,2.09-14.11-1.56-16.92,16.82,5.56,35.65-3.92,36.7,7.69Z"/>
        <path class="cls-17" d="M296.83,22.59c4.23,15.67-18.04,18.6,14.06,26.91-8.29,10.55-22.18-4.91-30.45,6.92-5.99-3.27-13.52-2.42-17.18,3.08-5.57-6.17-10.35-10.12-18.74-6.15-4.62-9.55-29.59-19.93-35.92-9.23-30.7-9.09-35.49,4.09-37.48,4.61-2.61.69-20.26-2.71-24.21-4.61-1.98-.96-16.08,1.56,3.9-15.38,48.47.91,96.48-10.88,146.02-6.15Z"/>
        <path class="cls-3" d="M452.22,94.88c23.82-4.98,43.42,15.84-7.03,3.84,2.8-.93,6.63-3.76,7.03-3.84Z"/>
        <path class="cls-31" d="M553.73,19.52q12.1.38,24.21.77c-7.93,1.36-17.55,5.19-24.21-.77Z"/>
      </g>
      <g>
        <path class="cls-30" d="M720.05,394.78c1.06,6.38,6.12,9.42,6.25,10,.29,1.26-4.69.23-4.69,1.54,0,.52,4.87,4.34,4.69,4.61-2.08,3.07-6.73-.96-7.03-.77-1.94,1.22.97,7.25-3.12,9.23-1.12.54-17.76-1.44-24.99,0-10.14,2.03-24.13,15.07-32.01,3.08.14-.24.77-.84,3.12-4.61,1.95-3.13,2.59-6.87,4.69-10,11.08-1.84,5.87-7.36,13.27-3.84,7.27-24.29,19.59-10.91,26.55,6.15,3.86.29-2.88-30.01,13.27-15.38Z"/>
        <path class="cls-16" d="M743.48,384.02c-1.46.22-6.75,5.39-11.71,6.15-1.02-.78-.95-9.26-2.34-12.3,11.55-15.19,2.49-21.99,14.06,6.15Z"/>
        <g>
          <path class="cls-29" d="M1543.06,400.94c-5.22,10.08,2.84,7.17,3.12,7.69,4.79,8.58-4.5,6.11-3.12,11.53.2.79,9.55,11.07,11.71,11.53,6.65,1.43,19.99-6.2,27.33-9.23,5.18-2.14,8.06-6.69,17.18-4.61-.01,8.72.01,17.43,0,26.15l-6.25,1.54c-9.84-7.98-32.47-4.17-44.51-10.77-2.6,7.31-.08,15.02,7.03,18.46-12.03.1-10.75-5.08-28.11-6.15-8.63-5.72-2.16-15.76-6.25-19.99,6.16-2.77,4.15-13.37,4.69-19.99.01-.16,3.01.51,3.12-.77-8.67-12.83-.13-6.68,0-7.69.16-1.26-1.88-16.26.78-25.38,2.9,13.07,10.36,22.76,5.47,25.38.26,1.74,7.41,2.37,7.81,2.31Z"/>
          <path class="cls-18" d="M1513.39,391.71c.81,2.53-.12,9.5,9.37,13.84-2.46,4.66-7.67,11.85-12.49,13.07,9.82,14.36,10.36,7.87,10.93,8.46,4.09,4.23-2.38,14.28,6.25,19.99-12.52-.77-22.49.41-30.45,10.77-3.14.61-2.43-2.53-2.34-6.15.37-15.94,13.41-16.83-6.25-13.84-.16-.67-1.43-2.97-1.56-3.08,20.02-9.56-8.03-9.54,15.62-20.76-8.68-6.48,4.54-11.98-3.12-16.92q7.03-2.69,14.06-5.38Z"/>
          <path class="cls-14" d="M1525.88,407.09c-.54,6.63,1.47,17.22-4.69,19.99-.57-.59-1.11,5.9-10.93-8.46,4.82-1.22,10.03-8.41,12.49-13.07.83.38,3.23-.87,3.12,1.54Z"/>
        </g>
        <g>
          <path class="cls-30" d="M1575.86,347.11q11.71,8.46,23.43,16.92c0,6.15,0,12.3,0,18.46-3.19-4.37-25.99-6.67-27.33-6.15-2.8,1.08,3.68,8.75-1.56,10.77-2.6-4.83-8.47-.74-13.27-3.08-2.63-1.28-4.19-3.48-6.25-5.38-.75-34.08-12.89-17.14,14.06-23.07q-9.37-10-18.74-19.99c7.63.01,23.64,11.44,29.67,11.53Z"/>
          <path class="cls-30" d="M1599.28,288.66c0,12.3.01,24.61,0,36.91-6.69-3.26-12.17-4.71-6.25,3.08-.19-.2-3.85-2.54-4.69-3.08-.24-.16.68-2.36-.78-3.08-38.85-3.07,15.45-2.94-18.74-10.77,5.64-3.7-9.06-8.62-12.49-12.3-17.03-18.25,16.76-22.12,28.11-10.77,2.17.22,4.34-9.3,14.84,0Z"/>
          <path class="cls-2" d="M1599.28,382.48c-.01,10.25.01,20.51,0,30.76-14.36.92-26.68-7.16-39.82-10.77-5.06-9.83-8.08-7.21-8.59-7.69-3.65-3.44-7.8-6.46-9.37-11.53.37-.8,15.5,6.61,15.62.77,4.81,2.33,10.68-1.76,13.27,3.08,5.24-2.01-1.24-9.68,1.56-10.77,1.34-.52,24.14,1.78,27.33,6.15Z"/>
          <path class="cls-10" d="M1588.35,325.58c.83.53,4.5,2.87,4.69,3.08.3.32-1.51,3.57,6.25,6.15,0,9.74.01,19.48,0,29.22q-11.71-8.46-23.43-16.92c2.55.04,6.06.48,7.81-2.31-7.93-15.1-15.77-10.36-24.99-18.46,15.66.08,21.64,12.39,29.67-.77Z"/>
          <path class="cls-30" d="M1599.28,413.24c0,1.54,0,3.08,0,4.61-9.12-2.08-12,2.48-17.18,4.61,7.17-3.7-31.11-18.84-35.92-13.84-.29-.52-8.34,2.39-3.12-7.69,3.99-.68,5.99-2.88,7.81-6.15.51.48,3.53-2.14,8.59,7.69,13.14,3.6,25.47,11.68,39.82,10.77Z"/>
          <path class="cls-30" d="M1599.28,265.59c0,3.08,0,6.15,0,9.23-22.18-4.52-32.1-36.66,0-9.23Z"/>
          <path class="cls-30" d="M1599.28,220.99c0,7.18,0,14.35,0,21.53-10.65-5.18-10.08-34.65,0-21.53Z"/>
          <path class="cls-24" d="M1599.28,325.58c0,3.08,0,6.15,0,9.23-7.76-2.58-5.95-5.83-6.25-6.15-5.92-7.78-.44-6.33,6.25-3.08Z"/>
          <path class="cls-11" d="M1599.28,257.9c0,1.54,0,3.08,0,4.61-14.78-10-12.74-21.49,0-4.61Z"/>
          <path class="cls-14" d="M1582.11,422.47c-7.33,3.02-20.68,10.66-27.33,9.23-2.17-.47-11.51-10.74-11.71-11.53-1.38-5.43,7.91-2.95,3.12-11.53,4.81-5,43.09,10.14,35.92,13.84Z"/>
        </g>
        <g>
          <path class="cls-16" d="M1182.31,284.05c-7.32-1.04-12.53,9.72-17.96,4.61-2.56,8.66-6.95.13-14.84,19.22,20.68,25.66,10.95,6.96,5.47,28.45-12.3-3.51-5.76,5.59-6.25,6.15-1.15,1.34-20.24,3.27-21.86,10.77-18.25-5.7,16.39-12.95,16.4-14.61,0-2.77-7.29-1.89-7.81-3.08-.3-.68,8.78-8.75,6.25-12.3-.5-.71-16.81,4.97-6.25-7.69-11.12.79-11.78-14.31-29.67,3.08,7.39,13.42-18.84,7.73-14.06,20.76-12.05,5.26-14.71-.4-18.74-1.54-.57-.16-5.51-5.69-10.15-6.15-.95-.09-15.21,2.85-18.74,3.08-19.73-12.85-5.21-12.16-3.9-13.84-4.15,9.87,15.55,3.58,24.21,4.61v-16.92c35.01,26.04,2.94-10.38,35.14-3.84-12.03-31.96,11.37-5.65,13.27-6.92-3.41-16.35,26.21-3.94,24.99-36.91,19.6,8.21,3.67,31.77,16.4,20.76,2.47-2.14-6.77-6.18,11.71-2.31-7.59-30.78,17.33-4.05,17.96-2.31.53,1.49-2.14,2.5-1.56,6.92Z"/>
          <path class="cls-4" d="M1210.42,316.35c-.15,5.06-11.82,2.2-16.4,3.08-.92-2.79,3.47,1.16,8.59-6.15,4.84-6.91-13.17-4.95-14.06-8.46-.58-2.3,2.51-1.26,4.69-6.92q1.95,3.84,3.9,7.69c25.54.52,5.71,2.24,13.27,10.77Z"/>
          <path class="cls-30" d="M1091.73,339.42c2.02,5.49,21.58,10.91-.78,10.77-6.02,20.04-28.97.68-29.67,10.77-10.5-6.24-5.72,18.08-17.96-3.08,1.53-2.79,3.7-9.84,4.69-10.77,4.06-3.83,19.1-7.05,24.99-9.23,4.03,1.14,6.69,6.8,18.74,1.54Z"/>
          <g>
            <path class="cls-34" d="M1182.31,284.05c.16,1.24-5.16,9.49,6.25,10.77-2.82,2.61-1.63,7.43-3.9,9.23-16.07,1.41.91,2.62,1.56,3.08,5.99,4.26-7.43,3.88,16.4,6.15-5.12,7.31-9.51,3.36-8.59,6.15,4.57-.87,16.25,1.99,16.4-3.08,5.27,5.94,16.09,3.02,24.21,6.15,4.78,10.16,1.91,24.56,16.4,23.07,4.41,10.7-1.87,8.61-3.12,10.77-4.53,7.81-.75,4.34,1.56,10.77-12.86,11.62-13.71-8.45-24.21,0-7.37,5.93,3.85,28.59-23.43,16.92-8.89,6.11-2.52,9.64-4.69,10.77-3.05,1.58-20.22-4.6-26.55,18.46-11.65-6.45-21.21,11.83-23.43-18.46-9.98,49.26-45.17,6.8-49.97,6.15-63.66,14.85-40.61-6.91-41.38-10-.76-3.04-15.71.91-4.69-12.3-8.86-16.18-4.72-3.63-23.43-7.69l13.27-3.84c.44-.38-3.18.84,2.34-9.23,12.24,21.15,7.46-3.16,17.96,3.08.7-10.09,23.66,9.27,29.67-10.77,22.36.14,2.8-5.27.78-10.77-4.79-13.04,21.45-7.34,14.06-20.76,17.9-17.39,18.56-2.28,29.67-3.08-10.57,12.66,5.74,6.98,6.25,7.69,2.53,3.55-6.55,11.62-6.25,12.3.52,1.19,7.81.3,7.81,3.08,0,1.66-34.65,8.91-16.4,14.61,1.63-7.49,20.71-9.42,21.86-10.77.48-.57-6.05-9.66,6.25-6.15,5.48-21.49,15.21-2.8-5.47-28.45,7.88-19.1,12.27-10.56,14.84-19.22,5.43,5.11,10.64-5.65,17.96-4.61Z"/>
            <g>
              <path class="cls-24" d="M1193.24,297.89c-2.17,5.66-5.27,4.62-4.69,6.92.89,3.51,18.89,1.55,14.06,8.46-23.82-2.27-10.4-1.9-16.4-6.15-.65-.46-17.63-1.66-1.56-3.08,2.27-1.8,1.09-6.62,3.9-9.23,7.01-6.49,7.4-4.01,4.69,3.08Z"/>
              <path class="cls-27" d="M1229.94,340.96c22.23,2.65-10.41,17.74-8.59,6.92.71-4.23,14.7,2.44,8.59-6.92Z"/>
              <path class="cls-4" d="M1234.63,350.18c9.33,3.11-5.17,11.58-5.47,3.84-.08-1.98,5.15-3.95,5.47-3.84Z"/>
              <path class="cls-2" d="M1128.43,362.49c1.98-.17,3.92,1.97,3.9,2.31-.29,6.6-14.07-1.45-3.9-2.31Z"/>
              <path class="cls-2" d="M1151.86,347.11l.78.77v1.54l-.78.77h-1.56l-.78-.77.78-.77.78-.77.78-.77Z"/>
            </g>
          </g>
        </g>
        <g>
          <path class="cls-30" d="M1513.39,391.71q-7.03,2.69-14.06,5.38c7.66,4.94-5.55,10.44,3.12,16.92-23.64,11.22,4.4,11.2-15.62,20.76-5.36-4.28-13.51-1.5-14.84-12.3-32.98,4.8,15.94-26.65,10.15-39.22,4.19-1.66,6.88-4.94,9.37-8.46,5.24-1.85,4.45.03,4.69,0-3.15,28.5,19.82,6.51,7.81-6.15.45-.62,1.11-2.43,1.56-3.08,13.27-18.86,1.41,6.17,7.81,26.15Z"/>
          <path class="cls-30" d="M1494.65,367.1c.46,2.02-.8,3.02-1.56,4.61q-18.35-.77-36.7-1.54c6.21-6.57,11.22-1.55,11.71-13.84,2.9.18,41.58-5.07,19.52,3.08-1.68.62-14.03-1.02-17.96,5.38,7.9-.94,17.67,2.42,24.99,2.31Z"/>
          <path class="cls-10" d="M1505.58,365.56c-.45.64-1.11,2.46-1.56,3.08-3.49,4.79-.27,5.15-7.81,6.15-.23.03.56-1.85-4.69,0,.55-.78,1.12-2.15,1.56-3.08.76-1.6,2.02-2.59,1.56-4.61,1.05-.02,6.12-5.13,10.93-1.54Z"/>
          <g>
            <path class="cls-30" d="M1463.42,350.18c-2.55-6.76-13.95-1.23-14.84,6.15-24.23,2.12,8.94-23.76-21.08-10,1.89,37.75-7.34-27.01-22.64,17.69-9.1-12.25-20.64,10.37-15.62,19.99-5.47-2.62-7.34,2.04-9.37-4.61-18.18,11.38,4.93-24.78-17.18-4.61-9.79-9.3-14.68,2.99-24.99-4.61-14.95,10.83-18.43-.87-35.14,16.15-.62.63.94,4.02-.78,5.38-5.06,4-8.53-5.91,5.47-17.69-.13-1.28-10.14-.64-3.12-22.3,7.75,1.53,23.78,10.08,23.43,3.84q-13.27-5-26.55-10c.14-.1,1.39-2.39,1.56-3.08,1.94.31,20.8-.22,31.23,3.08,9.67-16.77,26.28,14.8,34.36-13.07,1.37-4.71,1.45-13.96-1.56-17.69,9.81,6.73,1.24,27.76,10.93,15.38,13.34,3.39,14.77-10.68,36.7-3.08,1.72-2.01,2.94-.96,5.47-3.08,13.48,15.58,22.88-26.36,35.92-20.76-24.37,35.64-9.8,20.23,17.96-3.84,5.02,3.14-18.37,25.77-10.93,27.68,21.89-8.91-8.54,9.76,0,10.77,7.6-2.65,36.34-19.2,17.96-2.31q6.25.77,12.49,1.54c-9.11,8.24-19.76,7.22-29.67,13.07Z"/>
            <path class="cls-16" d="M1366.59,314.81c3.01,3.73,2.93,12.97,1.56,17.69-8.08,27.88-24.68-3.7-34.36,13.07-22.31-15.25-44.25-16.91-3.12-14.61-.56-1.32-9.19-14.01-8.59-14.61,10.58-10.46,32.9,17.89,24.21-2.31,16.09,11.03,4.02-23.77,16.4,2.31,1.55.98,3.02-2.14,3.9-1.54Z"/>
            <path class="cls-30" d="M1419.69,324.04c-2.53,2.11-3.74,1.06-5.47,3.08-21.93-7.61-23.36,6.47-36.7,3.08,2.61-3.34,9.25-28.14,12.49-25.38,6.83,42.62,15.03-39.6,19.52,8.46q2.73-1.92,5.47-3.84c-.57-18.34,1.9-4.35,12.49-3.08-2.17,3.69-5.19,15.5-7.81,17.69Z"/>
            <path class="cls-24" d="M1304.12,351.72c-5.91-1.17-9.94.63-15.62-.77,3.8-2.43,8.85-2.69,12.49-5.38q13.27,5,26.55,10c.35,6.24-15.68-2.31-23.43-3.84Z"/>
          </g>
          <g>
            <path class="cls-29" d="M1302.56,342.49c-.17.68-1.42,2.97-1.56,3.08-3.64,2.7-8.7,2.95-12.49,5.38,5.68,1.39,9.71-.4,15.62.77-7.01,21.66,2.99,21.03,3.12,22.3-14,11.77-10.53,21.68-5.47,17.69,1.72-1.36.16-4.75.78-5.38,16.71-17.02,20.18-5.32,35.14-16.15,10.31,7.6,15.2-4.68,24.99,4.61,22.11-20.17-1,15.99,17.18,4.61,2.03,6.66,3.9,2,9.37,4.61-5.02-9.62,6.51-32.25,15.62-19.99,15.31-44.7,24.53,20.07,22.64-17.69,30.02-13.76-3.15,12.11,21.08,10,.88-7.38,12.28-12.91,14.84-6.15-.78.46-4-.83-4.69.77,1.53,5.5,4.02,5.06,9.37,5.38-.49,12.29-5.5,7.27-11.71,13.84q18.35.77,36.7,1.54c-.44.92-1.01,2.3-1.56,3.08-2.49,3.52-5.18,6.8-9.37,8.46,5.79,12.57-43.13,44.02-10.15,39.22,1.33,10.8,9.47,8.02,14.84,12.3.14.11,1.4,2.4,1.56,3.08-8.1,1.23-15.91,3.31-24.21,1.54-4.86,7.06-12.64,4.72-17.96,10.77-15.05-7.55-4.31,9.21-10.15,9.23-3.23-3.36-4.83-17.83-10.93-18.46-10.43-1.08.7,15.63-23.43,3.08-3.46,5.57-18.01,10.95-13.27,2.31,1.67-3.04,8.23-5.18,7.81-6.15-30.34,4.87-17.77,23.2-22.64,26.91-5.67-7.57-12.79-7.22-18.74,0-2.76.24,3.7-22.64-14.06-26.15-22.29-4.39-23.1,21.04-28.11-1.54-1.79-.59-31.75,4.86-37.48,4.61-.63-.03-2.46-3.02-3.12-3.08-4.65-.4-17.65.59-20.3,0-.85-.19-4.36-4.89-8.59-6.15,11.3-15.31,4.39-9.8,4.69-14.61.09-1.45,4.25-.04,4.69-1.54.15-.53-4.12-1.13-4.69-3.08-5.2-17.83,1.56-13.09,3.12-15.38.18-.27-4.88-4.35-4.69-4.61,1.24-1.67,8.72.44,9.37-3.08.52-2.83-4.86-2.97-4.69-4.61.12-1.12,10.35-9.61-3.12-15.38-.61-1.89,2.46-2.88,1.56-5.38-2.31-6.43-6.09-2.95-1.56-10.77,9.25,8.73,9.6-6.98,10.15-7.69.92-1.18,9.03,5.55,2.34-6.15,1.89-.44,4.76.86,6.25-.77-.56-9-9.22-11.32-7.81-13.84.44-.79,17.18,6.51,3.12-6.15,5.22-3.63-.54-2.62,1.56-12.3,10.14.56,2.48-50.69,7.81-18.46,10.34.23-8.6,25.07,17.18,19.99-1.07,1.05-8.03,10.14-7.81,10.77,4.29,12.04,23.18-3.1,4.69,16.92,14.34.05,16.31,3.71,17.18,3.84Z"/>
            <path class="cls-5" d="M1260.4,342.49c6.69,11.7-1.42,4.97-2.34,6.15-.55.71-.9,16.42-10.15,7.69,1.25-2.16,7.53-.06,3.12-10.77.49-.05,2.13-1.37,9.37-3.08Z"/>
            <path class="cls-30" d="M1379.87,393.25c6.81-.37.74,13.4-4.69,9.23-3.65-2.8,3.07-9.14,4.69-9.23Z"/>
            <path class="cls-25" d="M1364.25,440.92c.87-.2,5.34,9.1,1.56,10.77-6.87,3.03-2.44-10.57-1.56-10.77Z"/>
          </g>
          <path class="cls-24" d="M1504.02,368.64c12.01,12.66-10.96,34.66-7.81,6.15,7.54-1,4.32-1.37,7.81-6.15Z"/>
        </g>
        <g>
          <path class="cls-30" d="M267.16,247.14c-6.68-1.14-5.24,3.78-8.59,3.08-2.39-.5-27.8-32.69-28.11,6.15-1.23-13.18-11.83-14.91-18.74-24.61-6.9,13.72,27.09,70.7-1.56,32.3-10.77,4.73,2.97-1.86-5.47-17.69-10,11.32-6.32,1.14-11.71-2.31-1.39-.89-14.54-5.78-20.3-13.84q-3.51,2.69-7.03,5.38c12.78,10.49,11.8,21.86,15.62,35.37l-42.95-14.61c-5.77,3.38,21.22,23.94,25.77,23.84-43.79-4.96-32.57,11.19-22.64,13.07,6.24,1.18,27.21-8.25,36.7,3.84-16.12,3.41-2.1-.57,9.37,6.15-22.73,7.25-43.12.54-64.03-6.92-4.04-1.44-10.74-2.79-14.06-4.61-8.8-4.83-13.94-11.3-20.3-19.22,28.76,4.85,66.01,24.77,15.62-7.69,12.3-17.72,16.39,4.92,24.21,5.38,6.68.4-6.35-13.69-8.59-20.76l3.9-13.07c18.77,18.71,7.43,3.22,7.03.77-2.42-14.74,5.24-4.35,15.62,5.38.42.4,2.85,6.36,7.03,9.23,15.77,10.83,2.09.1-3.9-15.38-8.49-21.94,2.86-6.84,3.12-13.07.05-1.22-11.28-20.27,8.59-.77,2.94-4.58-3.97-5.76-2.34-11.53,3.72-13.22,28.82,25.13,18.74,0,15.97-24.15,9.63,4.6,21.08,3.84,6.12-.4,3.18-12.68,4.69-13.84,7.57-5.83,7.89,13.88,8.59,14.61,6.19,6.45,17-1.97,17.96-2.31.3-.11,2.6,3.01,6.25,1.54,1.22-.49.67-16.32,17.96,2.31-4.01,15.95,2.27,31,10.15,10,34.43-.74,29.42-5.59,2.34,19.99Z"/>
          <path class="cls-29" d="M479.55,322.5c-22.25,6.29,5.58,12.16-12.49,13.84-9.1.85-11.67-7.87-17.96-6.15q-7.03,3.84-14.06,7.69c-4.3-2.39,13.37-11.07,5.47-26.91-4.52-9.06-9.73-.8-26.55-8.46-9.48-4.31-15.78-10.04-23.43-18.46,9.63,3.4,18.8,6.6,27.33,12.3,6.47-3.96,4.71-19.79,5.47-20.76.78-1.01,8.95,3.98,8.59-13.07,7.66,7.02,5.34-3.98,11.71-.77-12.64,40.07,11.25-18.16,9.37,13.84,8.7-6.08-8.25,17.01-4.69,19.99,6.31,5.3,19.36-4.07,18.74,1.54q-7.81,7.69-15.62,15.38c25.36-4.53,20.58-6.87,6.25,10.77.42.99,9.36-1.45,21.86-.77Z"/>
          <path class="cls-29" d="M507.66,364.03c-3.08,2.32-1.23,6.99-10.93,6.92,3.47,11.64,21.41,13.74,22.64,14.61,2.33,1.63,2.09,7.37,2.34,7.69-10.75,3.52-24.64-4.12-32.01,7.69-28.13-4.43-59.61-5.17-10.93-12.3-4.91-7.41,5.44-2.14,3.12-13.84l-24.21-4.61c22.92-4.88,12.64,4.17,37.48-7.69.44-.21,4.34.38,9.37-3.08-.16,2.41.64,3.98,3.12,4.61Z"/>
          <path class="cls-2" d="M504.54,359.41c-5.03,3.45-8.93,2.86-9.37,3.08q-8.59-6.15-17.18-12.3c.75-.5,10.18,1.01,3.12-7.69,8.59-4.48-3.58-8.37-1.56-11.53.91-1.42,8.7,6.47,4.69-8.46,1.68.16,5.41,3.78,6.25,2.31-2.05-10.34.49-28.08,3.12-19.99,1.57,4.83-2.08,26.21,7.81,30.76-9.17,14.9,5.03,11.65,6.25,13.84.26.46-3.09,9.47-3.12,10Z"/>
          <path class="cls-11" d="M565.44,362.49c2.2,3.89.32,14.48,0,19.99-1.81-1.25-3.6,2.74-6.25.77-1.33-.99,9.23-24.48-14.06-14.61-8.15-16.59-15.3,11.5-18.74.77-.7-2.2,3.28-4.17,3.12-4.61-.47-1.34-2.48.22-3.12-2.31-4.78-18.94,2-11.07,13.27-1.54-3.1-24.35,3.66-4.12,4.69-4.61,4.19-1.99-6.34-19.4,9.37,3.08,1.43.81,8.23-3.08,11.71,3.08Z"/>
          <path class="cls-26" d="M390.53,284.05c7.64,8.42,13.95,14.14,23.43,18.46l-3.12,3.08c-3.35-2.81-18.56-2.35-23.43-3.08-.19-.03.1-1.31-2.34-3.08-5.22-.59-9.66,1.39-14.84,1.54-.74-3.64,12.65-7.13,13.27-7.69,6.39-5.71-6.17-3.29,5.47-9.23.46.17,1.1-.16,1.56,0Z"/>
          <path class="cls-26" d="M484.24,322.5c4.01,14.93-3.78,7.03-4.69,8.46-2.02,3.16,10.15,7.06,1.56,11.53-3.94-4.86-7.75-2.71-10.93-3.08-.5-.06-6.72-2.49-3.12-3.08,18.08-1.68-9.75-7.55,12.49-13.84,1.55.08,3.15-.14,4.69,0Z"/>
          <path class="cls-30" d="M306.2,262.52c-3.73,2.86,2.88,9.18-10.93,3.08-.26-6.97,5.44-15.5,10.93-3.08Z"/>
          <path class="cls-24" d="M146.91,242.52q1.56-3.08,3.12-6.15c5.99,15.48,19.67,26.21,3.9,15.38-4.18-2.87-6.6-8.83-7.03-9.23Z"/>
          <path class="cls-24" d="M109.43,291.74c3.32,1.82,10.01,3.17,14.06,4.61-4.65-.25-9.42.35-14.06,0-4.49-.34-5.52.37-9.37-3.08,6.72.51,10.36,2.82,9.37-1.54Z"/>
          <path class="cls-29" d="M418.64,448.61c-6.98-2.86-12.09-4.4-16.4-9.23l-3.9,16.92c-1.86-.17-1.49,7.51-7.03-3.08,3.05,18.5-18.45,20.24-18.74,3.08-1.81,1.61-3.09,3.65-5.47,4.61-9.25-17.92-2.94,1.78-17.18-11.53q1.56-5,3.12-10c2.3-2.51,7.24-11.5,10.15-12.3,10.12-2.79,11.46,17.34,28.11-3.08,11.35,17.03,14.57,3.43,15.62,3.08,11.87-4.02,6.71,15.04,7.03,16.15.35,1.2,3.28-.88,4.69,5.38Z"/>
          <path class="cls-8" d="M109.43,462.46c-5.05-3.6-15.5,4.41-16.4,4.61-1.08.24-2.18-4.73-21.08,3.08.09-.27-3.49-1.98-1.56-5.38,6.48-11.41,40.99-32.6,39.04-2.31Z"/>
          <path class="cls-2" d="M139.1,354.8c5.83-1.95,44.77-7.6,57-9.23,1.35-.43-.24-2.35,2.34-3.08,13.93,13.3,49.45,17.58,7.03,23.07,8.32,16.6,26.46,7.51,28.11,7.69,22.82,2.48,5.14,19.66-18.74,10.77-5.69,5.69,7.34,6.11-1.56,13.84-9.23,8.03-32.07,5.7-42.17,13.84-33.6,2.23-67.87-2.95-32.8-9.23v-3.08c-37.9,3.19-65.92-17.72-10.93-9.23,31.75-17.28,42.07,1.69,11.71-35.37Z"/>
          <path class="cls-29" d="M67.26,445.54c-.26,2.38-2.99,2.9-3.12,3.08-5.09-3.52-11.57-5.95-11.71-12.3-30.37,10.19-10.67-6.6-9.37-19.99,14.35-2.94,4.38-12.79,20.3-6.15,1.61.67-.04,3.97,1.56,4.61,3.41,1.37,15.61-2.37,16.4-.77,5.06,10.23-17.91,25.41-14.06,31.53Z"/>
          <path class="cls-8" d="M495.17,362.49c-24.84,11.86-14.56,2.81-37.48,7.69l4.69-13.84c13.52-1.26,11.78-3.62,15.62-6.15q8.59,6.15,17.18,12.3Z"/>
          <path class="cls-30" d="M481.11,342.49c7.05,8.7-2.37,7.19-3.12,7.69-3.84,2.53-2.09,4.89-15.62,6.15-24.65,2.29-18.33-1.29-2.34-9.23,4.69-2.33,5.8,6.99,10.15-7.69,3.18.36,7-1.78,10.93,3.08Z"/>
          <path class="cls-11" d="M410.84,305.58c4.04,3.39,1.27,7.5,0,10.77-.9-1.81-3.97-5.29-5.47-6.15-6.63-3.82,2.01,4.61-4.69,4.61-.47,0-3.91-4-9.37-1.54-1.26-.78,6.55-6.9-3.9-4.61-1.9-3.51-5.13-3.95,0-6.15,4.86.72,20.08.27,23.43,3.08Z"/>
          <g>
            <path class="cls-18" d="M370.23,300.97c5.18-.15,9.61-2.13,14.84-1.54,2.44,1.76,2.15,3.05,2.34,3.08-5.13,2.21-1.9,2.64,0,6.15-3.8.83-6.53,7.51-7.03,7.69-16.45,5.82-30.38-5.82,16.4,13.07,1.8,9.27-56.56,12.62-5.47,11.53,4.2-6.05,15.56-5.47,17.18-6.15,2.64-1.11-9.85-3.17,10.15-6.92-19.76-8.69-8.32-10.23-7.81-11.53,1.27-3.27,4.04-7.38,0-10.77l3.12-3.08c16.82,7.66,22.03-.6,26.55,8.46,7.91,15.85-9.76,24.52-5.47,26.91q7.03-3.84,14.06-7.69c6.29-1.72,8.86,7,17.96,6.15-3.6.59,2.63,3.02,3.12,3.08-4.35,14.68-5.46,5.36-10.15,7.69-15.99,7.94-22.31,11.52,2.34,9.23l-4.69,13.84,24.21,4.61c2.32,11.7-8.04,6.43-3.12,13.84-48.68,7.13-17.2,7.87,10.93,12.3,7.37-11.81,21.27-4.17,32.01-7.69.73.92-2.1,1.4-.78,3.08.59.75,13.3,2.27,10.93,12.3,1.81.09,3.66-.14,5.47,0,5.69,17.51,36.34-3.59,34.36,16.15,15.34,6.18,2.74,8.11,12.49,22.3-1.06.6-10.48,15.46-17.96,1.54l-14.06,3.08c-8.08-9.29-19.27,4.17-46.85-10.77-18.08,12.9-23.42,14.1-42.17,7.69-16.37,21.46-24.39,19.2-17.18-7.69-20.85,9.56-6.32,20.03-15.62,26.15-13.58,8.94-9.63-8.46-10.15-10.77-.57-2.5-.98-5.09-1.56-7.69-1.4-6.26-4.34-4.18-4.69-5.38-.32-1.11,4.84-20.17-7.03-16.15-1.05.36-4.26,13.96-15.62-3.08-16.65,20.42-17.99.29-28.11,3.08-2.91.8-7.85,9.79-10.15,12.3-10.59,11.59-14.03,5.95-7.81,24.61-10.77.38-15.43,6.93-20.3-4.61-1.22-2.88-1.39-9.97-2.34-10.77-2.87-2.4-5.22,4.76-6.25,4.61-1.24-.18-.15-9.44-21.86-7.69-1.46.12-5.87,4.52-6.25,4.61-1.83.44-10.14-7.41-21.08,10.77-.81,1.35-2.34,16.35-11.71,13.84-1.38-.37-4.97-18.07-10.93-24.61-12.74,8.21-.27,33.52-23.43,24.61-2.24-.86.17-19.11.78-23.07,5.47-4.46,4.88,3.09,7.03,3.08,1.52,0,9.05-16.32,10.15-19.22-14.69-5.48-14.17-3.96-17.18,11.53-13.45-20.69-21.61-13.72-4.69,5.38.75,2.87-31.25,1.69-33.58,2.31-9.84,2.62-5.13,13.59-26.55,9.23-3.77-.77-2.71,7.66-12.49-9.23q-7.03,6.92-14.06,13.84c-4.89-5.3-15.38-1.17-20.3,3.08-5.14-4.08-.87-7.9-.78-9.23,1.94-30.29-32.56-9.1-39.04,2.31-1.93,3.4,1.65,5.12,1.56,5.38-5.32,16.3-.58-8.99-12.49-3.08,1.17-10.59,7.1-12.81,7.81-21.53-3.85-6.12,19.12-21.3,14.06-31.53-.79-1.6-12.99,2.14-16.4.77-1.6-.64.04-3.94-1.56-4.61-15.92-6.64-5.95,3.21-20.3,6.15-1.3,13.4-21,30.18,9.37,19.99.14,6.35,6.62,8.78,11.71,12.3-12.97,17.01-6.04,20.35-6.25,21.53-.97,5.64-4.49,14.23-11.71,9.23-1.82-1.26-9.87-46.47-13.27-.77-1.01,1.62-10.21-.3-12.49-.77,1.83-12.97-2.96-15.37-10.15-24.61-2.99.17-3.4,15.61-3.9,18.46-1.19,6.77-.82,17.44-6.25,16.92-.06-24.09.03-48.19,0-72.29,12.94,7.28,8.39-3.67,24.21-4.61q-5.86-7.31-11.71-14.61c24.65,3.1,12.62-9.16,15.62-10.77,4.35-2.34,3.76,13.07,16.4-10,3.23.56,15.7,6.8,17.18,6.15,3.59-1.58-5.26-8.04,17.18,0,1.87-1.1-17.05-23.12,24.99-10.77,4.74-8.07,11.91-2.64,15.62,3.08,16.41-7.31,37.83,17.52,11.71-16.15-.92-2.46,2.72-2.14,7.81-3.84,30.36,37.07,20.04,18.09-11.71,35.37-54.99-8.49-26.97,12.42,10.93,9.23v3.08c-35.07,6.28-.81,11.46,32.8,9.23,10.1-8.14,32.93-5.81,42.17-13.84,8.9-7.74-4.13-8.15,1.56-13.84,23.88,8.9,41.56-8.28,18.74-10.77-1.65-.18-19.79,8.91-28.11-7.69,42.42-5.49,6.9-9.77-7.03-23.07.98-.27-2.46-2.1-.78-3.08,2.74-1.6,18.73-.72,23.43-1.54,7.04-20.03,56.55-19.38,78.87-23.84-33.02,31.24-33.11,31.54,5.47,5.38q4.69,1.54,9.37,3.08c3.31-6.75,15.79-3.11,24.99-15.38,14.81.35,12.97-5.65,30.45-6.15Z"/>
            <g>
              <path class="cls-29" d="M221.87,451.69c.23-1.48-.28-3.16,0-4.61,3.01-15.5,2.49-17.01,17.18-11.53-1.1,2.91-8.63,19.21-10.15,19.22-2.15.01-1.56-7.53-7.03-3.08Z"/>
              <path class="cls-21" d="M20.41,477.84c-5.16-1.06-9.34-4.09-14.06-6.15.5-2.85.91-18.29,3.9-18.46,7.19,9.24,11.98,11.64,10.15,24.61Z"/>
              <path class="cls-7" d="M59.45,467.07c-.17,1.54-1.65,1.71-1.56,3.08.2-1.18-6.72-4.52,6.25-21.53.13-.17,2.86-.69,3.12-3.08-.71,8.73-6.64,10.94-7.81,21.53Z"/>
              <path class="cls-2" d="M410.84,316.35c-.51,1.3-11.95,2.85,7.81,11.53-20,3.75-7.51,5.81-10.15,6.92-1.61.68-12.98.1-17.18,6.15-51.1,1.08,7.27-2.27,5.47-11.53-46.78-18.89-32.84-7.25-16.4-13.07.49-.17,3.22-6.86,7.03-7.69,10.45-2.29,2.64,3.84,3.9,4.61,5.46-2.46,8.9,1.54,9.37,1.54,6.69,0-1.95-8.43,4.69-4.61,1.49.86,4.57,4.34,5.47,6.15Z"/>
              <path class="cls-19" d="M325.72,417.85c4.89,1.88-2.25,40.03-7.03,26.91-.83-2.29,4.6-9.4,4.69-12.3.31-11.17-11.33-10.41.78-11.53,1.12-.1.57-3.46,1.56-3.08Z"/>
              <path class="cls-2" d="M400.68,344.03c25-5.43,22.41,9.9-5.47,5.38-.72-2.18,4.52-5.18,5.47-5.38Z"/>
              <path class="cls-29" d="M352.27,416.32c1.12.49,1.01,2.79.78,3.84-2.42,11.31-28.54,15.14-.78-3.84Z"/>
              <path class="cls-12" d="M338.22,433.23c.19-.31,6.94,1.95,7.03,2.31,1.73,7.28-12.2,6.09-7.03-2.31Z"/>
              <path class="cls-19" d="M263.26,447.08c4.79-2.82,5.97,7.45,3.12,7.69-2.79.24-4.29-7-3.12-7.69Z"/>
              <g>
                <path class="cls-9" d="M475.65,440.92c2.54,1.08-.14,7.31-2.34,3.84-.8-1.26,2.12-3.94,2.34-3.84Z"/>
                <path class="cls-9" d="M481.89,440.92c.17-.02,3.16,2.25,1.56,3.08-4.02,2.09-4.51-2.74-1.56-3.08Z"/>
              </g>
              <path class="cls-7" d="M172.68,453.23l.78.77v1.54l-.78.77h-1.56l-.78-.77.78-.77.78-.77.78-.77Z"/>
            </g>
          </g>
          <path class="cls-28" d="M110.99,302.51c15.31,4.96-2.3,4.59,5.47,6.15.77.15,8.47-3.15,15.62-1.54.58.13.97,6.52,9.37,4.61-28.94,12.92-5.2,8.07,3.12,9.23,1.31.18.62,3.06.78,3.08-23.76-.82-67.88,7.39-35.92-2.31-7.8-8.27-14.73-24.5,1.56-19.22Z"/>
          <g>
            <path class="cls-33" d="M267.16,247.14c2.41.41.98,1.98,2.34,3.08,20.73-6.07,14.85,11.18,6.25,24.61,18.56-13.49,22.06,3.57,23.43,3.08,2.77-3.77-3.81-9.75-3.9-12.3,13.81,6.11,7.2-.21,10.93-3.08,1.69-1.29,3.73,1.65,3.9,1.54,1.75-1.15.96-12.89,7.81-4.61-.35-14.46,41.73-22.92,14.84.77,12.94-7.33,12.14,3.95-1.56,12.3q12.88,2.69,25.77,5.38c-7-27.6-.31-14,.78-16.15.58-1.15-2.42-33.57,3.12-10.77.31,1.26,2.59,24.29,0,23.07,23.82,4.76,15.61,8.45,17.96,10,.51.34,2.93-2.6,10.15,0-11.64,5.93.92,3.51-5.47,9.23-.63.56-14.02,4.05-13.27,7.69-17.48.5-15.65,6.5-30.45,6.15-9.19,12.27-21.68,8.63-24.99,15.38q-4.69-1.54-9.37-3.08c-38.57,26.16-38.48,25.85-5.47-5.38-22.31,4.46-71.82,3.81-78.87,23.84-4.69.82-20.69-.06-23.43,1.54-1.68.98,1.76,2.8.78,3.08-2.58.73-1,2.64-2.34,3.08-12.23,1.63-51.17,7.28-57,9.23-5.09,1.7-8.73,1.38-7.81,3.84,26.12,33.67,4.7,8.84-11.71,16.15-3.71-5.71-10.88-11.15-15.62-3.08-42.04-12.35-23.11,9.67-24.99,10.77-22.44-8.04-13.59-1.58-17.18,0-1.48.65-13.95-5.59-17.18-6.15-12.64,23.07-12.04,7.66-16.4,10-3,1.61,9.03,13.86-15.62,10.77q5.86,7.31,11.71,14.61c-15.81.94-11.26,11.9-24.21,4.61-.05-33.84.03-67.67,0-101.51,3.37,3.75,4.29-6.15,10.15-3.08,3.88,2.03-2.35,15.41,17.18,1.54,8.34,24.89-22.84,35.09,9.37,26.15,9.43,7.13-14.8,25.29,11.71,10q.78-7.69,1.56-15.38c19.77-18.51,17.31,2.61,21.08,2.31.95-.08,6.76-17.14,10.93,0,6.03,3.97,33.22-9.6,5.47,11.53,20.86.73-4.14,9.36,21.08,11.53-16.22-13.75.56-6.19,1.56-13.84,11.65,9.84-3.32-10.66,24.99-6.15,2.02-19.32,35.15,3.08,35.92-12.3,20.58-4.76,45.92,1.98,7.81-9.23q-12.49,3.84-24.99,7.69c-3.05-1.56-5.39-1.3-8.59-1.54-.16-.01.53-2.89-.78-3.08-8.33-1.15-32.07,3.69-3.12-9.23-8.4,1.91-8.79-4.48-9.37-4.61-7.14-1.61-14.85,1.69-15.62,1.54-7.76-1.57,9.85-1.19-5.47-6.15l-1.56-6.15c4.63.35,9.4-.25,14.06,0,20.91,7.46,41.3,14.17,64.03,6.92-11.47-6.72-25.49-2.75-9.37-6.15-9.49-12.09-30.46-2.66-36.7-3.84-9.92-1.88-21.15-18.03,22.64-13.07-4.55.1-31.54-20.46-25.77-23.84l42.95,14.61c-3.82-13.51-2.84-24.88-15.62-35.37q3.51-2.69,7.03-5.38c5.76,8.06,18.91,12.95,20.3,13.84,5.39,3.45,1.71,13.62,11.71,2.31,8.44,15.83-5.31,22.41,5.47,17.69,28.65,38.4-5.33-18.58,1.56-32.3,6.91,9.7,17.51,11.42,18.74,24.61.31-38.84,25.72-6.65,28.11-6.15,3.35.7,1.91-4.21,8.59-3.08Z"/>
            <path class="cls-30" d="M246.08,253.29c19.49,27.58-.92,22.4-2.34,10-.06-.51,1.78-1.29,2.34-10Z"/>
          </g>
          <g>
            <path class="cls-30" d="M.11,284.05c0-7.18,0-14.35,0-21.53,32.27-21.2,10.87,12.65,0,21.53Z"/>
            <path class="cls-30" d="M.11,254.83c0-2.56,0-5.13,0-7.69,13.79-4.39,9.07,3.88,0,7.69Z"/>
            <g>
              <path class="cls-30" d="M100.06,293.28c3.85,3.44,4.88,2.74,9.37,3.08l1.56,6.15c-16.29-5.28-9.36,10.95-1.56,19.22-31.97,9.7,12.15,1.48,35.92,2.31,3.2.24,5.54-.02,8.59,1.54q12.49-3.84,24.99-7.69c38.11,11.21,12.77,4.47-7.81,9.23-.77,15.39-33.9-7.02-35.92,12.3-28.31-4.51-13.33,15.99-24.99,6.15-1,7.66-17.79.09-1.56,13.84-25.22-2.17-.22-10.8-21.08-11.53,27.75-21.13.56-7.57-5.47-11.53-4.17-17.14-9.98-.08-10.93,0-3.78.31-1.31-20.82-21.08-2.31q-.78,7.69-1.56,15.38c-26.51,15.29-2.28-2.87-11.71-10-32.21,8.95-1.03-1.26-9.37-26.15-19.52,13.87-13.3.49-17.18-1.54-5.86-3.07-6.78,6.82-10.15,3.08,0-8.72,0-17.43,0-26.15,8.79,7.73,21.14-3.55,20.3-5.38-1.27-2.78-15.47,1.51,2.34-16.15.71-.7,4.05.11,4.69,1.54,6.3-22.03,17.34,1.58,21.86-21.53,16.82,14.32-17.39,36.25,15.62,44.6,6.88,25.72,12.64-10.91,16.4-5.38-.44,29.26-15.84,36.19-3.9,34.6,19.82-19.79-10.57-30.23,22.64-27.68Z"/>
              <path class="cls-13" d="M61.8,299.43c13.28.87-7.37,9.52-7.03,3.84.06-.95,6.63-3.87,7.03-3.84Z"/>
            </g>
          </g>
          <g>
            <g>
              <path class="cls-2" d="M621.66,371.72c.72,5.25-1.47,4.39-1.56,4.61l-3.12,3.08c-16.59-12.39-22.81-1.27-33.58,10.77,1.13-10.92,1.48-10.3-2.34-19.99-.41-1.03,4.7-2.68-4.69-6.15,0-.35-2.74-1.76-1.56-6.92,15.33,10.3,4.79,3.14,4.69-1.54-.04-1.8,27.41-11.97,4.69-24.61,21.6,2.71,3.66-5.67,4.69-7.69,1.31-2.58,5.16,1.03,6.25,0,1.13-1.07-4.59-15.89.78-29.99,8.11,14.93,4.6,19.87,5.47,25.38.23,1.49,4.31.03,4.69,1.54-8.61,8.71-2.08,17.09,7.81,6.15-4.69,8.6-13.51,19.86,3.12,16.92-17.72,23.41,2.69,17.1,3.12,18.46.25.79-11.38,11.57,1.56,10Z"/>
              <path class="cls-11" d="M581.06,370.18l-4.69-1.54c.04-.23-.01-3.44,0-4.61,9.39,3.47,4.28,5.12,4.69,6.15Z"/>
            </g>
            <g>
              <path class="cls-30" d="M662.27,417.85c-2.35,3.78-2.98,4.37-3.12,4.61-3.94,6.64.87,10.79-9.37,9.23,2.76-5.41,9.68-.15-3.12-8.46q.78-8.46,1.56-16.92c-12.95,4.64-5.11-8.82-17.18-9.23,3.42-2.07,2.61-8.9,1.56-13.07,7.39-5.75,5.18,10.45,9.37,14.61,20.13,5.8,8.86,21.85,20.3,19.22Z"/>
              <g>
                <path class="cls-8" d="M576.38,368.64l4.69,1.54c3.83,9.7,3.47,9.07,2.34,19.99,10.77-12.03,16.99-23.16,33.58-10.77,4.96,3.21,2.16-.76,3.12-3.08.09-.22,2.29.64,1.56-4.61,2.09-.25,4.51-5.26,6.25-2.31-4.65,4.14,2.99,7.83,4.69,14.61,1.04,4.17,1.86,11-1.56,13.07,12.07.41,4.22,13.87,17.18,9.23q-.78,8.46-1.56,16.92c12.8,8.31,5.88,3.05,3.12,8.46-2.43,4.78-5.88,9.91-6.25,15.38-14.85-.31-17.06-1.77-17.96-1.54-5.63,1.47,3.3,10.04-21.86,9.23-6.81-17.68-12.97-11.38-19.52-7.69-9.76-14.19,2.85-16.12-12.49-22.3,1.98-19.74-28.67,1.37-34.36-16.15,7.11.53,10.08-14.88,3.12-19.22,5.44,2.66,5.59-18.93,4.69-20.76,23.29-9.87,12.73,13.63,14.06,14.61,2.65,1.97,4.43-2.02,6.25-.77-.06,1.03-2.11,4.25-3.12,5.38,8.3,20.72,11.21.2,3.12-5.38.32-5.52,2.2-16.1,0-19.99,4.55-10.32,8.42,20.34,10.93,6.15Z"/>
                <path class="cls-11" d="M565.44,382.48c8.08,5.59,5.17,26.1-3.12,5.38,1.01-1.13,3.06-4.36,3.12-5.38Z"/>
                <path class="cls-14" d="M625.57,437.85c6.25-.75,5.77,4.47,3.12,4.61-.28.02-4.76-3.91-3.12-4.61Z"/>
                <path class="cls-12" d="M620.1,376.33c-.97,2.31,1.83,6.28-3.12,3.08l3.12-3.08Z"/>
              </g>
            </g>
          </g>
          <g>
            <path class="cls-30" d="M526.4,362.49c.64,2.53,2.66.97,3.12,2.31.16.45-3.83,2.41-3.12,4.61,3.44,10.73,10.59-17.36,18.74-.77.9,1.84.75,23.42-4.69,20.76,6.96,4.34,3.98,19.76-3.12,19.22-1.8-.14-3.65.09-5.47,0,2.36-10.04-10.34-11.56-10.93-12.3-1.32-1.67,1.51-2.15.78-3.08-.25-.32-.01-6.06-2.34-7.69-1.24-.87-19.17-2.97-22.64-14.61,9.7.07,7.85-4.61,10.93-6.92,2.98-2.24,5.24.15,5.47,0,6.78-4.52-2.41-11.43,13.27-1.54Z"/>
            <path class="cls-24" d="M510,365.56c4.49-1.79,5.93,11.44-1.56,10.77-5.48-.49-1.64-9.49,1.56-10.77Z"/>
          </g>
        </g>
        <g>
          <path class="cls-2" d="M1040.2,320.96c-1.3,1.68-15.82.99,3.9,13.84,3.53-.22,17.8-3.17,18.74-3.08,4.64.46,9.58,5.99,10.15,6.15-5.89,2.18-20.93,5.39-24.99,9.23-7.49-7.13-26.9-5.04-26.55-13.84,2.93-.21,6.15.71,7.81-.77,1.41-1.72-3.69-4.58-6.25-5.38v-1.54c7.4-2.24,5.49-6.38-1.56-6.15-.14-.45.11-1.04,0-1.54,6.16,4.97,28.17-9.1,18.74,3.08Z"/>
          <g>
            <path class="cls-30" d="M982.42,251.75c-17.25,2.58-38,8.86-44.51,26.15-7.98-.27,3.32-11.03-10.93-19.99-4.79,6.73-30.13-14.76-28.89,6.92-6.37-1.95-1.64,2.04-10.93,8.46-.76.53-13.96,1.97-15.62,8.46-3.17,12.39,10.91,2.8,10.93,10-14.36,10.82,4.76,11.54,14.06,16.15q-14.06,1.54-28.11,3.08c18.62,12.85,47.24,17.39,3.9,17.69-.74,0-10.5-8.59-9.37,3.08-5.58-3.64-15.76-.14-36.7-4.61-11-2.35-33.43-3.9-23.43-19.22,1.77-2.72,4.79,4.73,5.47-5.38,11.72-2.65,15.31,14.94,14.06-3.08,14.53,18.01,9.89-1.1,10.93-1.54,9.43,9.33,6.55-2.42,8.59-16.15h12.49c-22.14-25.68,6.98-2.07,8.59-2.31.77-.11,10.16-10.91,3.9-11.53,13.44.07-6.68-8.42.78-13.07,17.33,15.08,17.52,5.6,2.34-11.53,9.55-3.3,10.77-6.44,21.08-.77,7.66-38.81,3.76,16.53,17.18-12.3,3.11,19.3,5.81,12.83,24.99,19.99.86-13.02,10.19-31.52,12.49-15.38,9.29-34.89,13.38,4.37,20.3,4.61,1.64.06,5.88-12.12,9.37,6.15,14.26-11.56,7.63-3.28,7.03,6.15Z"/>
            <path class="cls-30" d="M815.31,328.65c9.18,14.86,20.68,6.95,42.17,31.53-22.13,15.87-44.99-5.45-47.63-5.38-.89.02-3.77,4.07-16.4,6.92,15,13.68,26.38,10.55,42.17,16.92-3.97,1.1-10.82,8.01-10.93,10.77-.06,1.44,14.73,5.52-16.4,11.53-3.81,13.2-41.9,15.22-57,8.46q11.71-3.84,23.43-7.69c-15.75-14.07-25.36-6.52-24.99-16.15,18.87-.45,29.37,10.87,10.93-8.46q10.15-1.54,20.3-3.08c-.83-3.15-18.39-11.76-18.74-13.07,52.06,5.02,24.02,2.91,4.69-7.69-1.14-.62-7.73-4.9-7.81-5.38,29.81-.8,40.95,14.08,7.81-13.84l2.34-2.31c1.74-.19,25.15,16.05,32.01,13.07-32.41-18.14-41.86-39.93.78-10,5.61-11.61,4.86-6.52,13.27-6.15Z"/>
            <path class="cls-30" d="M1024.58,307.12c-7.96-6.67-16.84-2.29-22.64-10.77-8.14,7.51-10.37,3.98-13.27-5.38,1.86-.66,5.87-5.2,6.25-5.38,5.71-2.77,39.62-1.61,47.63,3.08-4.47,5.04-14.33,13.95-17.96,18.46Z"/>
            <path class="cls-30" d="M993.35,282.51c-5.85-14.01-4.82-10.04-18.74-6.92,3.21-6.84,3.31-12.1,9.37-15.38-.55-.7-1.85-1.17-1.56-2.31,27.6-3.2,17.92,2.96,21.08,6.15,1.31,1.32,18.86-4.49-10.15,18.46Z"/>
            <path class="cls-24" d="M762.22,360.95c-1.5-5.57,3.59-3.92,4.69-7.69,19.33,10.6,47.37,12.71-4.69,7.69Z"/>
            <path class="cls-4" d="M1021.46,313.27q10.15-2.69,20.3-5.38c.91,1.8-18.04,10.29-20.3,5.38Z"/>
            <path class="cls-30" d="M887.15,273.28q3.51,3.84,7.03,7.69c27.68,3.17-5.21,5.87-11.71,10.77-.02-7.19-14.1,2.4-10.93-10,1.66-6.49,14.85-7.93,15.62-8.46Z"/>
            <path class="cls-30" d="M1023.02,327.11c2.55.8,7.65,3.66,6.25,5.38-1.66,1.48-4.88.56-7.81.77-2.74.2-12.13-.66-26.55,1.54-.25-6.21,25.37-8.55,28.11-7.69Z"/>
            <g>
              <path class="cls-37" d="M982.42,251.75c-.1,1.51.07,5.85,0,6.15-.28,1.14,1.01,1.61,1.56,2.31-6.06,3.28-6.16,8.54-9.37,15.38,13.92-3.12,12.89-7.09,18.74,6.92.07.16-3.17,1.56,1.56,3.08-.37.18-4.39,4.73-6.25,5.38,2.91,9.36,5.13,12.89,13.27,5.38,5.8,8.48,14.68,4.1,22.64,10.77-1.36,1.7-1.91,4.28-3.12,6.15-.14.22-2.52-.85-4.69,2.31,2.19,3.21,4.63,2.06,4.69,2.31.11.49-.14,1.08,0,1.54.12.38-4.77,1.77,1.56,6.15v1.54c-2.74-.86-28.36,1.48-28.11,7.69-5.58.85-11.75-.37-17.18,2.31-4.26,6.19,19.4,16.39-10.15,5.38q-9.76,6.54-19.52,13.07c34.26,12.41-8.97,6.39-10.93,30.76-1.75,5.54,34.9-6.8,22.64,2.31-12.37,9.19-28.89,6.58-37.48,9.23-1.88.58,5.01,7.45-35.14,11.53-3.63,4.32,19.09,14.99,15.62,27.68-1.21,4.41-3.84,5.01-7.81,5.38-5.98.56-8.06-3.06-8.59-3.08-1.49-.04-.79,6.61-10.93-1.54-1.86,9.7-8.65-4.64-12.49,15.38l-11.71,1.54c11.45-12.77-53.94-15.25-57-13.84-.71.33.52,13.25-.78,15.38-1.88.08-2.24,6.15-4.69,1.54.71-20.01-28.53-23.56-17.18-1.54-.52,0-1.04,0-1.56,0-8.29-10.08-12.96-8.37-21.86,0-1.56-.04-3.13.04-4.69,0q-5.08-6.15-10.15-12.3c-1.8,4.51-16.34-.38-17.18,0-1.7.77,2.27,13.42-3.9,12.3-15.29-4.01-4.15-5.58-8.59-9.23-1.44-1.19-17.3,3.78-37.48,3.08-6.78-.24-15.49-2.92-22.64-3.08.37-5.47,3.81-10.6,6.25-15.38,10.24,1.56,5.43-2.59,9.37-9.23,7.88,11.99,21.87-1.05,32.01-3.08,7.23-1.44,23.87.54,24.99,0,4.09-1.98,1.18-8.01,3.12-9.23.3-.19,4.95,3.84,7.03.77.18-.27-4.68-4.1-4.69-4.61,0-1.31,4.97-.28,4.69-1.54-.13-.57-5.19-3.62-6.25-10-1.17-7.09,4.56-13.87,4.69-20.76.76-1.58,3.59,1.44,4.69,3.84,1.39,3.04,1.32,11.53,2.34,12.3,4.96-.76,10.26-5.94,11.71-6.15.56-.08,5.39,1.56,6.25,1.54-.37,9.63,9.24,2.08,24.99,16.15q-11.71,3.84-23.43,7.69c15.1,6.76,53.2,4.74,57-8.46,31.13-6.01,16.34-10.09,16.4-11.53.11-2.76,6.97-9.67,10.93-10.77-15.79-6.37-27.17-3.24-42.17-16.92,12.63-2.85,15.51-6.9,16.4-6.92,2.64-.07,25.5,21.25,47.63,5.38-21.49-24.57-32.99-16.67-42.17-31.53,5.51.24,11.26.61,10.93-1.54,20.94,4.47,31.12.97,36.7,4.61-1.13-11.67,8.63-3.07,9.37-3.08,43.33-.3,14.72-4.84-3.9-17.69q14.06-1.54,28.11-3.08c-9.29-4.61-28.42-5.33-14.06-16.15,6.5-4.9,39.4-7.6,11.71-10.77q-3.51-3.84-7.03-7.69c9.3-6.42,4.57-10.41,10.93-8.46-1.24-21.68,24.1-.19,28.89-6.92,14.25,8.96,2.95,19.72,10.93,19.99,6.51-17.29,27.26-23.56,44.51-26.15Z"/>
              <g>
                <path class="cls-19" d="M743.48,456.3c-11.09-.3-19.45,3.09-31.23,0,6.17,1.11,2.21-11.54,3.9-12.3.83-.38,15.38,4.51,17.18,0q5.08,6.15,10.15,12.3Z"/>
                <path class="cls-19" d="M770.03,456.3c-7.82.14-14,.21-21.86,0,8.91-8.37,13.58-10.08,21.86,0Z"/>
                <g>
                  <path class="cls-19" d="M788.77,457.84c-5.78,1.51-16.32-1.55-17.18-1.54-11.35-22.02,17.88-18.48,17.18,1.54Z"/>
                  <g>
                    <path class="cls-19" d="M864.51,436.31c1.88.68-.09,5.88-.78,6.92-3.55,5.32-13.95,5.49.78-6.92Z"/>
                    <path class="cls-15" d="M1023.02,325.58c-6.33-4.38-1.44-5.77-1.56-6.15,7.05-.22,8.96,3.92,1.56,6.15Z"/>
                  </g>
                </g>
              </g>
            </g>
          </g>
          <g>
            <path class="cls-18" d="M1021.46,333.27c-.35,8.8,19.06,6.71,26.55,13.84-.98.93-3.15,7.97-4.69,10.77-5.52,10.06-1.9,8.85-2.34,9.23l-13.27,3.84c18.71,4.06,14.57-8.49,23.43,7.69-11.03,13.21,3.93,9.27,4.69,12.3.77,3.09-22.27,24.85,41.38,10,4.81.65,39.99,43.11,49.97-6.15,2.22,30.29,11.77,12,23.43,18.46,6.32-23.05,23.5-16.87,26.55-18.46,2.16-1.12-4.2-4.66,4.69-10.77,27.28,11.67,16.05-10.98,23.43-16.92,10.5-8.45,11.35,11.62,24.21,0,.9,2.5-2.17,3.49-1.56,5.38,13.48,5.77,3.24,14.26,3.12,15.38-.18,1.64,5.21,1.78,4.69,4.61-.65,3.52-8.13,1.41-9.37,3.08-.2.26,4.87,4.34,4.69,4.61-1.56,2.29-8.33-2.45-3.12,15.38.57,1.95,4.84,2.55,4.69,3.08-.44,1.5-4.6.08-4.69,1.54-.29,4.81,6.61-.7-4.69,14.61-16.12-4.82-11.11-1.88-14.84,7.69-27.36-14.11-15.76,8.3-16.4,11.53-.26,1.31-14.97,19.95-15.62.77-.06-1.71,1.8-8.16,3.12-10-.65-7.35-15.05,2.47-12.49-7.69-16.38,4.86-7.87.27-21.86-3.08,2.11,5.27,3.42,13.63,3.12,19.22-.23,4.36,1.17,10.09-3.9,12.3-22.38,9.76-20.96-14.84-22.64-17.69-6.94-11.77-10.31.49-11.71.77-1.5.3-6.61-6.83-21.86-4.61-26.76-21.93-25.14-6.93-31.23-7.69-2.19-.27-7.22-7.93-9.37-9.23-25.14-15.12-2.32,4.15-3.9,10-.16.58-8.03,8.22-8.59,8.46-10.77,4.57-16.77-7.07-26.55-1.54q-.39-1.92-.78-3.84c26.73-7.39-15.87-14.49-18.74-10.77,13.43,29.17-8.4,18.99-10.15,19.22-8.63,1.17-34.01,10.98-35.92,0q1.56,6.92,3.12,13.84c-6.4-3.73-10.07-2.65-16.4-3.08-.83-3.88,4-23.16.78-23.07q-2.73,12.3-5.47,24.61c-1.62-.2-8.6-4.68-21.08-3.08-8.09-28.61-25.16-7.82-28.89-15.38,3.97-.37,6.6-.97,7.81-5.38,3.47-12.7-19.25-23.36-15.62-27.68,40.14-4.09,33.25-10.95,35.14-11.53,8.59-2.65,25.11-.04,37.48-9.23,12.26-9.11-24.39,3.23-22.64-2.31,1.96-24.37,45.19-18.35,10.93-30.76q9.76-6.54,19.52-13.07c29.56,11,5.9.8,10.15-5.38,5.42-2.67,11.6-1.46,17.18-2.31,14.42-2.2,23.81-1.34,26.55-1.54Z"/>
            <g>
              <path class="cls-15" d="M1095.64,427.08l11.71.77c-11.99,10.52-14.89.7-11.71-.77Z"/>
              <g>
                <path class="cls-19" d="M949.62,459.38c-.25-.02.86,2.23-4.69,1.54q2.73-12.3,5.47-24.61c3.22-.09-1.61,19.19-.78,23.07Z"/>
                <path class="cls-13" d="M931.66,428.62c4.64,23.81-.95,38.32-3.9,17.69-.99-6.91,3.48-11.11,3.9-17.69Z"/>
                <path class="cls-29" d="M962.89,402.47c1.67.23,3.17,2.84,0,4.61-10.39,5.81-8.87-5.83,0-4.61Z"/>
                <path class="cls-29" d="M1015.99,345.57c9.15-3.73,2.88,7.1-1.56,4.61-.99-.55,1.25-4.49,1.56-4.61Z"/>
              </g>
            </g>
          </g>
        </g>
      </g>
    </g>
  </g>
</svg>