<?xml version="1.0" encoding="UTF-8"?>
<svg id="Layer_2" data-name="Layer 2" xmlns="http://www.w3.org/2000/svg" viewBox="0 0 1920 985.52">
  <defs>
    <style>
      .cls-1 {
        fill: #00ab41;
        stroke-width: 0px;
      }
    </style>
  </defs>
  <g id="Layer_8" data-name="Layer 8">
    <g>
      <path class="cls-1" d="M1875.72,85.61l-2.74-3.3c.14.08.29.18.43.27.65.43,1.43,1.45,2.31,3.03Z"/>
      <path class="cls-1" d="M1919.87,391.62v-30.58c.17,10.13.17,20.34,0,30.58Z"/>
      <path class="cls-1" d="M1919.87,138.52v847H0V138.52h.03l11.21-16.36,31.57-34.22-.25,1.09c.15-.23.3-.43.44-.59v.08h.04c13.15-15.17,23.69-15.17,23.69-15.17,4.75,0,8,1.9,13.7,0,0,0,2.85-.95,12.48-7.57,0,0,2.01,2.92,5.19,5.96s7.54,6.2,12.23,6.68c3.53.36,3.49-1.19,12.48-3.8,9.51-2.78,14.3-4.16,18.7-2.54,7.24,2.7,5.66,9.9,13.7,13.91,3.37,1.66,8.08,1.54,17.43,1.26,7.37-.2,16.2-1.26,16.2-1.26,0,0,2.03-3.32,5.54-7.19,3.5-3.86,8.48-8.28,14.38-10.48,3.84-1.43,8.79-1.39,18.7-1.27,12.47.16,17.94,1.78,19.92-1.27,2.49-3.8-3.49-10.49-1.23-12.63,1.86-1.78,6.06,2.97,14.93,3.8,6.93.64,14.94-1.27,14.94-1.27,0,0,3.34-1.57,8.6-3.94,5.25-2.36,12.4-5.52,20.03-8.69,9.23-3.84,7.69-2.93,12.48-5.07,13.98-6.22,15.45-8.75,21.19-8.83,8.32-.16,9.78,5.11,16.2,3.8,6.69-1.35,7.33-7.49,14.93-13.9,6.77-5.67,17.51-10.26,27.41-8.84,14.73,2.14,27.41,17.67,27.41,17.67,0,0,2.89-1.19,7.14-2.57,4.25-1.38,9.85-2.95,15.28-3.73,5.5-.79,11.09-1.62,17.42,0,14.7,3.73,14.78,15.69,27.41,17.67,9.91,1.58,22.42-3.8,22.42-3.8,0,0,2.54-1.09,6.29-2.9,3.76-1.81,8.74-4.33,13.63-7.21,9.75-5.74,11.17-8.15,14.94-7.56,5.15.79,5.03,5.7,11.21,8.83,6.77,3.45,9.54-1.15,22.41,0,0,0,2.78.24,21.19,5.07,0,0-9.05,9.73-9.05,14.9,0,.56.1,1.06.34,1.5,1.7,3.13,8.16-.83,16.2,3.8.52.28,2.97,2.22,7.92,6.02,2.42,1.86,4.16,3.25,7.01,5.35.68.51,1.82,1.31,4.08,2.93,4.32,3.05,8.36,5.94,8.36,5.94l2.5,12.64s7.21,3.74,12.92,3.74c1.71,0,3.29-.33,4.5-1.21,3.92-2.89,2.93-10.77,2.74-12.28-.48-3.84-1.98-6.65-2.74-7.92-8.12-13.78-25.43-11.88-29.9-24-1.55-4.2-2.5-12.56-2.5-12.64,0,0,.87-3.39,2.87-7.62,2-4.22,5.12-9.27,9.61-12.58,4.99-3.68,23.33-8.19,17.43-6.29l18.69-2.54,14.93,11.37c.86,7.69,1.48,12.1,1.89,14.59.41,2.5.61,3.07.61,3.07,3.01,8.8,7.17,8.88,7.49,15.17.35,7.05-4.68,12.28-4.99,12.64-4.64,4.71-8.12,2.26-12.48,6.3-7.21,6.73-6.22,21.46-6.22,21.46l17.43,3.81c10.57-8.54,13.32-8.84,13.66-8.84h.04c5.03.76,4.72,8.24,11.21,10.1,4.75,1.35,9.47-1.3,10.81-2.09,3.81-2.14,5.83-5.27,6.98-7.05,3.4-5.39,1.94-7.61,4.79-10.14,3.88-3.45,10.06-2.42,11.76-2.1,1.94.31,1.98.67,7.61,2.81,9.5,3.64,10.93,3.29,11.76,2.81,2.85-1.58,1.39-5.58,4.16-7.01,4.16-2.18,12.48,4.2,12.48,4.2,0,0,1.59.93,3.43,2.53,1.83,1.61,3.91,3.89,4.88,6.58,1.47,4.08-.87,5.66.68,8.43,2.21,4.01,8.99,4.12,13.15,4.2,8.51.16,9.38-2.25,18.02-2.81,6.34-.4,6.18.87,18.69,1.39,4.52.2,8.52.35,13.15,0,8.92-.68,13.83-2.78,19.41-4.2,21.63-5.59,31.73,4.2,39.49-3.53,4.24-4.19,5.7-11.6,3.45-16.16-2.38-4.79-9.11-7.05-15.25-9.15-5.94-2.02-8.2-1.62-8.99-3.52-1.67-3.72,4.47-11.45,11.76-14.74,7.45-3.36,14.73-1.42,20.08,0,4.91,1.31,11.57,3.05,16.64,9.11,4.63,5.55,7.8,14.58,4.83,17.55-3.33,3.37-11.33-3.92-17.31,0-4.4,2.89-6.14,10.81-3.45,15.45,2.38,4.2,7.37,4.08,22.18,5.62,25.95,2.74,27.97,4.91,45.04,4.91,4.95,0,10.22,0,17.31-.71,10.73-1.07,13.7-2.53,22.18-2.81,8.83-.28,8.24,1.23,18.02,1.39,14.58.23,15.05-3.13,28.4-2.82,11.01.28,14.02,2.66,20.79,0,1.98-.79,9.23-3.6,11.09-9.82,1.63-5.47-2.21-9.15,0-11.92,2.34-2.97,7.05.71,13.87-2.1,5.58-2.3,5.26-5.94,10.37-7.01,3.89-.83,8.2.39,11.09,2.81,2.54,2.14,1.79,3.41,4.84,7.72,4.35,6.14,7.8,6.34,8.31,9.83.64,4.39-4.47,6.37-4.15,9.11,1.03,8.75,56.52,16.51,62.34,2.1,2.49-6.14-4.12-16.28-11.76-21.08-14.14-8.83-32.64.12-34.66-4.91-1.23-3.01,5.82-5.42,8.99-15.44,1.07-3.33,1.39-8.32,2.06-18.26.55-7.85.43-11.09,2.77-12.64,2.66-1.78,4.79,1.07,9.71,0,5.7-1.27,5.62-5.82,11.76-7.72,2.26-.72,5.19-.48,11.09,0,2.65.2,6.02.47,10.38,1.38,8.83,1.91,10.57,4.16,13.15,2.82,3.48-1.83,1.54-6.54,5.54-10.54,3.33-3.33,8.08-3.41,13.86-3.52,6.82-.12,13.75-.24,17.31,4.19,3.92,4.84-.43,9.79,4.16,15.45,1.82,2.26,2.89,1.9,8.32,7.01,4.87,4.6,4.95,5.71,4.83,6.34-.55,2.93-7.84,3.8-11.09,4.2-12.99,1.58-20.55-2.14-22.18.71-.75,1.31.67,2.38,3.45,9.82,3.48,9.35,2.53,11.25,2.06,11.93-1.47,2.17-3.96.91-6.22,3.52-2.38,2.69-.79,5.31-2.77,7.01-1.67,1.47-3.93.56-11.09-.71-6.78-1.19-10.18-1.74-11.77-.71-3.13,2.02-3.29,7.09-3.44,13.34-.16,5.75-.28,8.6,1.38,10.54,4.16,4.87,17.23,3.44,24.96-3.53,8.23-7.44,3.92-15.32,12.47-21.78,3.96-2.97,5.07-1.43,18.02-7.72,7.33-3.57,9.31-5.23,10.38-7.73,1.7-3.96-.75-5.9,0-12.63.2-1.67.91-7.57,4.83-12.64,4.2-5.42,9.94-7.21,13.87-8.43,9.18-2.86,19.36-2.1,19.4-2.1,0,0,6.33,3.52,10.57,3.52,1.02,0,1.92-.2,2.58-.71,3.09-2.38-1.58-9.39,1.39-12.64,3.17-3.48,10.58,2.22,26.34,4.91,12.83,2.22,17.39,0,20.79,4.2,4.08,5.07-.43,10.94,4.16,16.88,3.49,4.47,9.86,6.02,14.54,5.62,3.56-.32,4.67-1.62,18.69-9.82,6.9-4.04,7.97-4.52,8.99-4.91,3.21-1.23,10.46-4.04,17.31-2.1,8.28,2.33,7.57,9.23,13.87,11.25,10.29,3.28,16.04-13.91,33.9-16.48,14.14-2.06,31.05,5.74,31.05,5.74,0,0,1.74,4.12,3.79,8.43,2.05,4.31,4.41,8.82,5.64,9.59,4.32,2.7,6.93-.15,20.2-1.03,2.54-.15,11.84-.67,22.22,1.03,11.96,1.94,11.53,4.56,22.22,6.14,11.13,1.67,10.46-1.34,25.27,0,9.67.87,13.51,2.5,19.21,0,6.1-2.65,5.78-6.33,10.1-7.17,8.52-1.66,11.96,12.08,24.24,14.34,5.86,1.07,5.23-2.02,25.27-6.14,11.61-2.37,16-2.22,18.18-2.06,7.21.56,7.45,2.26,17.19,4.08,5.11.95,10.81,1.31,22.22,2.06,12.4.79,16.04.68,17.19,3.09,1.82,3.88-5.7,8.48-4.04,14.34,1.11,3.88,5.78,6.93,10.1,7.17,8.95.47,12.52-11.37,19.21-10.26,6.18,1.07,5.35,11.57,13.15,14.34,6.18,2.18,9.71-3.37,19.21-3.09,0,0,6.89.23,15.63,5.8.03.02.07.04.1.07l2.74,3.3,43.7,52.91h.46Z"/>
      <path class="cls-1" d="M1872.98,82.31s-.07-.05-.1-.07v-.06l.1.13Z"/>
    </g>
  </g>
</svg>