<?xml version="1.0" encoding="UTF-8"?>
<svg id="Layer_2" data-name="Layer 2" xmlns="http://www.w3.org/2000/svg" viewBox="0 0 1136 1134">
  <defs>
    <style>
      .cls-1 {
        fill: #fcf2e8;
        stroke-width: 0px;
      }
    </style>
  </defs>
  <g id="_1lilleramme" data-name="1lilleramme">
    <g>
      <path class="cls-1" d="M67.5,66.5v1000h1000V66.5H67.5ZM1066.46,834.53c-13.92,13.48-25.34,30.39-32.78,50.66-12.76,34.76-13.14,76.46-31.82,106.87-23.01,37.49-66.59,45.37-104.3,38.48-37.7-6.89-73.8-25.28-111.81-28.62-38.01-3.35-81.4,13.63-96.99,56.56-.74,2.05-1.4,4.1-1.99,6.17h-140.44c-5.99-5.84-12.46-11.24-19.22-16.22-48.22-35.56-109.8-50.37-169.62-63.31-59.8-12.93-121.51-25.52-172.3-57.78-50.8-32.27-88.63-89.75-76.17-146.01,7.67-34.69,32.86-64.01,42.49-98.26,12.96-46.14-6.22-98.74-46.61-127.82-10.95-7.9-23.3-13.93-36.36-18.06v-223.91c5.28-.14,10.55-.71,15.76-1.74,22.26-4.4,43.08-18.57,49.84-38.57,8.3-24.54-4.86-53.74,9.69-75.69,11.77-17.72,38.04-23.18,60.12-18.79,22.07,4.39,41.26,16.44,60.58,27.19,19.33,10.74,40.56,20.68,63.14,20.04,23.89-.66,45.72-13.25,62.56-28.87,31.75-29.46,49.06-69.35,63.31-108.73,2.38-6.56,4.7-13.17,7.04-19.77h287.55c18.87,22.72,30.54,50.64,28.99,80.4-1.5,29-15.03,58.31-6.69,86.06,8.52,28.33,37.95,45.16,66.53,48.79,28.59,3.62,57.31-3.01,85.92-6.41,37-4.39,81.04.06,100.97,32.46,17.34,28.17,8.69,64.91-.78,96.8-10.39,35.02-21.21,70.55-21.68,107.18-.48,36.61,10.95,75.21,38.25,98.68,8.09,6.97,17.16,12.19,26.82,15.8v206.42Z"/>
      <path class="cls-1" d="M0,0v1134h1136V0H0ZM1068,1066H68V68h1000v998Z"/>
    </g>
  </g>
</svg>