<?xml version="1.0" encoding="UTF-8"?>
<svg id="Layer_2" data-name="Layer 2" xmlns="http://www.w3.org/2000/svg" viewBox="0 0 1130 1130">
  <defs>
    <style>
      .cls-1 {
        fill: #fcf2e8;
        stroke-width: 0px;
      }
    </style>
  </defs>
  <g id="_2lilleramme" data-name="2lilleramme">
    <path class="cls-1" d="M0,0v1130h1130V0H0ZM1062.36,1062.24H67.64V67.76h994.72v994.48Z"/>
    <path class="cls-1" d="M65,65v1000h1000V65H65ZM1063.96,658.71c-3.28,5.08-6.32,10.57-9.11,16.3-19.98,40.93-28.31,93.17-35.57,143.93-7.26,50.75-14.34,103.11-32.47,146.2-18.12,43.1-50.43,75.2-82.04,64.64-19.49-6.51-35.96-27.89-55.21-36.06-25.93-11-55.48,5.28-71.82,39.54-4.31,9.03-7.63,19.16-9.94,29.89h-125.63c.45-8.48.32-16.73-.44-24.69-1.81-18.99-7.7-36.56-20.93-43.73-9.51-5.16-23.45-3.41-35.83,5-42.8,10.44-86.57,23.14-129.34,52.39-4.97,3.41-9.94,7.09-14.84,11.04h-207.59c-10.37-25.05-16.84-56.18-16.02-89.41.79-31.53,7.88-63.39,3.51-93.54-4.46-30.79-19.89-49.1-34.86-53.04-14.98-3.94-30.03,3.26-45.03,6.95-19.39,4.79-42.47-.05-52.92-35.27-9.08-30.63-4.55-70.55.41-105.22,4.85-33.89,9.87-68.23,11.09-103.46,4.66-37.19,8.14-75.81,11.4-113.93,7.27-84.81,14.34-172.32,32.47-244.34,18.13-72.04,50.43-125.69,82.04-108.03,19.49,10.89,35.97,46.6,55.21,60.26,25.93,18.38,55.48-8.81,71.82-66.08,4.41-15.44,7.78-32.81,10.1-51.19h112.39c5.74,12.15,12.27,23.18,20.05,32.35,20.16,23.77,51.01,31.99,76.03,8.44,12.72-11.96,23.07-31.11,36.21-40.8h6.72c6.94,3.37,13.27,8.17,18.57,13.58,13.55,13.82,23.16,31.63,37.85,44.18,14.7,12.54,37.41,18.81,56.09,6.78,19.49-12.54,26.05-39.21,24.06-60.9,0-.08-.02-.16-.02-.24,14.71,9.76,23.35,21.18,22.01,33.24-1.51,13.56-15.15,27.28-6.74,40.26,8.58,13.26,38.24,21.14,67.05,22.83,28.81,1.69,57.76-1.41,86.58-2.99,37.29-2.06,81.67.02,101.77,15.18,17.47,13.19,8.75,30.37-.79,45.3-10.47,16.38-21.38,33.01-21.86,50.15-.48,17.14,11.04,35.19,38.55,46.18,8.16,3.26,17.31,5.7,27.04,7.4v330.93Z"/>
  </g>
</svg>