<?xml version="1.0" encoding="UTF-8"?>
<svg id="Layer_2" data-name="Layer 2" xmlns="http://www.w3.org/2000/svg" viewBox="0 0 1130 1130">
  <defs>
    <style>
      .cls-1 {
        fill: #fcf2e8;
        stroke-width: 0px;
      }
    </style>
  </defs>
  <g id="_4lilleramme" data-name="4lilleramme">
    <path class="cls-1" d="M0,0v1130h1130V0H0ZM1062.36,1062.24H67.64V67.76h994.72v994.48Z"/>
    <path class="cls-1" d="M65,65v1000h1000V65H65ZM1063.96,750.48c-13.92,18.28-25.34,41.19-32.78,68.68-12.76,47.14-13.14,103.68-31.82,144.91-23.02,50.83-66.6,61.51-104.3,52.18-37.7-9.34-73.8-34.28-111.81-38.81-38.01-4.52-81.4,18.48-96.99,76.7-.79,2.98-1.51,6-2.12,9.02h-337.69c-16.62-22.69-26.9-50.56-25.55-80.25,1.32-28.95,13.24-58.21,5.9-85.91-7.51-28.28-33.44-45.08-58.63-48.71-25.19-3.61-50.5,3.01-75.71,6.4-32.61,4.4-71.42-.06-88.98-32.39-15.28-28.13-7.66-64.8.68-96.64,9.16-34.95,18.69-70.42,19.11-106.98.42-36.56-9.65-75.08-33.71-98.52-7.1-6.91-15.05-12.1-23.52-15.7v-141.2c24.93-18,55.72-29.18,88.58-27.72,31.6,1.4,63.53,14.01,93.76,6.23,30.86-7.94,49.21-35.35,53.16-61.97,3.95-26.63-3.28-53.39-6.97-80.05-4.8-34.47.05-75.5,35.35-94.07,30.7-16.15,70.72-8.09,105.47.73,33.97,8.62,68.39,17.56,103.71,19.71,37.27,8.28,75.99,14.47,114.19,20.27,85.02,12.92,172.73,25.49,244.93,57.72,72.21,32.23,125.98,89.66,108.28,145.85-10.91,34.65-46.71,63.94-60.4,98.16-18.43,46.09,8.83,98.63,66.25,127.69,15.4,7.8,32.74,13.79,51.08,17.9.17.05.35.08.52.12v156.68Z"/>
  </g>
</svg>