<?xml version="1.0" encoding="UTF-8"?>
<svg id="Layer_2" data-name="Layer 2" xmlns="http://www.w3.org/2000/svg" viewBox="0 0 1130 1130">
  <defs>
    <style>
      .cls-1 {
        fill: #fcf2e8;
        stroke-width: 0px;
      }
    </style>
  </defs>
  <g id="_3lilleramme" data-name="3lilleramme">
    <path class="cls-1" d="M0,0v1130h1130V0H0ZM1062.36,1062.24H67.64V67.76h994.72v994.48Z"/>
    <path class="cls-1" d="M65,65v1000h1000V65H65ZM1063.96,750.48c-13.92,18.27-25.33,41.19-32.78,68.68-12.76,47.14-13.14,103.67-31.81,144.9-23.02,50.83-66.6,61.52-104.3,52.19-37.7-9.35-73.81-34.28-111.82-38.81-38.01-4.53-81.4,18.48-96.99,76.7-.79,2.98-1.51,6-2.12,9.02h-227.62c-5.53-4.59-10.56-11.39-14.74-19.07-10.2-18.74-17.44-42.88-28.49-59.88-11.06-17-28.16-25.49-42.22-9.19-7.34,8.51-12.24,21.81-15.13,36.66-24.34-12.38-50.42-20.48-76.06-27.95-44.32-12.91-90.04-25.49-127.67-57.72-37.64-32.22-65.67-89.65-56.44-145.85,5.69-34.65,24.35-63.94,31.48-98.15,9.61-46.09-4.6-98.63-34.53-127.69-8.04-7.81-17.09-13.81-26.67-17.93v-190.67c5.99-.16,11.97-.8,17.88-1.97,25.05-4.97,48.5-21,56.11-43.63,9.34-27.78-5.47-60.81,10.92-85.63,13.25-20.06,42.83-26.23,67.69-21.27,24.85,4.97,46.45,18.6,68.21,30.76,21.77,12.16,45.66,23.4,71.08,22.69,26.9-.76,51.48-14.99,70.44-32.67,35.76-33.33,55.24-78.46,71.29-123.01,2.89-8.01,5.71-16.06,8.54-24.12h275.35c16.62,22.69,26.9,50.56,25.55,80.26-1.32,28.95-13.24,58.2-5.9,85.9,7.51,28.29,33.44,45.09,58.63,48.71,25.19,3.61,50.5-3,75.71-6.39,32.61-4.4,71.42.05,88.98,32.39,15.28,28.12,7.66,64.79-.68,96.63-9.16,34.95-18.69,70.42-19.11,106.98-.42,36.56,9.65,75.08,33.71,98.52,7.1,6.91,15.05,12.1,23.52,15.71v124.92Z"/>
  </g>
</svg>