<svg width="57" height="57" viewBox="0 0 57 57" fill="none" xmlns="http://www.w3.org/2000/svg">
<path d="M46.0229 39.1344C48.5073 35.3569 49.9527 30.8355 49.9527 25.9764C49.9527 12.7346 39.2181 2 25.9764 2C12.7346 2 2 12.7346 2 25.9764C2 39.2181 12.7346 49.9527 25.9764 49.9527C30.851 49.9527 35.3858 48.498 39.1704 45.999C39.5851 46.4959 39.9952 46.9908 40.4038 47.4839C41.9954 49.4044 43.564 51.2974 45.2852 53.1662C47.3166 55.3719 50.4077 55.6305 52.5539 53.5363C52.7172 53.3768 52.8866 53.2096 53.0621 53.034C53.2376 52.8584 53.405 52.6891 53.5643 52.5257C55.658 50.379 55.3995 47.2872 53.1943 45.2554C51.326 43.5338 49.4335 41.9647 47.5133 40.3729C47.0184 39.9625 46.5216 39.5507 46.0229 39.1344Z" stroke="#FCF2E8" stroke-width="2.99899" stroke-linecap="round" stroke-linejoin="round"/>
<path d="M25.9765 41.1193C34.3397 41.1193 41.1194 34.3396 41.1194 25.9763C41.1194 17.6131 34.3397 10.8334 25.9765 10.8334C17.6132 10.8334 10.8335 17.6131 10.8335 25.9763C10.8335 34.3396 17.6132 41.1193 25.9765 41.1193Z" stroke="#FCF2E8" stroke-width="2.99899" stroke-linecap="round" stroke-linejoin="round"/>
</svg>
