<?xml version="1.0" encoding="UTF-8"?>
<svg id="Layer_2" data-name="Layer 2" xmlns="http://www.w3.org/2000/svg" viewBox="0 0 1000 1000">
  <defs>
    <style>
      .cls-1 {
        fill: #fcf2e8;
        stroke-width: 0px;
      }
    </style>
  </defs>
  <g id="_5lilleramme" data-name="5lilleramme">
    <path class="cls-1" d="M0,0v1000h1000V0H0ZM998.96,628.77c-5.03,4.77-9.69,9.94-13.96,15.35-29.51,37.33-41.81,85.01-52.54,131.32-10.73,46.31-21.18,94.1-47.96,133.43-26.78,39.33-74.48,68.63-121.18,58.98-28.79-5.94-53.12-25.44-81.55-32.9-38.29-10.04-81.94,4.81-106.08,36.08-6.33,8.19-11.21,17.38-14.63,27.11h-68.51c1.54-5.54,2.72-11.15,3.5-16.79,3.09-22.51-.68-45.59-12.83-62.96-13.24-18.91-35.3-29.71-58.38-34.54-17.27-3.61-36.04-4.11-53.55,2.63-17.51,6.74-33.44,21.75-37.92,39.94-5.49,22.32,6.31,45.84-4.28,66.74-.89,1.75-1.91,3.42-3.05,4.98h-101.43c-8.3-3.16-16.95-5.69-25.82-6.54-10.94-38.36-17.6-84.74-16.67-134.03.95-50.2,9.43-100.94,4.2-149-5.34-49.04-23.8-78.19-41.72-84.47-17.93-6.27-35.94,5.2-53.89,11.08-23.2,7.63-50.83-.08-63.33-56.18-10.87-48.79-5.45-112.38.48-167.61,6.1-56.73,27.33-271.22,47.46-310.09,26.42-51.03,76.43-61.74,119.7-52.37,43.27,9.37,84.7,34.4,128.32,38.95,43.61,4.54,93.41-18.55,111.3-76.99.91-3,1.73-6.02,2.44-9.06h168.28c23.17,19.61,37.46,43.66,35.56,69.3-1.85,25.08-18.59,50.44-8.27,74.44,10.53,24.5,46.93,39.06,82.27,42.2,35.34,3.13,70.86-2.6,106.24-5.54,45.76-3.81,100.21.04,124.87,28.06,21.44,24.37,10.74,56.14-.96,83.73-12.85,30.29-26.23,61.02-26.82,92.7-.59,31.68,13.55,65.06,47.3,85.36,10.08,6.06,21.39,10.6,33.42,13.72v142.94Z"/>
  </g>
</svg>